<?xml version="1.0" encoding="UTF-8" standalone="no"?>
<!DOCTYPE svg PUBLIC "-//W3C//DTD SVG 1.0//EN" "http://www.w3.org/TR/2001/REC-SVG-20010904/DTD/svg10.dtd">
<svg xmlns="http://www.w3.org/2000/svg" version="1.0" viewBox="0 0 972 1386">
<g stroke-width="2.00" fill="none" stroke-linecap="butt">
<path stroke="#007dc4" stroke-opacity="0.973" vector-effect="non-scaling-stroke" d="
  M 482.25 849.29
  L 482.46 853.25"
/>
<path stroke="#007cc4" stroke-opacity="0.957" vector-effect="non-scaling-stroke" d="
  M 482.46 853.25
  L 482.50 1029.58"
/>
<path stroke="#0080ca" stroke-opacity="0.988" vector-effect="non-scaling-stroke" d="
  M 482.50 1029.58
  Q 482.30 1030.55 483.00 1031.29"
/>
<path stroke="#007cc3" stroke-opacity="0.957" vector-effect="non-scaling-stroke" d="
  M 482.25 1148.04
  C 482.77 1151.77 481.98 1155.86 482.00 1158.90
  Q 482.33 1224.13 482.21 1263.94
  Q 482.20 1265.67 482.39 1266.78
  A 1.94 1.30 -48.3 0 1 482.26 1267.71
  Q 481.85 1268.72 482.79 1269.28
  A 1.32 0.98 -31.8 0 0 483.72 1269.36
  C 510.88 1261.96 538.16 1254.90 565.23 1247.21
  C 577.49 1243.74 591.38 1240.28 602.14 1237.29
  Q 642.68 1226.05 666.06 1220.04
  Q 666.78 1219.86 667.19 1219.63
  Q 667.85 1219.27 668.06 1219.22
  C 677.91 1216.87 689.93 1213.35 697.36 1211.37
  Q 739.23 1200.26 781.00 1188.68
  A 0.78 0.78 -2.9 0 0 781.57 1188.05
  C 782.61 1182.17 782.20 1176.48 782.90 1170.59
  C 784.78 1154.83 785.87 1138.86 787.21 1123.05
  Q 787.32 1121.76 787.85 1118.86
  C 788.48 1115.43 788.29 1110.76 788.55 1108.35
  Q 790.81 1086.78 791.51 1074.00
  Q 791.56 1073.16 791.75 1072.68
  Q 792.02 1071.99 792.03 1071.75
  Q 792.63 1059.93 794.03 1048.17
  Q 794.22 1046.61 794.18 1044.81
  C 794.10 1040.67 795.12 1036.47 795.36 1032.33
  C 796.12 1019.09 797.57 1005.72 798.76 992.50
  Q 804.52 928.54 810.33 864.57
  C 812.55 840.04 814.29 815.45 816.68 790.94
  C 816.83 789.36 817.08 780.49 817.68 779.69
  A 1.26 0.94 -31.3 0 0 817.93 779.07
  C 819.25 759.54 820.13 748.70 821.94 734.10
  C 822.40 730.40 822.17 726.35 822.63 722.98
  Q 823.07 719.74 823.59 716.50
  Q 823.96 714.24 824.01 712.01
  C 824.19 703.94 825.28 694.68 825.86 688.06
  Q 828.71 655.37 831.71 622.69
  Q 832.82 610.62 833.56 598.51
  Q 833.59 598.07 833.86 597.56
  C 834.55 596.25 834.15 594.64 834.23 593.58
  Q 834.90 584.53 835.99 575.53
  C 836.33 572.65 836.14 569.46 836.49 566.38
  C 838.32 550.55 839.29 534.61 840.80 518.75
  Q 841.94 506.73 847.49 443.50
  Q 847.28 443.13 847.45 442.86
  Q 847.86 442.25 847.87 442.06
  Q 849.33 419.87 851.29 397.73
  Q 851.66 393.59 852.47 389.35
  A 1.14 1.13 -84.5 0 0 851.36 388.00
  L 483.79 388.00
  A 1.40 1.40 4.9 0 0 482.41 389.16
  C 481.69 393.10 482.21 398.14 482.21 401.05
  Q 482.12 435.49 482.23 469.94
  Q 482.23 470.91 481.67 476.31
  Q 481.19 480.97 482.26 497.00
  A 1.79 0.75 43.4 0 0 482.64 497.86
  Q 483.28 498.72 482.00 499.46"
/>
</g>
<path fill="#000000" d="
  M 254.31 179.49
  A 0.77 0.76 0.0 0 0 255.08 180.25
  L 370.68 180.25
  A 0.31 0.31 0.0 0 1 370.99 180.56
  L 370.99 225.44
  A 0.31 0.30 -90.0 0 1 370.69 225.75
  L 209.06 225.75
  A 0.31 0.31 0.0 0 1 208.75 225.44
  L 208.75 53.81
  A 0.31 0.31 0.0 0 1 209.06 53.50
  L 370.68 53.50
  A 0.31 0.31 0.0 0 1 370.99 53.81
  L 370.99 98.69
  A 0.31 0.30 -90.0 0 1 370.69 99.00
  L 254.76 99.00
  A 0.49 0.49 89.9 0 0 254.27 99.49
  L 254.31 179.49
  Z"
/>
<path fill="#000000" d="
  M 442.56 119.19
  L 558.18 119.23
  A 0.32 0.32 -0.1 0 1 558.50 119.55
  L 558.50 225.44
  A 0.31 0.31 -90.0 0 1 558.19 225.75
  L 396.57 225.75
  A 0.30 0.30 0.0 0 1 396.27 225.45
  L 396.29 180.78
  A 0.51 0.51 0.0 0 1 396.80 180.27
  L 511.76 180.26
  A 0.95 0.93 0.0 0 0 512.71 179.33
  L 512.60 160.28
  A 0.52 0.50 0.0 0 0 512.08 159.78
  L 396.99 159.76
  A 0.74 0.73 -0.0 0 1 396.25 159.03
  L 396.25 53.82
  A 0.31 0.30 -0.0 0 1 396.56 53.52
  L 558.07 53.55
  A 0.50 0.49 90.0 0 1 558.56 54.05
  L 558.51 98.51
  A 0.49 0.49 -0.1 0 1 558.02 99.00
  L 442.55 99.01
  A 0.55 0.54 2.2 0 0 442.00 99.51
  Q 441.34 109.16 442.03 118.69
  A 0.53 0.53 88.3 0 0 442.56 119.19
  Z"
/>
<path fill="#000000" d="
  M 699.69 159.81
  L 584.07 159.77
  A 0.32 0.32 -0.1 0 1 583.75 159.45
  L 583.75 53.81
  A 0.31 0.31 -90.0 0 1 584.06 53.50
  L 745.68 53.50
  A 0.31 0.31 -0.0 0 1 745.99 53.81
  L 745.99 98.69
  A 0.31 0.31 -0.0 0 1 745.68 99.00
  L 630.27 99.00
  A 0.76 0.75 -90.0 0 0 629.52 99.76
  L 629.48 118.71
  A 0.54 0.54 90.0 0 0 630.02 119.25
  L 745.69 119.25
  A 0.31 0.31 -90.0 0 1 746.00 119.56
  L 746.00 225.44
  A 0.31 0.31 -90.0 0 1 745.69 225.75
  L 584.26 225.75
  A 0.50 0.49 0.0 0 1 583.76 225.26
  L 583.79 180.76
  A 0.51 0.50 -0.0 0 1 584.30 180.26
  L 699.13 180.25
  A 1.06 1.04 0.0 0 0 700.19 179.21
  L 700.19 160.30
  A 0.50 0.49 0.0 0 0 699.69 159.81
  Z"
/>
<path fill="#006ebe" d="
  M 481.27 1350.42
  C 354.94 1315.17 228.97 1279.98 102.90 1244.49
  A 0.75 0.74 5.3 0 1 102.36 1243.85
  Q 101.60 1236.51 100.97 1229.25
  Q 61.15 768.37 21.27 307.51
  A 0.47 0.47 87.8 0 1 21.74 307.00
  L 942.85 307.00
  A 0.66 0.66 -87.6 0 1 943.51 307.72
  L 862.54 1243.87
  A 0.71 0.70 -5.4 0 1 862.02 1244.49
  L 483.64 1350.42
  A 4.45 4.38 -44.6 0 1 481.27 1350.42
  Z
  M 482.00 499.46
  L 194.05 499.51
  A 0.46 0.45 87.7 0 0 193.60 500.01
  L 203.71 615.48
  A 0.55 0.54 -2.2 0 0 204.26 615.98
  Q 318.63 616.02 433.00 615.87
  Q 434.44 615.87 435.90 615.74
  A 0.59 0.37 -8.3 0 1 436.47 615.99
  C 436.57 616.29 232.82 718.00 213.84 727.51
  A 0.74 0.73 74.7 0 0 213.44 728.23
  L 223.98 848.74
  A 0.55 0.54 -2.2 0 0 224.53 849.24
  L 482.25 849.29
  L 482.46 853.25
  L 482.50 1029.58
  Q 482.30 1030.55 483.00 1031.29
  C 482.34 1031.94 366.48 999.48 355.40 996.42
  A 0.89 0.89 6.0 0 1 354.75 995.62
  L 348.48 905.65
  A 0.96 0.96 88.1 0 0 347.52 904.75
  L 229.36 904.75
  A 0.55 0.54 -2.4 0 0 228.81 905.34
  L 244.14 1081.44
  A 1.14 1.14 -84.9 0 0 244.97 1082.44
  L 482.25 1148.04
  C 482.77 1151.77 481.98 1155.86 482.00 1158.90
  Q 482.33 1224.13 482.21 1263.94
  Q 482.20 1265.67 482.39 1266.78
  A 1.94 1.30 -48.3 0 1 482.26 1267.71
  Q 481.85 1268.72 482.79 1269.28
  A 1.32 0.98 -31.8 0 0 483.72 1269.36
  C 510.88 1261.96 538.16 1254.90 565.23 1247.21
  C 577.49 1243.74 591.38 1240.28 602.14 1237.29
  Q 642.68 1226.05 666.06 1220.04
  Q 666.78 1219.86 667.19 1219.63
  Q 667.85 1219.27 668.06 1219.22
  C 677.91 1216.87 689.93 1213.35 697.36 1211.37
  Q 739.23 1200.26 781.00 1188.68
  A 0.78 0.78 -2.9 0 0 781.57 1188.05
  C 782.61 1182.17 782.20 1176.48 782.90 1170.59
  C 784.78 1154.83 785.87 1138.86 787.21 1123.05
  Q 787.32 1121.76 787.85 1118.86
  C 788.48 1115.43 788.29 1110.76 788.55 1108.35
  Q 790.81 1086.78 791.51 1074.00
  Q 791.56 1073.16 791.75 1072.68
  Q 792.02 1071.99 792.03 1071.75
  Q 792.63 1059.93 794.03 1048.17
  Q 794.22 1046.61 794.18 1044.81
  C 794.10 1040.67 795.12 1036.47 795.36 1032.33
  C 796.12 1019.09 797.57 1005.72 798.76 992.50
  Q 804.52 928.54 810.33 864.57
  C 812.55 840.04 814.29 815.45 816.68 790.94
  C 816.83 789.36 817.08 780.49 817.68 779.69
  A 1.26 0.94 -31.3 0 0 817.93 779.07
  C 819.25 759.54 820.13 748.70 821.94 734.10
  C 822.40 730.40 822.17 726.35 822.63 722.98
  Q 823.07 719.74 823.59 716.50
  Q 823.96 714.24 824.01 712.01
  C 824.19 703.94 825.28 694.68 825.86 688.06
  Q 828.71 655.37 831.71 622.69
  Q 832.82 610.62 833.56 598.51
  Q 833.59 598.07 833.86 597.56
  C 834.55 596.25 834.15 594.64 834.23 593.58
  Q 834.90 584.53 835.99 575.53
  C 836.33 572.65 836.14 569.46 836.49 566.38
  C 838.32 550.55 839.29 534.61 840.80 518.75
  Q 841.94 506.73 847.49 443.50
  Q 847.28 443.13 847.45 442.86
  Q 847.86 442.25 847.87 442.06
  Q 849.33 419.87 851.29 397.73
  Q 851.66 393.59 852.47 389.35
  A 1.14 1.13 -84.5 0 0 851.36 388.00
  L 483.79 388.00
  A 1.40 1.40 4.9 0 0 482.41 389.16
  C 481.69 393.10 482.21 398.14 482.21 401.05
  Q 482.12 435.49 482.23 469.94
  Q 482.23 470.91 481.67 476.31
  Q 481.19 480.97 482.26 497.00
  A 1.79 0.75 43.4 0 0 482.64 497.86
  Q 483.28 498.72 482.00 499.46
  Z"
/>
<path fill="#008cc9" fill-opacity="0.910" d="
  M 482.25 1148.04
  L 719.89 1082.36
  A 1.04 1.03 -5.3 0 0 720.65 1081.45
  L 750.96 732.98
  A 0.45 0.45 -87.7 0 0 750.51 732.49
  L 597.00 732.46
  Q 656.59 732.14 749.50 732.31
  Q 750.95 732.31 750.70 731.41
  A 0.75 0.61 -5.8 0 0 750.00 730.95
  Q 686.40 730.92 622.81 730.89
  C 594.77 730.88 566.46 732.27 538.46 730.84
  A 0.53 0.50 2.7 0 1 537.95 730.31
  Q 538.02 729.14 539.14 729.12
  A 0.79 0.74 -76.7 0 0 539.80 728.68
  Q 540.20 727.87 541.24 727.94
  A 0.46 0.45 -85.5 0 0 541.72 727.52
  Q 541.80 726.33 543.05 726.66
  A 0.33 0.31 -69.0 0 0 543.42 726.48
  L 543.54 726.22
  A 1.29 0.97 0.5 0 1 544.30 725.66
  C 548.63 724.48 550.83 721.73 554.98 721.25
  A 0.94 0.76 -77.9 0 0 555.64 720.72
  Q 556.07 719.80 557.16 719.89
  A 0.58 0.56 -78.5 0 0 557.75 719.49
  Q 558.03 718.64 559.07 719.01
  A 0.43 0.41 -73.0 0 0 559.60 718.71
  Q 559.89 717.71 561.05 717.92
  A 0.56 0.54 -73.9 0 0 561.66 717.57
  Q 562.02 716.68 563.03 717.03
  A 0.44 0.42 18.3 0 0 563.59 716.76
  Q 563.89 715.72 565.02 715.92
  A 0.85 0.76 -63.7 0 0 565.76 715.62
  Q 566.23 715.07 566.98 715.15
  A 0.84 0.76 19.1 0 0 567.73 714.83
  Q 568.89 713.13 571.06 712.99
  A 1.04 0.82 -71.8 0 0 571.77 712.52
  Q 572.28 711.71 573.39 711.94
  A 0.29 0.25 7.5 0 0 573.74 711.71
  L 573.76 711.41
  A 0.73 0.64 -10.6 0 1 574.22 710.82
  L 577.60 709.47
  A 1.61 1.03 -38.4 0 1 578.48 709.38
  Q 579.18 709.57 579.51 709.18
  Q 580.11 708.48 580.15 708.46
  Q 584.43 705.61 589.23 703.83
  Q 589.51 703.72 589.94 703.21
  Q 590.32 702.76 591.07 702.92
  A 0.78 0.70 -63.6 0 0 591.80 702.63
  Q 592.25 702.04 593.08 701.98
  A 0.77 0.69 -79.5 0 0 593.69 701.51
  Q 594.00 700.73 595.04 700.91
  A 0.70 0.65 -68.4 0 0 595.73 700.58
  Q 596.21 699.78 597.19 699.90
  A 0.60 0.56 -76.5 0 0 597.79 699.50
  Q 598.06 698.73 598.85 699.04
  A 0.76 0.46 26.0 0 0 599.62 698.97
  Q 599.77 698.77 599.81 698.49
  A 0.46 0.45 -83.9 0 1 600.29 698.09
  Q 601.05 698.14 601.43 697.62
  A 1.42 0.96 -70.2 0 1 602.16 697.09
  Q 603.57 696.78 605.60 695.35
  Q 607.03 694.34 612.98 692.33
  A 0.86 0.64 88.9 0 0 613.44 691.68
  C 613.46 691.53 618.61 688.75 618.94 688.60
  Q 623.90 686.46 628.72 684.01
  C 635.90 680.37 641.70 677.63 648.05 674.20
  A 1.75 0.85 17.9 0 1 648.97 674.07
  Q 649.49 674.12 649.67 673.80
  A 1.11 0.16 -61.2 0 1 650.21 673.08
  L 655.30 670.89
  A 0.71 0.64 80.8 0 0 655.69 670.29
  C 655.72 669.68 657.21 670.35 657.75 669.65
  A 0.81 0.65 -63.4 0 1 658.45 669.33
  Q 659.50 669.53 659.81 668.71
  A 0.76 0.71 -81.1 0 1 660.42 668.23
  Q 661.19 668.16 661.70 667.63
  A 0.97 0.92 -64.4 0 1 662.49 667.33
  Q 663.38 667.43 663.68 666.81
  A 1.53 0.68 -73.7 0 1 664.27 666.11
  Q 669.48 663.51 674.75 660.99
  Q 676.35 660.22 677.16 660.01
  A 0.98 0.97 -85.3 0 0 677.80 659.46
  Q 678.11 658.75 678.89 659.00
  A 0.70 0.64 27.5 0 0 679.63 658.80
  C 680.85 657.28 682.87 657.04 684.13 656.38
  Q 687.04 654.83 690.03 653.39
  A 1.38 0.94 32.5 0 1 690.94 653.36
  Q 691.92 653.66 692.38 652.72
  A 0.70 0.69 14.4 0 1 693.05 652.33
  Q 694.02 652.39 694.47 651.67
  A 0.39 0.36 34.7 0 1 695.02 651.59
  Q 695.72 652.12 696.67 651.58
  Q 697.05 651.37 697.30 651.01
  Q 697.70 650.40 697.78 649.58
  A 0.67 0.65 87.1 0 1 698.29 649.00
  Q 699.76 648.67 701.75 647.51
  Q 703.99 646.20 712.04 642.17
  A 1.71 0.75 16.8 0 1 712.97 642.06
  Q 713.70 642.12 713.87 641.46
  A 0.50 0.48 -78.5 0 1 714.42 641.08
  Q 715.34 641.24 715.72 640.66
  A 1.14 0.33 -59.9 0 1 716.38 640.03
  L 717.05 639.96
  A 0.99 0.87 10.7 0 0 717.76 639.54
  Q 718.18 638.91 719.05 638.95
  A 0.69 0.68 14.7 0 0 719.71 638.57
  Q 720.09 637.83 721.01 637.92
  A 0.75 0.74 -70.6 0 0 721.72 637.57
  Q 722.36 636.55 723.62 637.00
  A 0.63 0.59 26.9 0 0 724.33 636.79
  C 725.25 635.45 726.76 635.14 727.80 634.55
  C 730.56 632.98 734.12 630.79 737.18 630.01
  A 0.79 0.77 -89.1 0 0 737.74 629.45
  Q 737.91 628.80 738.51 628.59
  Q 738.79 628.50 739.04 628.35
  Q 741.13 627.13 743.09 627.06
  A 0.79 0.66 -76.9 0 0 743.72 626.58
  Q 744.11 625.69 745.30 626.00
  A 0.42 0.24 22.2 0 0 745.65 625.95
  Q 745.73 625.88 745.76 625.76
  A 0.71 0.36 -84.6 0 1 746.05 625.30
  L 760.78 618.16
  A 0.97 0.87 83.5 0 0 761.28 617.46
  Q 761.58 615.62 762.87 616.64
  A 0.38 0.34 30.0 0 0 763.44 616.52
  Q 764.11 614.70 762.85 613.35
  A 1.18 1.02 28.3 0 1 762.53 612.50
  L 762.81 608.38
  A 0.71 0.50 80.6 0 1 763.06 607.87
  L 763.33 607.70
  A 0.89 0.66 -20.6 0 0 763.76 607.03
  L 763.45 596.05
  Q 763.45 595.81 763.34 596.05
  Q 763.17 596.41 762.79 596.50
  L 771.23 499.81
  A 0.30 0.29 2.6 0 0 770.93 499.49
  L 482.00 499.46
  Q 483.28 498.72 482.64 497.86
  A 1.79 0.75 43.4 0 1 482.26 497.00
  Q 481.19 480.97 481.67 476.31
  Q 482.23 470.91 482.23 469.94
  Q 482.12 435.49 482.21 401.05
  C 482.21 398.14 481.69 393.10 482.41 389.16
  A 1.40 1.40 4.9 0 1 483.79 388.00
  L 851.36 388.00
  A 1.14 1.13 -84.5 0 1 852.47 389.35
  Q 851.66 393.59 851.29 397.73
  Q 849.33 419.87 847.87 442.06
  Q 847.86 442.25 847.45 442.86
  Q 847.28 443.13 847.49 443.50
  Q 841.94 506.73 840.80 518.75
  C 839.29 534.61 838.32 550.55 836.49 566.38
  C 836.14 569.46 836.33 572.65 835.99 575.53
  Q 834.90 584.53 834.23 593.58
  C 834.15 594.64 834.55 596.25 833.86 597.56
  Q 833.59 598.07 833.56 598.51
  Q 832.82 610.62 831.71 622.69
  Q 828.71 655.37 825.86 688.06
  C 825.28 694.68 824.19 703.94 824.01 712.01
  Q 823.96 714.24 823.59 716.50
  Q 823.07 719.74 822.63 722.98
  C 822.17 726.35 822.40 730.40 821.94 734.10
  C 820.13 748.70 819.25 759.54 817.93 779.07
  A 1.26 0.94 -31.3 0 1 817.68 779.69
  C 817.08 780.49 816.83 789.36 816.68 790.94
  C 814.29 815.45 812.55 840.04 810.33 864.57
  Q 804.52 928.54 798.76 992.50
  C 797.57 1005.72 796.12 1019.09 795.36 1032.33
  C 795.12 1036.47 794.10 1040.67 794.18 1044.81
  Q 794.22 1046.61 794.03 1048.17
  Q 792.63 1059.93 792.03 1071.75
  Q 792.02 1071.99 791.75 1072.68
  Q 791.56 1073.16 791.51 1074.00
  Q 790.81 1086.78 788.55 1108.35
  C 788.29 1110.76 788.48 1115.43 787.85 1118.86
  Q 787.32 1121.76 787.21 1123.05
  C 785.87 1138.86 784.78 1154.83 782.90 1170.59
  C 782.20 1176.48 782.61 1182.17 781.57 1188.05
  A 0.78 0.78 -2.9 0 1 781.00 1188.68
  Q 739.23 1200.26 697.36 1211.37
  C 689.93 1213.35 677.91 1216.87 668.06 1219.22
  Q 667.85 1219.27 667.19 1219.63
  Q 666.78 1219.86 666.06 1220.04
  Q 642.68 1226.05 602.14 1237.29
  C 591.38 1240.28 577.49 1243.74 565.23 1247.21
  C 538.16 1254.90 510.88 1261.96 483.72 1269.36
  A 1.32 0.98 -31.8 0 1 482.79 1269.28
  Q 481.85 1268.72 482.26 1267.71
  A 1.94 1.30 -48.3 0 0 482.39 1266.78
  Q 482.20 1265.67 482.21 1263.94
  Q 482.33 1224.13 482.00 1158.90
  C 481.98 1155.86 482.77 1151.77 482.25 1148.04
  Z"
/>
<path fill="#0090d3" fill-opacity="0.949" d="
  M 597.00 732.46
  L 530.13 732.49
  Q 528.16 732.49 529.93 731.61
  L 760.11 616.56
  A 1.73 1.62 -11.7 0 0 761.05 615.22
  L 762.79 596.50
  Q 763.17 596.41 763.34 596.05
  Q 763.45 595.81 763.45 596.05
  L 763.76 607.03
  A 0.89 0.66 -20.6 0 1 763.33 607.70
  L 763.06 607.87
  A 0.71 0.50 80.6 0 0 762.81 608.38
  L 762.53 612.50
  A 1.18 1.02 28.3 0 0 762.85 613.35
  Q 764.11 614.70 763.44 616.52
  A 0.38 0.34 30.0 0 1 762.87 616.64
  Q 761.58 615.62 761.28 617.46
  A 0.97 0.87 83.5 0 1 760.78 618.16
  L 746.05 625.30
  A 0.71 0.36 -84.6 0 0 745.76 625.76
  Q 745.73 625.88 745.65 625.95
  A 0.42 0.24 22.2 0 1 745.30 626.00
  Q 744.11 625.69 743.72 626.58
  A 0.79 0.66 -76.9 0 1 743.09 627.06
  Q 741.13 627.13 739.04 628.35
  Q 738.79 628.50 738.51 628.59
  Q 737.91 628.80 737.74 629.45
  A 0.79 0.77 -89.1 0 1 737.18 630.01
  C 734.12 630.79 730.56 632.98 727.80 634.55
  C 726.76 635.14 725.25 635.45 724.33 636.79
  A 0.63 0.59 26.9 0 1 723.62 637.00
  Q 722.36 636.55 721.72 637.57
  A 0.75 0.74 -70.6 0 1 721.01 637.92
  Q 720.09 637.83 719.71 638.57
  A 0.69 0.68 14.7 0 1 719.05 638.95
  Q 718.18 638.91 717.76 639.54
  A 0.99 0.87 10.7 0 1 717.05 639.96
  L 716.38 640.03
  A 1.14 0.33 -59.9 0 0 715.72 640.66
  Q 715.34 641.24 714.42 641.08
  A 0.50 0.48 -78.5 0 0 713.87 641.46
  Q 713.70 642.12 712.97 642.06
  A 1.71 0.75 16.8 0 0 712.04 642.17
  Q 703.99 646.20 701.75 647.51
  Q 699.76 648.67 698.29 649.00
  A 0.67 0.65 87.1 0 0 697.78 649.58
  Q 697.70 650.40 697.30 651.01
  Q 697.05 651.37 696.67 651.58
  Q 695.72 652.12 695.02 651.59
  A 0.39 0.36 34.7 0 0 694.47 651.67
  Q 694.02 652.39 693.05 652.33
  A 0.70 0.69 14.4 0 0 692.38 652.72
  Q 691.92 653.66 690.94 653.36
  A 1.38 0.94 32.5 0 0 690.03 653.39
  Q 687.04 654.83 684.13 656.38
  C 682.87 657.04 680.85 657.28 679.63 658.80
  A 0.70 0.64 27.5 0 1 678.89 659.00
  Q 678.11 658.75 677.80 659.46
  A 0.98 0.97 -85.3 0 1 677.16 660.01
  Q 676.35 660.22 674.75 660.99
  Q 669.48 663.51 664.27 666.11
  A 1.53 0.68 -73.7 0 0 663.68 666.81
  Q 663.38 667.43 662.49 667.33
  A 0.97 0.92 -64.4 0 0 661.70 667.63
  Q 661.19 668.16 660.42 668.23
  A 0.76 0.71 -81.1 0 0 659.81 668.71
  Q 659.50 669.53 658.45 669.33
  A 0.81 0.65 -63.4 0 0 657.75 669.65
  C 657.21 670.35 655.72 669.68 655.69 670.29
  A 0.71 0.64 80.8 0 1 655.30 670.89
  L 650.21 673.08
  A 1.11 0.16 -61.2 0 0 649.67 673.80
  Q 649.49 674.12 648.97 674.07
  A 1.75 0.85 17.9 0 0 648.05 674.20
  C 641.70 677.63 635.90 680.37 628.72 684.01
  Q 623.90 686.46 618.94 688.60
  C 618.61 688.75 613.46 691.53 613.44 691.68
  A 0.86 0.64 88.9 0 1 612.98 692.33
  Q 607.03 694.34 605.60 695.35
  Q 603.57 696.78 602.16 697.09
  A 1.42 0.96 -70.2 0 0 601.43 697.62
  Q 601.05 698.14 600.29 698.09
  A 0.46 0.45 -83.9 0 0 599.81 698.49
  Q 599.77 698.77 599.62 698.97
  A 0.76 0.46 26.0 0 1 598.85 699.04
  Q 598.06 698.73 597.79 699.50
  A 0.60 0.56 -76.5 0 1 597.19 699.90
  Q 596.21 699.78 595.73 700.58
  A 0.70 0.65 -68.4 0 1 595.04 700.91
  Q 594.00 700.73 593.69 701.51
  A 0.77 0.69 -79.5 0 1 593.08 701.98
  Q 592.25 702.04 591.80 702.63
  A 0.78 0.70 -63.6 0 1 591.07 702.92
  Q 590.32 702.76 589.94 703.21
  Q 589.51 703.72 589.23 703.83
  Q 584.43 705.61 580.15 708.46
  Q 580.11 708.48 579.51 709.18
  Q 579.18 709.57 578.48 709.38
  A 1.61 1.03 -38.4 0 0 577.60 709.47
  L 574.22 710.82
  A 0.73 0.64 -10.6 0 0 573.76 711.41
  L 573.74 711.71
  A 0.29 0.25 7.5 0 1 573.39 711.94
  Q 572.28 711.71 571.77 712.52
  A 1.04 0.82 -71.8 0 1 571.06 712.99
  Q 568.89 713.13 567.73 714.83
  A 0.84 0.76 19.1 0 1 566.98 715.15
  Q 566.23 715.07 565.76 715.62
  A 0.85 0.76 -63.7 0 1 565.02 715.92
  Q 563.89 715.72 563.59 716.76
  A 0.44 0.42 18.3 0 1 563.03 717.03
  Q 562.02 716.68 561.66 717.57
  A 0.56 0.54 -73.9 0 1 561.05 717.92
  Q 559.89 717.71 559.60 718.71
  A 0.43 0.41 -73.0 0 1 559.07 719.01
  Q 558.03 718.64 557.75 719.49
  A 0.58 0.56 -78.5 0 1 557.16 719.89
  Q 556.07 719.80 555.64 720.72
  A 0.94 0.76 -77.9 0 1 554.98 721.25
  C 550.83 721.73 548.63 724.48 544.30 725.66
  A 1.29 0.97 0.5 0 0 543.54 726.22
  L 543.42 726.48
  A 0.33 0.31 -69.0 0 1 543.05 726.66
  Q 541.80 726.33 541.72 727.52
  A 0.46 0.45 -85.5 0 1 541.24 727.94
  Q 540.20 727.87 539.80 728.68
  A 0.79 0.74 -76.7 0 1 539.14 729.12
  Q 538.02 729.14 537.95 730.31
  A 0.53 0.50 2.7 0 0 538.46 730.84
  C 566.46 732.27 594.77 730.88 622.81 730.89
  Q 686.40 730.92 750.00 730.95
  A 0.75 0.61 -5.8 0 1 750.70 731.41
  Q 750.95 732.31 749.50 732.31
  Q 656.59 732.14 597.00 732.46
  Z"
/>
<path fill="#008ccb" fill-opacity="0.945" d="
  M 482.25 849.29
  L 619.68 849.31
  A 0.47 0.46 2.2 0 1 620.15 849.81
  L 610.21 991.00
  Q 609.77 990.24 609.85 989.28
  Q 609.89 988.84 609.70 989.22
  C 608.41 991.70 609.60 994.68 606.29 995.50
  L 607.49 993.99
  A 1.48 0.42 -45.9 0 0 607.93 993.17
  Q 608.63 986.45 608.54 979.67
  C 608.50 976.37 609.81 973.34 609.72 969.80
  C 609.60 965.29 609.99 962.50 610.60 958.66
  Q 610.71 957.97 610.33 956.20
  Q 609.64 953.04 610.46 949.93
  A 0.45 0.30 -61.6 0 0 610.43 949.59
  L 610.33 949.44
  A 0.53 0.41 47.0 0 1 610.28 948.90
  Q 611.41 947.30 611.37 945.41
  C 611.33 943.14 611.45 941.22 611.17 939.17
  A 1.74 1.66 -37.2 0 1 611.32 938.24
  Q 612.36 936.00 611.91 933.52
  Q 611.76 932.71 612.22 932.51
  A 0.67 0.46 -19.0 0 0 612.64 931.95
  C 611.89 927.44 612.73 923.39 612.17 919.32
  A 0.93 0.79 -26.5 0 1 612.50 918.55
  Q 613.28 917.90 613.07 916.72
  A 0.74 0.73 -22.5 0 1 613.38 915.99
  Q 614.21 915.40 613.62 914.54
  A 1.15 1.01 36.8 0 1 613.44 913.69
  Q 613.74 912.40 613.25 911.22
  A 1.63 1.24 47.9 0 1 613.17 910.28
  C 614.51 905.60 614.51 901.53 614.48 896.38
  C 614.46 892.49 615.32 888.84 615.85 885.00
  A 1.97 1.44 44.7 0 0 615.70 884.06
  Q 614.87 882.22 615.35 880.22
  A 1.80 1.75 44.1 0 0 615.32 879.26
  Q 614.83 877.77 615.16 876.21
  Q 615.24 875.82 615.35 876.22
  Q 615.49 876.70 615.83 876.72
  A 0.71 0.49 -83.5 0 0 616.38 876.09
  Q 616.76 873.23 616.31 870.42
  Q 615.66 866.41 615.88 865.00
  Q 616.30 862.20 617.65 859.60
  A 0.23 0.19 -58.0 0 0 617.61 859.33
  L 617.46 859.22
  A 0.65 0.62 -73.9 0 1 617.20 858.72
  L 617.17 855.91
  A 0.81 0.59 11.4 0 0 616.60 855.29
  Q 615.37 854.88 616.48 854.37
  A 1.10 0.78 -11.5 0 0 617.09 853.72
  Q 617.31 852.72 616.53 853.00
  A 0.32 0.31 -12.0 0 1 616.10 852.73
  L 616.03 851.75
  A 0.61 0.52 -2.0 0 0 615.43 851.27
  L 483.06 851.27
  A 0.53 0.52 1.1 0 0 482.53 851.77
  L 482.46 853.25
  L 482.25 849.29
  Z"
/>
<path fill="#008cca" fill-opacity="0.910" d="
  M 606.29 995.50
  Q 590.07 1000.54 573.63 1004.80
  C 571.27 1005.41 568.91 1006.66 566.31 1007.29
  C 562.75 1008.14 559.84 1009.24 556.25 1010.01
  Q 548.58 1011.65 538.00 1014.99
  C 537.01 1015.30 536.16 1015.12 535.09 1015.62
  C 531.78 1017.16 527.35 1018.07 524.87 1018.81
  Q 521.61 1019.78 518.32 1020.59
  Q 500.46 1025.00 482.50 1029.58
  L 482.46 853.25
  L 482.53 851.77
  A 0.53 0.52 1.1 0 1 483.06 851.27
  L 615.43 851.27
  A 0.61 0.52 -2.0 0 1 616.03 851.75
  L 616.10 852.73
  A 0.32 0.31 -12.0 0 0 616.53 853.00
  Q 617.31 852.72 617.09 853.72
  A 1.10 0.78 -11.5 0 1 616.48 854.37
  Q 615.37 854.88 616.60 855.29
  A 0.81 0.59 11.4 0 1 617.17 855.91
  L 617.20 858.72
  A 0.65 0.62 -73.9 0 0 617.46 859.22
  L 617.61 859.33
  A 0.23 0.19 -58.0 0 1 617.65 859.60
  Q 616.30 862.20 615.88 865.00
  Q 615.66 866.41 616.31 870.42
  Q 616.76 873.23 616.38 876.09
  A 0.71 0.49 -83.5 0 1 615.83 876.72
  Q 615.49 876.70 615.35 876.22
  Q 615.24 875.82 615.16 876.21
  Q 614.83 877.77 615.32 879.26
  A 1.80 1.75 44.1 0 1 615.35 880.22
  Q 614.87 882.22 615.70 884.06
  A 1.97 1.44 44.7 0 1 615.85 885.00
  C 615.32 888.84 614.46 892.49 614.48 896.38
  C 614.51 901.53 614.51 905.60 613.17 910.28
  A 1.63 1.24 47.9 0 0 613.25 911.22
  Q 613.74 912.40 613.44 913.69
  A 1.15 1.01 36.8 0 0 613.62 914.54
  Q 614.21 915.40 613.38 915.99
  A 0.74 0.73 -22.5 0 0 613.07 916.72
  Q 613.28 917.90 612.50 918.55
  A 0.93 0.79 -26.5 0 0 612.17 919.32
  C 612.73 923.39 611.89 927.44 612.64 931.95
  A 0.67 0.46 -19.0 0 1 612.22 932.51
  Q 611.76 932.71 611.91 933.52
  Q 612.36 936.00 611.32 938.24
  A 1.74 1.66 -37.2 0 0 611.17 939.17
  C 611.45 941.22 611.33 943.14 611.37 945.41
  Q 611.41 947.30 610.28 948.90
  A 0.53 0.41 47.0 0 0 610.33 949.44
  L 610.43 949.59
  A 0.45 0.30 -61.6 0 1 610.46 949.93
  Q 609.64 953.04 610.33 956.20
  Q 610.71 957.97 610.60 958.66
  C 609.99 962.50 609.60 965.29 609.72 969.80
  C 609.81 973.34 608.50 976.37 608.54 979.67
  Q 608.63 986.45 607.93 993.17
  A 1.48 0.42 -45.9 0 1 607.49 993.99
  L 606.29 995.50
  Z"
/>
<path fill="#0193d6" fill-opacity="0.976" d="
  M 610.21 991.00
  L 610.04 995.71
  A 0.79 0.62 -8.3 0 1 609.46 996.32
  L 483.00 1031.29
  Q 482.30 1030.55 482.50 1029.58
  Q 500.46 1025.00 518.32 1020.59
  Q 521.61 1019.78 524.87 1018.81
  C 527.35 1018.07 531.78 1017.16 535.09 1015.62
  C 536.16 1015.12 537.01 1015.30 538.00 1014.99
  Q 548.58 1011.65 556.25 1010.01
  C 559.84 1009.24 562.75 1008.14 566.31 1007.29
  C 568.91 1006.66 571.27 1005.41 573.63 1004.80
  Q 590.07 1000.54 606.29 995.50
  C 609.60 994.68 608.41 991.70 609.70 989.22
  Q 609.89 988.84 609.85 989.28
  Q 609.77 990.24 610.21 991.00
  Z"
/>
</svg>
