<?xml version="1.0" encoding="UTF-8" standalone="no"?>
<!DOCTYPE svg PUBLIC "-//W3C//DTD SVG 1.0//EN" "http://www.w3.org/TR/2001/REC-SVG-20010904/DTD/svg10.dtd">
<svg xmlns="http://www.w3.org/2000/svg" version="1.0" viewBox="0 0 512 512">
<g stroke-width="2.00" fill="none" stroke-linecap="butt">
<path stroke="#79afd9" vector-effect="non-scaling-stroke" d="
  M 509.96 223.75
  Q 484.14 213.71 456.82 218.24
  A 0.56 0.55 80.3 0 1 456.18 217.78
  C 453.13 198.91 443.07 169.58 421.82 164.69
  A 2.09 2.08 28.1 0 0 419.83 165.29
  C 398.06 188.36 394.96 220.28 407.29 248.86
  Q 408.66 252.03 405.61 253.66
  C 394.92 259.35 383.62 258.74 371.94 258.76
  Q 213.84 259.02 55.60 258.99
  A 0.52 0.52 -88.2 0 0 55.08 259.48
  C 52.11 297.48 59.34 339.91 80.81 371.69
  C 107.25 410.83 151.43 424.24 196.69 426.08
  Q 230.94 427.47 262.26 421.82
  C 339.21 407.95 427.07 360.20 446.87 277.43
  A 1.82 1.82 -82.8 0 1 448.66 276.04
  C 472.08 276.28 496.12 269.17 512.00 251.81"
/>
<path stroke="#79afd9" vector-effect="non-scaling-stroke" d="
  M 306.01 102.02
  A 0.27 0.27 0.0 0 0 305.74 101.75
  L 261.02 101.75
  A 0.27 0.27 0.0 0 0 260.75 102.02
  L 260.75 142.74
  A 0.27 0.27 0.0 0 0 261.02 143.01
  L 305.74 143.01
  A 0.27 0.27 0.0 0 0 306.01 142.74
  L 306.01 102.02"
/>
<path stroke="#79afd9" vector-effect="non-scaling-stroke" d="
  M 191.9547 154.9806
  A 0.52 0.52 0.0 0 0 191.4338 154.4615
  L 147.2339 154.5386
  A 0.52 0.52 0.0 0 0 146.7148 155.0595
  L 146.7853 195.4394
  A 0.52 0.52 0.0 0 0 147.3062 195.9585
  L 191.5061 195.8814
  A 0.52 0.52 0.0 0 0 192.0252 195.3605
  L 191.9547 154.9806"
/>
<path stroke="#79afd9" vector-effect="non-scaling-stroke" d="
  M 249.01 155.10
  A 0.60 0.60 0.0 0 0 248.41 154.50
  L 204.35 154.50
  A 0.60 0.60 0.0 0 0 203.75 155.10
  L 203.75 195.40
  A 0.60 0.60 0.0 0 0 204.35 196.00
  L 248.41 196.00
  A 0.60 0.60 0.0 0 0 249.01 195.40
  L 249.01 155.10"
/>
<path stroke="#79afd9" vector-effect="non-scaling-stroke" d="
  M 305.99 155.01
  A 0.51 0.51 0.0 0 0 305.48 154.50
  L 261.26 154.50
  A 0.51 0.51 0.0 0 0 260.75 155.01
  L 260.75 195.49
  A 0.51 0.51 0.0 0 0 261.26 196.00
  L 305.48 196.00
  A 0.51 0.51 0.0 0 0 305.99 195.49
  L 305.99 155.01"
/>
<path stroke="#79afd9" vector-effect="non-scaling-stroke" d="
  M 135.00 207.77
  A 0.27 0.27 0.0 0 0 134.73 207.50
  L 89.77 207.50
  A 0.27 0.27 0.0 0 0 89.50 207.77
  L 89.50 248.47
  A 0.27 0.27 0.0 0 0 89.77 248.74
  L 134.73 248.74
  A 0.27 0.27 0.0 0 0 135.00 248.47
  L 135.00 207.77"
/>
<path stroke="#79afd9" vector-effect="non-scaling-stroke" d="
  M 192.01 207.77
  A 0.27 0.27 0.0 0 0 191.74 207.50
  L 147.02 207.50
  A 0.27 0.27 0.0 0 0 146.75 207.77
  L 146.75 248.49
  A 0.27 0.27 0.0 0 0 147.02 248.76
  L 191.74 248.76
  A 0.27 0.27 0.0 0 0 192.01 248.49
  L 192.01 207.77"
/>
<path stroke="#79afd9" vector-effect="non-scaling-stroke" d="
  M 249.01 207.77
  A 0.27 0.27 0.0 0 0 248.74 207.50
  L 204.02 207.50
  A 0.27 0.27 0.0 0 0 203.75 207.77
  L 203.75 248.49
  A 0.27 0.27 0.0 0 0 204.02 248.76
  L 248.74 248.76
  A 0.27 0.27 0.0 0 0 249.01 248.49
  L 249.01 207.77"
/>
<path stroke="#79afd9" vector-effect="non-scaling-stroke" d="
  M 306.01 207.77
  A 0.27 0.27 0.0 0 0 305.74 207.50
  L 261.02 207.50
  A 0.27 0.27 0.0 0 0 260.75 207.77
  L 260.75 248.49
  A 0.27 0.27 0.0 0 0 261.02 248.76
  L 305.74 248.76
  A 0.27 0.27 0.0 0 0 306.01 248.49
  L 306.01 207.77"
/>
<path stroke="#79afd9" vector-effect="non-scaling-stroke" d="
  M 363.0344 207.7305
  A 0.27 0.27 0.0 0 0 362.7640 207.4610
  L 317.9840 207.5391
  A 0.27 0.27 0.0 0 0 317.7145 207.8096
  L 317.7856 248.5095
  A 0.27 0.27 0.0 0 0 318.0560 248.7790
  L 362.8360 248.7009
  A 0.27 0.27 0.0 0 0 363.1055 248.4304
  L 363.0344 207.7305"
/>
</g>
<path fill="#006bc0" d="
  M 252.31 0.00
  L 260.31 0.00
  C 389.14 3.63 492.24 96.24 509.96 223.75
  Q 484.14 213.71 456.82 218.24
  A 0.56 0.55 80.3 0 1 456.18 217.78
  C 453.13 198.91 443.07 169.58 421.82 164.69
  A 2.09 2.08 28.1 0 0 419.83 165.29
  C 398.06 188.36 394.96 220.28 407.29 248.86
  Q 408.66 252.03 405.61 253.66
  C 394.92 259.35 383.62 258.74 371.94 258.76
  Q 213.84 259.02 55.60 258.99
  A 0.52 0.52 -88.2 0 0 55.08 259.48
  C 52.11 297.48 59.34 339.91 80.81 371.69
  C 107.25 410.83 151.43 424.24 196.69 426.08
  Q 230.94 427.47 262.26 421.82
  C 339.21 407.95 427.07 360.20 446.87 277.43
  A 1.82 1.82 -82.8 0 1 448.66 276.04
  C 472.08 276.28 496.12 269.17 512.00 251.81
  L 512.00 260.31
  C 508.47 399.23 398.51 509.71 258.94 512.00
  L 253.44 512.00
  C 113.19 509.75 3.19 399.01 0.00 259.44
  L 0.00 253.19
  C 2.37 113.52 112.86 3.07 252.31 0.00
  Z
  M 306.01 102.02
  A 0.27 0.27 0.0 0 0 305.74 101.75
  L 261.02 101.75
  A 0.27 0.27 0.0 0 0 260.75 102.02
  L 260.75 142.74
  A 0.27 0.27 0.0 0 0 261.02 143.01
  L 305.74 143.01
  A 0.27 0.27 0.0 0 0 306.01 142.74
  L 306.01 102.02
  Z
  M 191.9547 154.9806
  A 0.52 0.52 0.0 0 0 191.4338 154.4615
  L 147.2339 154.5386
  A 0.52 0.52 0.0 0 0 146.7148 155.0595
  L 146.7853 195.4394
  A 0.52 0.52 0.0 0 0 147.3062 195.9585
  L 191.5061 195.8814
  A 0.52 0.52 0.0 0 0 192.0252 195.3605
  L 191.9547 154.9806
  Z
  M 249.01 155.10
  A 0.60 0.60 0.0 0 0 248.41 154.50
  L 204.35 154.50
  A 0.60 0.60 0.0 0 0 203.75 155.10
  L 203.75 195.40
  A 0.60 0.60 0.0 0 0 204.35 196.00
  L 248.41 196.00
  A 0.60 0.60 0.0 0 0 249.01 195.40
  L 249.01 155.10
  Z
  M 305.99 155.01
  A 0.51 0.51 0.0 0 0 305.48 154.50
  L 261.26 154.50
  A 0.51 0.51 0.0 0 0 260.75 155.01
  L 260.75 195.49
  A 0.51 0.51 0.0 0 0 261.26 196.00
  L 305.48 196.00
  A 0.51 0.51 0.0 0 0 305.99 195.49
  L 305.99 155.01
  Z
  M 135.00 207.77
  A 0.27 0.27 0.0 0 0 134.73 207.50
  L 89.77 207.50
  A 0.27 0.27 0.0 0 0 89.50 207.77
  L 89.50 248.47
  A 0.27 0.27 0.0 0 0 89.77 248.74
  L 134.73 248.74
  A 0.27 0.27 0.0 0 0 135.00 248.47
  L 135.00 207.77
  Z
  M 192.01 207.77
  A 0.27 0.27 0.0 0 0 191.74 207.50
  L 147.02 207.50
  A 0.27 0.27 0.0 0 0 146.75 207.77
  L 146.75 248.49
  A 0.27 0.27 0.0 0 0 147.02 248.76
  L 191.74 248.76
  A 0.27 0.27 0.0 0 0 192.01 248.49
  L 192.01 207.77
  Z
  M 249.01 207.77
  A 0.27 0.27 0.0 0 0 248.74 207.50
  L 204.02 207.50
  A 0.27 0.27 0.0 0 0 203.75 207.77
  L 203.75 248.49
  A 0.27 0.27 0.0 0 0 204.02 248.76
  L 248.74 248.76
  A 0.27 0.27 0.0 0 0 249.01 248.49
  L 249.01 207.77
  Z
  M 306.01 207.77
  A 0.27 0.27 0.0 0 0 305.74 207.50
  L 261.02 207.50
  A 0.27 0.27 0.0 0 0 260.75 207.77
  L 260.75 248.49
  A 0.27 0.27 0.0 0 0 261.02 248.76
  L 305.74 248.76
  A 0.27 0.27 0.0 0 0 306.01 248.49
  L 306.01 207.77
  Z
  M 363.0344 207.7305
  A 0.27 0.27 0.0 0 0 362.7640 207.4610
  L 317.9840 207.5391
  A 0.27 0.27 0.0 0 0 317.7145 207.8096
  L 317.7856 248.5095
  A 0.27 0.27 0.0 0 0 318.0560 248.7790
  L 362.8360 248.7009
  A 0.27 0.27 0.0 0 0 363.1055 248.4304
  L 363.0344 207.7305
  Z"
/>
<rect fill="#f2f2f2" x="260.75" y="101.75" width="45.26" height="41.26" rx="0.27"/>
<rect fill="#f2f2f2" x="-22.62" y="-20.71" transform="translate(169.37,175.21) rotate(-0.1)" width="45.24" height="41.42" rx="0.52"/>
<rect fill="#f2f2f2" x="203.75" y="154.50" width="45.26" height="41.50" rx="0.60"/>
<rect fill="#f2f2f2" x="260.75" y="154.50" width="45.24" height="41.50" rx="0.51"/>
<path fill="#f2f2f2" d="
  M 509.96 223.75
  Q 511.51 235.23 512.00 246.81
  L 512.00 251.81
  C 496.12 269.17 472.08 276.28 448.66 276.04
  A 1.82 1.82 -82.8 0 0 446.87 277.43
  C 427.07 360.20 339.21 407.95 262.26 421.82
  Q 230.94 427.47 196.69 426.08
  C 151.43 424.24 107.25 410.83 80.81 371.69
  C 59.34 339.91 52.11 297.48 55.08 259.48
  A 0.52 0.52 -88.2 0 1 55.60 258.99
  Q 213.84 259.02 371.94 258.76
  C 383.62 258.74 394.92 259.35 405.61 253.66
  Q 408.66 252.03 407.29 248.86
  C 394.96 220.28 398.06 188.36 419.83 165.29
  A 2.09 2.08 28.1 0 1 421.82 164.69
  C 443.07 169.58 453.13 198.91 456.18 217.78
  A 0.56 0.55 80.3 0 0 456.82 218.24
  Q 484.14 213.71 509.96 223.75
  Z"
/>
<rect fill="#f2f2f2" x="89.50" y="207.50" width="45.50" height="41.24" rx="0.27"/>
<rect fill="#f2f2f2" x="146.75" y="207.50" width="45.26" height="41.26" rx="0.27"/>
<rect fill="#f2f2f2" x="203.75" y="207.50" width="45.26" height="41.26" rx="0.27"/>
<rect fill="#f2f2f2" x="260.75" y="207.50" width="45.26" height="41.26" rx="0.27"/>
<rect fill="#f2f2f2" x="-22.66" y="-20.62" transform="translate(340.41,228.12) rotate(-0.1)" width="45.32" height="41.24" rx="0.27"/>
</svg>
