<?xml version="1.0" encoding="UTF-8" standalone="no"?>
<!DOCTYPE svg PUBLIC "-//W3C//DTD SVG 1.0//EN" "http://www.w3.org/TR/2001/REC-SVG-20010904/DTD/svg10.dtd">
<svg xmlns="http://www.w3.org/2000/svg" version="1.0" viewBox="0 0 1024 1024">
<g stroke-width="2.00" fill="none" stroke-linecap="butt">
<path stroke="#d86c6c" stroke-opacity="0.855" vector-effect="non-scaling-stroke" d="
  M 450.71 428.75
  Q 450.38 426.57 448.63 425.56
  A 1.60 1.55 3.1 0 1 447.98 424.86
  Q 446.99 422.66 444.60 422.00
  A 0.71 0.70 -85.2 0 1 444.09 421.39
  Q 443.86 419.12 441.61 418.67
  A 0.62 0.62 -86.4 0 1 441.11 418.10
  Q 440.96 415.82 438.64 415.86
  A 0.56 0.55 -4.7 0 1 438.08 415.39
  Q 437.73 413.06 435.50 412.38
  A 1.07 1.00 86.2 0 1 434.85 411.77
  Q 434.31 410.47 432.99 409.90
  A 1.55 1.31 0.4 0 1 432.29 409.30
  C 431.46 407.88 424.40 400.26 422.79 399.83
  A 0.88 0.87 89.3 0 1 422.19 399.24
  Q 421.63 397.25 419.65 396.69
  A 0.85 0.84 -89.5 0 1 419.06 396.08
  Q 418.55 394.15 416.51 393.80
  A 0.70 0.67 89.1 0 1 415.96 393.24
  Q 415.54 390.95 413.00 391.29"
/>
<path stroke="#d86c6c" stroke-opacity="0.855" vector-effect="non-scaling-stroke" d="
  M 409.34 387.87
  Q 409.52 384.71 406.81 384.25
  A 0.87 0.85 83.6 0 1 406.16 383.72
  Q 405.73 382.63 404.75 381.96"
/>
<path stroke="#e06f70" stroke-opacity="0.902" vector-effect="non-scaling-stroke" d="
  M 404.75 381.96
  Q 403.00 379.13 400.04 377.75"
/>
<path stroke="#d86c6c" stroke-opacity="0.855" vector-effect="non-scaling-stroke" d="
  M 400.04 377.75
  Q 399.39 375.33 397.00 374.79"
/>
<path stroke="#e06f70" stroke-opacity="0.902" vector-effect="non-scaling-stroke" d="
  M 397.00 374.79
  Q 396.93 372.46 395.04 372.03
  A 1.31 1.03 -4.8 0 1 394.29 371.54
  C 390.72 366.03 384.97 362.26 380.78 357.29
  Q 379.67 355.97 378.18 354.98
  Q 377.87 354.77 377.86 355.19
  L 377.84 356.38"
/>
<path stroke="#d86c6c" stroke-opacity="0.855" vector-effect="non-scaling-stroke" d="
  M 362.46 340.75
  Q 362.24 337.65 359.56 336.88
  A 0.80 0.77 -87.9 0 1 359.01 336.26
  Q 358.80 335.27 358.09 334.59
  A 1.43 0.69 -6.6 0 0 357.22 334.29
  C 354.96 334.16 356.60 330.90 353.00 330.71"
/>
<path stroke="#e06f70" stroke-opacity="0.902" vector-effect="non-scaling-stroke" d="
  M 353.00 330.71
  Q 352.56 327.69 349.50 327.79"
/>
<path stroke="#e06f70" stroke-opacity="0.902" vector-effect="non-scaling-stroke" d="
  M 346.25 324.46
  Q 344.42 319.91 340.25 317.29"
/>
<path stroke="#d86c6c" stroke-opacity="0.855" vector-effect="non-scaling-stroke" d="
  M 340.25 317.29
  Q 339.91 315.25 337.94 314.64
  A 0.90 0.86 2.2 0 1 337.35 314.03
  Q 336.85 312.11 334.97 311.66
  A 0.89 0.87 -3.0 0 1 334.34 311.10
  Q 333.59 309.03 331.56 308.33
  A 1.12 1.06 87.5 0 1 330.92 307.71
  Q 330.34 306.32 328.94 305.70
  A 1.62 1.31 1.7 0 1 328.23 305.09
  C 326.21 301.72 323.06 300.18 320.39 296.53
  A 1.18 0.93 -10.8 0 0 319.60 296.12
  Q 318.36 295.99 318.07 294.73
  A 1.68 0.79 32.0 0 0 317.58 293.97
  L 314.36 290.80
  A 1.82 0.76 55.4 0 0 313.57 290.29
  Q 311.90 289.89 311.45 288.21
  A 1.58 1.18 -85.5 0 0 310.95 287.42
  C 306.93 284.35 304.47 280.25 299.96 277.75"
/>
<path stroke="#e06f70" stroke-opacity="0.902" vector-effect="non-scaling-stroke" d="
  M 299.96 277.75
  Q 299.06 274.89 296.25 273.79"
/>
<path stroke="#d86c6c" stroke-opacity="0.855" vector-effect="non-scaling-stroke" d="
  M 296.25 273.79
  Q 295.42 271.59 293.30 270.79
  A 0.78 0.76 -82.3 0 1 292.81 270.13
  Q 292.61 268.11 290.44 267.83
  A 0.67 0.66 88.2 0 1 289.87 267.29
  Q 289.39 264.76 286.50 264.79"
/>
<path stroke="#e9d275" stroke-opacity="0.902" vector-effect="non-scaling-stroke" d="
  M 484.71 599.75
  Q 484.67 598.70 484.20 598.57
  A 0.88 0.88 -79.6 0 0 483.10 599.33
  Q 481.23 616.51 482.45 632.01
  Q 482.55 633.31 484.24 633.40
  A 0.21 0.20 4.4 0 0 484.46 633.22
  Q 484.59 631.87 484.79 633.25"
/>
</g>
<path fill="#ff8080" d="
  M 488.42 229.40
  C 450.06 191.16 411.72 152.88 373.59 114.41
  C 370.56 111.35 372.87 110.96 374.71 109.11
  Q 417.88 65.94 460.98 22.73
  C 480.31 3.36 504.18 -4.65 531.21 3.63
  C 543.84 7.51 553.53 15.20 562.78 24.47
  Q 664.63 126.52 766.61 228.44
  A 0.49 0.49 -90.0 0 1 766.61 229.14
  C 722.44 274.12 677.54 318.40 632.93 362.93
  Q 630.29 365.56 628.32 368.02
  A 1.06 1.05 -48.1 0 1 626.75 368.11
  L 588.94 330.40
  A 1.60 1.59 -60.8 0 1 588.52 328.90
  C 590.44 320.83 592.83 311.84 592.16 303.52
  C 591.64 297.06 591.60 290.58 589.68 284.41
  C 582.75 262.12 571.33 245.60 550.18 234.82
  Q 546.19 232.79 535.09 229.13
  C 529.17 227.19 523.18 227.08 517.00 226.50
  Q 507.63 225.63 495.00 229.24
  Q 493.16 229.77 489.27 229.76
  A 1.25 1.23 -21.6 0 1 488.42 229.40
  Z"
/>
<path fill="#ff8080" d="
  M 450.71 428.75
  Q 450.38 426.57 448.63 425.56
  A 1.60 1.55 3.1 0 1 447.98 424.86
  Q 446.99 422.66 444.60 422.00
  A 0.71 0.70 -85.2 0 1 444.09 421.39
  Q 443.86 419.12 441.61 418.67
  A 0.62 0.62 -86.4 0 1 441.11 418.10
  Q 440.96 415.82 438.64 415.86
  A 0.56 0.55 -4.7 0 1 438.08 415.39
  Q 437.73 413.06 435.50 412.38
  A 1.07 1.00 86.2 0 1 434.85 411.77
  Q 434.31 410.47 432.99 409.90
  A 1.55 1.31 0.4 0 1 432.29 409.30
  C 431.46 407.88 424.40 400.26 422.79 399.83
  A 0.88 0.87 89.3 0 1 422.19 399.24
  Q 421.63 397.25 419.65 396.69
  A 0.85 0.84 -89.5 0 1 419.06 396.08
  Q 418.55 394.15 416.51 393.80
  A 0.70 0.67 89.1 0 1 415.96 393.24
  Q 415.54 390.95 413.00 391.29
  L 409.34 387.87
  Q 409.52 384.71 406.81 384.25
  A 0.87 0.85 83.6 0 1 406.16 383.72
  Q 405.73 382.63 404.75 381.96
  Q 403.00 379.13 400.04 377.75
  Q 399.39 375.33 397.00 374.79
  Q 396.93 372.46 395.04 372.03
  A 1.31 1.03 -4.8 0 1 394.29 371.54
  C 390.72 366.03 384.97 362.26 380.78 357.29
  Q 379.67 355.97 378.18 354.98
  Q 377.87 354.77 377.86 355.19
  L 377.84 356.38
  L 362.46 340.75
  Q 362.24 337.65 359.56 336.88
  A 0.80 0.77 -87.9 0 1 359.01 336.26
  Q 358.80 335.27 358.09 334.59
  A 1.43 0.69 -6.6 0 0 357.22 334.29
  C 354.96 334.16 356.60 330.90 353.00 330.71
  Q 352.56 327.69 349.50 327.79
  L 346.25 324.46
  Q 344.42 319.91 340.25 317.29
  Q 339.91 315.25 337.94 314.64
  A 0.90 0.86 2.2 0 1 337.35 314.03
  Q 336.85 312.11 334.97 311.66
  A 0.89 0.87 -3.0 0 1 334.34 311.10
  Q 333.59 309.03 331.56 308.33
  A 1.12 1.06 87.5 0 1 330.92 307.71
  Q 330.34 306.32 328.94 305.70
  A 1.62 1.31 1.7 0 1 328.23 305.09
  C 326.21 301.72 323.06 300.18 320.39 296.53
  A 1.18 0.93 -10.8 0 0 319.60 296.12
  Q 318.36 295.99 318.07 294.73
  A 1.68 0.79 32.0 0 0 317.58 293.97
  L 314.36 290.80
  A 1.82 0.76 55.4 0 0 313.57 290.29
  Q 311.90 289.89 311.45 288.21
  A 1.58 1.18 -85.5 0 0 310.95 287.42
  C 306.93 284.35 304.47 280.25 299.96 277.75
  Q 299.06 274.89 296.25 273.79
  Q 295.42 271.59 293.30 270.79
  A 0.78 0.76 -82.3 0 1 292.81 270.13
  Q 292.61 268.11 290.44 267.83
  A 0.67 0.66 88.2 0 1 289.87 267.29
  Q 289.39 264.76 286.50 264.79
  C 275.83 254.24 265.19 242.88 253.95 232.36
  A 1.68 1.68 44.1 0 1 253.91 229.94
  L 324.67 159.12
  A 1.83 1.82 45.1 0 1 327.25 159.13
  Q 379.11 211.14 429.72 261.78
  Q 435.16 267.22 440.74 272.54
  Q 442.07 273.80 441.42 275.51
  C 427.22 313.21 442.19 353.89 477.52 373.41
  C 481.45 375.57 484.89 374.58 484.52 380.97
  Q 484.11 388.11 484.61 398.59
  C 485.50 416.81 484.22 435.14 484.62 453.51
  A 0.84 0.84 10.7 0 1 483.46 454.30
  C 474.99 450.78 469.93 446.28 462.53 440.67
  C 461.17 439.64 460.30 438.15 458.43 436.83
  Q 456.78 435.66 450.71 428.75
  Z"
/>
<path fill="#8dd35f" d="
  M 1024.00 511.31
  L 1024.00 515.56
  C 1022.72 536.75 1013.57 551.03 998.97 565.63
  Q 898.82 665.80 798.64 765.95
  C 796.74 767.85 795.29 771.43 792.06 768.20
  Q 689.68 665.82 587.29 563.46
  C 569.48 545.65 559.38 527.62 562.63 502.06
  C 564.66 486.04 571.87 473.95 583.04 462.29
  Q 594.30 450.55 605.35 439.93
  A 1.41 1.41 45.4 0 1 607.32 439.95
  L 654.02 486.69
  A 2.21 2.21 32.5 0 1 654.53 488.99
  C 644.33 517.46 648.94 547.38 669.62 569.88
  Q 694.27 596.69 730.43 595.67
  C 775.78 594.39 810.30 553.65 805.17 508.51
  C 802.39 484.15 785.78 457.51 762.45 447.53
  C 757.37 445.36 747.85 441.53 740.53 440.69
  Q 728.52 439.33 724.00 439.52
  Q 717.91 439.77 703.25 443.18
  A 1.35 1.20 -34.3 0 1 702.32 443.06
  Q 700.79 442.20 698.79 440.21
  Q 677.07 418.43 655.31 396.70
  Q 653.23 394.62 652.73 392.91
  A 0.90 0.81 -31.8 0 1 652.97 392.08
  C 698.16 347.32 742.99 302.18 787.95 257.20
  Q 789.99 255.16 791.76 254.25
  A 0.71 0.68 53.9 0 1 792.56 254.39
  Q 952.76 414.72 993.21 455.04
  Q 1002.66 464.46 1005.48 467.51
  Q 1022.58 485.98 1024.00 511.31
  Z"
/>
<path fill="#80b3ff" d="
  M 0.00 512.19
  L 0.00 507.44
  Q 2.45 481.28 21.98 461.72
  Q 113.78 369.79 205.75 278.00
  Q 221.27 262.51 227.68 256.54
  A 0.52 0.51 45.4 0 1 228.40 256.55
  Q 328.42 356.69 428.49 456.76
  C 431.91 460.18 435.39 463.51 438.16 467.50
  Q 438.95 468.64 440.20 469.34
  A 2.00 1.58 5.1 0 1 440.91 470.01
  Q 447.06 480.34 447.95 482.56
  Q 461.28 515.81 442.28 545.79
  Q 439.34 550.44 430.14 559.64
  Q 328.09 661.84 226.04 764.00
  A 0.37 0.37 0.0 0 1 225.52 764.00
  Q 124.79 663.21 23.95 562.55
  C 9.44 548.08 0.77 532.88 0.00 512.19
  Z"
/>
<path fill="#a05051" fill-opacity="0.710" d="
  M 286.50 264.79
  Q 289.39 264.76 289.87 267.29
  A 0.67 0.66 88.2 0 0 290.44 267.83
  Q 292.61 268.11 292.81 270.13
  A 0.78 0.76 -82.3 0 0 293.30 270.79
  Q 295.42 271.59 296.25 273.79
  L 296.46 274.75
  L 294.25 273.45
  A 1.11 1.06 -81.5 0 1 293.74 272.73
  C 293.20 270.01 290.55 271.21 289.96 268.62
  A 0.89 0.87 -87.0 0 0 289.40 267.99
  Q 287.19 267.20 286.50 264.79
  Z"
/>
<path fill="#ba595c" fill-opacity="0.804" d="
  M 296.25 273.79
  Q 299.06 274.89 299.96 277.75
  L 299.50 277.79
  L 296.46 274.75
  L 296.25 273.79
  Z"
/>
<path fill="#a05051" fill-opacity="0.710" d="
  M 299.50 277.79
  L 299.96 277.75
  C 304.47 280.25 306.93 284.35 310.95 287.42
  A 1.58 1.18 -85.5 0 1 311.45 288.21
  Q 311.90 289.89 313.57 290.29
  A 1.82 0.76 55.4 0 1 314.36 290.80
  L 317.58 293.97
  A 1.68 0.79 32.0 0 1 318.07 294.73
  Q 318.36 295.99 319.60 296.12
  A 1.18 0.93 -10.8 0 1 320.39 296.53
  C 323.06 300.18 326.21 301.72 328.23 305.09
  A 1.62 1.31 1.7 0 0 328.94 305.70
  Q 330.34 306.32 330.92 307.71
  A 1.12 1.06 87.5 0 0 331.56 308.33
  Q 333.59 309.03 334.34 311.10
  A 0.89 0.87 -3.0 0 0 334.97 311.66
  Q 336.85 312.11 337.35 314.03
  A 0.90 0.86 2.2 0 0 337.94 314.64
  Q 339.91 315.25 340.25 317.29
  L 340.46 318.75
  Q 337.58 318.30 336.97 315.63
  A 0.71 0.71 -1.1 0 0 336.39 315.08
  Q 334.39 314.77 334.16 312.92
  A 1.00 0.68 -88.0 0 0 333.69 312.18
  L 331.72 311.36
  A 0.90 0.77 8.7 0 1 331.18 310.73
  Q 330.91 309.11 329.49 308.43
  Q 329.00 308.20 328.75 307.84
  Q 326.10 304.02 322.38 301.33
  Q 322.02 301.08 321.77 300.57
  C 320.89 298.83 319.05 299.06 318.07 296.82
  A 0.89 0.89 -8.0 0 0 317.39 296.31
  Q 315.29 296.02 315.15 293.94
  A 1.05 0.74 -82.6 0 0 314.74 293.16
  L 313.33 292.34
  Q 312.81 292.03 312.58 291.73
  C 308.69 286.67 303.65 282.43 299.50 277.79
  Z"
/>
<path fill="#ba595c" fill-opacity="0.804" d="
  M 340.25 317.29
  Q 344.42 319.91 346.25 324.46
  Q 342.89 322.08 340.46 318.75
  L 340.25 317.29
  Z"
/>
<path fill="#ba595c" fill-opacity="0.804" d="
  M 349.50 327.79
  Q 352.56 327.69 353.00 330.71
  L 352.50 330.79
  Q 350.44 329.87 349.50 327.79
  Z"
/>
<path fill="#a05051" fill-opacity="0.710" d="
  M 352.50 330.79
  L 353.00 330.71
  C 356.60 330.90 354.96 334.16 357.22 334.29
  A 1.43 0.69 -6.6 0 1 358.09 334.59
  Q 358.80 335.27 359.01 336.26
  A 0.80 0.77 -87.9 0 0 359.56 336.88
  Q 362.24 337.65 362.46 340.75
  L 360.21 339.65
  A 1.01 0.79 11.4 0 1 359.67 339.02
  Q 359.29 337.01 357.29 336.30
  A 0.89 0.88 -87.1 0 1 356.72 335.66
  Q 356.25 333.59 354.14 333.47
  A 0.66 0.63 -4.0 0 1 353.54 332.97
  Q 353.25 331.65 352.50 330.79
  Z"
/>
<path fill="#ba595c" fill-opacity="0.804" d="
  M 397.00 374.79
  L 396.75 375.04
  Q 394.54 374.50 393.91 372.51
  A 0.82 0.81 86.2 0 0 393.29 371.96
  Q 391.73 371.65 391.37 370.23
  A 2.04 1.15 -88.5 0 0 390.92 369.38
  Q 388.15 366.61 385.45 363.80
  C 384.27 362.59 382.44 361.66 381.37 359.81
  A 1.90 1.77 1.1 0 0 380.67 359.13
  Q 378.88 358.13 377.84 356.38
  L 377.86 355.19
  Q 377.87 354.77 378.18 354.98
  Q 379.67 355.97 380.78 357.29
  C 384.97 362.26 390.72 366.03 394.29 371.54
  A 1.31 1.03 -4.8 0 0 395.04 372.03
  Q 396.93 372.46 397.00 374.79
  Z"
/>
<path fill="#a05051" fill-opacity="0.710" d="
  M 397.00 374.79
  Q 399.39 375.33 400.04 377.75
  L 400.46 378.75
  Q 397.91 377.58 396.75 375.04
  L 397.00 374.79
  Z"
/>
<path fill="#ba595c" fill-opacity="0.804" d="
  M 400.04 377.75
  Q 403.00 379.13 404.75 381.96
  L 403.72 382.07
  L 400.46 378.75
  L 400.04 377.75
  Z"
/>
<path fill="#a05051" fill-opacity="0.710" d="
  M 403.72 382.07
  L 404.75 381.96
  Q 405.73 382.63 406.16 383.72
  A 0.87 0.85 83.6 0 0 406.81 384.25
  Q 409.52 384.71 409.34 387.87
  L 403.72 382.07
  Z"
/>
<path fill="#ff8080" d="
  M 558.71 437.25
  Q 554.40 441.58 549.49 445.20
  Q 549.11 445.48 549.10 445.01
  Q 548.55 413.72 549.02 382.46
  Q 549.03 381.87 549.44 382.28
  L 581.20 414.03
  A 0.45 0.45 45.1 0 1 581.20 414.67
  C 573.80 422.31 566.19 429.71 558.71 437.25
  Z"
/>
<path fill="#a05051" fill-opacity="0.710" d="
  M 413.00 391.29
  Q 415.54 390.95 415.96 393.24
  A 0.70 0.67 89.1 0 0 416.51 393.80
  Q 418.55 394.15 419.06 396.08
  A 0.85 0.84 -89.5 0 0 419.65 396.69
  Q 421.63 397.25 422.19 399.24
  A 0.88 0.87 89.3 0 0 422.79 399.83
  C 424.40 400.26 431.46 407.88 432.29 409.30
  A 1.55 1.31 0.4 0 0 432.99 409.90
  Q 434.31 410.47 434.85 411.77
  A 1.07 1.00 86.2 0 0 435.50 412.38
  Q 437.73 413.06 438.08 415.39
  A 0.56 0.55 -4.7 0 0 438.64 415.86
  Q 440.96 415.82 441.11 418.10
  A 0.62 0.62 -86.4 0 0 441.61 418.67
  Q 443.86 419.12 444.09 421.39
  A 0.71 0.70 -85.2 0 0 444.60 422.00
  Q 446.99 422.66 447.98 424.86
  A 1.60 1.55 3.1 0 0 448.63 425.56
  Q 450.38 426.57 450.71 428.75
  Q 448.45 428.34 447.71 426.41
  A 1.57 1.33 -87.8 0 0 447.14 425.68
  Q 445.44 424.57 444.36 422.79
  A 1.12 1.07 -9.5 0 0 443.62 422.29
  Q 441.35 421.85 440.96 419.63
  A 0.76 0.74 -87.8 0 0 440.41 419.02
  Q 438.35 418.46 437.93 416.41
  A 0.63 0.62 85.7 0 0 437.36 415.91
  Q 435.10 415.77 434.91 413.61
  A 0.84 0.84 9.3 0 0 434.42 412.93
  C 432.84 412.23 429.63 408.28 428.60 406.84
  A 1.82 1.49 -1.5 0 0 427.84 406.25
  Q 426.36 405.65 425.68 404.24
  A 1.48 1.34 87.9 0 0 425.03 403.57
  Q 423.12 402.63 422.10 400.83
  A 1.15 1.13 80.9 0 0 421.38 400.30
  Q 419.27 399.82 419.05 397.70
  A 0.80 0.77 -83.0 0 0 418.56 397.04
  Q 416.64 396.29 415.72 394.50
  Q 415.49 394.06 415.09 393.79
  Q 413.69 392.82 413.00 391.29
  Z"
/>
<path fill="#ffe680" d="
  M 484.71 599.75
  Q 484.67 598.70 484.20 598.57
  A 0.88 0.88 -79.6 0 0 483.10 599.33
  Q 481.23 616.51 482.45 632.01
  Q 482.55 633.31 484.24 633.40
  A 0.21 0.20 4.4 0 0 484.46 633.22
  Q 484.59 631.87 484.79 633.25
  L 484.65 657.17
  A 1.60 1.51 78.8 0 1 483.76 658.59
  C 451.39 673.00 432.90 704.63 436.86 740.03
  C 441.09 777.95 472.37 806.70 510.02 808.75
  C 580.84 812.63 619.75 727.54 570.45 676.07
  C 565.04 670.41 557.94 665.08 551.12 661.62
  Q 549.01 660.55 549.01 658.18
  L 548.94 577.56
  Q 548.94 576.13 549.95 577.14
  Q 652.12 679.38 753.52 780.73
  Q 760.89 788.11 768.43 795.34
  A 0.49 0.47 -45.8 0 1 768.43 796.02
  Q 664.67 899.92 560.59 1003.59
  Q 545.15 1018.97 525.26 1022.97
  Q 523.54 1023.32 514.44 1024.00
  L 511.19 1024.00
  Q 491.39 1023.01 476.43 1012.81
  C 469.12 1007.83 462.17 1000.55 455.27 993.64
  Q 352.54 890.91 249.67 788.07
  A 1.75 1.75 -44.3 0 1 249.70 785.56
  Q 254.97 780.59 260.78 774.78
  Q 358.17 677.17 455.67 579.68
  Q 467.79 567.56 483.50 562.12
  A 0.72 0.71 80.2 0 1 484.45 562.80
  L 484.71 599.75
  Z"
/>
<path fill="#cdb967" fill-opacity="0.800" d="
  M 484.71 599.75
  Q 485.68 616.50 484.79 633.25
  Q 484.59 631.87 484.46 633.22
  A 0.21 0.20 4.4 0 1 484.24 633.40
  Q 482.55 633.31 482.45 632.01
  Q 481.23 616.51 483.10 599.33
  A 0.88 0.88 -79.6 0 1 484.20 598.57
  Q 484.67 598.70 484.71 599.75
  Z"
/>
</svg>
