<?xml version="1.0" encoding="UTF-8" standalone="no"?>
<!DOCTYPE svg PUBLIC "-//W3C//DTD SVG 1.0//EN" "http://www.w3.org/TR/2001/REC-SVG-20010904/DTD/svg10.dtd">
<svg xmlns="http://www.w3.org/2000/svg" version="1.0" viewBox="0 0 1014 1386">
<path fill="#000000" d="
  M 243.69 113.69
  L 243.76 54.04
  A 0.50 0.50 0.0 0 1 244.26 53.54
  L 298.93 53.52
  A 0.57 0.56 -0.0 0 1 299.50 54.08
  L 299.50 225.43
  A 0.31 0.30 -0.0 0 1 299.19 225.73
  L 244.27 225.72
  A 0.50 0.50 0.0 0 1 243.77 225.22
  L 243.75 171.28
  A 1.28 1.27 90.0 0 0 242.48 170.00
  L 183.31 170.00
  A 0.31 0.31 0.0 0 0 183.00 170.31
  L 183.00 225.44
  A 0.31 0.30 -0.0 0 1 182.69 225.74
  L 128.10 225.74
  A 0.85 0.85 -90.0 0 1 127.25 224.89
  L 127.25 54.17
  A 0.67 0.66 -90.0 0 1 127.91 53.50
  L 182.68 53.50
  A 0.31 0.31 0.0 0 1 182.99 53.81
  L 182.98 113.37
  A 0.85 0.85 -0.2 0 0 183.83 114.22
  L 243.19 114.19
  A 0.50 0.50 0.0 0 0 243.69 113.69
  Z"
/>
<path fill="#000000" d="
  M 375.44 110.04
  A 0.80 0.80 0.0 0 0 374.64 109.24
  L 325.28 109.22
  A 0.51 0.50 90.0 0 1 324.78 108.71
  L 324.76 53.81
  A 0.31 0.31 0.0 0 1 325.07 53.50
  L 486.45 53.50
  A 0.54 0.54 0.2 0 1 486.99 54.04
  L 486.99 108.94
  A 0.31 0.30 -90.0 0 1 486.69 109.25
  L 432.22 109.26
  A 0.97 0.96 -0.0 0 0 431.25 110.22
  L 431.25 225.43
  A 0.31 0.31 0.0 0 1 430.94 225.74
  L 376.47 225.74
  A 0.99 0.99 0.0 0 1 375.48 224.75
  L 375.44 110.04
  Z"
/>
<path fill="#000000" d="
  M 649.44 140.31
  Q 649.44 139.10 648.74 140.24
  L 609.09 204.68
  A 0.58 0.58 -44.8 0 1 608.10 204.68
  L 568.55 140.42
  Q 567.95 139.45 567.95 140.59
  L 567.98 225.47
  A 0.28 0.27 -0.0 0 1 567.70 225.74
  L 512.56 225.74
  A 0.31 0.31 -90.0 0 1 512.25 225.43
  L 512.25 54.17
  A 0.67 0.66 -90.0 0 1 512.91 53.50
  L 567.68 53.50
  A 0.62 0.62 -15.5 0 1 568.21 53.80
  L 608.22 118.81
  A 0.43 0.43 -44.8 0 0 608.95 118.81
  L 648.68 54.21
  A 1.51 1.50 15.8 0 1 649.96 53.50
  L 704.69 53.50
  A 0.31 0.31 -90.0 0 1 705.00 53.81
  L 705.00 225.43
  A 0.31 0.31 -90.0 0 1 704.69 225.74
  L 650.15 225.74
  A 0.83 0.83 89.8 0 1 649.32 224.91
  L 649.44 140.31
  Z"
/>
<path fill="#000000" d="
  M 786.57 169.94
  L 865.86 169.98
  A 1.14 1.14 89.8 0 1 867.00 171.12
  L 867.00 225.44
  A 0.31 0.31 -90.0 0 1 866.69 225.75
  L 730.56 225.75
  A 0.31 0.31 -90.0 0 1 730.25 225.44
  L 730.25 54.17
  A 0.67 0.66 -90.0 0 1 730.91 53.50
  L 785.12 53.51
  A 0.90 0.90 89.0 0 1 786.02 54.41
  L 786.06 169.43
  A 0.51 0.51 0.0 0 0 786.57 169.94
  Z"
/>
<path fill="#be2400" fill-opacity="0.878" d="
  M 52.75 306.79
  Q 52.58 306.93 52.55 307.13
  A 0.37 0.31 4.5 0 0 52.92 307.50
  L 961.19 307.50
  A 0.79 0.61 -5.5 0 1 961.92 307.96
  L 962.71 311.00
  C 960.41 311.31 961.26 318.22 961.24 320.06
  Q 961.22 321.41 960.41 323.65
  C 959.05 327.41 961.27 331.74 959.12 334.83
  A 1.35 1.25 -33.0 0 0 958.89 335.73
  Q 959.94 343.14 957.80 350.22
  A 1.78 1.72 46.0 0 0 957.80 351.19
  Q 958.86 354.87 957.22 358.37
  A 1.81 1.66 -38.3 0 0 957.07 359.31
  Q 957.65 364.26 956.46 369.04
  Q 956.15 361.15 956.52 359.49
  Q 957.02 357.18 956.71 355.80
  A 1.43 1.08 58.6 0 1 956.80 354.89
  C 958.21 352.31 957.68 345.20 958.39 340.33
  C 958.68 338.34 958.20 336.30 958.58 334.35
  C 958.91 332.66 959.29 331.40 959.15 329.60
  Q 958.85 325.60 959.95 321.76
  Q 960.45 319.97 960.20 313.00
  A 2.06 1.20 -44.2 0 1 960.46 312.07
  Q 961.06 310.98 960.63 309.73
  A 0.73 0.68 -8.9 0 0 959.95 309.27
  C 841.32 309.26 722.69 309.17 604.06 309.34
  A 1.39 0.44 42.4 0 1 603.24 308.96
  Q 602.95 308.76 602.63 308.93
  Q 602.03 309.26 601.75 309.26
  Q 577.60 309.32 553.44 309.32
  Q 548.12 309.31 546.22 309.46
  A 1.19 0.90 59.9 0 1 545.41 309.12
  Q 545.02 308.75 544.62 308.97
  Q 544.02 309.30 543.75 309.30
  L 44.75 309.27
  A 0.59 0.57 3.9 0 0 44.17 309.76
  C 43.58 313.68 44.54 318.22 44.70 320.97
  Q 45.19 329.63 46.01 338.24
  Q 46.27 340.94 46.58 342.82
  Q 47.19 346.39 46.98 350.02
  A 0.62 0.57 29.8 0 0 47.11 350.44
  L 47.25 350.63
  A 1.45 1.40 -65.4 0 1 47.55 351.48
  C 47.61 357.98 48.37 362.05 48.08 365.99
  Q 48.04 366.54 48.20 366.94
  C 49.14 369.25 48.97 371.64 49.18 373.66
  Q 49.82 379.88 50.05 386.14
  A 0.68 0.41 24.8 0 0 50.34 386.57
  C 50.40 386.61 51.63 402.44 51.64 403.80
  C 51.71 409.80 53.38 415.14 51.74 420.96
  Q 51.65 421.31 51.46 420.97
  L 50.79 419.75
  L 41.03 307.26
  A 0.46 0.46 87.7 0 1 41.49 306.76
  L 52.75 306.79
  Z"
/>
<path fill="#bc2402" fill-opacity="0.918" d="
  M 52.75 306.79
  L 962.69 306.81
  A 0.54 0.46 2.4 0 1 963.24 307.31
  L 962.79 311.25
  L 962.71 311.00
  L 961.92 307.96
  A 0.79 0.61 -5.5 0 0 961.19 307.50
  L 52.92 307.50
  A 0.37 0.31 4.5 0 1 52.55 307.13
  Q 52.58 306.93 52.75 306.79
  Z"
/>
<path fill="#be2800" fill-opacity="0.847" d="
  M 956.46 369.04
  C 956.08 371.49 955.59 373.70 956.00 376.23
  C 956.33 378.23 955.15 381.06 955.06 382.35
  C 954.85 385.62 955.48 388.18 954.68 391.47
  Q 953.54 396.12 953.97 400.94
  A 1.11 1.02 -26.9 0 1 953.66 401.77
  C 952.21 403.28 953.51 411.98 952.56 415.56
  Q 951.53 419.45 952.28 424.25
  Q 952.43 425.26 951.34 426.19
  A 1.08 1.00 -22.2 0 0 950.96 427.00
  Q 951.06 430.62 951.19 434.26
  C 951.32 437.74 949.61 440.72 949.63 444.50
  Q 949.64 447.18 949.19 449.42
  Q 948.20 454.27 948.95 459.28
  A 1.83 1.75 -39.6 0 1 948.84 460.24
  Q 948.14 462.01 947.78 463.90
  C 947.29 466.46 948.38 469.19 947.49 472.18
  C 946.43 475.71 946.71 478.34 946.94 481.75
  C 947.10 484.14 945.72 486.09 945.79 488.57
  Q 945.88 491.75 946.01 494.95
  A 1.23 0.97 -28.3 0 1 945.65 495.78
  C 944.44 497.01 945.05 503.21 945.30 506.01
  A 1.72 1.59 -34.8 0 1 945.09 506.95
  C 942.40 511.84 945.51 516.03 943.06 521.06
  A 1.65 1.60 54.3 0 0 942.92 521.99
  Q 943.87 528.43 942.22 533.47
  Q 941.30 536.29 942.22 538.55
  A 1.55 1.34 46.1 0 1 942.27 539.50
  Q 940.56 545.15 941.25 550.78
  A 1.52 1.48 -33.7 0 1 941.05 551.72
  Q 940.08 553.36 940.44 555.02
  A 1.64 1.54 51.1 0 1 940.37 555.96
  Q 939.20 558.81 940.16 561.77
  A 1.39 0.64 63.6 0 1 940.19 562.73
  L 939.30 564.35
  A 1.45 0.30 -57.6 0 0 938.97 565.23
  L 939.25 574.49
  A 1.39 0.84 73.6 0 1 939.04 575.28
  L 938.76 575.63
  A 2.10 1.31 -34.0 0 0 938.37 576.50
  Q 937.90 580.31 937.84 584.12
  C 937.77 588.12 936.46 592.23 937.32 596.79
  A 1.50 1.46 53.6 0 1 937.19 597.72
  C 934.60 602.97 937.48 607.45 935.30 611.39
  A 2.00 0.96 -47.6 0 0 935.02 612.33
  L 935.29 621.26
  A 1.62 1.36 65.7 0 1 935.04 622.15
  C 933.10 624.98 933.65 629.88 933.95 632.76
  A 1.38 1.25 -32.4 0 1 933.70 633.66
  C 931.75 636.49 933.82 644.51 932.71 645.84
  Q 932.30 646.33 932.28 646.49
  Q 931.34 651.68 931.94 656.95
  A 1.11 0.97 -30.0 0 1 931.65 657.79
  Q 930.60 658.93 930.67 660.27
  Q 931.09 667.55 929.50 673.51
  A 1.85 1.63 47.5 0 0 929.52 674.48
  Q 930.76 678.67 928.94 682.61
  Q 928.73 683.07 928.75 683.56
  Q 929.07 689.23 928.02 694.83
  C 927.39 698.22 928.82 700.58 927.54 704.19
  C 926.44 707.28 926.59 709.10 927.16 711.99
  Q 927.26 712.49 927.11 712.96
  C 925.67 717.58 925.81 722.37 925.07 727.06
  C 924.45 731.01 924.99 734.58 924.22 738.65
  Q 923.34 743.26 924.05 748.03
  A 1.19 0.88 -33.8 0 1 923.75 748.87
  L 923.07 749.65
  A 1.56 1.05 73.6 0 0 922.78 750.57
  L 922.78 760.58
  A 0.43 0.33 -25.7 0 1 922.63 760.87
  L 922.50 760.99
  A 0.90 0.79 70.6 0 0 922.25 761.61
  L 922.24 772.72
  A 0.27 0.20 -8.7 0 1 922.03 772.93
  L 921.81 772.99
  A 0.70 0.40 86.3 0 0 921.49 773.65
  L 921.59 780.60
  Q 921.60 780.99 921.66 780.60
  Q 921.93 778.97 922.21 781.25
  L 920.79 796.50
  Q 918.96 797.06 919.15 799.00
  Q 919.69 804.46 918.41 809.06
  C 917.29 813.14 918.90 817.62 917.21 820.57
  A 1.75 1.63 -32.7 0 0 916.97 821.50
  L 917.26 830.01
  Q 917.27 830.49 917.04 830.95
  C 914.59 835.66 917.51 839.89 915.26 843.63
  A 1.80 1.36 -37.1 0 0 915.00 844.55
  L 915.31 852.77
  Q 915.33 853.29 915.12 853.72
  Q 913.43 857.32 913.83 858.99
  C 915.12 864.39 911.58 868.13 913.21 873.79
  A 1.67 1.65 -44.7 0 1 913.20 874.75
  Q 912.31 877.56 911.94 880.49
  C 911.51 883.96 913.02 886.87 911.08 890.82
  A 1.60 1.60 -35.5 0 0 910.92 891.77
  Q 911.81 898.42 909.76 904.73
  A 1.83 1.51 51.6 0 0 909.74 905.69
  C 910.42 908.32 909.17 910.55 909.07 912.51
  Q 908.60 921.76 907.65 931.00
  A 1.80 1.14 45.0 0 0 907.86 931.93
  Q 908.50 933.23 907.39 934.24
  A 1.22 0.96 -24.9 0 0 906.99 935.03
  C 906.97 936.32 907.46 945.67 906.84 945.97
  A 1.05 0.58 -16.9 0 0 906.26 946.57
  Q 905.33 951.62 905.98 956.76
  A 1.50 1.10 -39.5 0 1 905.75 957.66
  L 905.17 958.57
  A 1.64 1.05 69.5 0 0 904.97 959.50
  Q 905.35 965.46 904.22 971.29
  C 903.57 974.64 903.99 977.85 903.45 981.23
  C 902.84 985.05 903.12 987.86 903.24 991.45
  A 1.38 1.26 -29.0 0 1 902.94 992.33
  C 901.08 994.75 901.78 999.99 901.79 1003.01
  A 1.81 1.71 62.4 0 1 901.53 1003.94
  L 901.27 1004.38
  A 1.82 1.52 -34.0 0 0 901.00 1005.31
  L 901.29 1015.69
  A 0.26 0.26 -4.8 0 1 901.06 1015.96
  L 900.82 1015.99
  A 0.73 0.66 -87.3 0 0 900.24 1016.57
  Q 899.39 1021.27 900.24 1026.02
  A 1.52 1.41 -37.4 0 1 900.08 1026.95
  Q 898.20 1030.36 899.21 1034.30
  C 899.31 1034.68 898.97 1035.20 899.61 1035.11
  Q 899.95 1035.06 899.83 1035.34
  C 898.24 1039.23 897.76 1042.02 898.07 1046.60
  C 898.28 1049.69 896.88 1052.30 897.10 1055.25
  C 897.49 1060.40 895.97 1064.49 896.12 1069.19
  Q 896.19 1071.32 895.67 1073.22
  Q 894.40 1077.88 895.29 1082.77
  Q 895.38 1083.26 895.23 1083.73
  Q 893.52 1088.98 893.94 1094.46
  C 893.99 1095.10 893.67 1095.67 893.39 1096.21
  C 892.10 1098.68 894.20 1105.91 892.80 1107.64
  A 1.97 1.10 -35.1 0 0 892.39 1108.49
  Q 891.78 1112.98 891.73 1117.52
  C 891.72 1118.85 890.59 1120.48 890.66 1121.25
  Q 891.16 1126.88 890.18 1132.38
  C 889.57 1135.86 889.88 1138.60 890.00 1141.95
  A 1.26 0.98 -29.1 0 1 889.64 1142.79
  C 888.08 1144.40 889.70 1152.02 888.58 1155.40
  C 887.34 1159.12 888.82 1163.66 887.23 1166.56
  Q 886.98 1167.02 886.98 1167.48
  C 886.98 1169.70 887.81 1176.39 886.59 1177.89
  A 1.53 0.78 -38.6 0 0 886.20 1178.75
  L 886.00 1188.76
  A 1.73 1.17 72.3 0 1 885.74 1189.65
  C 884.28 1191.67 885.11 1197.88 885.30 1200.45
  A 0.49 0.35 80.5 0 1 885.07 1200.92
  L 884.79 1201.03
  A 0.86 0.43 -14.4 0 0 884.19 1201.55
  L 883.76 1207.49
  Q 883.67 1208.77 883.47 1210.02
  Q 882.65 1215.37 883.07 1220.77
  C 883.30 1223.70 881.63 1226.46 881.73 1229.79
  C 881.85 1233.85 880.73 1237.64 880.75 1241.75
  A 1.41 1.16 70.2 0 1 880.43 1242.64
  Q 878.96 1244.25 876.74 1244.29
  A 1.54 1.14 -58.8 0 0 875.89 1244.64
  Q 875.20 1245.21 874.24 1245.08
  Q 873.64 1245.00 873.25 1245.11
  C 866.49 1246.97 859.52 1248.52 853.03 1251.22
  C 848.71 1253.03 844.10 1253.25 840.19 1255.06
  A 1.69 1.36 32.1 0 1 839.25 1255.17
  Q 837.67 1254.92 836.54 1255.80
  Q 836.11 1256.14 835.69 1256.26
  L 810.25 1263.27
  Q 808.69 1263.71 808.25 1263.78
  Q 804.75 1264.36 801.49 1265.85
  Q 801.06 1266.04 801.49 1266.28
  L 802.00 1266.54
  L 789.04 1270.21
  Q 788.93 1268.28 787.30 1269.49
  Q 786.58 1270.02 785.95 1270.19
  Q 767.07 1275.23 748.29 1280.64
  Q 746.20 1281.24 748.50 1281.54
  Q 747.53 1281.96 746.57 1281.92
  Q 740.61 1281.38 737.21 1282.97
  Q 733.08 1284.90 730.40 1285.09
  Q 729.93 1285.13 729.48 1285.38
  Q 728.11 1286.14 726.41 1286.01
  A 1.16 0.93 -59.9 0 0 725.59 1286.33
  Q 724.92 1286.99 724.02 1286.91
  Q 723.42 1286.85 723.06 1286.97
  Q 709.11 1291.71 686.49 1297.23
  Q 685.92 1297.37 683.42 1298.87
  A 0.24 0.21 46.4 0 0 683.44 1299.25
  L 683.79 1299.50
  L 682.29 1300.00
  L 682.45 1299.58
  Q 682.61 1299.13 682.10 1299.23
  Q 680.53 1299.55 678.93 1299.79
  C 676.89 1300.08 675.49 1301.29 673.26 1301.27
  A 1.81 1.67 27.4 0 0 672.35 1301.52
  Q 669.79 1303.12 666.72 1303.03
  A 1.68 1.61 -58.4 0 0 665.80 1303.27
  Q 663.59 1304.59 660.23 1305.20
  Q 656.63 1305.85 649.03 1308.37
  C 646.80 1309.10 643.64 1309.43 641.74 1310.28
  Q 640.41 1310.88 636.29 1312.06
  L 625.01 1315.30
  Q 622.51 1316.02 622.08 1316.08
  C 621.95 1316.10 617.68 1316.60 619.50 1317.54
  L 617.50 1318.21
  Q 617.88 1317.97 617.99 1317.68
  Q 618.20 1317.15 617.52 1317.33
  Q 597.55 1322.57 577.76 1328.27
  Q 576.42 1328.66 576.79 1329.50
  L 574.24 1330.36
  Q 575.89 1328.09 572.25 1329.97
  Q 570.85 1330.70 566.22 1331.40
  Q 565.78 1331.46 565.32 1331.77
  Q 564.18 1332.55 562.74 1332.31
  A 0.99 0.96 -62.3 0 0 561.92 1332.58
  Q 561.03 1333.43 559.73 1333.31
  Q 559.21 1333.26 558.78 1333.40
  L 553.03 1335.33
  Q 551.65 1335.80 548.44 1336.57
  Q 543.91 1337.67 538.33 1339.35
  C 534.84 1340.40 530.74 1341.10 526.99 1342.30
  C 524.76 1343.01 521.49 1343.42 518.91 1344.78
  A 1.60 1.31 30.7 0 1 517.98 1344.92
  Q 516.28 1344.66 515.15 1345.65
  A 1.16 1.01 -60.3 0 1 514.31 1345.94
  Q 512.65 1345.77 511.56 1346.78
  A 1.58 1.17 -62.3 0 1 510.73 1347.18
  Q 507.06 1347.52 503.71 1349.20
  Q 501.40 1350.36 500.43 1349.28
  Q 499.06 1347.75 496.95 1348.25
  A 0.99 0.98 -32.2 0 1 496.09 1348.06
  Q 495.05 1347.25 493.75 1347.23
  Q 493.19 1347.23 492.81 1347.04
  C 490.03 1345.68 487.14 1345.64 484.36 1344.06
  A 1.51 1.48 -32.9 0 0 483.43 1343.87
  Q 481.41 1344.07 479.45 1343.33
  Q 479.21 1343.24 478.67 1342.76
  Q 477.81 1341.99 475.53 1341.89
  A 4.83 4.77 -26.9 0 1 473.06 1341.10
  Q 471.47 1340.04 468.54 1340.21
  A 0.76 0.63 75.0 0 1 467.89 1339.75
  Q 467.74 1339.39 467.44 1339.16
  A 1.37 0.71 -18.4 0 0 466.50 1339.01
  Q 464.39 1339.31 462.70 1338.27
  Q 462.26 1338.00 461.80 1337.98
  Q 458.59 1337.88 456.45 1336.62
  Q 454.58 1335.52 453.50 1336.96
  L 451.50 1336.29
  Q 452.97 1336.35 452.29 1335.61
  A 1.27 0.82 -14.7 0 0 451.41 1335.32
  Q 450.29 1335.37 449.53 1334.71
  A 1.61 1.10 59.2 0 0 448.69 1334.32
  C 445.60 1334.09 442.63 1332.54 440.14 1331.96
  Q 434.32 1330.60 428.54 1328.97
  Q 426.76 1328.47 425.54 1328.25
  Q 424.21 1328.00 423.33 1327.13
  A 1.57 1.24 66.1 0 0 422.51 1326.70
  Q 417.78 1326.03 413.29 1324.52
  C 411.35 1323.86 409.02 1323.82 407.02 1322.94
  C 404.78 1321.95 402.98 1321.73 400.82 1321.03
  C 399.68 1320.66 398.98 1319.66 397.24 1319.94
  Q 396.70 1320.02 396.27 1319.89
  L 383.75 1316.09
  Q 383.47 1316.00 382.76 1316.03
  Q 381.96 1316.06 381.51 1315.37
  A 0.75 0.68 67.5 0 0 380.79 1315.03
  Q 379.23 1315.31 377.95 1314.50
  Q 377.47 1314.20 377.03 1314.14
  Q 374.08 1313.76 371.20 1312.73
  Q 370.58 1312.51 369.94 1312.39
  Q 366.86 1311.80 364.89 1310.45
  A 1.96 1.62 59.2 0 0 363.99 1310.13
  C 362.38 1310.01 357.57 1309.73 356.52 1308.66
  A 1.73 1.31 66.1 0 0 355.69 1308.20
  Q 352.78 1307.73 350.00 1306.75
  Q 348.32 1306.15 347.75 1306.07
  Q 345.17 1305.74 341.69 1304.13
  A 2.11 2.04 51.3 0 0 340.41 1303.97
  Q 338.90 1304.27 338.38 1303.24
  A 0.54 0.50 65.6 0 0 337.75 1302.98
  Q 336.47 1303.44 335.75 1302.41
  A 0.90 0.76 68.3 0 0 335.02 1302.02
  C 330.91 1302.35 328.31 1299.64 325.28 1299.97
  A 1.70 1.22 -26.0 0 1 324.35 1299.81
  C 321.57 1298.26 318.60 1298.19 315.76 1297.06
  C 313.42 1296.14 310.96 1295.91 308.77 1295.17
  C 306.12 1294.28 300.74 1293.68 299.95 1292.64
  A 1.31 0.86 66.7 0 0 299.20 1292.15
  Q 295.43 1291.67 293.78 1290.97
  Q 288.24 1288.62 282.31 1287.78
  A 1.03 0.59 71.7 0 1 281.70 1287.23
  C 281.17 1286.21 279.25 1287.55 277.94 1286.49
  A 1.69 1.18 58.7 0 0 277.08 1286.11
  Q 273.45 1285.81 270.20 1284.22
  A 1.71 1.33 -30.6 0 0 269.27 1284.10
  C 267.85 1284.33 266.38 1283.22 265.41 1282.97
  Q 260.26 1281.61 255.13 1280.19
  C 253.37 1279.70 250.91 1278.58 248.72 1278.20
  C 245.53 1277.65 243.12 1276.47 240.26 1275.97
  Q 238.41 1275.65 236.87 1275.10
  C 234.27 1274.17 231.69 1273.99 229.16 1272.92
  C 226.79 1271.92 224.65 1272.03 222.27 1271.07
  Q 220.23 1270.25 218.51 1270.06
  Q 215.94 1269.78 214.64 1269.15
  Q 212.08 1267.91 209.32 1267.22
  C 206.41 1266.48 201.42 1265.91 198.99 1264.41
  Q 198.51 1264.11 198.08 1264.08
  Q 195.99 1263.90 193.46 1262.98
  C 189.37 1261.49 183.41 1260.54 178.41 1258.69
  C 176.01 1257.79 172.84 1257.97 170.59 1256.67
  Q 168.82 1255.65 167.46 1256.75
  L 122.67 1244.29
  A 0.92 0.90 -84.6 0 1 122.01 1243.48
  L 66.79 605.25
  C 69.56 607.51 67.98 597.03 67.55 596.33
  Q 66.61 594.81 66.91 593.06
  Q 67.58 589.10 66.34 587.34
  Q 66.01 586.87 65.96 586.46
  Q 65.53 582.86 66.29 579.21
  A 1.78 1.78 -49.2 0 0 66.22 578.25
  Q 63.94 572.01 65.37 565.52
  A 0.87 0.64 -70.1 0 0 65.12 564.68
  L 64.18 564.05
  A 0.52 0.35 26.9 0 1 63.93 563.61
  Q 64.18 562.47 63.29 563.50
  L 50.79 419.75
  L 51.46 420.97
  Q 51.65 421.31 51.74 420.96
  C 53.38 415.14 51.71 409.80 51.64 403.80
  C 51.63 402.44 50.40 386.61 50.34 386.57
  A 0.68 0.41 24.8 0 1 50.05 386.14
  Q 49.82 379.88 49.18 373.66
  C 48.97 371.64 49.14 369.25 48.20 366.94
  Q 48.04 366.54 48.08 365.99
  C 48.37 362.05 47.61 357.98 47.55 351.48
  A 1.45 1.40 -65.4 0 0 47.25 350.63
  L 47.11 350.44
  A 0.62 0.57 29.8 0 1 46.98 350.02
  Q 47.19 346.39 46.58 342.82
  Q 46.27 340.94 46.01 338.24
  Q 45.19 329.63 44.70 320.97
  C 44.54 318.22 43.58 313.68 44.17 309.76
  A 0.59 0.57 3.9 0 1 44.75 309.27
  L 543.75 309.30
  Q 544.02 309.30 544.62 308.97
  Q 545.02 308.75 545.41 309.12
  A 1.19 0.90 59.9 0 0 546.22 309.46
  Q 548.12 309.31 553.44 309.32
  Q 577.60 309.32 601.75 309.26
  Q 602.03 309.26 602.63 308.93
  Q 602.95 308.76 603.24 308.96
  A 1.39 0.44 42.4 0 0 604.06 309.34
  C 722.69 309.17 841.32 309.26 959.95 309.27
  A 0.73 0.68 -8.9 0 1 960.63 309.73
  Q 961.06 310.98 960.46 312.07
  A 2.06 1.20 -44.2 0 0 960.20 313.00
  Q 960.45 319.97 959.95 321.76
  Q 958.85 325.60 959.15 329.60
  C 959.29 331.40 958.91 332.66 958.58 334.35
  C 958.20 336.30 958.68 338.34 958.39 340.33
  C 957.68 345.20 958.21 352.31 956.80 354.89
  A 1.43 1.08 58.6 0 0 956.71 355.80
  Q 957.02 357.18 956.52 359.49
  Q 956.15 361.15 956.46 369.04
  Z
  M 502.54 498.00
  L 502.75 498.46
  L 502.25 498.46
  L 501.22 497.18
  A 1.10 0.63 61.5 0 0 500.51 496.74
  L 214.57 496.75
  A 0.62 0.57 -83.9 0 0 214.00 497.25
  Q 213.77 498.42 212.74 499.07
  A 1.25 0.96 -16.5 0 0 212.22 499.79
  C 211.86 501.74 211.42 508.45 213.26 509.13
  A 0.52 0.49 18.5 0 1 213.59 509.74
  Q 212.11 514.43 213.48 519.30
  Q 213.75 520.24 213.74 522.24
  C 213.74 524.71 213.06 528.88 214.89 530.73
  A 1.17 1.14 24.0 0 1 215.22 531.56
  L 214.99 541.52
  A 1.07 0.83 23.7 0 0 215.41 542.29
  C 217.01 543.53 215.78 545.08 215.75 546.30
  Q 215.65 550.03 216.21 553.74
  A 0.61 0.35 -89.8 0 0 216.46 554.18
  L 216.71 554.28
  A 0.75 0.45 16.8 0 1 217.18 554.80
  L 217.04 565.94
  A 0.85 0.55 16.9 0 0 217.55 566.55
  C 218.11 566.80 217.62 569.21 217.71 569.75
  Q 217.31 573.46 218.41 576.85
  Q 219.13 579.09 219.07 580.84
  C 218.96 583.85 218.52 587.23 219.77 590.03
  A 1.86 1.85 -53.5 0 1 219.91 590.99
  Q 219.37 595.37 220.14 599.72
  A 1.36 0.91 20.2 0 0 220.67 600.45
  C 221.90 601.31 219.29 612.13 221.71 613.19
  A 0.67 0.58 17.7 0 1 222.11 613.84
  Q 221.44 617.91 222.69 621.99
  A 0.46 0.38 65.2 0 0 223.31 622.29
  Q 223.57 622.11 223.71 621.75
  C 227.11 656.98 229.79 692.27 233.21 727.50
  C 230.67 729.32 232.05 734.01 232.30 736.68
  A 1.00 0.90 14.5 0 0 232.78 737.41
  Q 234.64 738.54 233.26 740.44
  A 1.54 1.43 -29.7 0 0 232.98 741.33
  L 233.21 747.53
  Q 233.23 748.01 233.48 748.46
  Q 234.39 750.07 234.15 751.80
  C 233.75 754.59 233.78 756.53 234.92 759.18
  Q 235.08 759.55 235.31 759.22
  Q 235.61 758.77 235.54 758.25
  Q 235.86 760.02 236.50 767.25
  Q 240.06 807.77 243.60 848.33
  A 0.60 0.57 88.2 0 0 244.15 848.87
  L 250.00 849.04
  C 248.52 850.06 242.84 848.85 244.49 850.88
  A 1.10 0.98 -17.5 0 0 245.31 851.25
  Q 370.97 851.24 496.64 851.26
  C 497.92 851.26 499.45 851.60 500.77 851.75
  A 0.87 0.76 18.2 0 0 501.56 851.41
  Q 502.44 850.06 501.25 849.04
  L 502.25 849.04
  Q 502.92 850.14 502.31 851.11
  A 1.82 1.01 -41.8 0 0 502.00 852.00
  L 501.98 1029.96
  L 500.46 1030.00
  A 1.20 0.78 60.9 0 1 499.67 1029.58
  Q 498.93 1028.75 497.74 1028.92
  A 1.50 1.42 -33.4 0 1 496.83 1028.76
  C 495.46 1027.97 494.05 1028.39 492.74 1028.00
  Q 490.50 1027.35 488.47 1026.20
  Q 488.03 1025.95 487.53 1025.96
  C 484.49 1025.98 482.02 1024.41 479.44 1023.85
  Q 477.51 1023.43 475.64 1022.82
  C 473.27 1022.05 470.32 1021.77 467.85 1020.66
  C 465.92 1019.80 464.08 1019.88 462.09 1019.12
  Q 460.16 1018.38 458.24 1018.12
  C 455.80 1017.79 453.81 1016.60 451.52 1016.21
  Q 449.37 1015.86 447.25 1015.28
  C 446.06 1014.95 445.47 1013.99 443.94 1014.23
  Q 443.47 1014.30 443.08 1014.18
  Q 441.66 1013.72 442.71 1014.75
  L 440.75 1014.29
  Q 441.16 1014.36 441.40 1014.19
  Q 441.95 1013.81 441.22 1013.61
  L 432.71 1011.30
  Q 432.23 1011.16 431.90 1010.83
  C 430.80 1009.73 428.87 1009.84 427.68 1009.55
  Q 408.29 1004.78 404.24 1002.96
  Q 401.77 1001.85 399.74 1002.24
  A 0.87 0.79 63.0 0 1 398.95 1001.94
  Q 398.10 1000.93 396.70 1001.00
  A 1.68 1.52 -29.3 0 1 395.79 1000.79
  Q 394.39 1000.00 392.72 1000.22
  A 1.22 1.10 58.5 0 1 391.85 999.96
  C 390.55 998.91 388.56 999.65 387.91 998.72
  A 1.31 0.81 68.5 0 0 387.20 998.19
  C 384.01 997.65 381.19 995.79 377.46 995.77
  A 0.96 0.81 -13.0 0 1 376.68 995.37
  C 375.61 993.59 377.24 991.09 375.19 990.11
  A 0.77 0.67 15.6 0 1 374.75 989.44
  Q 374.93 984.46 375.02 979.50
  C 375.03 978.86 374.13 976.77 373.54 979.00
  Q 371.00 948.21 368.50 905.75
  Q 368.43 904.59 367.21 904.74
  Q 367.54 904.04 367.53 903.48
  A 0.59 0.51 -1.0 0 0 366.94 902.99
  L 248.98 902.97
  A 1.00 0.96 17.3 0 0 248.18 903.37
  Q 246.11 906.32 247.32 910.01
  Q 247.86 911.65 247.79 913.25
  L 247.49 919.94
  A 1.57 1.52 -61.3 0 0 247.74 920.85
  C 248.70 922.36 249.15 923.12 249.02 925.02
  C 248.68 929.75 249.56 935.43 249.76 938.88
  Q 249.95 942.31 250.24 945.74
  A 0.60 0.34 -88.7 0 0 250.48 946.19
  L 250.73 946.29
  A 0.72 0.43 16.2 0 1 251.20 946.79
  L 251.03 956.67
  A 0.99 0.74 20.8 0 0 251.50 957.41
  Q 252.39 957.96 252.03 958.82
  Q 251.77 959.43 251.76 959.75
  C 251.67 961.85 251.47 967.66 253.22 969.04
  A 0.84 0.75 25.5 0 1 253.54 969.80
  Q 252.49 975.30 253.22 980.91
  A 0.40 0.30 2.1 0 0 253.56 981.18
  L 253.84 981.23
  A 0.68 0.42 -79.7 0 1 254.14 981.99
  C 253.90 983.20 253.52 990.92 254.81 991.30
  A 0.61 0.46 10.7 0 1 255.26 991.79
  L 254.99 1001.51
  A 1.21 0.74 31.4 0 0 255.40 1002.31
  L 255.97 1002.86
  A 1.31 0.88 -75.0 0 1 256.27 1003.74
  C 256.22 1005.33 255.76 1007.81 256.13 1009.26
  Q 256.62 1011.21 257.46 1009.50
  L 259.19 1028.50
  Q 256.94 1031.73 258.11 1035.69
  C 258.22 1036.06 258.63 1036.41 258.92 1036.71
  A 1.11 1.11 25.2 0 1 259.23 1037.57
  C 259.06 1040.03 258.24 1047.18 259.93 1048.91
  A 0.96 0.87 29.6 0 1 260.20 1049.73
  C 259.99 1050.80 259.11 1059.98 260.78 1060.32
  A 0.57 0.47 6.9 0 1 261.25 1060.81
  L 260.99 1070.52
  A 1.04 0.83 22.4 0 0 261.42 1071.29
  C 263.01 1072.43 261.76 1074.12 261.73 1075.34
  Q 261.66 1078.29 261.93 1081.28
  A 1.26 0.84 24.3 0 0 262.41 1082.05
  L 264.69 1083.86
  Q 265.10 1084.18 265.53 1084.29
  L 273.01 1086.15
  Q 273.42 1086.25 273.97 1086.22
  Q 274.71 1086.17 275.09 1086.79
  A 0.90 0.74 69.7 0 0 275.81 1087.21
  Q 278.53 1087.08 280.80 1088.59
  A 1.36 1.28 -30.0 0 0 281.70 1088.80
  C 284.65 1088.46 286.78 1090.21 288.71 1090.75
  Q 303.22 1094.81 317.95 1098.00
  Q 320.42 1098.53 321.52 1098.99
  Q 326.57 1101.09 332.05 1101.87
  A 1.13 0.93 75.2 0 1 332.76 1102.38
  Q 333.50 1103.59 335.00 1103.34
  A 2.07 1.45 -30.3 0 1 335.95 1103.42
  C 338.48 1104.42 343.23 1105.02 344.06 1106.00
  A 1.55 0.84 63.2 0 0 344.81 1106.52
  Q 353.21 1108.26 357.69 1109.69
  Q 360.50 1110.59 362.90 1111.04
  C 367.13 1111.84 370.69 1113.71 375.18 1113.83
  A 1.48 1.14 60.7 0 1 376.03 1114.19
  Q 377.29 1115.28 379.04 1115.03
  A 1.67 1.46 -33.4 0 1 379.98 1115.16
  C 380.78 1115.54 388.41 1118.00 386.29 1116.00
  L 413.50 1123.54
  Q 411.72 1124.78 414.05 1124.93
  Q 416.07 1125.05 419.14 1126.73
  Q 419.55 1126.95 420.08 1126.95
  Q 422.15 1126.96 425.78 1128.28
  Q 429.51 1129.63 443.63 1133.30
  C 443.98 1133.39 444.55 1133.13 444.96 1133.66
  A 1.24 0.64 62.5 0 0 445.66 1134.15
  Q 452.66 1135.04 454.50 1136.03
  Q 458.35 1138.10 462.76 1138.13
  A 0.49 0.44 73.8 0 1 463.16 1138.38
  L 463.30 1138.61
  A 0.83 0.72 -17.0 0 0 464.07 1138.95
  C 466.06 1138.71 467.32 1139.88 468.73 1140.28
  Q 478.04 1142.89 487.41 1145.26
  C 489.13 1145.69 491.52 1147.02 494.05 1146.94
  A 1.81 1.64 -28.8 0 1 494.98 1147.16
  C 495.90 1147.67 503.86 1150.59 501.75 1147.79
  L 513.00 1145.04
  Q 513.82 1145.94 515.01 1145.83
  A 1.71 0.62 -44.9 0 0 515.87 1145.43
  Q 516.86 1144.72 518.21 1145.00
  Q 514.79 1146.09 511.36 1147.05
  C 510.04 1147.42 509.07 1148.52 507.29 1148.34
  A 0.96 0.81 25.0 0 0 506.63 1148.52
  L 506.35 1148.75
  A 1.18 1.07 26.6 0 1 505.49 1148.99
  Q 502.56 1148.70 502.56 1151.81
  Q 502.52 1210.18 502.47 1267.22
  A 1.32 1.32 84.6 0 0 504.04 1268.52
  Q 509.90 1267.41 514.34 1266.14
  C 519.98 1264.52 525.23 1263.38 530.49 1261.45
  Q 532.54 1260.69 532.96 1260.63
  Q 543.05 1258.99 552.77 1255.86
  Q 553.08 1255.76 553.72 1255.82
  Q 554.33 1255.88 554.58 1255.40
  A 1.05 0.68 -74.0 0 1 555.21 1254.85
  Q 561.50 1253.89 567.53 1251.90
  C 571.78 1250.49 575.80 1249.81 580.01 1248.72
  C 581.19 1248.41 582.33 1247.50 584.01 1247.69
  Q 584.55 1247.75 584.97 1247.61
  Q 592.26 1245.13 599.83 1243.65
  Q 600.23 1243.57 600.68 1243.21
  C 601.65 1242.42 602.99 1243.08 603.47 1242.58
  A 1.22 0.27 -49.9 0 1 604.15 1242.06
  C 612.76 1240.13 621.15 1237.54 629.77 1235.60
  A 1.75 0.77 -56.4 0 0 630.57 1235.09
  C 631.18 1234.49 632.31 1234.80 632.88 1234.69
  C 635.07 1234.28 636.86 1232.90 638.82 1232.46
  Q 645.45 1230.99 652.00 1229.13
  Q 660.35 1226.76 668.75 1224.59
  Q 669.09 1224.51 669.61 1224.12
  C 670.49 1223.45 672.25 1224.11 672.58 1223.40
  A 0.92 0.70 -76.8 0 1 673.22 1222.87
  C 678.38 1222.36 684.06 1220.39 687.82 1219.44
  Q 692.34 1218.31 699.08 1216.56
  A 0.54 0.54 86.8 0 0 699.48 1216.11
  C 699.50 1215.96 715.50 1211.81 717.68 1211.64
  Q 718.14 1211.60 718.44 1211.37
  Q 719.02 1210.92 719.22 1210.86
  Q 736.10 1206.08 753.13 1201.85
  C 753.64 1201.72 754.31 1201.94 754.58 1201.41
  A 1.14 0.71 -72.7 0 1 755.23 1200.85
  C 759.51 1200.10 764.98 1199.37 768.65 1196.97
  A 1.80 1.37 21.8 0 1 769.56 1196.72
  Q 771.26 1196.72 772.80 1195.90
  A 1.43 1.38 35.4 0 1 773.72 1195.76
  C 775.65 1196.13 777.19 1194.97 778.50 1194.68
  Q 783.40 1193.61 788.04 1191.66
  Q 788.46 1191.49 788.99 1191.54
  C 790.66 1191.73 792.02 1190.80 793.15 1190.55
  Q 797.22 1189.63 800.56 1188.70
  A 1.92 1.91 81.7 0 0 801.95 1186.83
  Q 801.91 1182.64 802.39 1178.56
  C 802.91 1174.16 802.91 1169.02 803.80 1164.33
  C 804.33 1161.52 804.06 1158.69 804.52 1155.82
  Q 805.15 1151.82 805.15 1149.49
  C 805.17 1143.01 806.15 1135.43 806.60 1130.24
  Q 808.65 1106.62 810.78 1083.00
  Q 811.77 1071.92 811.81 1066.31
  A 1.44 0.77 -37.1 0 1 812.19 1065.49
  C 812.62 1064.99 812.68 1058.62 812.78 1057.62
  C 813.78 1048.46 814.20 1038.50 815.02 1033.00
  Q 816.31 1024.37 816.19 1019.49
  Q 816.18 1019.17 816.55 1018.45
  Q 816.79 1017.99 816.78 1017.50
  C 816.76 1012.08 817.78 1006.97 818.03 1001.49
  C 818.50 990.96 820.08 978.51 821.51 960.73
  C 822.91 943.36 825.10 925.15 826.12 907.23
  Q 826.26 904.62 827.06 899.85
  C 827.84 895.20 827.62 890.61 828.20 886.10
  C 828.88 880.85 829.07 873.93 829.42 870.26
  Q 830.76 856.46 832.10 842.65
  C 832.62 837.30 832.63 830.37 833.44 824.25
  C 833.89 820.86 833.68 817.69 834.20 814.30
  C 834.45 812.71 834.50 804.80 835.02 804.12
  A 1.81 1.15 -34.4 0 0 835.39 803.25
  C 836.19 789.48 837.39 781.63 838.09 770.80
  C 838.73 760.93 840.05 751.43 840.42 741.66
  A 0.40 0.25 81.7 0 1 840.54 741.38
  L 840.65 741.29
  A 0.68 0.31 -30.5 0 0 840.94 740.88
  C 841.32 732.21 842.36 727.20 842.51 720.63
  C 842.58 717.20 843.67 713.72 843.17 710.06
  C 842.83 707.59 844.29 701.63 844.45 697.51
  C 844.57 694.26 845.45 691.32 845.47 688.15
  Q 845.52 682.02 846.75 676.00
  C 847.56 672.09 847.22 664.47 848.42 657.65
  C 849.08 653.89 848.78 649.01 849.11 646.04
  Q 850.08 637.26 850.47 628.44
  C 850.59 625.61 851.30 622.73 851.45 619.75
  C 851.91 610.14 853.51 598.96 854.17 591.15
  Q 856.24 566.95 858.30 542.75
  C 858.41 541.54 858.06 539.98 858.25 538.51
  Q 860.65 520.31 860.58 516.50
  C 860.53 513.19 861.51 510.57 861.46 507.82
  C 861.38 502.83 862.36 497.40 862.56 493.14
  C 863.13 481.40 864.83 469.71 865.45 457.93
  C 865.53 456.44 866.11 455.01 866.26 453.25
  Q 867.43 439.28 868.51 425.32
  Q 868.54 425.02 868.84 424.41
  Q 869.12 423.86 869.13 422.94
  Q 869.25 414.75 870.84 404.29
  C 871.58 399.39 871.42 393.95 872.27 388.74
  A 0.85 0.85 -85.4 0 0 871.43 387.75
  L 502.99 387.75
  A 0.99 0.98 -0.0 0 0 502.00 388.73
  L 502.00 497.37
  A 0.48 0.38 13.3 0 0 502.30 497.75
  Q 502.50 497.82 502.54 498.00
  Z"
/>
<path fill="#cf2900" fill-opacity="0.922" d="
  M 962.71 311.00
  L 962.79 311.25
  Q 962.66 313.84 961.50 327.25
  Q 941.91 554.25 922.21 781.25
  Q 921.93 778.97 921.66 780.60
  Q 921.60 780.99 921.59 780.60
  L 921.49 773.65
  A 0.70 0.40 86.3 0 1 921.81 772.99
  L 922.03 772.93
  A 0.27 0.20 -8.7 0 0 922.24 772.72
  L 922.25 761.61
  A 0.90 0.79 70.6 0 1 922.50 760.99
  L 922.63 760.87
  A 0.43 0.33 -25.7 0 0 922.78 760.58
  L 922.78 750.57
  A 1.56 1.05 73.6 0 1 923.07 749.65
  L 923.75 748.87
  A 1.19 0.88 -33.8 0 0 924.05 748.03
  Q 923.34 743.26 924.22 738.65
  C 924.99 734.58 924.45 731.01 925.07 727.06
  C 925.81 722.37 925.67 717.58 927.11 712.96
  Q 927.26 712.49 927.16 711.99
  C 926.59 709.10 926.44 707.28 927.54 704.19
  C 928.82 700.58 927.39 698.22 928.02 694.83
  Q 929.07 689.23 928.75 683.56
  Q 928.73 683.07 928.94 682.61
  Q 930.76 678.67 929.52 674.48
  A 1.85 1.63 47.5 0 1 929.50 673.51
  Q 931.09 667.55 930.67 660.27
  Q 930.60 658.93 931.65 657.79
  A 1.11 0.97 -30.0 0 0 931.94 656.95
  Q 931.34 651.68 932.28 646.49
  Q 932.30 646.33 932.71 645.84
  C 933.82 644.51 931.75 636.49 933.70 633.66
  A 1.38 1.25 -32.4 0 0 933.95 632.76
  C 933.65 629.88 933.10 624.98 935.04 622.15
  A 1.62 1.36 65.7 0 0 935.29 621.26
  L 935.02 612.33
  A 2.00 0.96 -47.6 0 1 935.30 611.39
  C 937.48 607.45 934.60 602.97 937.19 597.72
  A 1.50 1.46 53.6 0 0 937.32 596.79
  C 936.46 592.23 937.77 588.12 937.84 584.12
  Q 937.90 580.31 938.37 576.50
  A 2.10 1.31 -34.0 0 1 938.76 575.63
  L 939.04 575.28
  A 1.39 0.84 73.6 0 0 939.25 574.49
  L 938.97 565.23
  A 1.45 0.30 -57.6 0 1 939.30 564.35
  L 940.19 562.73
  A 1.39 0.64 63.6 0 0 940.16 561.77
  Q 939.20 558.81 940.37 555.96
  A 1.64 1.54 51.1 0 0 940.44 555.02
  Q 940.08 553.36 941.05 551.72
  A 1.52 1.48 -33.7 0 0 941.25 550.78
  Q 940.56 545.15 942.27 539.50
  A 1.55 1.34 46.1 0 0 942.22 538.55
  Q 941.30 536.29 942.22 533.47
  Q 943.87 528.43 942.92 521.99
  A 1.65 1.60 54.3 0 1 943.06 521.06
  C 945.51 516.03 942.40 511.84 945.09 506.95
  A 1.72 1.59 -34.8 0 0 945.30 506.01
  C 945.05 503.21 944.44 497.01 945.65 495.78
  A 1.23 0.97 -28.3 0 0 946.01 494.95
  Q 945.88 491.75 945.79 488.57
  C 945.72 486.09 947.10 484.14 946.94 481.75
  C 946.71 478.34 946.43 475.71 947.49 472.18
  C 948.38 469.19 947.29 466.46 947.78 463.90
  Q 948.14 462.01 948.84 460.24
  A 1.83 1.75 -39.6 0 0 948.95 459.28
  Q 948.20 454.27 949.19 449.42
  Q 949.64 447.18 949.63 444.50
  C 949.61 440.72 951.32 437.74 951.19 434.26
  Q 951.06 430.62 950.96 427.00
  A 1.08 1.00 -22.2 0 1 951.34 426.19
  Q 952.43 425.26 952.28 424.25
  Q 951.53 419.45 952.56 415.56
  C 953.51 411.98 952.21 403.28 953.66 401.77
  A 1.11 1.02 -26.9 0 0 953.97 400.94
  Q 953.54 396.12 954.68 391.47
  C 955.48 388.18 954.85 385.62 955.06 382.35
  C 955.15 381.06 956.33 378.23 956.00 376.23
  C 955.59 373.70 956.08 371.49 956.46 369.04
  Q 957.65 364.26 957.07 359.31
  A 1.81 1.66 -38.3 0 1 957.22 358.37
  Q 958.86 354.87 957.80 351.19
  A 1.78 1.72 46.0 0 1 957.80 350.22
  Q 959.94 343.14 958.89 335.73
  A 1.35 1.25 -33.0 0 1 959.12 334.83
  C 961.27 331.74 959.05 327.41 960.41 323.65
  Q 961.22 321.41 961.24 320.06
  C 961.26 318.22 960.41 311.31 962.71 311.00
  Z"
/>
<path fill="#bc3100" fill-opacity="0.773" d="
  M 518.21 1145.00
  Q 521.97 1143.67 525.87 1142.76
  C 532.84 1141.14 537.48 1139.93 543.28 1138.37
  Q 543.66 1138.26 544.24 1138.35
  Q 545.51 1138.55 545.84 1137.41
  A 0.50 0.48 -75.2 0 1 546.42 1137.06
  Q 548.23 1137.47 549.37 1136.34
  A 0.96 0.90 -62.1 0 1 550.19 1136.06
  C 552.15 1136.37 553.18 1135.51 554.54 1135.15
  Q 559.04 1133.98 563.57 1132.89
  C 566.88 1132.09 570.38 1130.36 574.07 1129.59
  C 579.83 1128.40 585.30 1126.09 591.08 1125.17
  C 592.69 1124.92 593.85 1123.84 595.77 1124.18
  A 1.10 0.98 -58.0 0 0 596.62 1123.93
  Q 597.61 1123.09 599.50 1123.03
  Q 601.32 1122.98 604.54 1121.39
  A 1.64 1.32 32.7 0 1 605.48 1121.29
  Q 607.22 1121.65 608.34 1120.53
  A 0.86 0.84 -60.5 0 1 609.14 1120.30
  Q 610.61 1120.64 611.49 1119.69
  A 1.18 0.99 -65.7 0 1 612.30 1119.30
  C 616.57 1119.30 622.15 1116.33 627.08 1114.98
  C 628.06 1114.71 629.39 1113.92 630.77 1113.97
  A 1.39 1.37 27.5 0 0 631.65 1113.70
  C 632.97 1112.73 634.83 1112.82 636.11 1112.43
  Q 642.30 1110.57 648.64 1109.13
  C 650.13 1108.79 651.17 1107.69 653.02 1107.97
  A 1.49 1.44 -53.3 0 0 653.94 1107.82
  C 656.53 1106.50 659.74 1106.63 663.17 1105.24
  Q 665.90 1104.14 669.03 1103.45
  Q 673.49 1102.47 679.70 1100.45
  Q 681.93 1099.73 693.89 1096.85
  Q 697.10 1096.08 699.97 1094.53
  Q 701.14 1093.90 699.97 1093.33
  L 731.21 1084.86
  Q 734.31 1085.82 737.12 1084.25
  Q 737.53 1084.02 738.04 1083.99
  C 743.21 1083.69 742.60 1078.76 741.82 1075.23
  A 1.05 1.04 -33.4 0 1 742.00 1074.37
  C 744.49 1070.99 741.87 1064.87 744.12 1060.46
  A 1.89 1.81 56.8 0 0 744.30 1059.50
  Q 743.96 1055.67 744.41 1051.88
  C 744.90 1047.78 745.01 1045.05 745.17 1041.49
  C 745.28 1039.04 746.42 1036.40 746.20 1033.60
  Q 745.96 1030.49 746.17 1029.02
  C 746.94 1023.59 747.16 1018.22 747.80 1012.79
  C 748.13 1010.00 747.12 1006.29 748.10 1003.56
  Q 748.80 1001.62 748.86 1000.29
  Q 749.17 993.46 750.44 986.75
  Q 750.53 986.31 750.35 985.80
  Q 749.72 983.97 750.58 982.18
  Q 750.81 981.70 750.81 981.24
  C 750.81 979.41 752.22 960.46 752.54 960.22
  A 0.99 0.55 -29.1 0 0 752.96 959.54
  C 752.31 951.76 754.58 945.11 754.24 937.00
  A 1.27 1.00 -29.3 0 1 754.59 936.16
  Q 755.04 935.67 755.02 935.18
  Q 754.66 928.17 755.79 921.28
  C 756.24 918.56 755.80 915.93 755.88 913.17
  A 1.62 1.39 -29.4 0 1 756.20 912.29
  C 757.63 910.39 757.35 902.35 757.87 899.38
  C 758.42 896.26 758.13 893.77 757.98 890.74
  A 1.33 1.15 -30.0 0 1 758.28 889.87
  C 759.44 888.44 759.05 880.58 758.98 878.49
  A 1.31 0.80 -34.3 0 1 759.35 877.67
  L 759.83 877.16
  A 1.30 0.93 70.0 0 0 760.08 876.26
  C 759.58 870.82 760.72 865.96 760.94 860.59
  C 761.13 856.26 762.13 852.21 762.05 847.59
  Q 762.00 844.58 762.58 841.34
  Q 763.16 838.12 763.24 834.84
  C 763.33 831.31 764.34 827.36 763.53 823.00
  Q 763.06 820.48 764.52 818.39
  C 765.49 816.99 764.83 813.33 765.00 811.15
  Q 765.06 810.36 765.67 807.39
  C 766.35 804.00 765.56 800.78 766.07 797.58
  C 766.73 793.39 766.73 789.60 767.62 785.27
  C 768.40 781.47 768.31 777.66 768.81 773.73
  C 769.26 770.24 768.72 767.19 769.55 763.63
  Q 770.79 758.32 769.75 752.83
  A 0.44 0.43 -15.8 0 1 770.03 752.34
  L 770.36 752.20
  A 0.78 0.78 -8.8 0 0 770.86 751.52
  C 771.09 748.04 770.46 742.50 771.39 740.90
  Q 771.69 740.38 771.73 740.00
  Q 772.07 736.85 772.01 733.67
  C 771.99 732.79 771.47 732.89 770.78 732.98
  Q 770.61 732.25 769.25 732.46
  Q 771.24 732.33 770.59 731.15
  A 0.89 0.75 -13.7 0 0 769.80 730.76
  C 767.32 730.88 764.68 731.23 762.31 731.23
  Q 632.65 731.33 503.00 731.16
  Q 502.28 730.56 502.79 729.82
  A 0.67 0.48 -49.5 0 0 502.85 729.14
  L 502.60 728.80
  A 1.64 0.89 39.7 0 1 502.25 727.93
  Q 502.25 673.52 502.25 619.11
  C 502.25 617.73 502.82 617.15 501.71 615.84
  C 506.65 616.13 513.15 615.83 516.50 615.83
  Q 635.47 615.83 754.43 615.83
  C 760.98 615.83 771.35 616.11 779.96 615.94
  A 1.15 1.14 1.9 0 0 781.08 614.90
  L 791.04 499.95
  A 0.62 0.50 -81.2 0 0 790.68 499.33
  L 790.25 499.21
  L 790.09 498.88
  A 0.58 0.55 -11.9 0 0 789.57 498.56
  L 504.50 498.46
  L 504.53 498.36
  A 0.17 0.14 -78.4 0 1 504.67 498.25
  L 787.94 498.25
  Q 788.43 498.25 787.96 498.12
  C 786.92 497.84 785.90 497.50 784.82 497.50
  Q 656.03 497.49 527.25 497.51
  Q 510.66 497.51 503.90 497.26
  C 503.26 497.24 502.85 497.49 502.54 498.00
  Q 502.50 497.82 502.30 497.75
  A 0.48 0.38 13.3 0 1 502.00 497.37
  L 502.00 388.73
  A 0.99 0.98 -0.0 0 1 502.99 387.75
  L 871.43 387.75
  A 0.85 0.85 -85.4 0 1 872.27 388.74
  C 871.42 393.95 871.58 399.39 870.84 404.29
  Q 869.25 414.75 869.13 422.94
  Q 869.12 423.86 868.84 424.41
  Q 868.54 425.02 868.51 425.32
  Q 867.43 439.28 866.26 453.25
  C 866.11 455.01 865.53 456.44 865.45 457.93
  C 864.83 469.71 863.13 481.40 862.56 493.14
  C 862.36 497.40 861.38 502.83 861.46 507.82
  C 861.51 510.57 860.53 513.19 860.58 516.50
  Q 860.65 520.31 858.25 538.51
  C 858.06 539.98 858.41 541.54 858.30 542.75
  Q 856.24 566.95 854.17 591.15
  C 853.51 598.96 851.91 610.14 851.45 619.75
  C 851.30 622.73 850.59 625.61 850.47 628.44
  Q 850.08 637.26 849.11 646.04
  C 848.78 649.01 849.08 653.89 848.42 657.65
  C 847.22 664.47 847.56 672.09 846.75 676.00
  Q 845.52 682.02 845.47 688.15
  C 845.45 691.32 844.57 694.26 844.45 697.51
  C 844.29 701.63 842.83 707.59 843.17 710.06
  C 843.67 713.72 842.58 717.20 842.51 720.63
  C 842.36 727.20 841.32 732.21 840.94 740.88
  A 0.68 0.31 -30.5 0 1 840.65 741.29
  L 840.54 741.38
  A 0.40 0.25 81.7 0 0 840.42 741.66
  C 840.05 751.43 838.73 760.93 838.09 770.80
  C 837.39 781.63 836.19 789.48 835.39 803.25
  A 1.81 1.15 -34.4 0 1 835.02 804.12
  C 834.50 804.80 834.45 812.71 834.20 814.30
  C 833.68 817.69 833.89 820.86 833.44 824.25
  C 832.63 830.37 832.62 837.30 832.10 842.65
  Q 830.76 856.46 829.42 870.26
  C 829.07 873.93 828.88 880.85 828.20 886.10
  C 827.62 890.61 827.84 895.20 827.06 899.85
  Q 826.26 904.62 826.12 907.23
  C 825.10 925.15 822.91 943.36 821.51 960.73
  C 820.08 978.51 818.50 990.96 818.03 1001.49
  C 817.78 1006.97 816.76 1012.08 816.78 1017.50
  Q 816.79 1017.99 816.55 1018.45
  Q 816.18 1019.17 816.19 1019.49
  Q 816.31 1024.37 815.02 1033.00
  C 814.20 1038.50 813.78 1048.46 812.78 1057.62
  C 812.68 1058.62 812.62 1064.99 812.19 1065.49
  A 1.44 0.77 -37.1 0 0 811.81 1066.31
  Q 811.77 1071.92 810.78 1083.00
  Q 808.65 1106.62 806.60 1130.24
  C 806.15 1135.43 805.17 1143.01 805.15 1149.49
  Q 805.15 1151.82 804.52 1155.82
  C 804.06 1158.69 804.33 1161.52 803.80 1164.33
  C 802.91 1169.02 802.91 1174.16 802.39 1178.56
  Q 801.91 1182.64 801.95 1186.83
  A 1.92 1.91 81.7 0 1 800.56 1188.70
  Q 797.22 1189.63 793.15 1190.55
  C 792.02 1190.80 790.66 1191.73 788.99 1191.54
  Q 788.46 1191.49 788.04 1191.66
  Q 783.40 1193.61 778.50 1194.68
  C 777.19 1194.97 775.65 1196.13 773.72 1195.76
  A 1.43 1.38 35.4 0 0 772.80 1195.90
  Q 771.26 1196.72 769.56 1196.72
  A 1.80 1.37 21.8 0 0 768.65 1196.97
  C 764.98 1199.37 759.51 1200.10 755.23 1200.85
  A 1.14 0.71 -72.7 0 0 754.58 1201.41
  C 754.31 1201.94 753.64 1201.72 753.13 1201.85
  Q 736.10 1206.08 719.22 1210.86
  Q 719.02 1210.92 718.44 1211.37
  Q 718.14 1211.60 717.68 1211.64
  C 715.50 1211.81 699.50 1215.96 699.48 1216.11
  A 0.54 0.54 86.8 0 1 699.08 1216.56
  Q 692.34 1218.31 687.82 1219.44
  C 684.06 1220.39 678.38 1222.36 673.22 1222.87
  A 0.92 0.70 -76.8 0 0 672.58 1223.40
  C 672.25 1224.11 670.49 1223.45 669.61 1224.12
  Q 669.09 1224.51 668.75 1224.59
  Q 660.35 1226.76 652.00 1229.13
  Q 645.45 1230.99 638.82 1232.46
  C 636.86 1232.90 635.07 1234.28 632.88 1234.69
  C 632.31 1234.80 631.18 1234.49 630.57 1235.09
  A 1.75 0.77 -56.4 0 1 629.77 1235.60
  C 621.15 1237.54 612.76 1240.13 604.15 1242.06
  A 1.22 0.27 -49.9 0 0 603.47 1242.58
  C 602.99 1243.08 601.65 1242.42 600.68 1243.21
  Q 600.23 1243.57 599.83 1243.65
  Q 592.26 1245.13 584.97 1247.61
  Q 584.55 1247.75 584.01 1247.69
  C 582.33 1247.50 581.19 1248.41 580.01 1248.72
  C 575.80 1249.81 571.78 1250.49 567.53 1251.90
  Q 561.50 1253.89 555.21 1254.85
  A 1.05 0.68 -74.0 0 0 554.58 1255.40
  Q 554.33 1255.88 553.72 1255.82
  Q 553.08 1255.76 552.77 1255.86
  Q 543.05 1258.99 532.96 1260.63
  Q 532.54 1260.69 530.49 1261.45
  C 525.23 1263.38 519.98 1264.52 514.34 1266.14
  Q 509.90 1267.41 504.04 1268.52
  A 1.32 1.32 84.6 0 1 502.47 1267.22
  Q 502.52 1210.18 502.56 1151.81
  Q 502.56 1148.70 505.49 1148.99
  A 1.18 1.07 26.6 0 0 506.35 1148.75
  L 506.63 1148.52
  A 0.96 0.81 25.0 0 1 507.29 1148.34
  C 509.07 1148.52 510.04 1147.42 511.36 1147.05
  Q 514.79 1146.09 518.21 1145.00
  Z"
/>
<path fill="#c82400" fill-opacity="0.859" d="
  M 502.25 498.46
  L 214.59 498.44
  A 0.52 0.51 7.2 0 0 214.09 498.82
  L 214.00 499.21
  Q 213.13 499.26 213.19 499.94
  Q 216.32 533.20 218.96 566.50
  Q 217.93 567.92 217.71 569.75
  C 217.62 569.21 218.11 566.80 217.55 566.55
  A 0.85 0.55 16.9 0 1 217.04 565.94
  L 217.18 554.80
  A 0.75 0.45 16.8 0 0 216.71 554.28
  L 216.46 554.18
  A 0.61 0.35 -89.8 0 1 216.21 553.74
  Q 215.65 550.03 215.75 546.30
  C 215.78 545.08 217.01 543.53 215.41 542.29
  A 1.07 0.83 23.7 0 1 214.99 541.52
  L 215.22 531.56
  A 1.17 1.14 24.0 0 0 214.89 530.73
  C 213.06 528.88 213.74 524.71 213.74 522.24
  Q 213.75 520.24 213.48 519.30
  Q 212.11 514.43 213.59 509.74
  A 0.52 0.49 18.5 0 0 213.26 509.13
  C 211.42 508.45 211.86 501.74 212.22 499.79
  A 1.25 0.96 -16.5 0 1 212.74 499.07
  Q 213.77 498.42 214.00 497.25
  A 0.62 0.57 -83.9 0 1 214.57 496.75
  L 500.51 496.74
  A 1.10 0.63 61.5 0 1 501.22 497.18
  L 502.25 498.46
  Z"
/>
<path fill="#c52d00" fill-opacity="0.722" d="
  M 504.50 498.46
  L 502.75 498.46
  L 502.54 498.00
  C 502.85 497.49 503.26 497.24 503.90 497.26
  Q 510.66 497.51 527.25 497.51
  Q 656.03 497.49 784.82 497.50
  C 785.90 497.50 786.92 497.84 787.96 498.12
  Q 788.43 498.25 787.94 498.25
  L 504.67 498.25
  A 0.17 0.14 -78.4 0 0 504.53 498.36
  L 504.50 498.46
  Z"
/>
<path fill="#dd3a02" fill-opacity="0.871" d="
  M 502.25 498.46
  L 502.75 498.46
  L 504.50 498.46
  L 789.57 498.56
  A 0.58 0.55 -11.9 0 1 790.09 498.88
  L 790.25 499.21
  L 214.00 499.21
  L 214.09 498.82
  A 0.52 0.51 7.2 0 1 214.59 498.44
  L 502.25 498.46
  Z"
/>
<path fill="#cf2900" fill-opacity="0.922" d="
  M 66.79 605.25
  L 63.29 563.50
  Q 64.18 562.47 63.93 563.61
  A 0.52 0.35 26.9 0 0 64.18 564.05
  L 65.12 564.68
  A 0.87 0.64 -70.1 0 1 65.37 565.52
  Q 63.94 572.01 66.22 578.25
  A 1.78 1.78 -49.2 0 1 66.29 579.21
  Q 65.53 582.86 65.96 586.46
  Q 66.01 586.87 66.34 587.34
  Q 67.58 589.10 66.91 593.06
  Q 66.61 594.81 67.55 596.33
  C 67.98 597.03 69.56 607.51 66.79 605.25
  Z"
/>
<path fill="#cf2900" fill-opacity="0.922" d="
  M 218.96 566.50
  L 223.71 621.75
  Q 223.57 622.11 223.31 622.29
  A 0.46 0.38 65.2 0 1 222.69 621.99
  Q 221.44 617.91 222.11 613.84
  A 0.67 0.58 17.7 0 0 221.71 613.19
  C 219.29 612.13 221.90 601.31 220.67 600.45
  A 1.36 0.91 20.2 0 1 220.14 599.72
  Q 219.37 595.37 219.91 590.99
  A 1.86 1.85 -53.5 0 0 219.77 590.03
  C 218.52 587.23 218.96 583.85 219.07 580.84
  Q 219.13 579.09 218.41 576.85
  Q 217.31 573.46 217.71 569.75
  Q 217.93 567.92 218.96 566.50
  Z"
/>
<path fill="#bf2900" fill-opacity="0.847" d="
  M 501.71 615.84
  C 502.82 617.15 502.25 617.73 502.25 619.11
  Q 502.25 673.52 502.25 727.93
  A 1.64 0.89 39.7 0 0 502.60 728.80
  L 502.85 729.14
  A 0.67 0.48 -49.5 0 1 502.79 729.82
  Q 502.28 730.56 503.00 731.16
  L 384.43 731.00
  A 0.16 0.14 -82.1 0 0 384.29 731.12
  C 384.23 731.44 384.30 731.33 384.07 731.32
  Q 372.04 730.76 358.66 731.09
  Q 356.55 731.15 356.87 729.06
  Q 357.64 723.94 357.05 717.49
  A 0.65 0.57 88.6 0 0 356.51 716.90
  Q 355.78 716.86 355.29 717.50
  L 348.22 616.71
  A 0.85 0.84 -1.9 0 1 349.07 615.81
  L 501.71 615.84
  Z"
/>
<path fill="#c82c00" fill-opacity="0.910" d="
  M 503.00 731.16
  Q 632.65 731.33 762.31 731.23
  C 764.68 731.23 767.32 730.88 769.80 730.76
  A 0.89 0.75 -13.7 0 1 770.59 731.15
  Q 771.24 732.33 769.25 732.46
  L 768.50 732.46
  L 769.80 731.81
  Q 770.41 731.51 769.70 731.51
  Q 635.35 731.49 501.00 731.50
  Q 500.70 731.50 500.53 731.62
  Q 500.03 731.96 500.72 731.95
  Q 501.81 731.92 502.75 732.46
  L 357.08 732.48
  A 1.03 1.03 88.3 0 1 356.04 731.50
  L 355.29 717.50
  Q 355.78 716.86 356.51 716.90
  A 0.65 0.57 88.6 0 1 357.05 717.49
  Q 357.64 723.94 356.87 729.06
  Q 356.55 731.15 358.66 731.09
  Q 372.04 730.76 384.07 731.32
  C 384.30 731.33 384.23 731.44 384.29 731.12
  A 0.16 0.14 -82.1 0 1 384.43 731.00
  L 503.00 731.16
  Z"
/>
<path fill="#da2b01" fill-opacity="0.949" d="
  M 233.21 727.50
  L 235.54 758.25
  Q 235.61 758.77 235.31 759.22
  Q 235.08 759.55 234.92 759.18
  C 233.78 756.53 233.75 754.59 234.15 751.80
  Q 234.39 750.07 233.48 748.46
  Q 233.23 748.01 233.21 747.53
  L 232.98 741.33
  A 1.54 1.43 -29.7 0 1 233.26 740.44
  Q 234.64 738.54 232.78 737.41
  A 1.00 0.90 14.5 0 1 232.30 736.68
  C 232.05 734.01 230.67 729.32 233.21 727.50
  Z"
/>
<path fill="#e54206" fill-opacity="0.957" d="
  M 768.50 732.46
  L 502.75 732.46
  Q 501.81 731.92 500.72 731.95
  Q 500.03 731.96 500.53 731.62
  Q 500.70 731.50 501.00 731.50
  Q 635.35 731.49 769.70 731.51
  Q 770.41 731.51 769.80 731.81
  L 768.50 732.46
  Z"
/>
<path fill="#cd3401" fill-opacity="0.835" d="
  M 770.78 732.98
  C 771.47 732.89 771.99 732.79 772.01 733.67
  Q 772.07 736.85 771.73 740.00
  Q 771.69 740.38 771.39 740.90
  C 770.46 742.50 771.09 748.04 770.86 751.52
  A 0.78 0.78 -8.8 0 1 770.36 752.20
  L 770.03 752.34
  A 0.44 0.43 -15.8 0 0 769.75 752.83
  Q 770.79 758.32 769.55 763.63
  C 768.72 767.19 769.26 770.24 768.81 773.73
  C 768.31 777.66 768.40 781.47 767.62 785.27
  C 766.73 789.60 766.73 793.39 766.07 797.58
  C 765.56 800.78 766.35 804.00 765.67 807.39
  Q 765.06 810.36 765.00 811.15
  C 764.83 813.33 765.49 816.99 764.52 818.39
  Q 763.06 820.48 763.53 823.00
  C 764.34 827.36 763.33 831.31 763.24 834.84
  Q 763.16 838.12 762.58 841.34
  Q 762.00 844.58 762.05 847.59
  C 762.13 852.21 761.13 856.26 760.94 860.59
  C 760.72 865.96 759.58 870.82 760.08 876.26
  A 1.30 0.93 70.0 0 1 759.83 877.16
  L 759.35 877.67
  A 1.31 0.80 -34.3 0 0 758.98 878.49
  C 759.05 880.58 759.44 888.44 758.28 889.87
  A 1.33 1.15 -30.0 0 0 757.98 890.74
  C 758.13 893.77 758.42 896.26 757.87 899.38
  C 757.35 902.35 757.63 910.39 756.20 912.29
  A 1.62 1.39 -29.4 0 0 755.88 913.17
  C 755.80 915.93 756.24 918.56 755.79 921.28
  Q 754.66 928.17 755.02 935.18
  Q 755.04 935.67 754.59 936.16
  A 1.27 1.00 -29.3 0 0 754.24 937.00
  C 754.58 945.11 752.31 951.76 752.96 959.54
  A 0.99 0.55 -29.1 0 1 752.54 960.22
  C 752.22 960.46 750.81 979.41 750.81 981.24
  Q 750.81 981.70 750.58 982.18
  Q 749.72 983.97 750.35 985.80
  Q 750.53 986.31 750.44 986.75
  Q 749.17 993.46 748.86 1000.29
  Q 748.80 1001.62 748.10 1003.56
  C 747.12 1006.29 748.13 1010.00 747.80 1012.79
  C 747.16 1018.22 746.94 1023.59 746.17 1029.02
  Q 745.96 1030.49 746.20 1033.60
  C 746.42 1036.40 745.28 1039.04 745.17 1041.49
  C 745.01 1045.05 744.90 1047.78 744.41 1051.88
  Q 743.96 1055.67 744.30 1059.50
  A 1.89 1.81 56.8 0 1 744.12 1060.46
  C 741.87 1064.87 744.49 1070.99 742.00 1074.37
  A 1.05 1.04 -33.4 0 0 741.82 1075.23
  C 742.60 1078.76 743.21 1083.69 738.04 1083.99
  Q 737.53 1084.02 737.12 1084.25
  Q 734.31 1085.82 731.21 1084.86
  L 739.78 1082.35
  A 0.76 0.68 -6.0 0 0 740.32 1081.75
  Q 741.20 1073.83 741.88 1066.01
  Q 756.28 899.49 770.78 732.98
  Z"
/>
<path fill="#cf2900" fill-opacity="0.922" d="
  M 920.79 796.50
  Q 920.52 801.26 919.52 812.75
  Q 913.77 878.82 882.27 1243.45
  A 0.76 0.76 83.0 0 1 881.76 1244.11
  Q 879.76 1244.81 874.74 1246.22
  Q 838.39 1256.45 802.00 1266.54
  L 801.49 1266.28
  Q 801.06 1266.04 801.49 1265.85
  Q 804.75 1264.36 808.25 1263.78
  Q 808.69 1263.71 810.25 1263.27
  L 835.69 1256.26
  Q 836.11 1256.14 836.54 1255.80
  Q 837.67 1254.92 839.25 1255.17
  A 1.69 1.36 32.1 0 0 840.19 1255.06
  C 844.10 1253.25 848.71 1253.03 853.03 1251.22
  C 859.52 1248.52 866.49 1246.97 873.25 1245.11
  Q 873.64 1245.00 874.24 1245.08
  Q 875.20 1245.21 875.89 1244.64
  A 1.54 1.14 -58.8 0 1 876.74 1244.29
  Q 878.96 1244.25 880.43 1242.64
  A 1.41 1.16 70.2 0 0 880.75 1241.75
  C 880.73 1237.64 881.85 1233.85 881.73 1229.79
  C 881.63 1226.46 883.30 1223.70 883.07 1220.77
  Q 882.65 1215.37 883.47 1210.02
  Q 883.67 1208.77 883.76 1207.49
  L 884.19 1201.55
  A 0.86 0.43 -14.4 0 1 884.79 1201.03
  L 885.07 1200.92
  A 0.49 0.35 80.5 0 0 885.30 1200.45
  C 885.11 1197.88 884.28 1191.67 885.74 1189.65
  A 1.73 1.17 72.3 0 0 886.00 1188.76
  L 886.20 1178.75
  A 1.53 0.78 -38.6 0 1 886.59 1177.89
  C 887.81 1176.39 886.98 1169.70 886.98 1167.48
  Q 886.98 1167.02 887.23 1166.56
  C 888.82 1163.66 887.34 1159.12 888.58 1155.40
  C 889.70 1152.02 888.08 1144.40 889.64 1142.79
  A 1.26 0.98 -29.1 0 0 890.00 1141.95
  C 889.88 1138.60 889.57 1135.86 890.18 1132.38
  Q 891.16 1126.88 890.66 1121.25
  C 890.59 1120.48 891.72 1118.85 891.73 1117.52
  Q 891.78 1112.98 892.39 1108.49
  A 1.97 1.10 -35.1 0 1 892.80 1107.64
  C 894.20 1105.91 892.10 1098.68 893.39 1096.21
  C 893.67 1095.67 893.99 1095.10 893.94 1094.46
  Q 893.52 1088.98 895.23 1083.73
  Q 895.38 1083.26 895.29 1082.77
  Q 894.40 1077.88 895.67 1073.22
  Q 896.19 1071.32 896.12 1069.19
  C 895.97 1064.49 897.49 1060.40 897.10 1055.25
  C 896.88 1052.30 898.28 1049.69 898.07 1046.60
  C 897.76 1042.02 898.24 1039.23 899.83 1035.34
  Q 899.95 1035.06 899.61 1035.11
  C 898.97 1035.20 899.31 1034.68 899.21 1034.30
  Q 898.20 1030.36 900.08 1026.95
  A 1.52 1.41 -37.4 0 0 900.24 1026.02
  Q 899.39 1021.27 900.24 1016.57
  A 0.73 0.66 -87.3 0 1 900.82 1015.99
  L 901.06 1015.96
  A 0.26 0.26 -4.8 0 0 901.29 1015.69
  L 901.00 1005.31
  A 1.82 1.52 -34.0 0 1 901.27 1004.38
  L 901.53 1003.94
  A 1.81 1.71 62.4 0 0 901.79 1003.01
  C 901.78 999.99 901.08 994.75 902.94 992.33
  A 1.38 1.26 -29.0 0 0 903.24 991.45
  C 903.12 987.86 902.84 985.05 903.45 981.23
  C 903.99 977.85 903.57 974.64 904.22 971.29
  Q 905.35 965.46 904.97 959.50
  A 1.64 1.05 69.5 0 1 905.17 958.57
  L 905.75 957.66
  A 1.50 1.10 -39.5 0 0 905.98 956.76
  Q 905.33 951.62 906.26 946.57
  A 1.05 0.58 -16.9 0 1 906.84 945.97
  C 907.46 945.67 906.97 936.32 906.99 935.03
  A 1.22 0.96 -24.9 0 1 907.39 934.24
  Q 908.50 933.23 907.86 931.93
  A 1.80 1.14 45.0 0 1 907.65 931.00
  Q 908.60 921.76 909.07 912.51
  C 909.17 910.55 910.42 908.32 909.74 905.69
  A 1.83 1.51 51.6 0 1 909.76 904.73
  Q 911.81 898.42 910.92 891.77
  A 1.60 1.60 -35.5 0 1 911.08 890.82
  C 913.02 886.87 911.51 883.96 911.94 880.49
  Q 912.31 877.56 913.20 874.75
  A 1.67 1.65 -44.7 0 0 913.21 873.79
  C 911.58 868.13 915.12 864.39 913.83 858.99
  Q 913.43 857.32 915.12 853.72
  Q 915.33 853.29 915.31 852.77
  L 915.00 844.55
  A 1.80 1.36 -37.1 0 1 915.26 843.63
  C 917.51 839.89 914.59 835.66 917.04 830.95
  Q 917.27 830.49 917.26 830.01
  L 916.97 821.50
  A 1.75 1.63 -32.7 0 1 917.21 820.57
  C 918.90 817.62 917.29 813.14 918.41 809.06
  Q 919.69 804.46 919.15 799.00
  Q 918.96 797.06 920.79 796.50
  Z"
/>
<path fill="#be2400" fill-opacity="0.878" d="
  M 250.00 849.04
  L 501.25 849.04
  Q 502.44 850.06 501.56 851.41
  A 0.87 0.76 18.2 0 1 500.77 851.75
  C 499.45 851.60 497.92 851.26 496.64 851.26
  Q 370.97 851.24 245.31 851.25
  A 1.10 0.98 -17.5 0 1 244.49 850.88
  C 242.84 848.85 248.52 850.06 250.00 849.04
  Z"
/>
<path fill="#c33300" fill-opacity="0.808" d="
  M 502.25 849.04
  Q 587.88 849.59 633.94 849.17
  Q 637.59 849.14 639.27 849.39
  A 0.55 0.55 -83.2 0 1 639.73 849.98
  L 637.96 877.75
  Q 637.58 876.25 637.88 874.67
  A 0.33 0.30 16.6 0 0 637.67 874.32
  C 636.20 873.71 636.85 863.04 637.08 861.36
  A 0.48 0.33 -5.0 0 1 637.44 861.06
  L 637.74 860.99
  A 0.86 0.47 86.3 0 0 638.11 860.19
  L 637.98 852.32
  A 1.10 1.07 82.2 0 0 636.63 851.27
  Q 635.03 851.71 634.16 851.49
  Q 633.37 851.30 633.19 851.30
  L 505.16 851.27
  Q 502.50 851.27 502.50 853.92
  Q 502.50 917.77 502.50 980.00
  C 502.49 993.14 502.18 1011.14 502.56 1026.74
  A 1.92 0.87 46.1 0 0 502.88 1027.64
  Q 503.22 1028.18 503.03 1028.76
  A 0.23 0.23 9.1 0 0 503.25 1029.06
  L 506.53 1028.99
  A 1.41 1.24 -62.3 0 0 507.39 1028.66
  Q 508.61 1027.65 510.28 1027.97
  A 0.97 0.90 -60.0 0 0 511.10 1027.72
  Q 512.00 1026.87 513.26 1026.97
  Q 513.80 1027.02 514.21 1026.83
  Q 517.78 1025.22 521.67 1024.91
  A 1.65 1.26 -61.9 0 0 522.52 1024.52
  Q 523.35 1023.80 524.51 1023.93
  A 1.15 1.10 26.6 0 0 525.36 1023.67
  Q 526.58 1022.62 528.29 1022.96
  A 0.77 0.70 -65.6 0 0 529.03 1022.64
  C 529.72 1021.67 531.57 1022.28 532.69 1021.50
  Q 533.22 1021.13 533.55 1021.06
  Q 535.81 1020.60 538.09 1020.08
  C 539.48 1019.76 541.28 1018.86 543.23 1018.95
  A 1.39 1.22 -60.3 0 0 544.10 1018.65
  Q 545.12 1017.80 546.50 1017.92
  A 1.17 1.17 -62.5 0 0 547.35 1017.65
  Q 548.58 1016.62 550.29 1016.95
  A 0.86 0.74 -61.4 0 0 551.05 1016.66
  Q 551.60 1016.03 552.51 1016.19
  Q 553.09 1016.28 553.47 1016.15
  C 554.21 1015.89 556.96 1014.42 557.00 1016.21
  L 506.00 1030.21
  C 506.09 1028.89 503.23 1030.04 501.98 1029.96
  L 502.00 852.00
  A 1.82 1.01 -41.8 0 1 502.31 851.11
  Q 502.92 850.14 502.25 849.04
  Z"
/>
<path fill="#bc3100" fill-opacity="0.773" d="
  M 637.96 877.75
  L 629.80 995.16
  A 1.28 1.28 -5.7 0 1 628.86 996.31
  L 557.00 1016.21
  C 556.96 1014.42 554.21 1015.89 553.47 1016.15
  Q 553.09 1016.28 552.51 1016.19
  Q 551.60 1016.03 551.05 1016.66
  A 0.86 0.74 -61.4 0 1 550.29 1016.95
  Q 548.58 1016.62 547.35 1017.65
  A 1.17 1.17 -62.5 0 1 546.50 1017.92
  Q 545.12 1017.80 544.10 1018.65
  A 1.39 1.22 -60.3 0 1 543.23 1018.95
  C 541.28 1018.86 539.48 1019.76 538.09 1020.08
  Q 535.81 1020.60 533.55 1021.06
  Q 533.22 1021.13 532.69 1021.50
  C 531.57 1022.28 529.72 1021.67 529.03 1022.64
  A 0.77 0.70 -65.6 0 1 528.29 1022.96
  Q 526.58 1022.62 525.36 1023.67
  A 1.15 1.10 26.6 0 1 524.51 1023.93
  Q 523.35 1023.80 522.52 1024.52
  A 1.65 1.26 -61.9 0 1 521.67 1024.91
  Q 517.78 1025.22 514.21 1026.83
  Q 513.80 1027.02 513.26 1026.97
  Q 512.00 1026.87 511.10 1027.72
  A 0.97 0.90 -60.0 0 1 510.28 1027.97
  Q 508.61 1027.65 507.39 1028.66
  A 1.41 1.24 -62.3 0 1 506.53 1028.99
  L 503.25 1029.06
  A 0.23 0.23 9.1 0 1 503.03 1028.76
  Q 503.22 1028.18 502.88 1027.64
  A 1.92 0.87 46.1 0 1 502.56 1026.74
  C 502.18 1011.14 502.49 993.14 502.50 980.00
  Q 502.50 917.77 502.50 853.92
  Q 502.50 851.27 505.16 851.27
  L 633.19 851.30
  Q 633.37 851.30 634.16 851.49
  Q 635.03 851.71 636.63 851.27
  A 1.10 1.07 82.2 0 1 637.98 852.32
  L 638.11 860.19
  A 0.86 0.47 86.3 0 1 637.74 860.99
  L 637.44 861.06
  A 0.48 0.33 -5.0 0 0 637.08 861.36
  C 636.85 863.04 636.20 873.71 637.67 874.32
  A 0.33 0.30 16.6 0 1 637.88 874.67
  Q 637.58 876.25 637.96 877.75
  Z"
/>
<path fill="#d22c00" fill-opacity="0.894" d="
  M 367.21 904.74
  L 248.99 904.79
  A 0.45 0.45 87.1 0 0 248.54 905.29
  L 257.46 1009.50
  Q 256.62 1011.21 256.13 1009.26
  C 255.76 1007.81 256.22 1005.33 256.27 1003.74
  A 1.31 0.88 -75.0 0 0 255.97 1002.86
  L 255.40 1002.31
  A 1.21 0.74 31.4 0 1 254.99 1001.51
  L 255.26 991.79
  A 0.61 0.46 10.7 0 0 254.81 991.30
  C 253.52 990.92 253.90 983.20 254.14 981.99
  A 0.68 0.42 -79.7 0 0 253.84 981.23
  L 253.56 981.18
  A 0.40 0.30 2.1 0 1 253.22 980.91
  Q 252.49 975.30 253.54 969.80
  A 0.84 0.75 25.5 0 0 253.22 969.04
  C 251.47 967.66 251.67 961.85 251.76 959.75
  Q 251.77 959.43 252.03 958.82
  Q 252.39 957.96 251.50 957.41
  A 0.99 0.74 20.8 0 1 251.03 956.67
  L 251.20 946.79
  A 0.72 0.43 16.2 0 0 250.73 946.29
  L 250.48 946.19
  A 0.60 0.34 -88.7 0 1 250.24 945.74
  Q 249.95 942.31 249.76 938.88
  C 249.56 935.43 248.68 929.75 249.02 925.02
  C 249.15 923.12 248.70 922.36 247.74 920.85
  A 1.57 1.52 -61.3 0 1 247.49 919.94
  L 247.79 913.25
  Q 247.86 911.65 247.32 910.01
  Q 246.11 906.32 248.18 903.37
  A 1.00 0.96 17.3 0 1 248.98 902.97
  L 366.94 902.99
  A 0.59 0.51 -1.0 0 1 367.53 903.48
  Q 367.54 904.04 367.21 904.74
  Z"
/>
<path fill="#da2b01" fill-opacity="0.949" d="
  M 440.75 1014.29
  L 375.23 996.14
  A 0.74 0.70 6.5 0 1 374.69 995.50
  L 373.54 979.00
  C 374.13 976.77 375.03 978.86 375.02 979.50
  Q 374.93 984.46 374.75 989.44
  A 0.77 0.67 15.6 0 0 375.19 990.11
  C 377.24 991.09 375.61 993.59 376.68 995.37
  A 0.96 0.81 -13.0 0 0 377.46 995.77
  C 381.19 995.79 384.01 997.65 387.20 998.19
  A 1.31 0.81 68.5 0 1 387.91 998.72
  C 388.56 999.65 390.55 998.91 391.85 999.96
  A 1.22 1.10 58.5 0 0 392.72 1000.22
  Q 394.39 1000.00 395.79 1000.79
  A 1.68 1.52 -29.3 0 0 396.70 1001.00
  Q 398.10 1000.93 398.95 1001.94
  A 0.87 0.79 63.0 0 0 399.74 1002.24
  Q 401.77 1001.85 404.24 1002.96
  Q 408.29 1004.78 427.68 1009.55
  C 428.87 1009.84 430.80 1009.73 431.90 1010.83
  Q 432.23 1011.16 432.71 1011.30
  L 441.22 1013.61
  Q 441.95 1013.81 441.40 1014.19
  Q 441.16 1014.36 440.75 1014.29
  Z"
/>
<path fill="#da2b01" fill-opacity="0.949" d="
  M 501.98 1029.96
  C 503.23 1030.04 506.09 1028.89 506.00 1030.21
  C 504.09 1030.78 502.72 1031.44 500.67 1030.89
  Q 471.63 1023.04 442.71 1014.75
  Q 441.66 1013.72 443.08 1014.18
  Q 443.47 1014.30 443.94 1014.23
  C 445.47 1013.99 446.06 1014.95 447.25 1015.28
  Q 449.37 1015.86 451.52 1016.21
  C 453.81 1016.60 455.80 1017.79 458.24 1018.12
  Q 460.16 1018.38 462.09 1019.12
  C 464.08 1019.88 465.92 1019.80 467.85 1020.66
  C 470.32 1021.77 473.27 1022.05 475.64 1022.82
  Q 477.51 1023.43 479.44 1023.85
  C 482.02 1024.41 484.49 1025.98 487.53 1025.96
  Q 488.03 1025.95 488.47 1026.20
  Q 490.50 1027.35 492.74 1028.00
  C 494.05 1028.39 495.46 1027.97 496.83 1028.76
  A 1.50 1.42 -33.4 0 0 497.74 1028.92
  Q 498.93 1028.75 499.67 1029.58
  A 1.20 0.78 60.9 0 0 500.46 1030.00
  L 501.98 1029.96
  Z"
/>
<path fill="#cf2900" fill-opacity="0.922" d="
  M 259.19 1028.50
  L 263.82 1081.45
  A 0.92 0.92 5.1 0 0 264.49 1082.25
  L 386.29 1116.00
  C 388.41 1118.00 380.78 1115.54 379.98 1115.16
  A 1.67 1.46 -33.4 0 0 379.04 1115.03
  Q 377.29 1115.28 376.03 1114.19
  A 1.48 1.14 60.7 0 0 375.18 1113.83
  C 370.69 1113.71 367.13 1111.84 362.90 1111.04
  Q 360.50 1110.59 357.69 1109.69
  Q 353.21 1108.26 344.81 1106.52
  A 1.55 0.84 63.2 0 1 344.06 1106.00
  C 343.23 1105.02 338.48 1104.42 335.95 1103.42
  A 2.07 1.45 -30.3 0 0 335.00 1103.34
  Q 333.50 1103.59 332.76 1102.38
  A 1.13 0.93 75.2 0 0 332.05 1101.87
  Q 326.57 1101.09 321.52 1098.99
  Q 320.42 1098.53 317.95 1098.00
  Q 303.22 1094.81 288.71 1090.75
  C 286.78 1090.21 284.65 1088.46 281.70 1088.80
  A 1.36 1.28 -30.0 0 1 280.80 1088.59
  Q 278.53 1087.08 275.81 1087.21
  A 0.90 0.74 69.7 0 1 275.09 1086.79
  Q 274.71 1086.17 273.97 1086.22
  Q 273.42 1086.25 273.01 1086.15
  L 265.53 1084.29
  Q 265.10 1084.18 264.69 1083.86
  L 262.41 1082.05
  A 1.26 0.84 24.3 0 1 261.93 1081.28
  Q 261.66 1078.29 261.73 1075.34
  C 261.76 1074.12 263.01 1072.43 261.42 1071.29
  A 1.04 0.83 22.4 0 1 260.99 1070.52
  L 261.25 1060.81
  A 0.57 0.47 6.9 0 0 260.78 1060.32
  C 259.11 1059.98 259.99 1050.80 260.20 1049.73
  A 0.96 0.87 29.6 0 0 259.93 1048.91
  C 258.24 1047.18 259.06 1040.03 259.23 1037.57
  A 1.11 1.11 25.2 0 0 258.92 1036.71
  C 258.63 1036.41 258.22 1036.06 258.11 1035.69
  Q 256.94 1031.73 259.19 1028.50
  Z"
/>
<path fill="#cd3401" fill-opacity="0.835" d="
  M 699.97 1093.33
  Q 701.14 1093.90 699.97 1094.53
  Q 697.10 1096.08 693.89 1096.85
  Q 681.93 1099.73 679.70 1100.45
  Q 673.49 1102.47 669.03 1103.45
  Q 665.90 1104.14 663.17 1105.24
  C 659.74 1106.63 656.53 1106.50 653.94 1107.82
  A 1.49 1.44 -53.3 0 1 653.02 1107.97
  C 651.17 1107.69 650.13 1108.79 648.64 1109.13
  Q 642.30 1110.57 636.11 1112.43
  C 634.83 1112.82 632.97 1112.73 631.65 1113.70
  A 1.39 1.37 27.5 0 1 630.77 1113.97
  C 629.39 1113.92 628.06 1114.71 627.08 1114.98
  C 622.15 1116.33 616.57 1119.30 612.30 1119.30
  A 1.18 0.99 -65.7 0 0 611.49 1119.69
  Q 610.61 1120.64 609.14 1120.30
  A 0.86 0.84 -60.5 0 0 608.34 1120.53
  Q 607.22 1121.65 605.48 1121.29
  A 1.64 1.32 32.7 0 0 604.54 1121.39
  Q 601.32 1122.98 599.50 1123.03
  Q 597.61 1123.09 596.62 1123.93
  A 1.10 0.98 -58.0 0 1 595.77 1124.18
  C 593.85 1123.84 592.69 1124.92 591.08 1125.17
  C 585.30 1126.09 579.83 1128.40 574.07 1129.59
  C 570.38 1130.36 566.88 1132.09 563.57 1132.89
  Q 559.04 1133.98 554.54 1135.15
  C 553.18 1135.51 552.15 1136.37 550.19 1136.06
  A 0.96 0.90 -62.1 0 0 549.37 1136.34
  Q 548.23 1137.47 546.42 1137.06
  A 0.50 0.48 -75.2 0 0 545.84 1137.41
  Q 545.51 1138.55 544.24 1138.35
  Q 543.66 1138.26 543.28 1138.37
  C 537.48 1139.93 532.84 1141.14 525.87 1142.76
  Q 521.97 1143.67 518.21 1145.00
  Q 516.86 1144.72 515.87 1145.43
  A 1.71 0.62 -44.9 0 1 515.01 1145.83
  Q 513.82 1145.94 513.00 1145.04
  L 699.97 1093.33
  Z"
/>
<path fill="#cf2900" fill-opacity="0.922" d="
  M 413.50 1123.54
  L 501.75 1147.79
  C 503.86 1150.59 495.90 1147.67 494.98 1147.16
  A 1.81 1.64 -28.8 0 0 494.05 1146.94
  C 491.52 1147.02 489.13 1145.69 487.41 1145.26
  Q 478.04 1142.89 468.73 1140.28
  C 467.32 1139.88 466.06 1138.71 464.07 1138.95
  A 0.83 0.72 -17.0 0 1 463.30 1138.61
  L 463.16 1138.38
  A 0.49 0.44 73.8 0 0 462.76 1138.13
  Q 458.35 1138.10 454.50 1136.03
  Q 452.66 1135.04 445.66 1134.15
  A 1.24 0.64 62.5 0 1 444.96 1133.66
  C 444.55 1133.13 443.98 1133.39 443.63 1133.30
  Q 429.51 1129.63 425.78 1128.28
  Q 422.15 1126.96 420.08 1126.95
  Q 419.55 1126.95 419.14 1126.73
  Q 416.07 1125.05 414.05 1124.93
  Q 411.72 1124.78 413.50 1123.54
  Z"
/>
<path fill="#da2b01" fill-opacity="0.949" d="
  M 451.50 1336.29
  L 167.46 1256.75
  Q 168.82 1255.65 170.59 1256.67
  C 172.84 1257.97 176.01 1257.79 178.41 1258.69
  C 183.41 1260.54 189.37 1261.49 193.46 1262.98
  Q 195.99 1263.90 198.08 1264.08
  Q 198.51 1264.11 198.99 1264.41
  C 201.42 1265.91 206.41 1266.48 209.32 1267.22
  Q 212.08 1267.91 214.64 1269.15
  Q 215.94 1269.78 218.51 1270.06
  Q 220.23 1270.25 222.27 1271.07
  C 224.65 1272.03 226.79 1271.92 229.16 1272.92
  C 231.69 1273.99 234.27 1274.17 236.87 1275.10
  Q 238.41 1275.65 240.26 1275.97
  C 243.12 1276.47 245.53 1277.65 248.72 1278.20
  C 250.91 1278.58 253.37 1279.70 255.13 1280.19
  Q 260.26 1281.61 265.41 1282.97
  C 266.38 1283.22 267.85 1284.33 269.27 1284.10
  A 1.71 1.33 -30.6 0 1 270.20 1284.22
  Q 273.45 1285.81 277.08 1286.11
  A 1.69 1.18 58.7 0 1 277.94 1286.49
  C 279.25 1287.55 281.17 1286.21 281.70 1287.23
  A 1.03 0.59 71.7 0 0 282.31 1287.78
  Q 288.24 1288.62 293.78 1290.97
  Q 295.43 1291.67 299.20 1292.15
  A 1.31 0.86 66.7 0 1 299.95 1292.64
  C 300.74 1293.68 306.12 1294.28 308.77 1295.17
  C 310.96 1295.91 313.42 1296.14 315.76 1297.06
  C 318.60 1298.19 321.57 1298.26 324.35 1299.81
  A 1.70 1.22 -26.0 0 0 325.28 1299.97
  C 328.31 1299.64 330.91 1302.35 335.02 1302.02
  A 0.90 0.76 68.3 0 1 335.75 1302.41
  Q 336.47 1303.44 337.75 1302.98
  A 0.54 0.50 65.6 0 1 338.38 1303.24
  Q 338.90 1304.27 340.41 1303.97
  A 2.11 2.04 51.3 0 1 341.69 1304.13
  Q 345.17 1305.74 347.75 1306.07
  Q 348.32 1306.15 350.00 1306.75
  Q 352.78 1307.73 355.69 1308.20
  A 1.73 1.31 66.1 0 1 356.52 1308.66
  C 357.57 1309.73 362.38 1310.01 363.99 1310.13
  A 1.96 1.62 59.2 0 1 364.89 1310.45
  Q 366.86 1311.80 369.94 1312.39
  Q 370.58 1312.51 371.20 1312.73
  Q 374.08 1313.76 377.03 1314.14
  Q 377.47 1314.20 377.95 1314.50
  Q 379.23 1315.31 380.79 1315.03
  A 0.75 0.68 67.5 0 1 381.51 1315.37
  Q 381.96 1316.06 382.76 1316.03
  Q 383.47 1316.00 383.75 1316.09
  L 396.27 1319.89
  Q 396.70 1320.02 397.24 1319.94
  C 398.98 1319.66 399.68 1320.66 400.82 1321.03
  C 402.98 1321.73 404.78 1321.95 407.02 1322.94
  C 409.02 1323.82 411.35 1323.86 413.29 1324.52
  Q 417.78 1326.03 422.51 1326.70
  A 1.57 1.24 66.1 0 1 423.33 1327.13
  Q 424.21 1328.00 425.54 1328.25
  Q 426.76 1328.47 428.54 1328.97
  Q 434.32 1330.60 440.14 1331.96
  C 442.63 1332.54 445.60 1334.09 448.69 1334.32
  A 1.61 1.10 59.2 0 1 449.53 1334.71
  Q 450.29 1335.37 451.41 1335.32
  A 1.27 0.82 -14.7 0 1 452.29 1335.61
  Q 452.97 1336.35 451.50 1336.29
  Z"
/>
<path fill="#da2b01" fill-opacity="0.949" d="
  M 789.04 1270.21
  L 748.50 1281.54
  Q 746.20 1281.24 748.29 1280.64
  Q 767.07 1275.23 785.95 1270.19
  Q 786.58 1270.02 787.30 1269.49
  Q 788.93 1268.28 789.04 1270.21
  Z"
/>
<path fill="#da2b01" fill-opacity="0.949" d="
  M 746.57 1281.92
  L 683.79 1299.50
  L 683.44 1299.25
  A 0.24 0.21 46.4 0 1 683.42 1298.87
  Q 685.92 1297.37 686.49 1297.23
  Q 709.11 1291.71 723.06 1286.97
  Q 723.42 1286.85 724.02 1286.91
  Q 724.92 1286.99 725.59 1286.33
  A 1.16 0.93 -59.9 0 1 726.41 1286.01
  Q 728.11 1286.14 729.48 1285.38
  Q 729.93 1285.13 730.40 1285.09
  Q 733.08 1284.90 737.21 1282.97
  Q 740.61 1281.38 746.57 1281.92
  Z"
/>
<path fill="#da2b01" fill-opacity="0.949" d="
  M 682.29 1300.00
  L 619.50 1317.54
  C 617.68 1316.60 621.95 1316.10 622.08 1316.08
  Q 622.51 1316.02 625.01 1315.30
  L 636.29 1312.06
  Q 640.41 1310.88 641.74 1310.28
  C 643.64 1309.43 646.80 1309.10 649.03 1308.37
  Q 656.63 1305.85 660.23 1305.20
  Q 663.59 1304.59 665.80 1303.27
  A 1.68 1.61 -58.4 0 1 666.72 1303.03
  Q 669.79 1303.12 672.35 1301.52
  A 1.81 1.67 27.4 0 1 673.26 1301.27
  C 675.49 1301.29 676.89 1300.08 678.93 1299.79
  Q 680.53 1299.55 682.10 1299.23
  Q 682.61 1299.13 682.45 1299.58
  L 682.29 1300.00
  Z"
/>
<path fill="#da2b01" fill-opacity="0.949" d="
  M 617.50 1318.21
  L 576.79 1329.50
  Q 576.42 1328.66 577.76 1328.27
  Q 597.55 1322.57 617.52 1317.33
  Q 618.20 1317.15 617.99 1317.68
  Q 617.88 1317.97 617.50 1318.21
  Z"
/>
<path fill="#da2b01" fill-opacity="0.949" d="
  M 574.24 1330.36
  L 502.72 1350.37
  A 1.83 1.76 43.9 0 1 501.77 1350.37
  L 453.50 1336.96
  Q 454.58 1335.52 456.45 1336.62
  Q 458.59 1337.88 461.80 1337.98
  Q 462.26 1338.00 462.70 1338.27
  Q 464.39 1339.31 466.50 1339.01
  A 1.37 0.71 -18.4 0 1 467.44 1339.16
  Q 467.74 1339.39 467.89 1339.75
  A 0.76 0.63 75.0 0 0 468.54 1340.21
  Q 471.47 1340.04 473.06 1341.10
  A 4.83 4.77 -26.9 0 0 475.53 1341.89
  Q 477.81 1341.99 478.67 1342.76
  Q 479.21 1343.24 479.45 1343.33
  Q 481.41 1344.07 483.43 1343.87
  A 1.51 1.48 -32.9 0 1 484.36 1344.06
  C 487.14 1345.64 490.03 1345.68 492.81 1347.04
  Q 493.19 1347.23 493.75 1347.23
  Q 495.05 1347.25 496.09 1348.06
  A 0.99 0.98 -32.2 0 0 496.95 1348.25
  Q 499.06 1347.75 500.43 1349.28
  Q 501.40 1350.36 503.71 1349.20
  Q 507.06 1347.52 510.73 1347.18
  A 1.58 1.17 -62.3 0 0 511.56 1346.78
  Q 512.65 1345.77 514.31 1345.94
  A 1.16 1.01 -60.3 0 0 515.15 1345.65
  Q 516.28 1344.66 517.98 1344.92
  A 1.60 1.31 30.7 0 0 518.91 1344.78
  C 521.49 1343.42 524.76 1343.01 526.99 1342.30
  C 530.74 1341.10 534.84 1340.40 538.33 1339.35
  Q 543.91 1337.67 548.44 1336.57
  Q 551.65 1335.80 553.03 1335.33
  L 558.78 1333.40
  Q 559.21 1333.26 559.73 1333.31
  Q 561.03 1333.43 561.92 1332.58
  A 0.99 0.96 -62.3 0 1 562.74 1332.31
  Q 564.18 1332.55 565.32 1331.77
  Q 565.78 1331.46 566.22 1331.40
  Q 570.85 1330.70 572.25 1329.97
  Q 575.89 1328.09 574.24 1330.36
  Z"
/>
</svg>
