<?xml version="1.0" encoding="UTF-8" standalone="no"?>
<!DOCTYPE svg PUBLIC "-//W3C//DTD SVG 1.0//EN" "http://www.w3.org/TR/2001/REC-SVG-20010904/DTD/svg10.dtd">
<svg xmlns="http://www.w3.org/2000/svg" version="1.0" viewBox="0 0 984 1386">
<g stroke-width="2.00" fill="none" stroke-linecap="butt">
<path stroke="#eccb00" stroke-opacity="0.925" vector-effect="non-scaling-stroke" d="
  M 528.92 1147.86
  C 528.93 1149.62 535.63 1147.48 537.06 1147.08
  Q 648.41 1116.32 759.75 1085.52
  C 765.32 1083.98 769.27 1083.69 767.96 1077.00"
/>
<path stroke="#f3d101" stroke-opacity="0.945" vector-effect="non-scaling-stroke" d="
  M 815.75 499.46
  Q 816.11 499.04 816.02 498.67
  A 0.83 0.55 -4.5 0 0 815.26 498.25
  C 791.07 498.25 528.15 498.05 528.03 498.54
  A 0.53 0.39 11.6 0 0 528.48 499.04
  L 530.75 499.46"
/>
<path stroke="#f6d200" stroke-opacity="0.965" vector-effect="non-scaling-stroke" d="
  M 767.96 1077.00
  Q 767.48 1074.09 766.79 1076.00"
/>
</g>
<path fill="#000000" d="
  M 416.46 138.89
  Q 416.55 96.89 416.47 54.14
  A 0.65 0.64 -0.0 0 1 417.12 53.50
  L 461.69 53.50
  A 0.31 0.31 0.0 0 1 462.00 53.81
  L 462.00 225.44
  A 0.31 0.31 0.0 0 1 461.69 225.75
  L 340.89 225.75
  A 0.54 0.54 89.8 0 1 340.35 225.21
  Q 340.62 206.79 340.46 188.39
  C 340.45 186.54 339.98 183.35 340.45 180.74
  A 0.60 0.59 5.2 0 1 341.04 180.26
  L 415.51 180.25
  A 0.90 0.89 -0.6 0 0 416.41 179.34
  C 416.04 165.87 416.44 148.21 416.46 138.89
  Z"
/>
<path fill="#000000" d="
  M 603.44 159.81
  L 487.80 159.77
  A 0.55 0.54 0.0 0 1 487.25 159.23
  L 487.25 53.81
  A 0.31 0.31 0.0 0 1 487.56 53.50
  L 649.12 53.50
  A 0.42 0.41 90.0 0 1 649.53 53.92
  L 649.51 98.51
  A 0.50 0.50 0.0 0 1 649.01 99.01
  L 533.68 99.04
  A 0.53 0.50 0.0 0 0 533.15 99.54
  L 533.15 118.72
  A 0.53 0.49 0.0 0 0 533.68 119.21
  L 649.01 119.24
  A 0.49 0.49 0.0 0 1 649.50 119.73
  L 649.50 225.44
  A 0.31 0.31 -90.0 0 1 649.19 225.75
  L 487.80 225.75
  A 0.53 0.53 0.2 0 1 487.27 225.22
  L 487.29 180.78
  A 0.52 0.51 0.0 0 1 487.81 180.27
  L 603.26 180.26
  A 0.73 0.72 -0.0 0 0 603.99 179.54
  L 603.94 160.32
  A 0.51 0.50 90.0 0 0 603.44 159.81
  Z"
/>
<path fill="#c49b03" fill-opacity="0.843" d="
  M 953.04 312.50
  Q 953.49 309.79 951.38 308.90
  A 1.77 1.07 -27.6 0 0 950.43 308.84
  C 947.99 309.32 924.57 309.20 924.28 308.50
  A 0.80 0.55 74.5 0 0 923.69 308.00
  L 72.07 308.00
  A 0.22 0.19 86.0 0 0 71.89 308.25
  L 71.91 308.51
  A 0.61 0.44 -1.4 0 1 71.28 308.99
  L 57.93 308.72
  Q 57.88 308.72 57.14 308.45
  Q 56.91 308.36 56.66 308.46
  Q 55.92 308.74 55.75 308.75
  L 33.73 309.08
  A 0.60 0.52 0.4 0 0 33.14 309.58
  L 32.78 315.94
  A 1.16 0.68 30.3 0 0 33.22 316.72
  C 34.56 317.84 33.77 326.22 33.78 328.32
  A 1.19 1.16 22.2 0 0 34.15 329.17
  L 34.64 329.65
  A 1.20 0.79 32.4 0 1 35.02 330.50
  L 34.44 335.71
  Q 34.37 336.43 34.05 335.77
  L 33.79 335.25
  L 31.39 307.72
  A 0.64 0.63 -2.5 0 1 32.03 307.03
  L 952.68 307.03
  A 0.57 0.48 1.0 0 1 953.25 307.53
  L 953.04 312.50
  Z"
/>
<path fill="#c59b00" fill-opacity="0.800" d="
  M 953.04 312.50
  C 942.70 432.83 932.26 553.15 921.85 673.47
  Q 919.59 674.28 919.95 677.01
  Q 920.40 680.33 920.23 683.68
  A 1.65 1.27 -28.8 0 1 919.85 684.55
  C 918.21 686.44 919.18 692.32 919.62 694.72
  A 1.15 1.08 -31.7 0 1 919.38 695.60
  C 916.96 698.61 918.19 703.23 918.21 707.24
  A 0.69 0.62 -12.9 0 1 917.79 707.83
  L 917.39 708.01
  A 0.79 0.71 79.0 0 0 916.96 708.73
  L 917.22 719.18
  A 1.04 0.82 -22.9 0 1 916.80 719.94
  Q 915.97 720.57 915.99 721.51
  Q 916.10 726.80 914.70 730.98
  Q 914.54 731.46 914.63 731.95
  Q 915.35 735.92 913.99 739.71
  Q 913.55 740.95 913.66 745.57
  C 913.76 749.78 912.47 753.81 912.60 758.22
  Q 912.67 760.61 912.14 763.22
  C 911.39 766.88 912.04 770.33 911.28 774.05
  C 910.50 777.84 910.68 782.58 910.31 785.74
  Q 909.82 789.84 909.81 793.99
  C 909.81 796.97 908.59 799.91 908.72 803.01
  Q 908.89 807.04 908.67 809.77
  Q 908.66 809.94 908.58 809.78
  Q 908.36 809.35 908.34 809.75
  Q 908.10 813.95 908.02 818.14
  C 907.93 822.28 906.24 824.89 907.22 829.75
  C 907.78 832.49 906.37 835.57 906.28 838.01
  Q 906.16 841.31 906.29 844.62
  A 0.32 0.22 -2.1 0 0 906.62 844.83
  Q 906.80 844.83 906.96 845.00
  L 874.21 1224.75
  L 873.53 1228.47
  A 0.56 0.47 2.2 0 1 873.01 1228.87
  C 871.86 1228.92 872.21 1237.97 872.18 1239.17
  A 1.27 1.06 -24.7 0 1 871.79 1239.99
  Q 870.62 1241.12 870.99 1242.85
  A 0.81 0.81 -10.8 0 1 870.33 1243.82
  Q 866.06 1244.53 861.97 1245.89
  Q 857.41 1247.39 852.68 1248.11
  Q 852.36 1248.16 852.28 1248.39
  A 0.85 0.50 -79.8 0 1 851.87 1248.87
  L 845.47 1250.86
  Q 844.93 1251.03 844.53 1250.99
  Q 843.05 1250.80 841.88 1251.71
  A 1.24 1.20 -60.2 0 1 841.01 1251.96
  Q 839.32 1251.78 838.12 1252.96
  A 0.93 0.91 27.5 0 1 837.30 1253.21
  Q 835.95 1252.95 834.88 1253.74
  A 1.15 1.14 -57.8 0 1 834.02 1253.94
  Q 832.20 1253.62 831.10 1254.90
  A 0.85 0.83 -63.8 0 1 830.31 1255.18
  Q 828.94 1254.93 827.92 1255.76
  A 1.58 1.29 -61.5 0 1 827.06 1256.11
  Q 825.38 1256.18 823.91 1257.05
  A 1.17 1.09 36.6 0 1 823.02 1257.15
  Q 821.50 1256.74 820.40 1257.70
  A 1.10 1.05 -61.0 0 1 819.56 1257.96
  Q 818.14 1257.78 817.10 1258.64
  A 1.63 1.09 -56.1 0 1 816.24 1258.99
  L 814.72 1259.01
  A 1.59 1.27 -58.6 0 0 813.84 1259.33
  Q 812.43 1260.38 810.57 1259.99
  A 0.47 0.32 13.4 0 0 810.07 1260.18
  L 809.96 1260.51
  A 0.64 0.49 -77.7 0 1 809.43 1260.96
  Q 807.32 1260.81 805.45 1261.81
  A 1.38 1.29 34.9 0 1 804.54 1261.94
  Q 803.22 1261.68 802.50 1262.57
  A 0.99 0.88 -66.0 0 1 801.73 1262.92
  Q 800.15 1262.80 798.87 1263.73
  A 1.16 1.10 29.9 0 1 798.00 1263.94
  Q 796.22 1263.68 795.14 1264.87
  A 1.20 0.88 -61.7 0 1 794.32 1265.26
  L 793.48 1265.23
  Q 792.96 1265.21 792.54 1265.41
  Q 789.16 1267.01 785.42 1267.38
  A 0.70 0.51 -64.2 0 0 785.03 1267.59
  L 784.86 1267.77
  A 1.05 0.69 18.9 0 1 784.03 1267.98
  Q 782.28 1267.70 780.89 1268.71
  A 1.26 1.26 -59.5 0 1 780.00 1268.94
  Q 778.48 1268.75 777.40 1269.69
  A 1.07 1.06 -61.1 0 1 776.55 1269.94
  Q 775.26 1269.74 774.54 1270.55
  A 1.65 1.00 -63.7 0 1 773.75 1271.05
  Q 771.32 1271.54 768.86 1272.11
  C 767.39 1272.45 766.37 1273.59 764.46 1273.29
  A 1.06 0.96 -60.2 0 0 763.63 1273.56
  C 762.61 1274.49 760.31 1274.08 760.08 1274.50
  A 1.15 0.67 -73.2 0 1 759.46 1275.08
  Q 754.35 1276.18 749.27 1277.54
  C 748.31 1277.79 746.35 1277.82 745.40 1278.68
  A 1.79 1.22 -61.2 0 1 744.55 1279.11
  C 741.32 1279.55 738.78 1281.24 735.85 1281.33
  A 1.37 1.12 -64.1 0 0 735.03 1281.71
  Q 734.21 1282.52 732.95 1282.30
  A 1.31 1.29 33.6 0 0 732.06 1282.47
  Q 730.77 1283.24 729.22 1283.02
  A 1.18 0.58 16.4 0 0 728.31 1283.18
  L 727.81 1283.68
  A 1.02 0.71 -56.3 0 1 727.04 1283.98
  Q 725.16 1283.64 723.85 1284.92
  A 0.99 0.98 -62.8 0 1 723.02 1285.19
  Q 721.79 1285.02 720.89 1285.70
  A 1.22 1.05 -57.0 0 1 720.04 1285.95
  Q 718.19 1285.74 716.82 1286.85
  A 1.76 1.40 -61.4 0 1 715.95 1287.22
  Q 712.92 1287.48 710.06 1288.59
  Q 708.94 1289.03 704.70 1289.84
  C 703.08 1290.15 701.86 1291.32 699.83 1291.00
  A 0.49 0.45 17.5 0 0 699.34 1291.23
  L 699.18 1291.53
  A 1.14 0.92 -78.2 0 1 698.48 1292.10
  L 692.76 1293.16
  A 1.88 1.40 -63.9 0 0 691.93 1293.59
  Q 691.14 1294.28 689.94 1294.07
  A 1.16 1.11 30.7 0 0 689.08 1294.27
  Q 687.74 1295.25 686.02 1295.06
  A 1.07 0.98 -62.7 0 0 685.19 1295.37
  Q 684.21 1296.36 682.71 1296.05
  A 0.80 0.78 -63.5 0 0 681.94 1296.32
  C 680.57 1297.96 679.05 1296.56 677.84 1297.72
  A 0.99 0.86 -58.2 0 1 677.03 1297.97
  Q 675.45 1297.64 674.36 1298.67
  A 1.05 0.96 -60.9 0 1 673.52 1298.95
  Q 671.74 1298.70 670.44 1299.71
  Q 670.00 1300.05 669.57 1300.14
  L 664.48 1301.13
  A 2.07 1.34 -61.2 0 0 663.64 1301.58
  Q 662.55 1302.57 660.97 1302.28
  A 0.84 0.77 -63.0 0 0 660.20 1302.57
  Q 659.54 1303.36 658.47 1303.27
  Q 657.87 1303.22 657.49 1303.33
  Q 653.06 1304.66 648.63 1305.99
  C 647.46 1306.34 646.22 1305.95 645.12 1306.96
  A 0.98 0.98 29.3 0 1 644.28 1307.20
  C 643.59 1307.08 627.90 1311.47 627.77 1311.67
  A 0.70 0.63 -66.8 0 1 627.08 1311.99
  Q 625.16 1311.60 623.82 1312.89
  A 1.02 1.01 -63.3 0 1 622.99 1313.17
  Q 621.78 1313.03 620.89 1313.71
  A 1.19 1.06 -57.3 0 1 620.03 1313.95
  Q 618.34 1313.69 617.18 1314.71
  Q 616.83 1315.02 616.34 1315.12
  L 610.54 1316.37
  A 1.48 0.48 -54.8 0 0 609.79 1316.93
  Q 609.29 1317.49 608.46 1317.32
  A 2.03 1.04 26.0 0 0 607.50 1317.34
  Q 605.20 1318.11 602.85 1318.71
  C 599.81 1319.50 596.03 1320.98 592.16 1321.12
  Q 591.53 1321.15 589.48 1321.94
  Q 588.68 1322.25 588.06 1322.95
  A 0.92 0.89 24.9 0 1 587.26 1323.23
  Q 585.61 1322.97 584.36 1323.94
  A 1.19 1.11 -59.2 0 1 583.50 1324.19
  Q 581.97 1324.00 580.70 1324.79
  A 1.28 1.26 -55.2 0 1 579.80 1324.96
  Q 578.30 1324.67 577.31 1325.61
  A 1.07 1.06 -64.4 0 1 576.48 1325.91
  Q 575.43 1325.84 574.68 1326.49
  A 1.61 1.10 -59.2 0 1 573.84 1326.88
  Q 570.11 1327.18 566.69 1328.81
  A 1.71 1.33 30.6 0 1 565.76 1328.93
  Q 564.43 1328.71 563.56 1329.70
  A 1.05 0.96 -66.2 0 1 562.77 1330.05
  Q 560.99 1329.97 559.66 1330.97
  A 1.15 1.13 30.6 0 1 558.78 1331.19
  Q 557.07 1330.91 555.87 1331.91
  A 1.11 1.07 -60.3 0 1 555.01 1332.16
  Q 553.66 1331.97 552.83 1332.89
  A 1.00 0.90 -63.9 0 1 552.03 1333.21
  C 549.87 1332.96 548.56 1334.13 547.03 1334.46
  Q 545.61 1334.77 544.20 1334.92
  C 541.97 1335.17 540.07 1336.42 537.87 1336.93
  C 534.74 1337.66 531.96 1338.81 528.75 1339.04
  Q 527.60 1339.13 523.45 1340.86
  A 1.80 1.05 26.6 0 1 522.52 1340.92
  Q 521.56 1340.75 521.15 1341.50
  A 0.96 0.73 -73.9 0 1 520.48 1342.00
  C 518.39 1342.20 516.88 1343.12 514.82 1343.36
  Q 512.77 1343.59 510.87 1344.41
  C 508.95 1345.24 507.09 1345.17 505.25 1346.29
  Q 504.32 1346.86 502.74 1347.04
  C 500.06 1347.34 498.37 1347.72 495.17 1348.67
  Q 491.23 1349.83 487.02 1348.88
  L 478.50 1346.79
  Q 479.57 1344.67 477.17 1345.02
  A 1.49 1.34 53.3 0 1 476.26 1344.84
  Q 474.84 1344.04 473.18 1344.42
  A 1.14 1.10 -33.1 0 1 472.29 1344.25
  Q 470.59 1343.07 468.51 1343.07
  A 0.94 0.88 71.8 0 1 467.76 1342.66
  Q 466.94 1341.45 465.62 1342.27
  A 0.47 0.42 -28.8 0 1 464.97 1342.12
  L 464.63 1341.43
  A 0.63 0.62 72.8 0 0 463.96 1341.07
  Q 462.43 1341.31 461.37 1340.29
  A 0.92 0.90 60.8 0 0 460.55 1340.05
  Q 458.78 1340.42 457.59 1339.37
  A 1.17 1.07 60.8 0 0 456.74 1339.09
  Q 455.11 1339.25 453.91 1338.23
  A 0.97 0.97 -31.6 0 0 453.07 1338.03
  Q 451.34 1338.46 450.29 1337.41
  A 1.04 1.01 63.9 0 0 449.46 1337.11
  Q 447.72 1337.31 446.61 1336.04
  A 0.73 0.71 60.0 0 0 445.84 1335.82
  Q 444.12 1336.40 442.90 1335.29
  A 1.01 0.96 59.7 0 0 442.06 1335.05
  Q 440.52 1335.34 439.61 1334.39
  A 1.13 0.81 60.4 0 0 438.80 1334.02
  L 436.75 1334.18
  A 0.85 0.78 69.2 0 1 436.01 1333.81
  Q 435.14 1332.56 433.63 1333.29
  A 0.45 0.45 64.8 0 1 433.02 1333.07
  Q 432.30 1331.43 430.49 1332.13
  A 1.04 0.95 -38.6 0 1 429.60 1332.07
  Q 426.38 1330.08 422.52 1330.43
  A 0.86 0.79 68.5 0 1 421.76 1330.06
  Q 420.86 1328.77 419.20 1328.97
  A 0.95 0.91 64.5 0 1 418.40 1328.67
  Q 417.40 1327.63 415.97 1328.11
  A 1.19 0.64 -28.2 0 1 415.05 1328.11
  Q 414.72 1327.89 414.55 1327.46
  A 0.63 0.58 76.1 0 0 413.93 1327.05
  Q 412.31 1327.23 410.94 1326.43
  A 1.33 1.31 -35.1 0 0 410.04 1326.28
  Q 408.31 1326.61 407.13 1325.56
  A 1.03 1.01 61.3 0 0 406.30 1325.31
  Q 404.85 1325.52 403.79 1324.63
  A 1.32 1.12 59.3 0 0 402.93 1324.33
  Q 401.00 1324.47 399.39 1323.54
  A 1.67 1.38 -27.3 0 0 398.47 1323.34
  Q 397.19 1323.44 396.50 1322.37
  A 0.73 0.70 68.4 0 0 395.78 1322.04
  Q 394.05 1322.37 392.91 1321.29
  A 0.89 0.88 60.3 0 0 392.09 1321.06
  Q 390.66 1321.39 390.01 1320.49
  A 1.10 0.70 64.8 0 0 389.27 1320.02
  L 386.68 1320.01
  A 1.23 1.01 65.6 0 1 385.88 1319.62
  Q 385.06 1318.72 383.73 1318.97
  A 1.19 0.72 50.4 0 1 382.93 1318.69
  L 381.96 1317.91
  A 0.85 0.53 -37.8 0 0 381.12 1318.00
  Q 379.66 1318.93 378.96 1317.37
  A 0.59 0.58 -17.8 0 0 378.30 1317.04
  Q 376.55 1317.42 375.38 1316.24
  A 0.74 0.74 -31.8 0 0 374.60 1316.06
  Q 372.91 1316.68 371.81 1315.66
  A 1.40 0.47 48.6 0 0 370.97 1315.17
  L 369.02 1315.15
  A 0.93 0.71 -12.3 0 1 368.29 1314.81
  Q 367.52 1313.61 365.99 1313.92
  A 0.80 0.78 -25.5 0 1 365.22 1313.66
  Q 364.29 1312.55 362.71 1312.72
  A 1.59 1.46 -32.1 0 1 361.79 1312.55
  Q 360.26 1311.74 358.50 1311.96
  A 1.49 0.88 46.2 0 1 357.64 1311.72
  L 356.85 1311.22
  A 1.52 0.56 -12.9 0 0 355.90 1311.10
  Q 354.74 1311.20 354.04 1310.31
  A 0.75 0.72 63.4 0 0 353.29 1310.04
  Q 351.17 1310.59 349.47 1309.51
  A 1.35 1.31 -32.2 0 0 348.57 1309.32
  Q 347.27 1309.49 346.65 1308.52
  A 1.13 0.83 70.8 0 0 345.92 1308.02
  C 344.50 1307.90 336.09 1306.10 335.53 1305.37
  A 0.86 0.80 66.5 0 0 334.77 1305.04
  Q 333.28 1305.23 332.16 1304.21
  A 0.77 0.73 53.3 0 0 331.36 1304.07
  Q 329.55 1304.88 328.72 1303.44
  A 0.71 0.65 70.2 0 0 328.03 1303.08
  Q 326.51 1303.33 325.59 1302.40
  A 1.13 0.93 61.5 0 0 324.77 1302.07
  L 322.77 1302.22
  A 0.89 0.75 68.9 0 1 322.02 1301.81
  C 320.74 1299.83 319.32 1302.37 317.70 1300.44
  A 1.11 0.70 60.3 0 0 316.92 1300.02
  L 315.71 1300.14
  A 0.83 0.80 -20.1 0 1 314.96 1299.81
  Q 314.00 1298.51 312.18 1298.96
  A 0.97 0.94 57.4 0 1 311.33 1298.76
  Q 310.05 1297.69 308.31 1297.94
  A 0.62 0.52 72.8 0 1 307.72 1297.56
  C 307.23 1296.40 305.17 1297.60 303.87 1296.24
  A 0.75 0.71 57.6 0 0 303.09 1296.04
  Q 301.10 1296.74 299.89 1295.32
  A 0.78 0.78 -26.6 0 0 299.11 1295.06
  Q 297.69 1295.39 297.01 1294.42
  A 0.84 0.73 67.2 0 0 296.27 1294.06
  Q 294.26 1294.33 292.69 1293.32
  A 1.49 1.35 -29.5 0 0 291.79 1293.12
  Q 290.60 1293.25 289.80 1292.32
  A 0.85 0.81 63.3 0 0 289.02 1292.04
  Q 287.28 1292.41 286.11 1291.34
  A 1.06 0.98 60.0 0 0 285.28 1291.08
  Q 283.67 1291.34 282.60 1290.40
  A 1.53 1.14 60.3 0 0 281.76 1290.03
  L 279.80 1289.96
  A 1.27 0.87 62.6 0 1 279.01 1289.54
  Q 278.34 1288.79 277.20 1288.95
  A 1.31 1.19 -29.7 0 1 276.31 1288.75
  Q 274.84 1287.73 272.93 1287.99
  A 1.09 1.00 60.0 0 1 272.08 1287.72
  Q 270.87 1286.68 269.23 1287.16
  A 0.67 0.61 64.7 0 1 268.52 1286.87
  Q 267.63 1285.45 265.93 1286.13
  A 0.75 0.69 -31.2 0 1 265.14 1285.97
  L 264.28 1285.10
  A 0.91 0.80 -26.4 0 0 263.45 1284.88
  Q 261.78 1285.29 260.39 1284.19
  A 0.88 0.88 53.9 0 0 259.56 1284.06
  Q 257.90 1284.67 256.78 1283.36
  A 0.61 0.60 -33.8 0 0 256.04 1283.22
  Q 254.52 1284.01 253.71 1282.75
  A 1.02 0.63 65.7 0 0 252.98 1282.26
  L 251.28 1282.38
  A 1.19 0.88 -18.9 0 1 250.46 1282.12
  Q 249.33 1281.03 247.76 1281.21
  A 1.01 0.55 -13.1 0 1 246.89 1280.97
  L 246.58 1280.49
  A 1.03 0.81 73.1 0 0 245.92 1280.03
  L 240.69 1279.41
  A 1.29 0.71 66.0 0 1 239.95 1278.85
  Q 238.98 1277.43 237.19 1278.17
  A 1.33 0.76 33.0 0 1 236.31 1278.12
  L 233.66 1277.16
  A 1.71 0.83 6.5 0 1 232.89 1276.67
  C 231.70 1275.18 229.52 1276.78 229.02 1275.47
  A 0.60 0.54 76.3 0 0 228.43 1275.07
  Q 226.58 1275.30 225.18 1274.26
  A 1.13 1.04 56.2 0 0 224.32 1274.05
  Q 222.69 1274.39 221.58 1273.38
  A 1.23 1.07 61.2 0 0 220.74 1273.07
  Q 218.92 1273.19 217.44 1272.18
  A 0.96 0.89 -37.0 0 0 216.58 1272.09
  Q 215.24 1272.57 214.92 1271.51
  A 0.70 0.59 80.2 0 0 214.33 1271.01
  L 212.22 1271.00
  A 1.32 1.03 63.1 0 1 211.41 1270.62
  Q 210.40 1269.60 208.90 1270.03
  A 1.02 1.01 -34.9 0 1 208.02 1269.88
  Q 206.68 1268.92 204.97 1268.97
  A 1.16 1.01 65.1 0 1 204.16 1268.61
  Q 203.23 1267.59 201.66 1267.97
  A 0.97 0.97 -32.2 0 1 200.82 1267.77
  Q 199.62 1266.75 197.98 1266.97
  A 0.89 0.81 64.6 0 1 197.20 1266.65
  Q 196.67 1266.00 196.00 1266.00
  Q 192.62 1266.03 190.24 1264.73
  Q 188.45 1263.75 186.93 1264.12
  A 0.73 0.72 63.9 0 1 186.19 1263.86
  Q 185.30 1262.72 183.72 1262.96
  A 0.95 0.90 62.6 0 1 182.92 1262.68
  C 181.57 1261.31 179.26 1262.80 178.87 1261.67
  A 0.89 0.70 82.3 0 0 178.27 1261.09
  L 169.04 1259.47
  A 1.06 0.93 78.9 0 1 168.34 1258.93
  Q 167.54 1257.39 165.69 1258.15
  A 0.65 0.64 58.1 0 1 164.95 1257.97
  Q 164.00 1256.86 162.44 1256.96
  A 1.28 1.24 60.7 0 1 161.57 1256.70
  Q 160.12 1255.59 158.21 1256.15
  A 0.62 0.60 65.5 0 1 157.51 1255.88
  Q 156.70 1254.56 154.94 1254.96
  A 0.93 0.84 59.2 0 1 154.13 1254.71
  Q 152.86 1253.48 151.12 1254.36
  A 0.57 0.57 -31.1 0 1 150.41 1254.19
  Q 149.27 1252.66 147.35 1252.91
  A 0.76 0.66 69.8 0 1 146.67 1252.54
  C 145.85 1251.13 143.70 1252.87 143.08 1251.48
  A 0.67 0.58 73.6 0 0 142.45 1251.08
  Q 140.83 1251.25 139.64 1250.34
  A 1.45 1.31 60.0 0 0 138.75 1250.05
  L 136.71 1250.13
  A 1.26 0.98 60.9 0 1 135.87 1249.77
  Q 134.05 1248.03 132.00 1249.71
  L 113.03 1244.34
  A 0.74 0.72 -84.4 0 1 112.51 1243.69
  L 109.79 1214.25
  Q 109.89 1214.78 110.19 1215.02
  Q 110.68 1215.41 110.72 1214.70
  L 111.01 1208.75
  A 1.89 1.08 43.7 0 0 110.73 1207.81
  C 108.07 1203.21 111.38 1199.63 108.94 1195.41
  A 2.02 1.50 -67.1 0 1 108.72 1194.50
  L 108.80 1184.41
  A 0.82 0.74 19.3 0 0 108.44 1183.75
  L 108.11 1183.53
  A 0.91 0.85 20.1 0 1 107.72 1182.76
  C 107.92 1178.32 108.62 1174.21 107.18 1172.29
  A 1.65 1.31 31.0 0 1 106.85 1171.41
  C 106.82 1169.86 107.50 1161.46 106.30 1161.03
  A 0.75 0.60 12.0 0 1 105.80 1160.42
  C 105.78 1158.42 106.60 1149.84 105.16 1148.97
  A 0.86 0.73 19.6 0 1 104.74 1148.25
  C 104.98 1144.09 105.69 1138.37 104.06 1136.60
  A 1.26 1.14 26.9 0 1 103.73 1135.74
  C 103.87 1132.21 104.76 1128.09 102.93 1124.93
  A 1.87 0.99 -74.2 0 1 102.73 1124.00
  L 102.85 1114.73
  A 1.16 0.31 43.1 0 0 102.38 1113.97
  L 101.84 1113.41
  A 1.24 0.67 -71.9 0 1 101.67 1112.48
  Q 102.45 1107.46 101.17 1102.69
  C 100.12 1098.76 102.18 1093.16 100.44 1089.85
  Q 99.26 1087.61 99.21 1090.50
  L 93.79 1028.25
  L 94.37 1029.79
  Q 94.54 1030.24 94.63 1029.78
  C 94.92 1028.18 95.68 1022.95 94.15 1021.97
  A 0.92 0.75 20.3 0 1 93.73 1021.26
  C 93.85 1017.27 94.18 1014.17 93.44 1009.96
  Q 92.58 1005.04 93.08 999.98
  A 1.23 1.21 29.0 0 0 92.82 999.10
  C 90.86 996.64 92.26 991.17 91.65 987.77
  C 90.80 982.96 91.23 978.55 90.34 973.63
  Q 89.54 969.25 90.11 964.72
  A 1.18 0.93 -68.3 0 0 89.85 963.84
  L 89.11 963.09
  A 1.21 1.10 25.4 0 1 88.77 962.26
  L 88.98 953.51
  A 1.77 0.69 50.0 0 0 88.67 952.59
  L 87.87 951.21
  A 1.64 1.07 -65.4 0 1 87.73 950.26
  Q 88.42 945.49 87.65 940.73
  A 1.44 0.92 23.5 0 0 87.14 939.97
  Q 86.37 939.34 86.75 938.36
  Q 86.97 937.80 86.97 937.42
  L 87.07 930.46
  A 1.62 1.54 30.0 0 0 86.80 929.55
  Q 85.41 927.44 85.63 925.12
  C 85.80 923.32 86.37 917.14 85.21 916.89
  A 0.57 0.42 8.8 0 1 84.75 916.43
  C 84.89 913.74 85.83 906.55 84.05 904.59
  A 1.21 0.96 31.5 0 1 83.74 903.74
  C 83.86 902.52 84.04 893.87 83.02 893.48
  A 0.43 0.32 13.8 0 1 82.73 893.13
  C 82.84 890.95 83.70 885.12 82.15 883.61
  A 1.34 1.02 26.9 0 1 81.75 882.78
  C 81.70 880.90 81.36 879.77 81.82 877.78
  Q 82.51 874.81 81.26 871.88
  A 0.13 0.11 -21.6 0 0 81.11 871.83
  L 81.02 871.87
  A 0.15 0.14 78.0 0 1 80.82 871.73
  Q 80.52 867.72 80.21 872.00
  L 78.82 855.78
  Q 81.38 852.08 78.99 848.42
  A 1.63 1.46 32.3 0 1 78.73 847.51
  C 78.82 844.53 79.85 838.69 77.93 836.39
  A 1.21 1.15 28.8 0 1 77.65 835.51
  Q 78.29 829.63 77.69 823.73
  A 1.43 0.93 27.0 0 0 77.23 822.93
  Q 76.59 822.35 76.94 821.62
  Q 77.21 821.04 77.22 820.70
  C 77.30 818.57 77.51 813.76 76.20 813.11
  A 0.78 0.68 15.2 0 1 75.75 812.43
  C 75.87 809.50 76.79 804.31 74.98 801.90
  A 1.53 1.27 -67.1 0 1 74.71 801.01
  L 74.86 790.37
  A 0.70 0.59 -78.0 0 0 74.53 789.76
  L 74.20 789.59
  A 0.82 0.63 17.7 0 1 73.74 788.93
  C 73.92 784.93 74.66 779.77 73.07 778.08
  A 1.17 1.10 25.3 0 1 72.74 777.24
  L 73.02 768.59
  A 0.54 0.41 -82.5 0 0 72.72 768.07
  L 72.36 767.96
  A 0.72 0.46 12.1 0 1 71.85 767.46
  C 71.79 765.65 71.43 764.45 71.84 762.57
  Q 72.61 759.06 71.14 755.74
  C 70.98 755.38 70.37 751.73 70.21 755.75
  L 63.79 682.25
  Q 63.95 682.78 64.27 683.13
  Q 64.65 683.53 64.72 682.95
  C 65.03 680.29 65.52 677.10 64.07 675.31
  A 1.37 1.22 28.9 0 1 63.76 674.43
  C 63.83 671.09 64.73 666.34 62.98 663.44
  A 1.79 1.52 34.5 0 1 62.73 662.51
  L 63.00 654.30
  A 1.38 0.82 -75.6 0 0 62.74 653.40
  L 62.13 652.76
  A 1.32 0.90 31.4 0 1 61.76 651.94
  C 61.84 648.28 62.93 639.25 61.12 636.43
  A 1.46 1.34 -59.8 0 1 60.92 635.51
  C 61.50 631.03 60.09 626.88 60.01 623.11
  Q 59.94 620.24 60.02 617.36
  A 0.77 0.65 22.6 0 0 59.72 616.78
  C 57.93 615.38 60.26 606.26 58.16 604.97
  A 0.88 0.74 19.1 0 1 57.73 604.25
  C 57.82 602.18 58.74 594.02 57.09 592.96
  A 0.81 0.67 22.7 0 1 56.72 592.25
  Q 57.60 586.40 57.03 580.50
  A 0.55 0.35 -86.7 0 0 56.79 580.07
  L 56.55 579.97
  A 0.79 0.44 17.2 0 1 56.05 579.45
  C 56.02 577.37 56.58 571.95 55.09 570.56
  A 1.06 0.97 24.6 0 1 54.75 569.75
  C 55.08 565.73 55.77 560.90 53.75 557.24
  Q 53.39 556.59 53.33 557.28
  L 53.21 558.75
  L 48.79 509.25
  L 49.15 510.00
  Q 49.37 510.45 49.48 509.97
  C 49.74 508.87 50.55 502.24 49.23 501.90
  A 0.61 0.43 10.1 0 1 48.75 501.42
  C 48.92 497.93 49.66 491.00 48.12 489.99
  A 0.92 0.81 19.6 0 1 47.71 489.26
  C 47.81 487.12 48.71 479.86 47.14 478.55
  A 1.04 0.83 25.6 0 1 46.76 477.77
  C 47.03 474.44 47.67 468.20 46.07 466.59
  A 1.25 1.13 25.5 0 1 45.72 465.74
  C 45.81 462.90 46.81 456.81 45.03 454.63
  A 1.29 1.16 29.8 0 1 44.74 453.75
  C 44.93 451.11 45.80 444.55 44.04 442.60
  A 1.23 1.10 28.1 0 1 43.73 441.75
  C 44.02 437.83 44.59 434.11 42.96 431.42
  A 1.69 1.52 34.1 0 1 42.73 430.50
  C 42.87 428.73 43.67 421.00 42.17 420.13
  A 0.85 0.72 17.6 0 1 41.74 419.44
  L 42.00 406.31
  A 0.52 0.45 1.3 0 0 41.50 405.86
  C 41.19 405.84 41.00 398.26 40.85 397.49
  Q 40.77 397.06 40.43 396.63
  C 38.79 394.61 40.02 392.98 40.03 391.23
  C 40.03 390.39 39.13 382.90 38.21 385.75
  L 33.79 335.25
  L 34.05 335.77
  Q 34.37 336.43 34.44 335.71
  L 35.02 330.50
  A 1.20 0.79 32.4 0 0 34.64 329.65
  L 34.15 329.17
  A 1.19 1.16 22.2 0 1 33.78 328.32
  C 33.77 326.22 34.56 317.84 33.22 316.72
  A 1.16 0.68 30.3 0 1 32.78 315.94
  L 33.14 309.58
  A 0.60 0.52 0.4 0 1 33.73 309.08
  L 55.75 308.75
  Q 55.92 308.74 56.66 308.46
  Q 56.91 308.36 57.14 308.45
  Q 57.88 308.72 57.93 308.72
  L 71.28 308.99
  A 0.61 0.44 -1.4 0 0 71.91 308.51
  L 71.89 308.25
  A 0.22 0.19 86.0 0 1 72.07 308.00
  L 923.69 308.00
  A 0.80 0.55 74.5 0 1 924.28 308.50
  C 924.57 309.20 947.99 309.32 950.43 308.84
  A 1.77 1.07 -27.6 0 1 951.38 308.90
  Q 953.49 309.79 953.04 312.50
  Z
  M 492.75 388.54
  Q 492.49 388.48 492.49 388.75
  Q 492.50 828.59 492.50 1268.44
  A 0.90 0.81 -77.5 0 0 492.93 1269.21
  Q 494.41 1269.99 495.71 1268.75
  Q 518.48 1262.76 541.19 1256.47
  C 542.31 1256.16 543.42 1256.45 544.53 1255.98
  Q 546.75 1255.02 546.76 1255.02
  Q 662.39 1223.67 778.06 1192.48
  Q 784.50 1190.74 790.65 1188.67
  A 1.14 1.13 83.7 0 0 791.42 1187.70
  Q 796.55 1131.69 801.36 1075.67
  C 801.79 1070.65 802.05 1062.97 803.17 1057.29
  C 803.69 1054.66 803.58 1050.85 803.73 1049.20
  C 813.24 942.55 822.60 835.89 832.00 729.23
  Q 835.85 685.60 839.74 641.98
  Q 851.00 515.61 862.26 389.23
  A 0.67 0.66 3.6 0 0 861.61 388.50
  C 859.56 388.43 857.31 388.00 855.36 388.00
  Q 674.68 388.00 494.00 388.00
  Q 493.43 388.00 492.75 388.54
  Z
  M 178.30 965.61
  L 178.21 966.50
  C 176.26 965.55 176.89 973.29 176.89 974.44
  Q 176.78 1019.97 176.78 1065.50
  Q 176.78 1066.71 176.92 1070.56
  C 177.00 1072.77 178.46 1074.30 180.63 1074.15
  A 0.54 0.50 82.3 0 1 181.16 1074.59
  C 181.68 1077.11 184.26 1073.43 185.33 1075.80
  A 0.68 0.65 74.6 0 0 186.00 1076.20
  Q 187.89 1075.99 189.34 1076.88
  Q 189.80 1077.16 190.23 1077.21
  Q 194.52 1077.70 198.57 1079.01
  C 202.31 1080.23 205.91 1080.65 209.60 1081.74
  C 211.12 1082.19 212.03 1083.55 214.27 1082.93
  Q 214.92 1082.76 217.73 1083.99
  Q 221.07 1085.45 224.68 1085.81
  Q 225.13 1085.86 225.57 1086.16
  Q 226.87 1087.07 228.51 1086.79
  A 1.03 0.96 60.8 0 1 229.33 1087.05
  Q 230.27 1087.92 231.55 1087.59
  A 0.93 0.85 -28.8 0 1 232.38 1087.79
  Q 233.99 1089.34 236.21 1088.83
  A 0.86 0.84 -27.7 0 1 237.02 1089.07
  Q 238.43 1090.58 240.00 1089.04
  L 241.00 1089.29
  Q 240.75 1091.32 242.81 1091.01
  A 1.85 1.40 -30.6 0 1 243.76 1091.12
  Q 247.07 1092.56 250.69 1092.81
  A 1.42 1.19 65.2 0 1 251.52 1093.20
  Q 252.73 1094.37 254.52 1094.03
  A 1.01 0.96 59.7 0 1 255.36 1094.27
  C 256.34 1095.13 257.70 1094.99 258.61 1095.26
  Q 266.98 1097.79 275.53 1099.96
  Q 275.96 1100.07 276.38 1100.44
  Q 277.81 1101.68 279.56 1100.94
  A 0.69 0.69 -33.6 0 1 280.33 1101.09
  Q 281.63 1102.44 283.50 1101.85
  A 0.68 0.67 62.6 0 1 284.25 1102.09
  C 285.47 1103.72 287.23 1102.37 288.30 1103.34
  A 1.19 0.78 55.3 0 0 289.09 1103.66
  Q 290.79 1103.49 292.06 1104.53
  A 0.97 0.93 56.6 0 0 292.90 1104.72
  Q 294.69 1104.26 295.49 1105.51
  A 1.01 0.80 70.5 0 0 296.22 1105.97
  L 297.72 1106.03
  Q 298.16 1106.04 298.63 1106.31
  Q 300.17 1107.20 302.03 1107.02
  A 1.20 1.13 61.9 0 1 302.89 1107.31
  Q 304.55 1108.78 306.25 1107.04
  L 306.75 1107.29
  C 305.64 1109.49 316.07 1110.72 316.68 1110.80
  A 1.54 1.18 66.2 0 1 317.50 1111.25
  Q 318.30 1112.08 319.54 1112.04
  A 2.00 1.55 -25.7 0 1 320.48 1112.24
  C 322.31 1113.22 324.34 1113.08 326.12 1113.65
  Q 332.49 1115.70 339.02 1117.08
  A 1.47 0.55 56.5 0 1 339.75 1117.61
  C 340.68 1118.67 342.42 1116.65 343.18 1118.74
  A 0.78 0.64 79.0 0 0 343.81 1119.26
  Q 344.71 1119.28 345.60 1118.91
  A 0.68 0.68 -32.3 0 1 346.36 1119.08
  Q 347.59 1120.39 349.46 1120.01
  A 1.10 1.09 58.3 0 1 350.33 1120.22
  Q 351.61 1121.23 353.35 1121.12
  A 1.62 1.56 57.9 0 1 354.27 1121.35
  Q 355.57 1122.14 357.05 1122.13
  A 1.87 1.74 58.3 0 1 357.96 1122.38
  Q 359.69 1123.40 361.25 1122.04
  Q 363.69 1122.39 365.62 1123.55
  Q 368.39 1126.14 372.16 1125.90
  A 1.25 1.03 60.7 0 1 373.01 1126.23
  Q 373.82 1126.98 375.00 1126.85
  Q 375.51 1126.79 375.95 1126.94
  L 381.00 1128.68
  Q 381.37 1128.81 381.98 1128.72
  Q 383.36 1128.53 384.40 1129.43
  A 1.13 1.01 59.7 0 0 385.24 1129.70
  Q 386.69 1129.50 387.62 1130.36
  A 1.49 0.75 54.5 0 0 388.44 1130.79
  Q 389.65 1130.85 390.50 1130.04
  L 410.25 1135.46
  Q 408.76 1135.63 409.50 1136.59
  A 1.17 0.88 -12.5 0 0 410.33 1136.97
  L 412.19 1137.04
  A 1.86 1.14 53.0 0 1 413.08 1137.39
  Q 414.21 1138.24 415.68 1138.06
  A 0.95 0.91 -22.6 0 1 416.48 1138.37
  C 417.35 1139.41 422.48 1140.06 424.24 1140.89
  Q 424.69 1141.10 425.18 1141.09
  Q 428.61 1140.99 431.61 1142.72
  Q 432.04 1142.96 432.54 1142.97
  Q 434.76 1142.99 437.24 1143.76
  Q 439.98 1144.62 452.69 1147.99
  Q 453.13 1148.11 453.53 1148.47
  Q 455.29 1150.07 455.78 1147.86
  Q 456.39 1147.81 456.96 1147.50
  Q 457.20 1147.80 457.59 1147.79
  A 0.74 0.59 -9.8 0 1 458.25 1148.15
  C 459.22 1150.43 460.04 1147.98 460.03 1147.14
  Q 459.89 1137.68 460.12 1128.22
  C 460.13 1127.83 459.87 1127.71 460.09 1127.33
  A 0.94 0.40 -53.7 0 0 460.26 1126.60
  Q 459.36 1124.56 460.58 1122.70
  A 0.40 0.39 42.4 0 0 460.55 1122.23
  Q 459.85 1121.43 460.50 1120.79
  Q 460.68 1120.62 460.43 1120.64
  Q 459.72 1120.71 460.18 1120.35
  A 0.40 0.38 -28.7 0 0 460.31 1119.93
  Q 459.89 1118.68 460.28 1117.49
  A 0.93 0.77 37.0 0 0 460.09 1116.69
  Q 459.70 1116.21 459.98 1115.63
  Q 460.25 1115.07 460.24 1114.72
  Q 460.17 1110.38 459.88 1106.06
  Q 459.85 1105.63 460.10 1105.34
  A 0.46 0.41 -48.1 0 0 460.10 1104.74
  Q 459.31 1103.94 460.37 1103.07
  A 0.18 0.12 -43.8 0 0 460.42 1102.84
  Q 460.35 1102.79 460.23 1102.83
  A 0.18 0.15 -8.6 0 1 460.00 1102.69
  Q 459.85 1083.85 460.05 1065.01
  Q 460.06 1064.06 459.92 1060.86
  Q 459.84 1058.78 460.00 1056.71
  Q 460.13 1054.94 459.99 1053.15
  Q 459.86 1051.37 459.91 1049.58
  Q 460.06 1044.48 460.06 1044.27
  Q 459.79 1022.64 460.09 1001.01
  C 460.12 998.71 459.78 995.62 459.97 992.94
  Q 460.11 991.01 459.96 988.92
  Q 459.81 986.90 459.96 984.88
  Q 460.12 982.91 459.97 980.98
  Q 459.82 979.01 459.95 977.05
  Q 460.11 974.51 460.01 972.80
  Q 459.88 970.68 459.86 968.55
  A 1.73 0.85 -44.6 0 1 460.17 967.66
  Q 460.44 967.24 460.28 966.92
  Q 459.94 966.20 459.94 966.07
  Q 459.98 931.31 459.89 896.56
  Q 459.88 895.90 460.07 895.33
  Q 460.24 894.80 460.17 894.38
  Q 459.77 891.89 459.91 889.40
  Q 460.07 886.74 459.93 884.46
  Q 459.82 882.61 459.97 880.76
  Q 460.13 878.66 460.02 877.09
  Q 459.87 874.83 459.87 872.52
  Q 459.86 872.16 460.17 871.63
  Q 460.44 871.15 460.23 870.72
  Q 459.93 870.10 459.93 869.83
  Q 460.01 851.20 459.92 832.56
  Q 459.92 831.90 460.08 831.33
  Q 460.24 830.81 460.17 830.37
  Q 459.77 827.89 459.91 825.40
  Q 460.07 822.74 459.93 820.46
  Q 459.82 818.61 459.96 816.76
  Q 460.13 814.64 460.03 813.09
  Q 459.88 810.83 459.86 808.52
  A 1.69 0.98 -40.4 0 1 460.17 807.64
  Q 460.47 807.18 460.32 806.89
  Q 459.95 806.16 459.95 806.08
  L 459.93 767.89
  A 0.77 0.71 -19.1 0 1 460.25 767.29
  Q 460.68 766.98 460.46 766.93
  A 0.49 0.33 8.3 0 1 460.11 766.61
  Q 459.75 763.69 459.98 760.77
  Q 460.12 758.84 460.00 757.08
  Q 459.86 755.22 459.91 753.35
  Q 460.04 748.57 460.04 748.51
  Q 459.91 726.54 459.89 704.56
  Q 459.89 703.90 460.07 703.33
  Q 460.24 702.80 460.17 702.38
  Q 459.77 699.89 459.91 697.40
  Q 460.07 694.74 459.93 692.46
  Q 459.82 690.61 459.96 688.76
  Q 460.13 686.64 460.03 685.09
  Q 459.88 682.83 459.86 680.52
  A 1.66 0.96 -40.0 0 1 460.18 679.64
  Q 460.49 679.17 460.31 678.87
  A 1.08 0.13 57.7 0 1 459.93 678.08
  L 459.88 639.89
  A 0.75 0.67 -18.1 0 1 460.22 639.30
  Q 460.73 638.98 460.43 638.93
  A 0.43 0.35 3.9 0 1 460.09 638.61
  Q 459.86 636.01 459.92 633.42
  Q 460.03 628.50 460.03 628.44
  Q 459.90 602.50 459.90 576.56
  Q 459.90 575.90 460.08 575.33
  Q 460.24 574.80 460.17 574.37
  Q 459.73 571.64 459.95 568.91
  Q 460.12 566.75 459.99 564.94
  C 459.91 563.82 459.57 559.73 460.40 559.10
  A 0.17 0.14 -39.9 0 0 460.45 558.87
  Q 460.37 558.79 460.26 558.82
  A 0.17 0.13 -10.1 0 1 460.05 558.71
  C 459.74 551.79 460.39 547.12 460.13 543.03
  C 459.95 540.13 460.02 538.17 460.04 535.67
  A 0.79 0.57 -25.8 0 1 460.33 535.14
  Q 460.65 534.88 460.20 534.63
  A 0.78 0.59 19.6 0 1 459.79 534.01
  L 460.01 528.82
  A 0.88 0.63 -26.9 0 1 460.29 528.28
  Q 460.75 527.87 460.31 527.89
  A 0.27 0.24 -2.2 0 1 460.02 527.65
  C 459.99 519.03 459.46 509.83 460.09 501.25
  Q 460.30 498.40 457.04 498.50
  Q 456.98 497.95 456.44 497.95
  Q 406.34 498.04 357.05 497.99
  Q 353.99 497.99 353.99 501.04
  L 354.00 1010.94
  Q 354.00 1013.02 351.72 1011.60
  Q 350.59 1010.89 349.20 1010.98
  A 0.96 0.87 67.4 0 1 348.43 1010.62
  Q 347.66 1009.67 346.39 1010.04
  A 1.76 1.76 45.0 0 1 345.45 1010.04
  L 333.94 1006.81
  Q 332.31 1006.35 330.90 1006.23
  Q 330.00 1006.15 329.50 1005.36
  A 0.71 0.66 67.7 0 0 328.79 1005.03
  Q 327.21 1005.33 326.11 1004.35
  A 1.29 1.03 59.1 0 0 325.26 1004.03
  L 323.02 1004.19
  A 1.28 0.97 58.7 0 1 322.18 1003.86
  Q 321.16 1002.96 319.70 1003.38
  A 0.59 0.58 68.6 0 1 319.03 1003.08
  Q 318.19 1001.38 316.15 1002.21
  A 0.62 0.60 60.0 0 1 315.43 1002.00
  Q 314.56 1000.82 313.04 1000.91
  A 1.33 1.31 61.2 0 1 312.17 1000.65
  Q 310.80 999.63 308.91 999.99
  A 0.97 0.93 60.6 0 1 308.08 999.74
  Q 306.90 998.64 305.16 999.18
  A 0.65 0.61 64.0 0 1 304.45 998.91
  Q 303.50 997.46 301.69 998.14
  A 0.80 0.80 55.4 0 1 300.88 997.99
  Q 299.45 996.70 297.58 997.10
  A 0.73 0.70 65.9 0 1 296.83 996.80
  Q 295.89 995.42 294.19 996.15
  A 0.89 0.83 -38.8 0 1 293.34 996.09
  Q 290.33 993.99 286.68 994.05
  A 1.07 0.86 66.1 0 1 285.91 993.65
  C 284.74 992.18 282.31 993.56 282.01 992.54
  A 0.72 0.55 80.2 0 0 281.45 992.02
  L 279.25 991.98
  A 1.55 1.20 58.9 0 1 278.37 991.64
  Q 277.27 990.79 275.78 990.94
  A 1.07 1.06 64.4 0 1 274.95 990.64
  C 273.69 989.40 271.45 990.61 271.04 989.50
  A 0.64 0.54 76.1 0 0 270.45 989.07
  C 268.18 989.25 266.79 987.25 264.89 988.29
  A 0.79 0.59 -35.9 0 1 264.07 988.28
  Q 263.66 987.92 263.43 987.30
  A 0.47 0.46 -21.7 0 0 262.82 987.04
  Q 261.01 987.78 260.02 986.47
  A 1.00 0.56 59.7 0 0 259.25 986.02
  L 257.18 986.37
  A 0.85 0.65 -20.8 0 1 256.43 986.15
  Q 255.41 984.94 253.70 985.18
  A 0.89 0.85 66.1 0 1 252.92 984.86
  Q 251.82 983.51 249.91 984.19
  A 0.47 0.43 71.2 0 1 249.34 983.88
  Q 248.91 982.58 247.40 983.01
  A 1.20 1.09 -35.9 0 1 246.50 982.91
  Q 244.64 981.84 242.60 982.16
  A 0.63 0.58 72.5 0 1 241.95 981.79
  C 241.20 980.14 239.35 981.74 238.07 980.41
  A 1.10 0.52 53.7 0 0 237.29 979.99
  L 235.70 980.17
  A 1.17 0.81 -20.5 0 1 234.87 979.96
  Q 233.59 978.80 231.75 978.94
  A 0.66 0.57 75.8 0 1 231.15 978.52
  Q 230.86 977.82 229.95 977.97
  A 3.32 3.27 -38.4 0 1 228.19 977.78
  Q 223.79 976.03 220.69 976.08
  A 1.01 0.84 68.2 0 1 219.93 975.67
  C 218.75 974.12 217.29 975.86 216.04 974.35
  A 0.89 0.77 64.3 0 0 215.27 974.02
  Q 213.28 974.31 211.70 973.28
  A 1.04 1.01 -37.7 0 0 210.82 973.18
  Q 209.31 973.69 208.51 972.38
  A 0.70 0.68 69.0 0 0 207.79 972.05
  Q 206.20 972.34 205.11 971.39
  A 1.49 1.04 58.5 0 0 204.27 971.02
  L 202.53 970.98
  A 1.04 0.81 68.4 0 1 201.78 970.54
  Q 201.30 969.88 200.48 969.73
  A 1.41 0.77 -43.9 0 0 199.57 969.98
  Q 198.15 970.88 197.44 969.34
  A 0.50 0.48 66.4 0 0 196.82 969.08
  Q 194.74 969.89 193.76 968.10
  A 0.53 0.52 62.6 0 0 193.09 967.88
  Q 191.52 968.59 190.73 967.49
  A 1.35 0.91 69.1 0 0 189.98 966.96
  L 183.72 965.87
  A 1.25 0.70 68.0 0 1 183.05 965.33
  Q 182.71 964.79 181.88 964.96
  A 1.07 0.97 -30.2 0 1 181.04 964.78
  Q 179.49 963.59 177.69 964.52
  A 0.58 0.47 -29.2 0 0 177.40 965.25
  Q 177.64 965.64 178.30 965.61
  Z"
/>
<path fill="#d7ad01" fill-opacity="0.859" d="
  M 48.79 509.25
  L 38.21 385.75
  C 39.13 382.90 40.03 390.39 40.03 391.23
  C 40.02 392.98 38.79 394.61 40.43 396.63
  Q 40.77 397.06 40.85 397.49
  C 41.00 398.26 41.19 405.84 41.50 405.86
  A 0.52 0.45 1.3 0 1 42.00 406.31
  L 41.74 419.44
  A 0.85 0.72 17.6 0 0 42.17 420.13
  C 43.67 421.00 42.87 428.73 42.73 430.50
  A 1.69 1.52 34.1 0 0 42.96 431.42
  C 44.59 434.11 44.02 437.83 43.73 441.75
  A 1.23 1.10 28.1 0 0 44.04 442.60
  C 45.80 444.55 44.93 451.11 44.74 453.75
  A 1.29 1.16 29.8 0 0 45.03 454.63
  C 46.81 456.81 45.81 462.90 45.72 465.74
  A 1.25 1.13 25.5 0 0 46.07 466.59
  C 47.67 468.20 47.03 474.44 46.76 477.77
  A 1.04 0.83 25.6 0 0 47.14 478.55
  C 48.71 479.86 47.81 487.12 47.71 489.26
  A 0.92 0.81 19.6 0 0 48.12 489.99
  C 49.66 491.00 48.92 497.93 48.75 501.42
  A 0.61 0.43 10.1 0 0 49.23 501.90
  C 50.55 502.24 49.74 508.87 49.48 509.97
  Q 49.37 510.45 49.15 510.00
  L 48.79 509.25
  Z"
/>
<path fill="#dbbc00" fill-opacity="0.855" d="
  M 495.71 1268.75
  Q 494.48 1269.18 493.28 1268.86
  A 0.74 0.70 -85.1 0 1 492.76 1268.21
  C 492.65 1266.62 493.00 1264.98 493.00 1263.60
  Q 493.00 827.25 493.00 390.90
  C 493.00 390.21 492.57 389.42 492.75 388.54
  Q 493.43 388.00 494.00 388.00
  Q 674.68 388.00 855.36 388.00
  C 857.31 388.00 859.56 388.43 861.61 388.50
  A 0.67 0.66 3.6 0 1 862.26 389.23
  Q 851.00 515.61 839.74 641.98
  Q 835.85 685.60 832.00 729.23
  C 822.60 835.89 813.24 942.55 803.73 1049.20
  C 803.58 1050.85 803.69 1054.66 803.17 1057.29
  C 802.05 1062.97 801.79 1070.65 801.36 1075.67
  Q 796.55 1131.69 791.42 1187.70
  A 1.14 1.13 83.7 0 1 790.65 1188.67
  Q 784.50 1190.74 778.06 1192.48
  Q 662.39 1223.67 546.76 1255.02
  Q 546.75 1255.02 544.53 1255.98
  C 543.42 1256.45 542.31 1256.16 541.19 1256.47
  Q 518.48 1262.76 495.71 1268.75
  Z
  M 527.00 894.71
  L 527.71 893.75
  Q 527.63 894.71 528.50 894.79
  Q 528.02 895.14 528.07 895.49
  A 0.86 0.51 3.7 0 0 528.80 895.99
  C 531.34 896.31 533.40 895.17 535.42 894.93
  Q 544.67 893.82 549.26 892.76
  Q 553.15 891.87 556.26 891.97
  Q 556.73 891.99 557.20 891.78
  Q 559.59 890.70 562.24 890.98
  A 1.61 1.55 32.4 0 0 563.17 890.79
  C 565.75 889.33 567.44 890.20 570.03 889.42
  C 573.69 888.32 578.17 888.32 581.99 887.87
  Q 583.24 887.72 583.90 887.41
  Q 584.51 887.12 584.83 887.09
  Q 593.97 886.09 602.99 884.36
  C 605.04 883.97 607.73 884.29 610.05 883.20
  Q 610.49 882.99 610.99 883.03
  C 613.77 883.24 615.69 881.96 618.21 882.03
  C 622.77 882.16 627.48 880.18 632.25 879.99
  Q 633.30 879.95 634.67 879.48
  C 636.64 878.81 639.50 878.93 640.83 878.69
  Q 644.97 877.94 649.15 877.22
  C 651.19 876.87 654.34 876.00 657.12 875.93
  C 659.57 875.87 661.63 874.77 664.24 874.96
  Q 664.75 874.99 665.20 874.81
  Q 667.97 873.66 671.03 874.00
  A 1.52 1.39 -54.7 0 0 671.95 873.80
  C 674.13 872.54 676.82 873.10 678.82 872.70
  Q 681.61 872.14 684.43 871.97
  A 1.81 1.40 -58.1 0 0 685.32 871.64
  Q 687.31 870.18 690.22 871.02
  L 688.87 889.56
  A 1.93 1.70 36.9 0 0 689.06 890.48
  C 689.45 891.25 687.85 897.27 687.77 898.57
  C 687.53 902.74 686.55 906.48 687.17 910.77
  A 1.07 0.92 -28.8 0 1 686.86 911.60
  C 685.45 913.00 686.08 916.35 686.01 918.18
  C 685.87 921.91 684.30 925.00 685.24 929.28
  A 1.46 1.42 53.1 0 1 685.12 930.21
  C 683.28 933.82 684.93 936.50 683.73 940.00
  C 682.74 942.87 682.86 944.58 683.19 947.27
  Q 683.25 947.76 683.05 948.22
  Q 681.29 952.44 682.22 957.03
  A 1.55 1.49 53.4 0 1 682.10 957.96
  Q 680.22 961.76 681.31 966.04
  A 1.50 1.49 50.1 0 1 681.23 966.99
  Q 679.68 970.57 679.76 974.49
  Q 679.77 974.98 679.55 975.44
  C 677.46 980.10 680.86 983.93 678.10 988.77
  A 1.44 1.40 -35.5 0 0 677.93 989.70
  Q 678.62 993.66 677.58 997.57
  Q 674.54 1000.48 668.75 1001.61
  Q 667.84 1001.79 666.95 1002.06
  Q 664.39 1002.84 661.08 1003.11
  Q 660.37 1003.17 658.24 1004.26
  Q 656.37 1005.21 654.21 1005.16
  A 1.62 1.59 -59.4 0 0 653.30 1005.40
  Q 650.20 1007.24 646.58 1007.07
  A 1.57 1.49 -59.5 0 0 645.67 1007.33
  Q 642.90 1009.16 639.56 1009.05
  A 1.30 1.13 -62.9 0 0 638.71 1009.39
  Q 637.77 1010.24 636.49 1010.25
  Q 636.23 1010.26 635.54 1010.43
  L 631.47 1011.42
  Q 630.75 1011.60 629.48 1012.18
  Q 626.39 1013.61 623.01 1014.14
  C 621.22 1014.42 620.04 1015.53 617.99 1015.29
  A 1.08 0.97 -62.1 0 0 617.17 1015.59
  Q 616.30 1016.45 614.98 1016.31
  A 1.36 1.28 30.0 0 0 614.08 1016.52
  Q 612.62 1017.51 610.83 1017.34
  A 1.06 0.89 -63.2 0 0 610.03 1017.68
  Q 609.25 1018.55 607.96 1018.32
  A 1.16 1.08 30.6 0 0 607.09 1018.51
  Q 605.74 1019.52 603.98 1019.29
  A 1.21 1.20 29.6 0 0 603.10 1019.53
  Q 601.75 1020.56 599.99 1020.28
  A 0.95 0.85 -61.0 0 0 599.19 1020.56
  C 598.50 1021.25 593.78 1022.13 592.75 1022.40
  A 0.53 0.43 -18.5 0 0 592.35 1023.02
  Q 592.54 1023.46 593.25 1023.46
  L 591.01 1024.16
  Q 591.30 1022.79 589.53 1023.05
  Q 588.93 1023.14 588.04 1023.68
  Q 585.29 1025.35 581.98 1024.99
  A 1.20 1.14 26.8 0 0 581.11 1025.25
  Q 578.47 1027.45 574.98 1027.25
  A 1.31 1.09 -59.5 0 0 574.12 1027.56
  C 573.10 1028.44 565.95 1029.85 564.14 1030.34
  C 560.67 1031.28 557.70 1032.05 554.48 1032.99
  Q 553.88 1033.17 550.95 1033.93
  L 537.21 1037.50
  Q 533.85 1038.27 530.45 1039.06
  C 527.21 1039.82 525.47 1041.65 525.76 1044.97
  Q 525.98 1047.47 525.98 1047.54
  Q 526.06 1097.49 525.94 1147.45
  A 0.86 0.64 -82.6 0 0 526.37 1148.21
  Q 527.06 1148.46 527.71 1147.50
  Q 527.98 1148.41 528.92 1147.86
  C 528.93 1149.62 535.63 1147.48 537.06 1147.08
  Q 648.41 1116.32 759.75 1085.52
  C 765.32 1083.98 769.27 1083.69 767.96 1077.00
  L 767.77 1072.81
  A 0.77 0.57 -18.7 0 1 768.19 1072.20
  C 769.21 1071.67 769.00 1064.93 768.83 1063.50
  Q 768.78 1063.02 768.97 1062.55
  Q 770.80 1058.07 769.76 1053.20
  A 1.03 0.89 -33.1 0 1 770.00 1052.36
  L 770.68 1051.59
  A 1.50 1.15 71.1 0 0 770.98 1050.69
  Q 771.02 1047.75 771.00 1044.80
  C 770.98 1040.36 772.86 1036.84 772.27 1032.00
  A 1.93 1.65 57.7 0 1 772.41 1031.04
  C 773.64 1028.29 773.00 1022.85 772.96 1019.75
  C 774.33 1015.47 774.26 1010.76 774.84 1006.45
  C 775.29 1003.03 774.71 999.98 775.54 996.48
  Q 776.67 991.71 775.90 986.79
  A 0.89 0.61 -28.3 0 1 776.27 986.08
  C 777.03 985.50 776.77 978.74 776.74 975.99
  A 1.82 1.68 -32.2 0 1 776.99 975.06
  C 778.46 972.60 778.09 968.31 778.00 965.49
  A 1.50 1.27 -31.7 0 1 778.29 964.60
  C 778.72 964.01 779.11 963.02 779.04 962.25
  C 778.41 955.38 780.61 949.83 779.70 942.57
  A 0.66 0.61 64.7 0 1 779.87 942.02
  L 780.09 941.79
  A 1.37 0.99 -30.2 0 0 780.47 940.93
  L 780.33 932.77
  A 0.25 0.22 -9.3 0 1 780.52 932.54
  L 780.74 932.49
  A 0.95 0.69 -81.3 0 0 781.30 931.92
  C 782.34 929.19 782.14 927.79 781.46 924.44
  C 780.84 921.35 782.48 919.65 782.67 917.18
  C 782.89 914.17 782.47 912.01 783.45 908.91
  Q 784.65 905.14 783.37 901.22
  A 0.93 0.66 63.2 0 1 783.50 900.35
  L 784.34 899.54
  A 1.26 0.69 -32.7 0 0 784.76 898.77
  L 784.77 890.32
  A 0.99 0.63 -22.8 0 1 785.24 889.64
  C 786.99 888.53 785.37 878.16 785.94 877.78
  A 0.95 0.32 -29.7 0 0 786.46 877.20
  L 786.76 867.71
  A 0.20 0.18 -4.3 0 1 786.92 867.54
  L 787.07 867.51
  A 0.52 0.47 -86.7 0 0 787.46 867.12
  Q 788.62 862.09 787.81 856.97
  A 0.91 0.79 -27.2 0 1 788.12 856.20
  C 789.17 855.27 788.76 850.45 788.75 848.96
  Q 788.75 847.39 789.49 844.66
  Q 790.59 840.65 789.29 835.98
  Q 788.93 834.66 790.20 833.57
  A 1.22 1.04 -22.4 0 0 790.61 832.77
  Q 790.68 830.09 790.83 827.43
  C 791.00 824.26 792.25 820.51 792.22 816.85
  Q 792.19 814.23 792.66 811.72
  C 793.35 808.09 792.67 804.76 793.48 801.05
  C 793.80 799.59 793.84 790.78 794.25 790.46
  A 1.24 0.89 -21.8 0 0 794.73 789.70
  Q 795.05 786.03 795.01 782.34
  C 795.00 780.20 795.83 778.29 796.01 776.09
  C 796.27 772.86 793.99 770.85 796.45 767.43
  A 1.62 1.35 -30.8 0 0 796.76 766.54
  L 796.75 758.75
  Q 796.75 758.29 797.01 757.82
  C 797.40 757.13 799.40 751.87 796.57 753.02
  L 787.58 754.02
  Q 784.28 752.33 780.94 754.06
  A 1.60 1.58 -55.1 0 1 780.01 754.23
  Q 777.75 753.96 775.99 755.14
  Q 775.49 755.47 776.02 755.64
  L 776.50 755.79
  Q 774.83 756.50 773.00 756.21
  Q 773.46 756.17 773.70 755.98
  Q 774.20 755.59 773.47 755.45
  Q 771.12 755.00 768.94 756.18
  A 1.37 1.32 -52.7 0 1 768.02 756.32
  Q 764.48 755.60 761.46 757.33
  A 1.25 1.17 36.2 0 1 760.55 757.44
  Q 757.71 756.67 755.19 757.99
  Q 754.73 758.24 754.26 758.24
  L 751.03 758.27
  A 1.32 1.11 -63.6 0 0 750.18 758.64
  C 748.51 760.29 744.81 758.71 742.19 760.09
  A 1.66 1.60 -54.1 0 1 741.25 760.26
  Q 738.00 759.79 735.21 761.27
  A 1.37 1.37 -53.5 0 1 734.28 761.41
  Q 731.23 760.76 728.39 761.99
  Q 727.92 762.20 727.44 762.17
  Q 724.52 762.02 721.89 763.19
  A 1.93 1.92 36.0 0 1 720.93 763.34
  Q 718.02 763.01 715.21 764.00
  C 707.51 764.24 700.30 766.17 693.18 766.89
  Q 691.34 767.07 688.37 767.72
  C 686.74 768.08 682.88 767.90 681.87 768.70
  A 1.38 0.91 -53.6 0 1 681.03 769.01
  C 677.94 768.77 675.22 769.91 672.30 769.96
  Q 668.22 770.04 664.31 771.23
  C 661.33 772.14 658.47 771.75 655.47 772.89
  Q 655.01 773.07 654.52 773.00
  C 651.73 772.64 649.64 773.66 646.97 773.69
  C 644.73 773.72 643.13 774.76 641.02 774.75
  Q 639.55 774.74 638.06 774.77
  A 1.97 1.69 -57.8 0 0 637.12 775.06
  Q 634.87 776.44 633.23 776.13
  Q 631.01 775.71 631.01 773.45
  Q 630.98 692.22 631.04 612.00
  Q 631.04 607.22 631.83 602.36
  A 0.60 0.59 -84.3 0 1 632.42 601.87
  Q 700.18 601.98 767.94 601.97
  Q 787.06 601.97 806.18 601.63
  Q 808.88 601.58 806.25 600.96
  C 802.90 600.18 796.35 601.04 792.50 600.79
  Q 800.00 600.77 807.50 600.75
  Q 808.64 600.75 808.29 599.25
  C 808.64 600.68 809.33 600.18 809.50 599.28
  C 810.18 595.59 809.97 592.11 810.54 588.28
  Q 811.11 584.55 810.67 580.73
  A 1.11 0.92 67.6 0 1 810.94 579.85
  L 811.31 579.50
  A 1.28 0.71 -32.9 0 0 811.74 578.69
  L 811.71 568.99
  A 0.91 0.90 72.5 0 1 812.09 568.25
  C 813.16 567.49 812.76 559.35 812.76 557.70
  A 0.62 0.52 -15.2 0 1 813.11 557.20
  C 814.43 556.55 813.94 549.43 813.77 547.99
  A 0.81 0.74 -20.6 0 1 814.14 547.26
  C 815.30 546.53 815.16 538.08 815.48 536.38
  C 816.08 533.19 816.06 530.73 816.24 527.78
  A 1.72 1.27 38.2 0 0 815.99 526.87
  Q 815.25 525.64 816.15 524.61
  A 1.49 1.05 -32.1 0 0 816.51 523.75
  C 816.52 520.84 816.87 514.95 815.79 514.75
  L 816.00 514.46
  C 819.48 513.81 817.44 502.66 817.07 500.47
  Q 817.10 499.55 816.25 499.46
  Q 817.44 499.11 817.08 498.22
  A 0.75 0.74 78.8 0 0 816.39 497.75
  Q 673.57 497.75 532.92 497.75
  C 530.28 497.75 528.72 496.96 526.37 498.86
  A 1.10 1.02 71.8 0 0 525.99 499.69
  Q 526.01 695.65 526.00 891.61
  C 526.00 892.74 524.83 894.59 527.00 894.71
  Z"
/>
<path fill="#d4b000" fill-opacity="0.827" d="
  M 492.75 388.54
  C 492.57 389.42 493.00 390.21 493.00 390.90
  Q 493.00 827.25 493.00 1263.60
  C 493.00 1264.98 492.65 1266.62 492.76 1268.21
  A 0.74 0.70 -85.1 0 0 493.28 1268.86
  Q 494.48 1269.18 495.71 1268.75
  Q 494.41 1269.99 492.93 1269.21
  A 0.90 0.81 -77.5 0 1 492.50 1268.44
  Q 492.50 828.59 492.49 388.75
  Q 492.49 388.48 492.75 388.54
  Z"
/>
<path fill="#e6c500" fill-opacity="0.894" d="
  M 816.25 499.46
  L 815.75 499.46
  Q 816.11 499.04 816.02 498.67
  A 0.83 0.55 -4.5 0 0 815.26 498.25
  C 791.07 498.25 528.15 498.05 528.03 498.54
  A 0.53 0.39 11.6 0 0 528.48 499.04
  L 530.75 499.46
  Q 528.82 498.98 527.71 500.25
  Q 527.41 500.46 527.00 500.53
  A 0.59 0.53 -5.1 0 0 526.50 501.06
  Q 526.50 696.07 526.50 891.08
  C 526.50 892.22 525.63 893.70 527.00 894.71
  C 524.83 894.59 526.00 892.74 526.00 891.61
  Q 526.01 695.65 525.99 499.69
  A 1.10 1.02 71.8 0 1 526.37 498.86
  C 528.72 496.96 530.28 497.75 532.92 497.75
  Q 673.57 497.75 816.39 497.75
  A 0.75 0.74 78.8 0 1 817.08 498.22
  Q 817.44 499.11 816.25 499.46
  Z"
/>
<path fill="#d8ac00" fill-opacity="0.847" d="
  M 457.04 498.50
  L 456.25 499.46
  L 454.50 499.46
  Q 455.77 499.55 455.94 498.82
  A 0.49 0.41 4.6 0 0 455.44 498.33
  Q 406.59 498.65 357.75 498.45
  Q 354.80 498.44 357.00 499.46
  L 355.25 499.79
  C 353.52 498.45 354.50 502.80 354.50 503.26
  Q 354.50 757.13 354.50 1011.01
  A 1.04 0.83 -21.7 0 1 354.07 1011.76
  Q 353.30 1012.32 353.21 1013.25
  L 178.30 965.61
  Q 177.64 965.64 177.40 965.25
  A 0.58 0.47 -29.2 0 1 177.69 964.52
  Q 179.49 963.59 181.04 964.78
  A 1.07 0.97 -30.2 0 0 181.88 964.96
  Q 182.71 964.79 183.05 965.33
  A 1.25 0.70 68.0 0 0 183.72 965.87
  L 189.98 966.96
  A 1.35 0.91 69.1 0 1 190.73 967.49
  Q 191.52 968.59 193.09 967.88
  A 0.53 0.52 62.6 0 1 193.76 968.10
  Q 194.74 969.89 196.82 969.08
  A 0.50 0.48 66.4 0 1 197.44 969.34
  Q 198.15 970.88 199.57 969.98
  A 1.41 0.77 -43.9 0 1 200.48 969.73
  Q 201.30 969.88 201.78 970.54
  A 1.04 0.81 68.4 0 0 202.53 970.98
  L 204.27 971.02
  A 1.49 1.04 58.5 0 1 205.11 971.39
  Q 206.20 972.34 207.79 972.05
  A 0.70 0.68 69.0 0 1 208.51 972.38
  Q 209.31 973.69 210.82 973.18
  A 1.04 1.01 -37.7 0 1 211.70 973.28
  Q 213.28 974.31 215.27 974.02
  A 0.89 0.77 64.3 0 1 216.04 974.35
  C 217.29 975.86 218.75 974.12 219.93 975.67
  A 1.01 0.84 68.2 0 0 220.69 976.08
  Q 223.79 976.03 228.19 977.78
  A 3.32 3.27 -38.4 0 0 229.95 977.97
  Q 230.86 977.82 231.15 978.52
  A 0.66 0.57 75.8 0 0 231.75 978.94
  Q 233.59 978.80 234.87 979.96
  A 1.17 0.81 -20.5 0 0 235.70 980.17
  L 237.29 979.99
  A 1.10 0.52 53.7 0 1 238.07 980.41
  C 239.35 981.74 241.20 980.14 241.95 981.79
  A 0.63 0.58 72.5 0 0 242.60 982.16
  Q 244.64 981.84 246.50 982.91
  A 1.20 1.09 -35.9 0 0 247.40 983.01
  Q 248.91 982.58 249.34 983.88
  A 0.47 0.43 71.2 0 0 249.91 984.19
  Q 251.82 983.51 252.92 984.86
  A 0.89 0.85 66.1 0 0 253.70 985.18
  Q 255.41 984.94 256.43 986.15
  A 0.85 0.65 -20.8 0 0 257.18 986.37
  L 259.25 986.02
  A 1.00 0.56 59.7 0 1 260.02 986.47
  Q 261.01 987.78 262.82 987.04
  A 0.47 0.46 -21.7 0 1 263.43 987.30
  Q 263.66 987.92 264.07 988.28
  A 0.79 0.59 -35.9 0 0 264.89 988.29
  C 266.79 987.25 268.18 989.25 270.45 989.07
  A 0.64 0.54 76.1 0 1 271.04 989.50
  C 271.45 990.61 273.69 989.40 274.95 990.64
  A 1.07 1.06 64.4 0 0 275.78 990.94
  Q 277.27 990.79 278.37 991.64
  A 1.55 1.20 58.9 0 0 279.25 991.98
  L 281.45 992.02
  A 0.72 0.55 80.2 0 1 282.01 992.54
  C 282.31 993.56 284.74 992.18 285.91 993.65
  A 1.07 0.86 66.1 0 0 286.68 994.05
  Q 290.33 993.99 293.34 996.09
  A 0.89 0.83 -38.8 0 0 294.19 996.15
  Q 295.89 995.42 296.83 996.80
  A 0.73 0.70 65.9 0 0 297.58 997.10
  Q 299.45 996.70 300.88 997.99
  A 0.80 0.80 55.4 0 0 301.69 998.14
  Q 303.50 997.46 304.45 998.91
  A 0.65 0.61 64.0 0 0 305.16 999.18
  Q 306.90 998.64 308.08 999.74
  A 0.97 0.93 60.6 0 0 308.91 999.99
  Q 310.80 999.63 312.17 1000.65
  A 1.33 1.31 61.2 0 0 313.04 1000.91
  Q 314.56 1000.82 315.43 1002.00
  A 0.62 0.60 60.0 0 0 316.15 1002.21
  Q 318.19 1001.38 319.03 1003.08
  A 0.59 0.58 68.6 0 0 319.70 1003.38
  Q 321.16 1002.96 322.18 1003.86
  A 1.28 0.97 58.7 0 0 323.02 1004.19
  L 325.26 1004.03
  A 1.29 1.03 59.1 0 1 326.11 1004.35
  Q 327.21 1005.33 328.79 1005.03
  A 0.71 0.66 67.7 0 1 329.50 1005.36
  Q 330.00 1006.15 330.90 1006.23
  Q 332.31 1006.35 333.94 1006.81
  L 345.45 1010.04
  A 1.76 1.76 44.9 0 0 346.39 1010.04
  Q 347.66 1009.67 348.43 1010.62
  A 0.96 0.87 67.4 0 0 349.20 1010.98
  Q 350.59 1010.89 351.72 1011.60
  Q 354.00 1013.02 354.00 1010.94
  L 353.99 501.04
  Q 353.99 497.99 357.05 497.99
  Q 406.34 498.04 456.44 497.95
  Q 456.98 497.95 457.04 498.50
  Z"
/>
<path fill="#edbc00" fill-opacity="0.957" d="
  M 454.50 499.46
  L 357.00 499.46
  Q 354.80 498.44 357.75 498.45
  Q 406.59 498.65 455.44 498.33
  A 0.49 0.41 4.6 0 1 455.94 498.82
  Q 455.77 499.55 454.50 499.46
  Z"
/>
<path fill="#ffdc01" fill-opacity="0.992" d="
  M 815.75 499.46
  L 530.75 499.46
  L 528.48 499.04
  A 0.53 0.39 11.6 0 1 528.03 498.54
  C 528.15 498.05 791.07 498.25 815.26 498.25
  A 0.83 0.55 -4.5 0 1 816.02 498.67
  Q 816.11 499.04 815.75 499.46
  Z"
/>
<path fill="#c79d00" fill-opacity="0.831" d="
  M 457.04 498.50
  Q 460.30 498.40 460.09 501.25
  C 459.46 509.83 459.99 519.03 460.02 527.65
  A 0.27 0.24 -2.2 0 0 460.31 527.89
  Q 460.75 527.87 460.29 528.28
  A 0.88 0.63 -26.9 0 0 460.01 528.82
  L 459.79 534.01
  A 0.78 0.59 19.6 0 0 460.20 534.63
  Q 460.65 534.88 460.33 535.14
  A 0.79 0.57 -25.8 0 0 460.04 535.67
  C 460.02 538.17 459.95 540.13 460.13 543.03
  C 460.39 547.12 459.74 551.79 460.05 558.71
  A 0.17 0.13 -10.1 0 0 460.26 558.82
  Q 460.37 558.79 460.45 558.87
  A 0.17 0.14 -39.9 0 1 460.40 559.10
  C 459.57 559.73 459.91 563.82 459.99 564.94
  Q 460.12 566.75 459.95 568.91
  Q 459.73 571.64 460.17 574.37
  Q 460.24 574.80 460.08 575.33
  Q 459.90 575.90 459.90 576.56
  Q 459.90 602.50 460.03 628.44
  Q 460.03 628.50 459.92 633.42
  Q 459.86 636.01 460.09 638.61
  A 0.43 0.35 3.9 0 0 460.43 638.93
  Q 460.73 638.98 460.22 639.30
  A 0.75 0.67 -18.1 0 0 459.88 639.89
  L 459.93 678.08
  A 1.08 0.13 57.7 0 0 460.31 678.87
  Q 460.49 679.17 460.18 679.64
  A 1.66 0.96 -40.0 0 0 459.86 680.52
  Q 459.88 682.83 460.03 685.09
  Q 460.13 686.64 459.96 688.76
  Q 459.82 690.61 459.93 692.46
  Q 460.07 694.74 459.91 697.40
  Q 459.77 699.89 460.17 702.38
  Q 460.24 702.80 460.07 703.33
  Q 459.89 703.90 459.89 704.56
  Q 459.91 726.54 460.04 748.51
  Q 460.04 748.57 459.91 753.35
  Q 459.86 755.22 460.00 757.08
  Q 460.12 758.84 459.98 760.77
  Q 459.75 763.69 460.11 766.61
  A 0.49 0.33 8.3 0 0 460.46 766.93
  Q 460.68 766.98 460.25 767.29
  A 0.77 0.71 -19.1 0 0 459.93 767.89
  L 459.95 806.08
  Q 459.95 806.16 460.32 806.89
  Q 460.47 807.18 460.17 807.64
  A 1.69 0.98 -40.4 0 0 459.86 808.52
  Q 459.88 810.83 460.03 813.09
  Q 460.13 814.64 459.96 816.76
  Q 459.82 818.61 459.93 820.46
  Q 460.07 822.74 459.91 825.40
  Q 459.77 827.89 460.17 830.37
  Q 460.24 830.81 460.08 831.33
  Q 459.92 831.90 459.92 832.56
  Q 460.01 851.20 459.93 869.83
  Q 459.93 870.10 460.23 870.72
  Q 460.44 871.15 460.17 871.63
  Q 459.86 872.16 459.87 872.52
  Q 459.87 874.83 460.02 877.09
  Q 460.13 878.66 459.97 880.76
  Q 459.82 882.61 459.93 884.46
  Q 460.07 886.74 459.91 889.40
  Q 459.77 891.89 460.17 894.38
  Q 460.24 894.80 460.07 895.33
  Q 459.88 895.90 459.89 896.56
  Q 459.98 931.31 459.94 966.07
  Q 459.94 966.20 460.28 966.92
  Q 460.44 967.24 460.17 967.66
  A 1.73 0.85 -44.6 0 0 459.86 968.55
  Q 459.88 970.68 460.01 972.80
  Q 460.11 974.51 459.95 977.05
  Q 459.82 979.01 459.97 980.98
  Q 460.12 982.91 459.96 984.88
  Q 459.81 986.90 459.96 988.92
  Q 460.11 991.01 459.97 992.94
  C 459.78 995.62 460.12 998.71 460.09 1001.01
  Q 459.79 1022.64 460.06 1044.27
  Q 460.06 1044.48 459.91 1049.58
  Q 459.86 1051.37 459.99 1053.15
  Q 460.13 1054.94 460.00 1056.71
  Q 459.84 1058.78 459.92 1060.86
  Q 460.06 1064.06 460.05 1065.01
  Q 459.85 1083.85 460.00 1102.69
  A 0.18 0.15 -8.6 0 0 460.23 1102.83
  Q 460.35 1102.79 460.42 1102.84
  A 0.18 0.12 -43.8 0 1 460.37 1103.07
  Q 459.31 1103.94 460.10 1104.74
  A 0.46 0.41 -48.1 0 1 460.10 1105.34
  Q 459.85 1105.63 459.88 1106.06
  Q 460.17 1110.38 460.24 1114.72
  Q 460.25 1115.07 459.98 1115.63
  Q 459.70 1116.21 460.09 1116.69
  A 0.93 0.77 37.0 0 1 460.28 1117.49
  Q 459.89 1118.68 460.31 1119.93
  A 0.40 0.38 -28.7 0 1 460.18 1120.35
  Q 459.72 1120.71 460.43 1120.64
  Q 460.68 1120.62 460.50 1120.79
  Q 459.85 1121.43 460.55 1122.23
  A 0.40 0.39 42.4 0 1 460.58 1122.70
  Q 459.36 1124.56 460.26 1126.60
  A 0.94 0.40 -53.7 0 1 460.09 1127.33
  C 459.87 1127.71 460.13 1127.83 460.12 1128.22
  Q 459.89 1137.68 460.03 1147.14
  C 460.04 1147.98 459.22 1150.43 458.25 1148.15
  A 0.74 0.59 -9.8 0 0 457.59 1147.79
  Q 457.20 1147.80 456.96 1147.50
  L 457.03 1146.75
  Q 458.32 1138.43 458.07 1130.03
  Q 457.78 1119.96 457.78 1119.82
  Q 457.66 1029.29 457.79 938.75
  Q 458.54 900.88 458.11 863.01
  C 457.63 820.19 458.66 777.32 458.12 734.50
  C 457.59 691.94 458.72 649.31 458.11 606.74
  C 457.74 581.48 458.50 556.29 457.77 531.00
  Q 459.07 515.57 458.27 500.10
  C 458.23 499.44 457.84 497.86 457.21 499.75
  L 456.25 499.46
  L 457.04 498.50
  Z"
/>
<path fill="#ca9f03" fill-opacity="0.922" d="
  M 457.77 531.00
  Q 457.71 733.84 457.67 936.69
  Q 457.67 937.72 457.79 938.75
  Q 457.66 1029.29 457.78 1119.82
  Q 457.78 1119.96 458.07 1130.03
  Q 458.32 1138.43 457.03 1146.75
  Q 456.98 823.87 457.10 501.00
  Q 457.10 500.37 457.21 499.75
  C 457.84 497.86 458.23 499.44 458.27 500.10
  Q 459.07 515.57 457.77 531.00
  Z"
/>
<path fill="#e1b300" fill-opacity="0.894" d="
  M 355.25 499.79
  Q 355.27 500.77 355.27 501.75
  Q 355.50 757.47 355.50 1013.19
  A 0.65 0.56 85.9 0 1 355.03 1013.82
  Q 354.02 1014.01 353.21 1013.25
  Q 353.30 1012.32 354.07 1011.76
  A 1.04 0.83 -21.7 0 0 354.50 1011.01
  Q 354.50 757.13 354.50 503.26
  C 354.50 502.80 353.52 498.45 355.25 499.79
  Z"
/>
<path fill="#e9c700" fill-opacity="0.933" d="
  M 527.71 500.25
  L 527.71 893.75
  L 527.00 894.71
  C 525.63 893.70 526.50 892.22 526.50 891.08
  Q 526.50 696.07 526.50 501.06
  A 0.59 0.53 -5.1 0 1 527.00 500.53
  Q 527.41 500.46 527.71 500.25
  Z"
/>
<path fill="#fad601" fill-opacity="0.984" d="
  M 817.07 500.47
  C 817.44 502.66 819.48 513.81 816.00 514.46
  L 817.07 500.47
  Z"
/>
<path fill="#f8d301" fill-opacity="0.973" d="
  M 815.79 514.75
  C 816.87 514.95 816.52 520.84 816.51 523.75
  A 1.49 1.05 -32.1 0 1 816.15 524.61
  Q 815.25 525.64 815.99 526.87
  A 1.72 1.27 38.2 0 1 816.24 527.78
  C 816.06 530.73 816.08 533.19 815.48 536.38
  C 815.16 538.08 815.30 546.53 814.14 547.26
  A 0.81 0.74 -20.6 0 0 813.77 547.99
  C 813.94 549.43 814.43 556.55 813.11 557.20
  A 0.62 0.52 -15.2 0 0 812.76 557.70
  C 812.76 559.35 813.16 567.49 812.09 568.25
  A 0.91 0.90 72.5 0 0 811.71 568.99
  L 811.74 578.69
  A 1.28 0.71 -32.9 0 1 811.31 579.50
  L 810.94 579.85
  A 1.11 0.92 67.6 0 0 810.67 580.73
  Q 811.11 584.55 810.54 588.28
  C 809.97 592.11 810.18 595.59 809.50 599.28
  C 809.33 600.18 808.64 600.68 808.29 599.25
  L 815.79 514.75
  Z"
/>
<path fill="#cb9e00" fill-opacity="0.871" d="
  M 457.77 531.00
  C 458.50 556.29 457.74 581.48 458.11 606.74
  C 458.72 649.31 457.59 691.94 458.12 734.50
  C 458.66 777.32 457.63 820.19 458.11 863.01
  Q 458.54 900.88 457.79 938.75
  Q 457.67 937.72 457.67 936.69
  Q 457.71 733.84 457.77 531.00
  Z"
/>
<path fill="#d8ac00" fill-opacity="0.847" d="
  M 63.79 682.25
  L 53.21 558.75
  L 53.33 557.28
  Q 53.39 556.59 53.75 557.24
  C 55.77 560.90 55.08 565.73 54.75 569.75
  A 1.06 0.97 24.6 0 0 55.09 570.56
  C 56.58 571.95 56.02 577.37 56.05 579.45
  A 0.79 0.44 17.2 0 0 56.55 579.97
  L 56.79 580.07
  A 0.55 0.35 -86.7 0 1 57.03 580.50
  Q 57.60 586.40 56.72 592.25
  A 0.81 0.67 22.7 0 0 57.09 592.96
  C 58.74 594.02 57.82 602.18 57.73 604.25
  A 0.88 0.74 19.1 0 0 58.16 604.97
  C 60.26 606.26 57.93 615.38 59.72 616.78
  A 0.77 0.65 22.6 0 1 60.02 617.36
  Q 59.94 620.24 60.01 623.11
  C 60.09 626.88 61.50 631.03 60.92 635.51
  A 1.46 1.34 -59.8 0 0 61.12 636.43
  C 62.93 639.25 61.84 648.28 61.76 651.94
  A 1.32 0.90 31.4 0 0 62.13 652.76
  L 62.74 653.40
  A 1.38 0.82 -75.6 0 1 63.00 654.30
  L 62.73 662.51
  A 1.79 1.52 34.5 0 0 62.98 663.44
  C 64.73 666.34 63.83 671.09 63.76 674.43
  A 1.37 1.22 28.9 0 0 64.07 675.31
  C 65.52 677.10 65.03 680.29 64.72 682.95
  Q 64.65 683.53 64.27 683.13
  Q 63.95 682.78 63.79 682.25
  Z"
/>
<path fill="#fad601" fill-opacity="0.984" d="
  M 630.90 600.78
  Q 630.23 686.53 630.46 772.25
  C 630.47 775.39 631.68 777.31 635.09 776.47
  A 0.43 0.36 -10.4 0 1 635.61 776.77
  Q 635.64 777.05 635.50 777.21
  L 629.90 778.01
  A 0.57 0.51 -4.4 0 1 629.25 777.51
  L 629.25 601.81
  A 0.96 0.88 75.4 0 1 629.67 601.02
  Q 630.44 600.53 630.90 600.78
  Z"
/>
<path fill="#e9c900" fill-opacity="0.922" d="
  M 630.90 600.78
  L 792.50 600.79
  C 796.35 601.04 802.90 600.18 806.25 600.96
  Q 808.88 601.58 806.18 601.63
  Q 787.06 601.97 767.94 601.97
  Q 700.18 601.98 632.42 601.87
  A 0.60 0.59 -84.3 0 0 631.83 602.36
  Q 631.04 607.22 631.04 612.00
  Q 630.98 692.22 631.01 773.45
  Q 631.01 775.71 633.23 776.13
  Q 634.87 776.44 637.12 775.06
  A 1.97 1.69 -57.8 0 1 638.06 774.77
  Q 639.55 774.74 641.02 774.75
  C 643.13 774.76 644.73 773.72 646.97 773.69
  C 649.64 773.66 651.73 772.64 654.52 773.00
  Q 655.01 773.07 655.47 772.89
  C 658.47 771.75 661.33 772.14 664.31 771.23
  Q 668.22 770.04 672.30 769.96
  C 675.22 769.91 677.94 768.77 681.03 769.01
  A 1.38 0.91 -53.6 0 0 681.87 768.70
  C 682.88 767.90 686.74 768.08 688.37 767.72
  Q 691.34 767.07 693.18 766.89
  C 700.30 766.17 707.51 764.24 715.21 764.00
  L 711.00 764.45
  A 1.23 0.68 3.2 0 0 710.15 764.86
  Q 709.78 765.42 711.02 765.70
  L 635.50 777.21
  Q 635.64 777.05 635.61 776.77
  A 0.43 0.36 -10.4 0 0 635.09 776.47
  C 631.68 777.31 630.47 775.39 630.46 772.25
  Q 630.23 686.53 630.90 600.78
  Z"
/>
<path fill="#cea500" fill-opacity="0.847" d="
  M 921.85 673.47
  L 906.96 845.00
  Q 906.80 844.83 906.62 844.83
  A 0.32 0.22 -2.1 0 1 906.29 844.62
  Q 906.16 841.31 906.28 838.01
  C 906.37 835.57 907.78 832.49 907.22 829.75
  C 906.24 824.89 907.93 822.28 908.02 818.14
  Q 908.10 813.95 908.34 809.75
  Q 908.36 809.35 908.58 809.78
  Q 908.66 809.94 908.67 809.77
  Q 908.89 807.04 908.72 803.01
  C 908.59 799.91 909.81 796.97 909.81 793.99
  Q 909.82 789.84 910.31 785.74
  C 910.68 782.58 910.50 777.84 911.28 774.05
  C 912.04 770.33 911.39 766.88 912.14 763.22
  Q 912.67 760.61 912.60 758.22
  C 912.47 753.81 913.76 749.78 913.66 745.57
  Q 913.55 740.95 913.99 739.71
  Q 915.35 735.92 914.63 731.95
  Q 914.54 731.46 914.70 730.98
  Q 916.10 726.80 915.99 721.51
  Q 915.97 720.57 916.80 719.94
  A 1.04 0.82 -22.9 0 0 917.22 719.18
  L 916.96 708.73
  A 0.79 0.71 79.0 0 1 917.39 708.01
  L 917.79 707.83
  A 0.69 0.62 -12.9 0 0 918.21 707.24
  C 918.19 703.23 916.96 698.61 919.38 695.60
  A 1.15 1.08 -31.7 0 0 919.62 694.72
  C 919.18 692.32 918.21 686.44 919.85 684.55
  A 1.65 1.27 -28.8 0 0 920.23 683.68
  Q 920.40 680.33 919.95 677.01
  Q 919.59 674.28 921.85 673.47
  Z"
/>
<path fill="#f8d301" fill-opacity="0.973" d="
  M 772.96 1019.75
  L 772.78 1028.53
  A 1.27 0.91 75.4 0 1 772.46 1029.36
  L 771.58 1030.18
  A 0.82 0.81 60.3 0 0 771.36 1031.00
  C 771.89 1032.86 772.67 1040.87 770.00 1041.46
  L 796.57 753.02
  C 799.40 751.87 797.40 757.13 797.01 757.82
  Q 796.75 758.29 796.75 758.75
  L 796.76 766.54
  A 1.62 1.35 -30.8 0 1 796.45 767.43
  C 793.99 770.85 796.27 772.86 796.01 776.09
  C 795.83 778.29 795.00 780.20 795.01 782.34
  Q 795.05 786.03 794.73 789.70
  A 1.24 0.89 -21.8 0 1 794.25 790.46
  C 793.84 790.78 793.80 799.59 793.48 801.05
  C 792.67 804.76 793.35 808.09 792.66 811.72
  Q 792.19 814.23 792.22 816.85
  C 792.25 820.51 791.00 824.26 790.83 827.43
  Q 790.68 830.09 790.61 832.77
  A 1.22 1.04 -22.4 0 1 790.20 833.57
  Q 788.93 834.66 789.29 835.98
  Q 790.59 840.65 789.49 844.66
  Q 788.75 847.39 788.75 848.96
  C 788.76 850.45 789.17 855.27 788.12 856.20
  A 0.91 0.79 -27.2 0 0 787.81 856.97
  Q 788.62 862.09 787.46 867.12
  A 0.52 0.47 -86.7 0 1 787.07 867.51
  L 786.92 867.54
  A 0.20 0.18 -4.3 0 0 786.76 867.71
  L 786.46 877.20
  A 0.95 0.32 -29.7 0 1 785.94 877.78
  C 785.37 878.16 786.99 888.53 785.24 889.64
  A 0.99 0.63 -22.8 0 0 784.77 890.32
  L 784.76 898.77
  A 1.26 0.69 -32.7 0 1 784.34 899.54
  L 783.50 900.35
  A 0.93 0.66 63.2 0 0 783.37 901.22
  Q 784.65 905.14 783.45 908.91
  C 782.47 912.01 782.89 914.17 782.67 917.18
  C 782.48 919.65 780.84 921.35 781.46 924.44
  C 782.14 927.79 782.34 929.19 781.30 931.92
  A 0.95 0.69 -81.3 0 1 780.74 932.49
  L 780.52 932.54
  A 0.25 0.22 -9.3 0 0 780.33 932.77
  L 780.47 940.93
  A 1.37 0.99 -30.2 0 1 780.09 941.79
  L 779.87 942.02
  A 0.66 0.61 64.7 0 0 779.70 942.57
  C 780.61 949.83 778.41 955.38 779.04 962.25
  C 779.11 963.02 778.72 964.01 778.29 964.60
  A 1.50 1.27 -31.7 0 0 778.00 965.49
  C 778.09 968.31 778.46 972.60 776.99 975.06
  A 1.82 1.68 -32.2 0 0 776.74 975.99
  C 776.77 978.74 777.03 985.50 776.27 986.08
  A 0.89 0.61 -28.3 0 0 775.90 986.79
  Q 776.67 991.71 775.54 996.48
  C 774.71 999.98 775.29 1003.03 774.84 1006.45
  C 774.26 1010.76 774.33 1015.47 772.96 1019.75
  Z"
/>
<path fill="#f8d301" fill-opacity="0.973" d="
  M 787.58 754.02
  L 776.50 755.79
  L 776.02 755.64
  Q 775.49 755.47 775.99 755.14
  Q 777.75 753.96 780.01 754.23
  A 1.60 1.58 -55.1 0 0 780.94 754.06
  Q 784.28 752.33 787.58 754.02
  Z"
/>
<path fill="#d7ad01" fill-opacity="0.859" d="
  M 78.82 855.78
  L 70.21 755.75
  C 70.37 751.73 70.98 755.38 71.14 755.74
  Q 72.61 759.06 71.84 762.57
  C 71.43 764.45 71.79 765.65 71.85 767.46
  A 0.72 0.46 12.1 0 0 72.36 767.96
  L 72.72 768.07
  A 0.54 0.41 -82.5 0 1 73.02 768.59
  L 72.74 777.24
  A 1.17 1.10 25.3 0 0 73.07 778.08
  C 74.66 779.77 73.92 784.93 73.74 788.93
  A 0.82 0.63 17.7 0 0 74.20 789.59
  L 74.53 789.76
  A 0.70 0.59 -78.0 0 1 74.86 790.37
  L 74.71 801.01
  A 1.53 1.27 -67.1 0 0 74.98 801.90
  C 76.79 804.31 75.87 809.50 75.75 812.43
  A 0.78 0.68 15.2 0 0 76.20 813.11
  C 77.51 813.76 77.30 818.57 77.22 820.70
  Q 77.21 821.04 76.94 821.62
  Q 76.59 822.35 77.23 822.93
  A 1.43 0.93 27.0 0 1 77.69 823.73
  Q 78.29 829.63 77.65 835.51
  A 1.21 1.15 28.8 0 0 77.93 836.39
  C 79.85 838.69 78.82 844.53 78.73 847.51
  A 1.63 1.46 32.3 0 0 78.99 848.42
  Q 81.38 852.08 78.82 855.78
  Z"
/>
<path fill="#f8d301" fill-opacity="0.973" d="
  M 773.00 756.21
  L 711.02 765.70
  Q 709.78 765.42 710.15 764.86
  A 1.23 0.68 3.2 0 1 711.00 764.45
  L 715.21 764.00
  Q 718.02 763.01 720.93 763.34
  A 1.93 1.92 36.0 0 0 721.89 763.19
  Q 724.52 762.02 727.44 762.17
  Q 727.92 762.20 728.39 761.99
  Q 731.23 760.76 734.28 761.41
  A 1.37 1.37 -53.5 0 0 735.21 761.27
  Q 738.00 759.79 741.25 760.26
  A 1.66 1.60 -54.1 0 0 742.19 760.09
  C 744.81 758.71 748.51 760.29 750.18 758.64
  A 1.32 1.11 -63.6 0 1 751.03 758.27
  L 754.26 758.24
  Q 754.73 758.24 755.19 757.99
  Q 757.71 756.67 760.55 757.44
  A 1.25 1.17 36.2 0 0 761.46 757.33
  Q 764.48 755.60 768.02 756.32
  A 1.37 1.32 -52.7 0 0 768.94 756.18
  Q 771.12 755.00 773.47 755.45
  Q 774.20 755.59 773.70 755.98
  Q 773.46 756.17 773.00 756.21
  Z"
/>
<path fill="#fad601" fill-opacity="0.984" d="
  M 691.96 874.00
  Q 691.64 871.81 690.22 871.02
  Q 687.31 870.18 685.32 871.64
  A 1.81 1.40 -58.1 0 1 684.43 871.97
  Q 681.61 872.14 678.82 872.70
  C 676.82 873.10 674.13 872.54 671.95 873.80
  A 1.52 1.39 -54.7 0 1 671.03 874.00
  Q 667.97 873.66 665.20 874.81
  Q 664.75 874.99 664.24 874.96
  C 661.63 874.77 659.57 875.87 657.12 875.93
  C 654.34 876.00 651.19 876.87 649.15 877.22
  Q 644.97 877.94 640.83 878.69
  C 639.50 878.93 636.64 878.81 634.67 879.48
  Q 633.30 879.95 632.25 879.99
  C 627.48 880.18 622.77 882.16 618.21 882.03
  C 615.69 881.96 613.77 883.24 610.99 883.03
  Q 610.49 882.99 610.05 883.20
  C 607.73 884.29 605.04 883.97 602.99 884.36
  Q 593.97 886.09 584.83 887.09
  Q 584.51 887.12 583.90 887.41
  Q 583.24 887.72 581.99 887.87
  C 578.17 888.32 573.69 888.32 570.03 889.42
  C 567.44 890.20 565.75 889.33 563.17 890.79
  A 1.61 1.55 32.4 0 1 562.24 890.98
  Q 559.59 890.70 557.20 891.78
  Q 556.73 891.99 556.26 891.97
  Q 553.15 891.87 549.26 892.76
  Q 544.67 893.82 535.42 894.93
  C 533.40 895.17 531.34 896.31 528.80 895.99
  A 0.86 0.51 3.7 0 1 528.07 895.49
  Q 528.02 895.14 528.50 894.79
  L 691.94 869.14
  A 0.43 0.40 -2.4 0 1 692.44 869.57
  L 691.96 874.00
  Z"
/>
<path fill="#d7ad01" fill-opacity="0.859" d="
  M 93.79 1028.25
  L 80.21 872.00
  Q 80.52 867.72 80.82 871.73
  A 0.15 0.14 78.0 0 0 81.02 871.87
  L 81.11 871.83
  A 0.13 0.11 -21.6 0 1 81.26 871.88
  Q 82.51 874.81 81.82 877.78
  C 81.36 879.77 81.70 880.90 81.75 882.78
  A 1.34 1.02 26.9 0 0 82.15 883.61
  C 83.70 885.12 82.84 890.95 82.73 893.13
  A 0.43 0.32 13.8 0 0 83.02 893.48
  C 84.04 893.87 83.86 902.52 83.74 903.74
  A 1.21 0.96 31.5 0 0 84.05 904.59
  C 85.83 906.55 84.89 913.74 84.75 916.43
  A 0.57 0.42 8.8 0 0 85.21 916.89
  C 86.37 917.14 85.80 923.32 85.63 925.12
  Q 85.41 927.44 86.80 929.55
  A 1.62 1.54 30.0 0 1 87.07 930.46
  L 86.97 937.42
  Q 86.97 937.80 86.75 938.36
  Q 86.37 939.34 87.14 939.97
  A 1.44 0.92 23.5 0 1 87.65 940.73
  Q 88.42 945.49 87.73 950.26
  A 1.64 1.07 -65.4 0 0 87.87 951.21
  L 88.67 952.59
  A 1.77 0.69 50.0 0 1 88.98 953.51
  L 88.77 962.26
  A 1.21 1.10 25.4 0 0 89.11 963.09
  L 89.85 963.84
  A 1.18 0.93 -68.3 0 1 90.11 964.72
  Q 89.54 969.25 90.34 973.63
  C 91.23 978.55 90.80 982.96 91.65 987.77
  C 92.26 991.17 90.86 996.64 92.82 999.10
  A 1.23 1.21 29.0 0 1 93.08 999.98
  Q 92.58 1005.04 93.44 1009.96
  C 94.18 1014.17 93.85 1017.27 93.73 1021.26
  A 0.92 0.75 20.3 0 0 94.15 1021.97
  C 95.68 1022.95 94.92 1028.18 94.63 1029.78
  Q 94.54 1030.24 94.37 1029.79
  L 93.79 1028.25
  Z"
/>
<path fill="#e9c900" fill-opacity="0.922" d="
  M 690.22 871.02
  Q 691.64 871.81 691.96 874.00
  L 678.79 997.00
  Q 678.17 996.49 677.58 997.57
  Q 678.62 993.66 677.93 989.70
  A 1.44 1.40 -35.5 0 1 678.10 988.77
  C 680.86 983.93 677.46 980.10 679.55 975.44
  Q 679.77 974.98 679.76 974.49
  Q 679.68 970.57 681.23 966.99
  A 1.50 1.49 50.1 0 0 681.31 966.04
  Q 680.22 961.76 682.10 957.96
  A 1.55 1.49 53.4 0 0 682.22 957.03
  Q 681.29 952.44 683.05 948.22
  Q 683.25 947.76 683.19 947.27
  C 682.86 944.58 682.74 942.87 683.73 940.00
  C 684.93 936.50 683.28 933.82 685.12 930.21
  A 1.46 1.42 53.1 0 0 685.24 929.28
  C 684.30 925.00 685.87 921.91 686.01 918.18
  C 686.08 916.35 685.45 913.00 686.86 911.60
  A 1.07 0.92 -28.8 0 0 687.17 910.77
  C 686.55 906.48 687.53 902.74 687.77 898.57
  C 687.85 897.27 689.45 891.25 689.06 890.48
  A 1.93 1.70 36.9 0 1 688.87 889.56
  L 690.22 871.02
  Z"
/>
<path fill="#cea500" fill-opacity="0.847" d="
  M 178.21 966.50
  L 178.43 1071.56
  A 0.68 0.66 8.1 0 0 178.92 1072.20
  L 240.00 1089.04
  Q 238.43 1090.58 237.02 1089.07
  A 0.86 0.84 -27.7 0 0 236.21 1088.83
  Q 233.99 1089.34 232.38 1087.79
  A 0.93 0.85 -28.8 0 0 231.55 1087.59
  Q 230.27 1087.92 229.33 1087.05
  A 1.03 0.96 60.8 0 0 228.51 1086.79
  Q 226.87 1087.07 225.57 1086.16
  Q 225.13 1085.86 224.68 1085.81
  Q 221.07 1085.45 217.73 1083.99
  Q 214.92 1082.76 214.27 1082.93
  C 212.03 1083.55 211.12 1082.19 209.60 1081.74
  C 205.91 1080.65 202.31 1080.23 198.57 1079.01
  Q 194.52 1077.70 190.23 1077.21
  Q 189.80 1077.16 189.34 1076.88
  Q 187.89 1075.99 186.00 1076.20
  A 0.68 0.65 74.6 0 1 185.33 1075.80
  C 184.26 1073.43 181.68 1077.11 181.16 1074.59
  A 0.54 0.50 82.3 0 0 180.63 1074.15
  C 178.46 1074.30 177.00 1072.77 176.92 1070.56
  Q 176.78 1066.71 176.78 1065.50
  Q 176.78 1019.97 176.89 974.44
  C 176.89 973.29 176.26 965.55 178.21 966.50
  Z"
/>
<path fill="#f8d301" fill-opacity="0.973" d="
  M 678.79 997.00
  Q 679.10 998.51 678.35 999.67
  A 1.43 1.09 2.3 0 1 677.59 1000.20
  L 593.25 1023.46
  Q 592.54 1023.46 592.35 1023.02
  A 0.53 0.43 -18.5 0 1 592.75 1022.40
  C 593.78 1022.13 598.50 1021.25 599.19 1020.56
  A 0.95 0.85 -61.0 0 1 599.99 1020.28
  Q 601.75 1020.56 603.10 1019.53
  A 1.21 1.20 29.6 0 1 603.98 1019.29
  Q 605.74 1019.52 607.09 1018.51
  A 1.16 1.08 30.6 0 1 607.96 1018.32
  Q 609.25 1018.55 610.03 1017.68
  A 1.06 0.89 -63.2 0 1 610.83 1017.34
  Q 612.62 1017.51 614.08 1016.52
  A 1.36 1.28 30.0 0 1 614.98 1016.31
  Q 616.30 1016.45 617.17 1015.59
  A 1.08 0.97 -62.1 0 1 617.99 1015.29
  C 620.04 1015.53 621.22 1014.42 623.01 1014.14
  Q 626.39 1013.61 629.48 1012.18
  Q 630.75 1011.60 631.47 1011.42
  L 635.54 1010.43
  Q 636.23 1010.26 636.49 1010.25
  Q 637.77 1010.24 638.71 1009.39
  A 1.30 1.13 -62.9 0 1 639.56 1009.05
  Q 642.90 1009.16 645.67 1007.33
  A 1.57 1.49 -59.5 0 1 646.58 1007.07
  Q 650.20 1007.24 653.30 1005.40
  A 1.62 1.59 -59.4 0 1 654.21 1005.16
  Q 656.37 1005.21 658.24 1004.26
  Q 660.37 1003.17 661.08 1003.11
  Q 664.39 1002.84 666.95 1002.06
  Q 667.84 1001.79 668.75 1001.61
  Q 674.54 1000.48 677.58 997.57
  Q 678.17 996.49 678.79 997.00
  Z"
/>
<path fill="#f1cd01" fill-opacity="0.933" d="
  M 772.96 1019.75
  C 773.00 1022.85 773.64 1028.29 772.41 1031.04
  A 1.93 1.65 57.7 0 0 772.27 1032.00
  C 772.86 1036.84 770.98 1040.36 771.00 1044.80
  Q 771.02 1047.75 770.98 1050.69
  A 1.50 1.15 71.1 0 1 770.68 1051.59
  L 770.00 1052.36
  A 1.03 0.89 -33.1 0 0 769.76 1053.20
  Q 770.80 1058.07 768.97 1062.55
  Q 768.78 1063.02 768.83 1063.50
  C 769.00 1064.93 769.21 1071.67 768.19 1072.20
  A 0.77 0.57 -18.7 0 0 767.77 1072.81
  L 767.96 1077.00
  Q 767.48 1074.09 766.79 1076.00
  L 770.00 1041.46
  C 772.67 1040.87 771.89 1032.86 771.36 1031.00
  A 0.82 0.81 60.3 0 1 771.58 1030.18
  L 772.46 1029.36
  A 1.27 0.91 75.4 0 0 772.78 1028.53
  L 772.96 1019.75
  Z"
/>
<path fill="#f8d301" fill-opacity="0.973" d="
  M 591.01 1024.16
  L 532.00 1040.46
  Q 531.07 1040.40 531.15 1039.78
  A 0.94 0.47 -12.9 0 1 531.81 1039.24
  L 537.21 1037.50
  L 550.95 1033.93
  Q 553.88 1033.17 554.48 1032.99
  C 557.70 1032.05 560.67 1031.28 564.14 1030.34
  C 565.95 1029.85 573.10 1028.44 574.12 1027.56
  A 1.31 1.09 -59.5 0 1 574.98 1027.25
  Q 578.47 1027.45 581.11 1025.25
  A 1.20 1.14 26.8 0 1 581.98 1024.99
  Q 585.29 1025.35 588.04 1023.68
  Q 588.93 1023.14 589.53 1023.05
  Q 591.30 1022.79 591.01 1024.16
  Z"
/>
<path fill="#e9c900" fill-opacity="0.922" d="
  M 537.21 1037.50
  L 531.81 1039.24
  A 0.94 0.47 -12.9 0 0 531.15 1039.78
  Q 531.07 1040.40 532.00 1040.46
  L 528.23 1041.81
  A 0.86 0.61 83.3 0 0 527.81 1042.57
  L 527.71 1147.50
  Q 527.06 1148.46 526.37 1148.21
  A 0.86 0.64 -82.6 0 1 525.94 1147.45
  Q 526.06 1097.49 525.98 1047.54
  Q 525.98 1047.47 525.76 1044.97
  C 525.47 1041.65 527.21 1039.82 530.45 1039.06
  Q 533.85 1038.27 537.21 1037.50
  Z"
/>
<path fill="#fbd700" fill-opacity="0.996" d="
  M 767.96 1077.00
  C 769.27 1083.69 765.32 1083.98 759.75 1085.52
  Q 648.41 1116.32 537.06 1147.08
  C 535.63 1147.48 528.93 1149.62 528.92 1147.86
  L 765.35 1082.49
  A 0.85 0.74 -5.4 0 0 765.95 1081.86
  L 766.79 1076.00
  Q 767.48 1074.09 767.96 1077.00
  Z"
/>
<path fill="#d7ad01" fill-opacity="0.859" d="
  M 109.79 1214.25
  L 99.21 1090.50
  Q 99.26 1087.61 100.44 1089.85
  C 102.18 1093.16 100.12 1098.76 101.17 1102.69
  Q 102.45 1107.46 101.67 1112.48
  A 1.24 0.67 -71.9 0 0 101.84 1113.41
  L 102.38 1113.97
  A 1.16 0.31 43.1 0 1 102.85 1114.73
  L 102.73 1124.00
  A 1.87 0.99 -74.2 0 0 102.93 1124.93
  C 104.76 1128.09 103.87 1132.21 103.73 1135.74
  A 1.26 1.14 26.9 0 0 104.06 1136.60
  C 105.69 1138.37 104.98 1144.09 104.74 1148.25
  A 0.86 0.73 19.6 0 0 105.16 1148.97
  C 106.60 1149.84 105.78 1158.42 105.80 1160.42
  A 0.75 0.60 12.0 0 0 106.30 1161.03
  C 107.50 1161.46 106.82 1169.86 106.85 1171.41
  A 1.65 1.31 31.0 0 0 107.18 1172.29
  C 108.62 1174.21 107.92 1178.32 107.72 1182.76
  A 0.91 0.85 20.1 0 0 108.11 1183.53
  L 108.44 1183.75
  A 0.82 0.74 19.3 0 1 108.80 1184.41
  L 108.72 1194.50
  A 2.02 1.50 -67.1 0 0 108.94 1195.41
  C 111.38 1199.63 108.07 1203.21 110.73 1207.81
  A 1.89 1.08 43.7 0 1 111.01 1208.75
  L 110.72 1214.70
  Q 110.68 1215.41 110.19 1215.02
  Q 109.89 1214.78 109.79 1214.25
  Z"
/>
<path fill="#d7ad01" fill-opacity="0.859" d="
  M 241.00 1089.29
  L 306.25 1107.04
  Q 304.55 1108.78 302.89 1107.31
  A 1.20 1.13 61.9 0 0 302.03 1107.02
  Q 300.17 1107.20 298.63 1106.31
  Q 298.16 1106.04 297.72 1106.03
  L 296.22 1105.97
  A 1.01 0.80 70.5 0 1 295.49 1105.51
  Q 294.69 1104.26 292.90 1104.72
  A 0.97 0.93 56.6 0 1 292.06 1104.53
  Q 290.79 1103.49 289.09 1103.66
  A 1.19 0.78 55.3 0 1 288.30 1103.34
  C 287.23 1102.37 285.47 1103.72 284.25 1102.09
  A 0.68 0.67 62.6 0 0 283.50 1101.85
  Q 281.63 1102.44 280.33 1101.09
  A 0.69 0.69 -33.6 0 0 279.56 1100.94
  Q 277.81 1101.68 276.38 1100.44
  Q 275.96 1100.07 275.53 1099.96
  Q 266.98 1097.79 258.61 1095.26
  C 257.70 1094.99 256.34 1095.13 255.36 1094.27
  A 1.01 0.96 59.7 0 0 254.52 1094.03
  Q 252.73 1094.37 251.52 1093.20
  A 1.42 1.19 65.2 0 0 250.69 1092.81
  Q 247.07 1092.56 243.76 1091.12
  A 1.85 1.40 -30.6 0 0 242.81 1091.01
  Q 240.75 1091.32 241.00 1089.29
  Z"
/>
<path fill="#d7ad01" fill-opacity="0.859" d="
  M 306.75 1107.29
  L 361.25 1122.04
  Q 359.69 1123.40 357.96 1122.38
  A 1.87 1.74 58.3 0 0 357.05 1122.13
  Q 355.57 1122.14 354.27 1121.35
  A 1.62 1.56 57.9 0 0 353.35 1121.12
  Q 351.61 1121.23 350.33 1120.22
  A 1.10 1.09 58.3 0 0 349.46 1120.01
  Q 347.59 1120.39 346.36 1119.08
  A 0.68 0.68 -32.3 0 0 345.60 1118.91
  Q 344.71 1119.28 343.81 1119.26
  A 0.78 0.64 79.0 0 1 343.18 1118.74
  C 342.42 1116.65 340.68 1118.67 339.75 1117.61
  A 1.47 0.55 56.5 0 0 339.02 1117.08
  Q 332.49 1115.70 326.12 1113.65
  C 324.34 1113.08 322.31 1113.22 320.48 1112.24
  A 2.00 1.55 -25.7 0 0 319.54 1112.04
  Q 318.30 1112.08 317.50 1111.25
  A 1.54 1.18 66.2 0 0 316.68 1110.80
  C 316.07 1110.72 305.64 1109.49 306.75 1107.29
  Z"
/>
<path fill="#e1b300" fill-opacity="0.894" d="
  M 365.62 1123.55
  L 390.50 1130.04
  Q 389.65 1130.85 388.44 1130.79
  A 1.49 0.75 54.5 0 1 387.62 1130.36
  Q 386.69 1129.50 385.24 1129.70
  A 1.13 1.01 59.7 0 1 384.40 1129.43
  Q 383.36 1128.53 381.98 1128.72
  Q 381.37 1128.81 381.00 1128.68
  L 375.95 1126.94
  Q 375.51 1126.79 375.00 1126.85
  Q 373.82 1126.98 373.01 1126.23
  A 1.25 1.03 60.7 0 0 372.16 1125.90
  Q 368.39 1126.14 365.62 1123.55
  Z"
/>
<path fill="#d7ad01" fill-opacity="0.859" d="
  M 410.25 1135.46
  L 455.78 1147.86
  Q 455.29 1150.07 453.53 1148.47
  Q 453.13 1148.11 452.69 1147.99
  Q 439.98 1144.62 437.24 1143.76
  Q 434.76 1142.99 432.54 1142.97
  Q 432.04 1142.96 431.61 1142.72
  Q 428.61 1140.99 425.18 1141.09
  Q 424.69 1141.10 424.24 1140.89
  C 422.48 1140.06 417.35 1139.41 416.48 1138.37
  A 0.95 0.91 -22.6 0 0 415.68 1138.06
  Q 414.21 1138.24 413.08 1137.39
  A 1.86 1.14 53.0 0 0 412.19 1137.04
  L 410.33 1136.97
  A 1.17 0.88 -12.5 0 1 409.50 1136.59
  Q 408.76 1135.63 410.25 1135.46
  Z"
/>
<path fill="#e4b501" fill-opacity="0.906" d="
  M 874.21 1224.75
  L 872.38 1243.84
  A 0.75 0.73 -5.4 0 1 871.84 1244.47
  Q 682.62 1297.41 493.43 1350.40
  Q 490.91 1351.10 487.02 1348.88
  Q 491.23 1349.83 495.17 1348.67
  C 498.37 1347.72 500.06 1347.34 502.74 1347.04
  Q 504.32 1346.86 505.25 1346.29
  C 507.09 1345.17 508.95 1345.24 510.87 1344.41
  Q 512.77 1343.59 514.82 1343.36
  C 516.88 1343.12 518.39 1342.20 520.48 1342.00
  A 0.96 0.73 -73.9 0 0 521.15 1341.50
  Q 521.56 1340.75 522.52 1340.92
  A 1.80 1.05 26.6 0 0 523.45 1340.86
  Q 527.60 1339.13 528.75 1339.04
  C 531.96 1338.81 534.74 1337.66 537.87 1336.93
  C 540.07 1336.42 541.97 1335.17 544.20 1334.92
  Q 545.61 1334.77 547.03 1334.46
  C 548.56 1334.13 549.87 1332.96 552.03 1333.21
  A 1.00 0.90 -63.9 0 0 552.83 1332.89
  Q 553.66 1331.97 555.01 1332.16
  A 1.11 1.07 -60.3 0 0 555.87 1331.91
  Q 557.07 1330.91 558.78 1331.19
  A 1.15 1.13 30.6 0 0 559.66 1330.97
  Q 560.99 1329.97 562.77 1330.05
  A 1.05 0.96 -66.2 0 0 563.56 1329.70
  Q 564.43 1328.71 565.76 1328.93
  A 1.71 1.33 30.6 0 0 566.69 1328.81
  Q 570.11 1327.18 573.84 1326.88
  A 1.61 1.10 -59.2 0 0 574.68 1326.49
  Q 575.43 1325.84 576.48 1325.91
  A 1.07 1.06 -64.4 0 0 577.31 1325.61
  Q 578.30 1324.67 579.80 1324.96
  A 1.28 1.26 -55.2 0 0 580.70 1324.79
  Q 581.97 1324.00 583.50 1324.19
  A 1.19 1.11 -59.2 0 0 584.36 1323.94
  Q 585.61 1322.97 587.26 1323.23
  A 0.92 0.89 24.9 0 0 588.06 1322.95
  Q 588.68 1322.25 589.48 1321.94
  Q 591.53 1321.15 592.16 1321.12
  C 596.03 1320.98 599.81 1319.50 602.85 1318.71
  Q 605.20 1318.11 607.50 1317.34
  A 2.03 1.04 26.0 0 1 608.46 1317.32
  Q 609.29 1317.49 609.79 1316.93
  A 1.48 0.48 -54.8 0 1 610.54 1316.37
  L 616.34 1315.12
  Q 616.83 1315.02 617.18 1314.71
  Q 618.34 1313.69 620.03 1313.95
  A 1.19 1.06 -57.3 0 0 620.89 1313.71
  Q 621.78 1313.03 622.99 1313.17
  A 1.02 1.01 -63.3 0 0 623.82 1312.89
  Q 625.16 1311.60 627.08 1311.99
  A 0.70 0.63 -66.8 0 0 627.77 1311.67
  C 627.90 1311.47 643.59 1307.08 644.28 1307.20
  A 0.98 0.98 29.1 0 0 645.12 1306.96
  C 646.22 1305.95 647.46 1306.34 648.63 1305.99
  Q 653.06 1304.66 657.49 1303.33
  Q 657.87 1303.22 658.47 1303.27
  Q 659.54 1303.36 660.20 1302.57
  A 0.84 0.77 -63.0 0 1 660.97 1302.28
  Q 662.55 1302.57 663.64 1301.58
  A 2.07 1.34 -61.2 0 1 664.48 1301.13
  L 669.57 1300.14
  Q 670.00 1300.05 670.44 1299.71
  Q 671.74 1298.70 673.52 1298.95
  A 1.05 0.96 -60.9 0 0 674.36 1298.67
  Q 675.45 1297.64 677.03 1297.97
  A 0.99 0.86 -58.2 0 0 677.84 1297.72
  C 679.05 1296.56 680.57 1297.96 681.94 1296.32
  A 0.80 0.78 -63.5 0 1 682.71 1296.05
  Q 684.21 1296.36 685.19 1295.37
  A 1.07 0.98 -62.7 0 1 686.02 1295.06
  Q 687.74 1295.25 689.08 1294.27
  A 1.16 1.11 30.7 0 1 689.94 1294.07
  Q 691.14 1294.28 691.93 1293.59
  A 1.88 1.40 -63.9 0 1 692.76 1293.16
  L 698.48 1292.10
  A 1.14 0.92 -78.2 0 0 699.18 1291.53
  L 699.34 1291.23
  A 0.49 0.45 17.5 0 1 699.83 1291.00
  C 701.86 1291.32 703.08 1290.15 704.70 1289.84
  Q 708.94 1289.03 710.06 1288.59
  Q 712.92 1287.48 715.95 1287.22
  A 1.76 1.40 -61.4 0 0 716.82 1286.85
  Q 718.19 1285.74 720.04 1285.95
  A 1.22 1.05 -57.0 0 0 720.89 1285.70
  Q 721.79 1285.02 723.02 1285.19
  A 0.99 0.98 -62.8 0 0 723.85 1284.92
  Q 725.16 1283.64 727.04 1283.98
  A 1.02 0.71 -56.3 0 0 727.81 1283.68
  L 728.31 1283.18
  A 1.18 0.58 16.4 0 1 729.22 1283.02
  Q 730.77 1283.24 732.06 1282.47
  A 1.31 1.29 33.6 0 1 732.95 1282.30
  Q 734.21 1282.52 735.03 1281.71
  A 1.37 1.12 -64.1 0 1 735.85 1281.33
  C 738.78 1281.24 741.32 1279.55 744.55 1279.11
  A 1.79 1.22 -61.2 0 0 745.40 1278.68
  C 746.35 1277.82 748.31 1277.79 749.27 1277.54
  Q 754.35 1276.18 759.46 1275.08
  A 1.15 0.67 -73.2 0 0 760.08 1274.50
  C 760.31 1274.08 762.61 1274.49 763.63 1273.56
  A 1.06 0.96 -60.2 0 1 764.46 1273.29
  C 766.37 1273.59 767.39 1272.45 768.86 1272.11
  Q 771.32 1271.54 773.75 1271.05
  A 1.65 1.00 -63.7 0 0 774.54 1270.55
  Q 775.26 1269.74 776.55 1269.94
  A 1.07 1.06 -61.1 0 0 777.40 1269.69
  Q 778.48 1268.75 780.00 1268.94
  A 1.26 1.26 -59.5 0 0 780.89 1268.71
  Q 782.28 1267.70 784.03 1267.98
  A 1.05 0.69 18.9 0 0 784.86 1267.77
  L 785.03 1267.59
  A 0.70 0.51 -64.2 0 1 785.42 1267.38
  Q 789.16 1267.01 792.54 1265.41
  Q 792.96 1265.21 793.48 1265.23
  L 794.32 1265.26
  A 1.20 0.88 -61.7 0 0 795.14 1264.87
  Q 796.22 1263.68 798.00 1263.94
  A 1.16 1.10 29.9 0 0 798.87 1263.73
  Q 800.15 1262.80 801.73 1262.92
  A 0.99 0.88 -66.0 0 0 802.50 1262.57
  Q 803.22 1261.68 804.54 1261.94
  A 1.38 1.29 34.9 0 0 805.45 1261.81
  Q 807.32 1260.81 809.43 1260.96
  A 0.64 0.49 -77.7 0 0 809.96 1260.51
  L 810.07 1260.18
  A 0.47 0.32 13.4 0 1 810.57 1259.99
  Q 812.43 1260.38 813.84 1259.33
  A 1.59 1.27 -58.6 0 1 814.72 1259.01
  L 816.24 1258.99
  A 1.63 1.09 -56.1 0 0 817.10 1258.64
  Q 818.14 1257.78 819.56 1257.96
  A 1.10 1.05 -61.0 0 0 820.40 1257.70
  Q 821.50 1256.74 823.02 1257.15
  A 1.17 1.09 36.6 0 0 823.91 1257.05
  Q 825.38 1256.18 827.06 1256.11
  A 1.58 1.29 -61.5 0 0 827.92 1255.76
  Q 828.94 1254.93 830.31 1255.18
  A 0.85 0.83 -63.8 0 0 831.10 1254.90
  Q 832.20 1253.62 834.02 1253.94
  A 1.15 1.14 -57.8 0 0 834.88 1253.74
  Q 835.95 1252.95 837.30 1253.21
  A 0.93 0.91 27.5 0 0 838.12 1252.96
  Q 839.32 1251.78 841.01 1251.96
  A 1.24 1.20 -60.2 0 0 841.88 1251.71
  Q 843.05 1250.80 844.53 1250.99
  Q 844.93 1251.03 845.47 1250.86
  L 851.87 1248.87
  A 0.85 0.50 -79.8 0 0 852.28 1248.39
  Q 852.36 1248.16 852.68 1248.11
  Q 857.41 1247.39 861.97 1245.89
  Q 866.06 1244.53 870.33 1243.82
  A 0.81 0.81 -10.8 0 0 870.99 1242.85
  Q 870.62 1241.12 871.79 1239.99
  A 1.27 1.06 -24.7 0 0 872.18 1239.17
  C 872.21 1237.97 871.86 1228.92 873.01 1228.87
  A 0.56 0.47 2.2 0 0 873.53 1228.47
  L 874.21 1224.75
  Z"
/>
<path fill="#d7ad01" fill-opacity="0.859" d="
  M 478.50 1346.79
  L 132.00 1249.71
  Q 134.05 1248.03 135.87 1249.77
  A 1.26 0.98 60.9 0 0 136.71 1250.13
  L 138.75 1250.05
  A 1.45 1.31 60.0 0 1 139.64 1250.34
  Q 140.83 1251.25 142.45 1251.08
  A 0.67 0.58 73.6 0 1 143.08 1251.48
  C 143.70 1252.87 145.85 1251.13 146.67 1252.54
  A 0.76 0.66 69.8 0 0 147.35 1252.91
  Q 149.27 1252.66 150.41 1254.19
  A 0.57 0.57 -31.1 0 0 151.12 1254.36
  Q 152.86 1253.48 154.13 1254.71
  A 0.93 0.84 59.2 0 0 154.94 1254.96
  Q 156.70 1254.56 157.51 1255.88
  A 0.62 0.60 65.5 0 0 158.21 1256.15
  Q 160.12 1255.59 161.57 1256.70
  A 1.28 1.24 60.7 0 0 162.44 1256.96
  Q 164.00 1256.86 164.95 1257.97
  A 0.65 0.64 58.1 0 0 165.69 1258.15
  Q 167.54 1257.39 168.34 1258.93
  A 1.06 0.93 78.9 0 0 169.04 1259.47
  L 178.27 1261.09
  A 0.89 0.70 82.3 0 1 178.87 1261.67
  C 179.26 1262.80 181.57 1261.31 182.92 1262.68
  A 0.95 0.90 62.6 0 0 183.72 1262.96
  Q 185.30 1262.72 186.19 1263.86
  A 0.73 0.72 63.9 0 0 186.93 1264.12
  Q 188.45 1263.75 190.24 1264.73
  Q 192.62 1266.03 196.00 1266.00
  Q 196.67 1266.00 197.20 1266.65
  A 0.89 0.81 64.6 0 0 197.98 1266.97
  Q 199.62 1266.75 200.82 1267.77
  A 0.97 0.97 -31.5 0 0 201.66 1267.97
  Q 203.23 1267.59 204.16 1268.61
  A 1.16 1.01 65.1 0 0 204.97 1268.97
  Q 206.68 1268.92 208.02 1269.88
  A 1.02 1.01 -34.9 0 0 208.90 1270.03
  Q 210.40 1269.60 211.41 1270.62
  A 1.32 1.03 63.1 0 0 212.22 1271.00
  L 214.33 1271.01
  A 0.70 0.59 80.2 0 1 214.92 1271.51
  Q 215.24 1272.57 216.58 1272.09
  A 0.96 0.89 -37.0 0 1 217.44 1272.18
  Q 218.92 1273.19 220.74 1273.07
  A 1.23 1.07 61.2 0 1 221.58 1273.38
  Q 222.69 1274.39 224.32 1274.05
  A 1.13 1.04 56.2 0 1 225.18 1274.26
  Q 226.58 1275.30 228.43 1275.07
  A 0.60 0.54 76.3 0 1 229.02 1275.47
  C 229.52 1276.78 231.70 1275.18 232.89 1276.67
  A 1.71 0.83 6.5 0 0 233.66 1277.16
  L 236.31 1278.12
  A 1.33 0.76 33.0 0 0 237.19 1278.17
  Q 238.98 1277.43 239.95 1278.85
  A 1.29 0.71 66.0 0 0 240.69 1279.41
  L 245.92 1280.03
  A 1.03 0.81 73.1 0 1 246.58 1280.49
  L 246.89 1280.97
  A 1.01 0.55 -13.1 0 0 247.76 1281.21
  Q 249.33 1281.03 250.46 1282.12
  A 1.19 0.88 -18.9 0 0 251.28 1282.38
  L 252.98 1282.26
  A 1.02 0.63 65.7 0 1 253.71 1282.75
  Q 254.52 1284.01 256.04 1283.22
  A 0.61 0.60 -33.8 0 1 256.78 1283.36
  Q 257.90 1284.67 259.56 1284.06
  A 0.88 0.88 53.9 0 1 260.39 1284.19
  Q 261.78 1285.29 263.45 1284.88
  A 0.91 0.80 -26.4 0 1 264.28 1285.10
  L 265.14 1285.97
  A 0.75 0.69 -31.2 0 0 265.93 1286.13
  Q 267.63 1285.45 268.52 1286.87
  A 0.67 0.61 64.7 0 0 269.23 1287.16
  Q 270.87 1286.68 272.08 1287.72
  A 1.09 1.00 60.0 0 0 272.93 1287.99
  Q 274.84 1287.73 276.31 1288.75
  A 1.31 1.19 -29.7 0 0 277.20 1288.95
  Q 278.34 1288.79 279.01 1289.54
  A 1.27 0.87 62.6 0 0 279.80 1289.96
  L 281.76 1290.03
  A 1.53 1.14 60.3 0 1 282.60 1290.40
  Q 283.67 1291.34 285.28 1291.08
  A 1.06 0.98 60.0 0 1 286.11 1291.34
  Q 287.28 1292.41 289.02 1292.04
  A 0.85 0.81 63.3 0 1 289.80 1292.32
  Q 290.60 1293.25 291.79 1293.12
  A 1.49 1.35 -29.5 0 1 292.69 1293.32
  Q 294.26 1294.33 296.27 1294.06
  A 0.84 0.73 67.2 0 1 297.01 1294.42
  Q 297.69 1295.39 299.11 1295.06
  A 0.78 0.78 -27.0 0 1 299.89 1295.32
  Q 301.10 1296.74 303.09 1296.04
  A 0.75 0.71 57.6 0 1 303.87 1296.24
  C 305.17 1297.60 307.23 1296.40 307.72 1297.56
  A 0.62 0.52 72.8 0 0 308.31 1297.94
  Q 310.05 1297.69 311.33 1298.76
  A 0.97 0.94 57.4 0 0 312.18 1298.96
  Q 314.00 1298.51 314.96 1299.81
  A 0.83 0.80 -20.1 0 0 315.71 1300.14
  L 316.92 1300.02
  A 1.11 0.70 60.3 0 1 317.70 1300.44
  C 319.32 1302.37 320.74 1299.83 322.02 1301.81
  A 0.89 0.75 68.9 0 0 322.77 1302.22
  L 324.77 1302.07
  A 1.13 0.93 61.5 0 1 325.59 1302.40
  Q 326.51 1303.33 328.03 1303.08
  A 0.71 0.65 70.2 0 1 328.72 1303.44
  Q 329.55 1304.88 331.36 1304.07
  A 0.77 0.73 53.3 0 1 332.16 1304.21
  Q 333.28 1305.23 334.77 1305.04
  A 0.86 0.80 66.5 0 1 335.53 1305.37
  C 336.09 1306.10 344.50 1307.90 345.92 1308.02
  A 1.13 0.83 70.8 0 1 346.65 1308.52
  Q 347.27 1309.49 348.57 1309.32
  A 1.35 1.31 -32.2 0 1 349.47 1309.51
  Q 351.17 1310.59 353.29 1310.04
  A 0.75 0.72 63.4 0 1 354.04 1310.31
  Q 354.74 1311.20 355.90 1311.10
  A 1.52 0.56 -12.9 0 1 356.85 1311.22
  L 357.64 1311.72
  A 1.49 0.88 46.2 0 0 358.50 1311.96
  Q 360.26 1311.74 361.79 1312.55
  A 1.59 1.46 -32.1 0 0 362.71 1312.72
  Q 364.29 1312.55 365.22 1313.66
  A 0.80 0.78 -25.5 0 0 365.99 1313.92
  Q 367.52 1313.61 368.29 1314.81
  A 0.93 0.71 -12.3 0 0 369.02 1315.15
  L 370.97 1315.17
  A 1.40 0.47 48.6 0 1 371.81 1315.66
  Q 372.91 1316.68 374.60 1316.06
  A 0.74 0.74 -31.8 0 1 375.38 1316.24
  Q 376.55 1317.42 378.30 1317.04
  A 0.59 0.58 -17.8 0 1 378.96 1317.37
  Q 379.66 1318.93 381.12 1318.00
  A 0.85 0.53 -37.8 0 1 381.96 1317.91
  L 382.93 1318.69
  A 1.19 0.72 50.4 0 0 383.73 1318.97
  Q 385.06 1318.72 385.88 1319.62
  A 1.23 1.01 65.6 0 0 386.68 1320.01
  L 389.27 1320.02
  A 1.10 0.70 64.8 0 1 390.01 1320.49
  Q 390.66 1321.39 392.09 1321.06
  A 0.89 0.88 60.3 0 1 392.91 1321.29
  Q 394.05 1322.37 395.78 1322.04
  A 0.73 0.70 68.4 0 1 396.50 1322.37
  Q 397.19 1323.44 398.47 1323.34
  A 1.67 1.38 -27.3 0 1 399.39 1323.54
  Q 401.00 1324.47 402.93 1324.33
  A 1.32 1.12 59.3 0 1 403.79 1324.63
  Q 404.85 1325.52 406.30 1325.31
  A 1.03 1.01 61.3 0 1 407.13 1325.56
  Q 408.31 1326.61 410.04 1326.28
  A 1.33 1.31 -35.1 0 1 410.94 1326.43
  Q 412.31 1327.23 413.93 1327.05
  A 0.63 0.58 76.1 0 1 414.55 1327.46
  Q 414.72 1327.89 415.05 1328.11
  A 1.19 0.64 -28.2 0 0 415.97 1328.11
  Q 417.40 1327.63 418.40 1328.67
  A 0.95 0.91 64.5 0 0 419.20 1328.97
  Q 420.86 1328.77 421.76 1330.06
  A 0.86 0.79 68.5 0 0 422.52 1330.43
  Q 426.38 1330.08 429.60 1332.07
  A 1.04 0.95 -38.6 0 0 430.49 1332.13
  Q 432.30 1331.43 433.02 1333.07
  A 0.45 0.45 64.8 0 0 433.63 1333.29
  Q 435.14 1332.56 436.01 1333.81
  A 0.85 0.78 69.2 0 0 436.75 1334.18
  L 438.80 1334.02
  A 1.13 0.81 60.4 0 1 439.61 1334.39
  Q 440.52 1335.34 442.06 1335.05
  A 1.01 0.96 59.7 0 1 442.90 1335.29
  Q 444.12 1336.40 445.84 1335.82
  A 0.73 0.71 60.0 0 1 446.61 1336.04
  Q 447.72 1337.31 449.46 1337.11
  A 1.04 1.01 63.9 0 1 450.29 1337.41
  Q 451.34 1338.46 453.07 1338.03
  A 0.97 0.97 -32.2 0 1 453.91 1338.23
  Q 455.11 1339.25 456.74 1339.09
  A 1.17 1.07 60.8 0 1 457.59 1339.37
  Q 458.78 1340.42 460.55 1340.05
  A 0.92 0.90 60.8 0 1 461.37 1340.29
  Q 462.43 1341.31 463.96 1341.07
  A 0.63 0.62 72.8 0 1 464.63 1341.43
  L 464.97 1342.12
  A 0.47 0.42 -28.8 0 0 465.62 1342.27
  Q 466.94 1341.45 467.76 1342.66
  A 0.94 0.88 71.8 0 0 468.51 1343.07
  Q 470.59 1343.07 472.29 1344.25
  A 1.14 1.10 -33.1 0 0 473.18 1344.42
  Q 474.84 1344.04 476.26 1344.84
  A 1.49 1.34 53.3 0 0 477.17 1345.02
  Q 479.57 1344.67 478.50 1346.79
  Z"
/>
</svg>
