<?xml version="1.0" encoding="UTF-8" standalone="no"?>
<!DOCTYPE svg PUBLIC "-//W3C//DTD SVG 1.0//EN" "http://www.w3.org/TR/2001/REC-SVG-20010904/DTD/svg10.dtd">
<svg xmlns="http://www.w3.org/2000/svg" version="1.0" viewBox="0 0 740 214">
<g stroke-width="2.00" fill="none" stroke-linecap="butt">
<path stroke="#49a248" vector-effect="non-scaling-stroke" d="
  M 79.07 22.54
  Q 78.62 21.60 77.80 21.64
  A 0.58 0.50 86.8 0 0 77.34 22.24
  C 78.83 53.42 78.82 87.60 78.58 133.07
  C 78.55 139.91 77.66 147.49 77.46 154.75"
/>
<path stroke="#86b277" vector-effect="non-scaling-stroke" d="
  M 77.46 154.75
  L 74.46 175.50"
/>
<path stroke="#81ab74" vector-effect="non-scaling-stroke" d="
  M 84.04 173.25
  C 78.26 168.38 78.33 161.64 77.46 154.75"
/>
</g>
<path fill="#4ea94b" d="
  M 79.07 22.54
  Q 78.62 21.60 77.80 21.64
  A 0.58 0.50 86.8 0 0 77.34 22.24
  C 78.83 53.42 78.82 87.60 78.58 133.07
  C 78.55 139.91 77.66 147.49 77.46 154.75
  L 74.46 175.50
  C 50.11 156.13 34.44 128.55 36.79 96.76
  Q 40.06 52.69 73.38 23.64
  Q 75.91 21.44 76.06 17.66
  C 76.20 14.15 78.66 21.24 79.07 22.54
  Z"
/>
<path fill="#449a45" d="
  M 79.07 22.54
  Q 84.47 29.85 90.53 36.68
  C 127.01 77.77 128.83 137.09 84.04 173.25
  C 78.26 168.38 78.33 161.64 77.46 154.75
  C 77.66 147.49 78.55 139.91 78.58 133.07
  C 78.82 87.60 78.83 53.42 77.34 22.24
  A 0.58 0.50 86.8 0 1 77.80 21.64
  Q 78.62 21.60 79.07 22.54
  Z"
/>
<path fill="#c1bfbe" d="
  M 525.09 86.64
  A 1.19 0.94 12.8 0 1 526.11 86.15
  Q 544.97 86.90 564.25 85.98
  Q 569.78 85.71 578.90 87.59
  C 606.38 93.24 615.82 123.32 603.70 146.35
  C 595.88 161.21 579.17 168.29 562.75 168.41
  Q 539.35 168.58 525.97 168.34
  A 0.58 0.57 87.7 0 1 525.41 167.82
  C 524.59 158.99 535.09 166.28 535.71 156.61
  C 536.90 138.07 536.38 119.01 536.06 100.44
  C 535.91 91.65 529.95 92.27 523.25 91.12
  A 0.42 0.37 18.5 0 1 522.93 90.56
  L 525.09 86.64
  Z
  M 549.68 93.95
  Q 549.28 94.71 549.28 95.57
  Q 549.02 122.09 549.30 148.88
  C 549.35 153.88 549.28 158.35 553.79 160.20
  C 570.70 167.15 588.65 158.06 593.05 140.26
  C 598.02 120.13 591.50 98.54 569.18 93.37
  C 565.86 92.60 551.53 90.40 549.68 93.95
  Z"
/>
<path fill="#c1bfbe" d="
  M 669.97 122.18
  Q 672.13 123.02 674.24 123.78
  C 685.77 127.96 691.37 139.48 686.51 150.87
  C 680.51 164.96 662.79 168.86 649.25 168.68
  Q 633.71 168.47 618.17 168.15
  A 0.51 0.51 12.0 0 1 617.67 167.63
  C 617.73 159.74 625.52 164.68 628.38 160.19
  Q 629.24 158.83 629.42 155.23
  C 630.39 135.89 629.75 116.19 629.73 96.81
  C 629.73 91.90 621.40 91.66 617.98 91.25
  A 0.55 0.54 16.0 0 1 617.54 90.48
  L 619.33 86.70
  A 0.77 0.75 13.3 0 1 620.05 86.27
  Q 638.53 86.78 657.00 86.18
  Q 662.55 86.00 669.71 88.29
  C 681.76 92.13 685.93 106.90 677.20 116.25
  Q 674.09 119.58 669.95 121.77
  Q 669.50 122.00 669.97 122.18
  Z
  M 643.34 93.28
  Q 642.93 94.37 642.91 95.00
  Q 642.53 107.00 642.47 119.62
  A 1.29 1.28 -86.5 0 0 643.61 120.91
  C 652.41 121.89 666.50 123.04 668.32 110.81
  C 670.63 95.27 656.45 90.89 644.14 92.65
  A 1.00 0.99 6.4 0 0 643.34 93.28
  Z
  M 642.68 127.95
  Q 642.18 140.60 642.78 153.50
  C 643.19 162.32 650.87 162.36 657.49 162.21
  C 668.93 161.94 675.39 153.61 673.90 142.42
  C 671.93 127.72 654.97 126.18 643.44 127.16
  A 0.83 0.83 -1.2 0 0 642.68 127.95
  Z"
/>
<path fill="#484749" d="
  M 162.51 121.56
  Q 162.43 123.19 163.75 122.07
  C 172.81 114.39 187.85 108.46 195.42 122.31
  A 0.83 0.82 55.5 0 0 196.68 122.55
  C 202.63 117.48 211.40 112.77 219.11 114.17
  C 228.23 115.83 232.66 124.90 232.70 133.75
  Q 232.77 146.75 232.72 159.76
  A 1.38 1.30 -66.8 0 0 233.04 160.64
  Q 235.95 164.06 240.56 163.71
  A 0.83 0.73 -14.0 0 1 241.31 164.10
  Q 242.47 166.29 241.08 168.19
  A 1.01 0.91 17.7 0 1 240.26 168.56
  Q 227.64 167.93 215.05 168.51
  A 0.65 0.64 -9.1 0 1 214.40 168.05
  Q 213.80 166.03 214.63 164.29
  A 0.82 0.75 12.2 0 1 215.37 163.86
  Q 219.21 163.89 221.43 161.14
  A 1.71 1.46 69.5 0 0 221.76 160.23
  Q 222.19 149.31 221.94 138.46
  Q 221.77 130.97 220.09 127.87
  C 215.72 119.84 204.30 121.63 197.93 126.72
  A 1.08 0.99 72.1 0 0 197.56 127.53
  L 197.73 159.52
  Q 197.75 162.38 200.48 163.00
  L 205.42 164.12
  A 0.94 0.90 -2.0 0 1 206.08 164.71
  Q 207.56 168.84 203.27 168.61
  Q 191.49 168.00 179.77 168.71
  A 0.89 0.82 -16.7 0 1 178.99 168.33
  Q 177.71 166.37 178.96 164.37
  A 1.26 0.82 3.2 0 1 179.74 163.92
  L 184.71 162.99
  Q 186.55 162.65 186.77 160.52
  C 187.61 152.35 189.31 133.14 184.56 126.27
  C 179.69 119.21 169.15 121.89 163.15 126.69
  A 1.21 1.20 -15.6 0 0 162.69 127.50
  C 161.40 137.31 162.25 148.48 162.52 158.40
  C 162.76 167.20 173.56 160.42 170.30 168.20
  A 0.72 0.70 12.6 0 1 169.60 168.63
  Q 156.75 167.90 143.98 168.56
  A 0.82 0.76 -14.8 0 1 143.23 168.16
  Q 142.27 166.43 143.06 164.71
  A 1.00 0.99 6.4 0 1 143.77 164.15
  L 148.49 163.21
  Q 151.47 162.61 151.60 159.71
  Q 152.25 144.63 151.94 129.00
  C 151.84 123.85 147.77 123.27 142.71 121.42
  A 0.96 0.84 6.9 0 1 142.12 120.76
  Q 141.77 118.80 144.00 118.45
  Q 152.68 117.07 161.10 114.23
  A 1.38 1.29 82.6 0 1 162.80 115.63
  L 162.51 121.56
  Z"
/>
<path fill="#484749" d="
  M 250.69 137.19
  C 252.59 119.88 271.39 111.28 286.92 114.79
  C 302.11 118.22 308.24 133.33 305.30 147.56
  C 302.25 162.31 289.00 170.70 274.39 169.64
  C 256.76 168.36 248.90 153.54 250.69 137.19
  Z
  M 266.68 123.43
  C 258.59 132.39 261.72 153.43 271.09 160.65
  C 279.53 167.16 291.31 164.19 293.43 153.07
  C 295.10 144.37 294.32 133.69 288.84 126.41
  C 283.75 119.64 273.05 116.38 266.68 123.43
  Z"
/>
<path fill="#484749" d="
  M 362.61 141.19
  C 362.48 137.53 362.88 133.30 361.68 130.16
  C 359.64 124.81 354.76 122.38 349.08 122.85
  C 345.91 123.10 339.11 125.14 338.35 128.94
  Q 338.30 129.20 338.27 132.56
  Q 338.12 146.65 338.46 160.73
  A 1.28 1.17 -70.3 0 0 338.82 161.59
  Q 341.67 164.29 345.63 163.70
  A 0.69 0.65 -16.7 0 1 346.35 164.06
  Q 347.58 166.57 346.27 168.97
  A 0.79 0.73 16.0 0 1 345.52 169.35
  Q 333.10 168.30 319.70 169.31
  A 1.37 1.36 -11.1 0 1 318.30 168.38
  Q 317.52 166.03 319.05 163.96
  A 0.96 0.82 18.8 0 1 319.86 163.64
  C 325.46 164.16 326.51 160.94 326.61 156.03
  Q 326.89 141.70 326.71 128.00
  Q 326.69 126.11 325.01 125.25
  C 322.92 124.18 319.01 123.29 317.41 121.94
  C 315.26 120.11 318.06 118.61 319.73 118.33
  Q 327.83 117.01 336.74 114.02
  A 1.10 1.10 77.1 0 1 338.18 114.93
  Q 338.54 117.92 337.78 121.51
  Q 337.43 123.16 338.72 122.07
  C 347.02 115.03 358.96 109.45 368.14 118.24
  C 372.47 122.39 373.96 128.34 373.94 134.25
  Q 373.90 147.10 374.36 160.18
  A 2.16 2.14 13.5 0 0 375.48 161.99
  Q 378.39 163.57 381.80 163.74
  A 1.02 0.87 -12.3 0 1 382.59 164.16
  Q 384.15 166.59 382.32 168.97
  A 0.97 0.90 19.9 0 1 381.50 169.32
  Q 368.63 168.32 355.78 169.28
  A 0.67 0.66 -12.0 0 1 355.10 168.85
  Q 354.26 166.52 354.96 164.32
  A 0.88 0.64 1.0 0 1 355.63 163.85
  L 360.38 163.09
  Q 362.46 162.77 362.56 160.28
  Q 362.94 151.09 362.61 141.19
  Z"
/>
<path fill="#484749" d="
  M 438.38 124.81
  C 439.59 134.40 438.84 142.37 430.17 148.14
  C 424.65 151.81 420.81 152.12 415.25 153.07
  C 408.69 154.19 409.76 160.05 415.92 160.49
  Q 424.62 161.13 433.27 162.28
  C 440.63 163.27 446.56 165.98 447.76 173.51
  C 448.89 180.56 445.20 187.37 439.83 192.18
  Q 428.31 202.48 411.44 201.08
  C 402.88 200.37 392.76 194.62 392.69 185.17
  C 392.65 178.64 400.79 173.62 405.70 170.33
  Q 406.97 169.48 405.53 168.99
  Q 399.78 167.04 398.09 161.58
  A 2.18 2.15 65.9 0 1 399.02 159.09
  L 406.82 154.32
  Q 408.92 153.04 406.60 152.23
  C 395.92 148.50 392.29 135.97 396.78 126.30
  C 401.05 117.08 414.56 112.89 423.92 114.22
  C 432.47 115.45 439.76 121.26 448.22 115.22
  Q 448.81 114.80 448.87 115.53
  Q 449.71 126.64 438.80 124.42
  A 0.35 0.35 1.8 0 0 438.38 124.81
  Z
  M 408.22 122.76
  Q 406.75 124.54 406.23 126.78
  C 404.09 135.87 408.54 149.93 420.64 147.47
  C 432.70 145.02 431.25 118.01 414.70 119.07
  C 411.69 119.26 410.06 120.53 408.22 122.76
  Z
  M 409.15 172.71
  C 403.97 175.94 400.53 181.64 404.50 187.51
  C 410.93 196.99 432.00 197.61 437.22 186.57
  C 440.33 179.99 436.79 174.09 429.77 172.46
  C 424.00 171.12 414.31 169.49 409.15 172.71
  Z"
/>
<path fill="#484749" d="
  M 490.59 169.12
  C 453.73 177.26 444.03 121.99 480.73 114.53
  C 518.59 106.84 525.77 161.35 490.59 169.12
  Z
  M 487.31 120.30
  C 479.96 117.94 472.38 121.67 470.52 129.26
  C 468.29 138.41 469.30 150.44 475.70 158.03
  C 482.88 166.53 497.05 166.63 500.32 154.26
  C 503.47 142.35 500.95 124.69 487.31 120.30
  Z"
/>
<path fill="#bdbcb7" fill-opacity="0.988" d="
  M 719.40 158.10
  A 10.37 10.37 0.0 0 1 709.03 168.47
  A 10.37 10.37 0.0 0 1 698.66 158.10
  A 10.37 10.37 0.0 0 1 709.03 147.73
  A 10.37 10.37 0.0 0 1 719.40 158.10
  Z
  M 718.20 158.09
  A 9.23 9.23 0.0 0 0 708.97 148.86
  A 9.23 9.23 0.0 0 0 699.74 158.09
  A 9.23 9.23 0.0 0 0 708.97 167.32
  A 9.23 9.23 0.0 0 0 718.20 158.09
  Z"
/>
<path fill="#bdbcb7" fill-opacity="0.988" d="
  M 706.99 163.45
  A 1.20 1.19 85.4 0 1 705.85 164.80
  C 704.56 164.84 705.30 154.07 705.30 153.59
  Q 705.31 151.03 707.84 151.32
  Q 714.50 152.05 712.91 157.01
  A 1.57 1.09 -14.9 0 1 712.30 157.73
  Q 711.61 158.16 711.16 158.82
  A 0.95 0.84 50.6 0 0 711.13 159.70
  L 713.09 163.80
  A 0.69 0.60 58.9 0 1 712.95 164.60
  C 711.54 165.73 710.02 161.61 709.32 159.90
  A 1.40 1.10 87.1 0 0 708.70 159.19
  Q 706.29 158.01 706.99 163.45
  Z
  M 711.4876 154.7069
  A 1.36 1.36 0.0 0 0 710.2436 153.2400
  L 708.2304 153.0745
  A 1.36 1.36 0.0 0 0 706.7635 154.3185
  L 706.6324 155.9131
  A 1.36 1.36 0.0 0 0 707.8764 157.3800
  L 709.8896 157.5455
  A 1.36 1.36 0.0 0 0 711.3565 156.3015
  L 711.4876 154.7069
  Z"
/>
<path fill="#bdbba2" d="
  M 77.46 154.75
  C 78.33 161.64 78.26 168.38 84.04 173.25
  C 80.05 178.76 80.80 189.38 81.39 196.11
  A 0.38 0.35 -84.0 0 1 80.94 196.51
  L 76.93 195.24
  A 0.80 0.63 -83.8 0 1 76.48 194.52
  Q 76.30 185.14 74.46 175.50
  L 77.46 154.75
  Z"
/>
</svg>
