<?xml version="1.0" encoding="UTF-8" standalone="no"?>
<!DOCTYPE svg PUBLIC "-//W3C//DTD SVG 1.0//EN" "http://www.w3.org/TR/2001/REC-SVG-20010904/DTD/svg10.dtd">
<svg xmlns="http://www.w3.org/2000/svg" version="1.0" viewBox="0 0 759 494">
<g stroke-width="2.00" fill="none" stroke-linecap="butt">
<path stroke="#7fa2b5" vector-effect="non-scaling-stroke" d="
  M 167.00 319.96
  Q 166.95 314.70 165.04 320.00"
/>
<path stroke="#7fa2b5" vector-effect="non-scaling-stroke" d="
  M 64.96 320.00
  Q 65.11 318.23 63.75 317.32
  A 0.39 0.39 24.4 0 0 63.16 317.54
  Q 62.81 318.78 63.08 319.99"
/>
</g>
<path fill="#000000" d="
  M 526.97 186.55
  Q 525.48 194.64 524.23 202.77
  C 523.01 210.70 518.78 217.30 509.65 214.86
  C 500.61 212.45 494.30 200.03 491.66 191.94
  C 483.79 167.83 487.42 145.73 495.35 122.36
  A 1.17 1.17 33.3 0 0 495.11 121.20
  Q 485.34 110.33 480.33 97.56
  Q 474.00 81.41 473.25 78.00
  C 471.69 70.88 469.53 65.57 464.98 59.39
  C 457.42 49.15 445.14 37.25 447.03 25.00
  Q 448.16 17.71 454.43 13.93
  C 465.37 7.34 483.77 16.53 493.39 22.36
  C 496.91 24.50 500.42 27.71 504.06 30.33
  A 1.59 1.50 -25.8 0 0 504.97 30.62
  C 520.36 30.61 534.37 33.81 547.95 41.65
  C 580.19 60.26 610.75 89.64 625.43 124.53
  Q 636.19 150.12 648.76 174.88
  C 651.29 179.85 652.11 183.66 657.91 185.98
  Q 671.24 191.29 675.99 193.97
  C 693.57 203.85 711.55 216.53 723.58 232.95
  A 0.74 0.74 62.2 0 1 723.23 234.08
  Q 715.33 236.94 706.74 238.03
  Q 694.26 239.61 683.03 242.99
  Q 680.78 243.67 682.25 245.49
  C 687.51 252.01 695.09 255.38 701.95 259.85
  C 710.19 265.22 716.74 271.34 722.79 278.73
  C 726.23 282.92 730.82 286.36 733.03 292.18
  Q 733.57 293.58 732.44 292.59
  Q 725.23 286.20 717.30 280.80
  C 710.49 276.16 700.76 271.94 694.70 268.80
  C 682.51 262.49 670.98 253.28 665.52 240.23
  Q 664.58 237.97 666.83 237.02
  Q 686.75 228.58 709.38 229.44
  Q 711.10 229.51 710.30 227.98
  Q 709.57 226.61 707.58 225.20
  Q 694.65 216.08 681.60 207.14
  C 673.13 201.33 663.01 198.79 649.78 194.53
  C 643.79 192.61 639.86 184.29 636.62 177.44
  C 629.14 161.61 621.74 145.85 614.87 129.74
  C 599.11 92.86 567.92 62.67 532.22 45.99
  C 521.86 41.15 510.26 41.22 499.01 40.33
  A 1.65 1.63 -23.2 0 1 498.12 39.98
  Q 495.06 37.57 492.01 35.18
  C 486.70 31.01 464.76 18.53 458.19 22.48
  C 452.86 25.68 456.25 32.96 459.46 37.34
  Q 465.19 45.19 470.95 53.03
  C 484.95 72.11 483.96 96.68 500.51 114.25
  C 507.20 121.36 503.04 127.35 500.51 134.67
  C 493.44 155.16 493.18 178.89 503.80 198.43
  C 505.68 201.88 507.88 204.06 511.54 204.97
  A 0.77 0.77 -81.4 0 0 512.50 204.26
  C 513.36 188.66 515.14 174.00 526.77 162.63
  A 0.87 0.87 -29.5 0 1 528.22 163.03
  Q 529.29 167.15 530.91 171.07
  Q 543.50 201.62 562.79 226.45
  Q 567.46 232.45 574.73 238.32
  A 0.75 0.44 30.4 0 1 575.02 238.84
  C 574.82 240.91 563.80 229.97 563.17 229.38
  C 555.24 221.82 547.24 215.92 540.21 207.26
  C 535.39 201.33 532.24 193.74 528.69 186.73
  C 528.41 186.17 528.15 185.94 527.56 185.96
  A 0.73 0.60 -84.5 0 0 526.97 186.55
  Z"
/>
<path fill="#000000" d="
  M 516.18 77.20
  A 1.10 1.10 52.5 0 1 514.29 76.95
  Q 512.78 73.31 510.54 69.47
  C 508.98 66.80 506.27 64.29 504.49 61.32
  A 0.44 0.43 64.6 0 1 504.71 60.69
  C 510.35 58.57 514.94 60.60 517.79 65.48
  C 520.45 70.05 519.17 73.33 516.18 77.20
  Z"
/>
<path fill="#000000" d="
  M 552.88 434.29
  C 553.38 435.39 578.01 446.87 581.10 448.39
  A 0.61 0.60 28.3 0 1 581.36 449.24
  L 571.17 466.64
  A 0.50 0.48 29.9 0 1 570.49 466.81
  L 532.72 444.87
  A 1.24 1.24 -37.6 0 0 531.79 444.75
  Q 515.12 448.95 498.54 446.51
  C 471.31 442.49 456.42 425.45 451.24 398.66
  C 445.24 367.67 445.88 323.70 469.05 299.02
  C 485.13 281.89 509.68 278.03 532.16 282.67
  C 568.38 290.15 576.94 324.15 578.19 355.73
  C 579.25 382.73 574.44 414.32 553.08 433.35
  A 0.82 0.82 -33.2 0 0 552.88 434.29
  Z
  M 475.63 362.49
  C 475.33 387.83 478.90 428.09 514.63 427.07
  C 539.15 426.37 547.56 404.83 549.72 384.00
  C 552.57 356.50 553.56 298.16 510.47 300.95
  C 478.91 302.99 475.91 338.61 475.63 362.49
  Z"
/>
<path fill="#000000" d="
  M 349.86 354.65
  Q 340.46 346.21 338.23 333.78
  C 333.43 306.87 350.66 285.00 377.25 281.75
  Q 404.12 278.47 427.24 292.72
  A 0.95 0.94 -62.2 0 1 427.60 293.91
  L 421.91 306.49
  A 0.97 0.97 23.7 0 1 420.65 306.98
  C 406.73 300.99 382.37 295.54 370.18 307.66
  C 356.19 321.57 368.36 337.64 381.66 345.03
  Q 412.47 362.15 419.29 366.69
  C 432.82 375.71 438.52 389.35 436.81 405.47
  C 433.96 432.44 410.17 446.56 384.49 447.01
  Q 357.46 447.48 335.66 431.88
  A 0.26 0.25 31.9 0 1 335.58 431.56
  L 342.27 418.33
  A 0.51 0.51 -63.4 0 1 342.95 418.10
  Q 352.62 422.83 362.91 425.61
  C 378.88 429.93 402.04 427.91 407.97 409.48
  C 412.07 396.77 401.74 385.37 391.55 379.66
  C 371.87 368.64 358.12 362.06 349.86 354.65
  Z"
/>
<path fill="#000000" d="
  M 628.05 424.94
  L 677.85 425.06
  A 0.52 0.50 -0.0 0 1 678.37 425.56
  L 678.36 444.45
  A 0.53 0.49 -0.0 0 1 677.83 444.94
  L 601.81 444.98
  A 0.30 0.30 90.0 0 1 601.51 444.68
  L 601.51 283.80
  A 0.50 0.50 0.0 0 1 602.01 283.30
  L 627.01 283.30
  A 0.50 0.49 90.0 0 1 627.50 283.80
  L 627.56 424.44
  A 0.50 0.49 90.0 0 0 628.05 424.94
  Z"
/>
<path fill="#000000" d="
  M 167.00 319.96
  Q 166.95 314.70 165.04 320.00
  L 125.40 444.01
  A 0.99 0.97 -81.0 0 1 124.47 444.70
  L 105.10 444.62
  A 0.72 0.68 80.8 0 1 104.46 444.13
  L 64.96 320.00
  Q 65.11 318.23 63.75 317.32
  A 0.39 0.39 24.4 0 0 63.16 317.54
  Q 62.81 318.78 63.08 319.99
  Q 59.04 376.20 58.36 414.07
  Q 57.98 434.80 57.57 444.24
  A 0.53 0.52 -88.9 0 1 57.05 444.75
  L 33.81 444.70
  A 0.50 0.50 -89.4 0 1 33.31 444.19
  Q 35.30 364.52 45.04 284.19
  A 0.72 0.71 -86.9 0 1 45.75 283.55
  L 78.09 283.64
  A 0.68 0.68 81.3 0 1 78.74 284.12
  L 116.43 399.09
  Q 117.64 402.79 118.86 399.09
  L 156.90 284.03
  A 0.70 0.69 -80.7 0 1 157.56 283.55
  L 188.44 283.55
  A 0.56 0.55 86.5 0 1 188.99 284.04
  Q 198.74 363.75 201.46 443.98
  A 0.51 0.50 88.9 0 1 200.97 444.50
  L 175.05 444.69
  A 0.52 0.50 88.9 0 1 174.54 444.18
  Q 173.30 382.58 167.24 321.25
  Q 167.73 320.51 167.00 319.96
  Z"
/>
<path fill="#000000" d="
  M 64.96 320.00
  L 63.08 319.99
  Q 62.81 318.78 63.16 317.54
  A 0.39 0.39 24.4 0 1 63.75 317.32
  Q 65.11 318.23 64.96 320.00
  Z"
/>
<path fill="#000000" d="
  M 167.00 319.96
  L 165.04 320.00
  Q 166.95 314.70 167.00 319.96
  Z"
/>
<path fill="#000000" d="
  M 269.55 424.05
  L 269.88 423.89
  A 1.01 0.66 -84.0 0 0 270.33 423.34
  C 281.62 391.37 288.50 359.49 293.16 326.28
  A 0.58 0.57 -86.0 0 1 293.73 325.78
  L 317.92 325.80
  A 0.42 0.41 5.1 0 1 318.34 326.29
  Q 310.88 369.40 297.71 408.19
  C 287.20 439.12 257.79 503.51 213.12 483.25
  A 0.82 0.76 13.3 0 1 212.64 482.54
  L 212.62 469.61
  A 0.48 0.46 2.3 0 1 213.14 469.15
  Q 223.37 469.95 227.94 469.42
  C 239.38 468.10 249.71 459.66 251.11 447.86
  C 252.04 440.05 248.12 428.84 245.58 420.93
  Q 230.42 373.59 215.18 326.28
  A 0.36 0.36 80.7 0 1 215.52 325.80
  L 240.79 325.73
  A 0.68 0.68 81.3 0 1 241.44 326.21
  Q 256.23 373.75 263.99 399.50
  Q 267.40 410.81 269.00 423.70
  A 0.42 0.39 74.9 0 0 269.55 424.05
  Z"
/>
<path fill="#000000" d="
  M 695.94 428.54
  L 691.52 428.48
  A 0.72 0.66 -7.2 0 1 690.86 428.01
  Q 690.49 426.75 690.87 425.49
  A 0.71 0.67 8.4 0 1 691.54 425.02
  L 705.94 425.01
  A 0.74 0.67 -8.0 0 1 706.63 425.48
  Q 707.07 426.84 706.52 428.11
  A 0.85 0.64 8.0 0 1 705.80 428.51
  L 701.82 428.60
  A 0.57 0.52 -89.9 0 0 701.31 429.16
  L 701.25 444.21
  A 0.66 0.61 83.9 0 1 700.78 444.84
  Q 698.94 445.29 697.18 444.85
  A 0.66 0.60 -84.4 0 1 696.72 444.23
  L 696.47 429.06
  A 0.54 0.53 0.0 0 0 695.94 428.54
  Z"
/>
<path fill="#000000" d="
  M 728.13 433.53
  L 724.19 444.06
  A 1.30 0.97 -86.2 0 1 723.59 444.76
  Q 722.35 445.32 720.96 444.89
  A 1.09 0.88 84.4 0 1 720.33 444.25
  L 716.10 432.76
  A 0.98 0.68 78.8 0 0 715.45 432.13
  C 714.76 432.04 714.96 443.03 714.93 444.35
  A 0.58 0.53 89.5 0 1 714.42 444.92
  L 711.54 444.99
  A 0.56 0.50 89.5 0 1 711.03 444.43
  L 711.06 425.66
  A 0.56 0.52 89.5 0 1 711.57 425.10
  L 716.63 425.07
  A 0.83 0.70 77.2 0 1 717.32 425.59
  L 721.82 436.70
  Q 722.37 438.07 722.88 436.67
  L 726.96 425.60
  A 0.78 0.70 -78.7 0 1 727.64 425.09
  L 732.94 425.10
  A 0.56 0.50 -89.5 0 1 733.43 425.66
  L 733.48 444.21
  A 0.67 0.65 82.6 0 1 733.00 444.85
  Q 731.27 445.35 729.62 444.78
  A 0.71 0.67 -80.1 0 1 729.17 444.09
  C 729.30 439.96 729.51 433.08 728.80 432.99
  A 0.79 0.54 -73.0 0 0 728.13 433.53
  Z"
/>
</svg>
