<?xml version="1.0" encoding="UTF-8" standalone="no"?>
<!DOCTYPE svg PUBLIC "-//W3C//DTD SVG 1.0//EN" "http://www.w3.org/TR/2001/REC-SVG-20010904/DTD/svg10.dtd">
<svg xmlns="http://www.w3.org/2000/svg" version="1.0" viewBox="0 0 500 298">
<g stroke-width="2.00" fill="none" stroke-linecap="butt">
<path stroke="#009e39" vector-effect="non-scaling-stroke" d="
  M 191.62 71.82
  L 198.52 84.29
  A 1.24 1.04 43.0 0 1 198.63 85.21
  C 198.27 86.30 197.74 86.98 197.73 88.16
  Q 197.59 130.86 197.76 176.59
  A 0.82 0.82 -5.1 0 0 198.72 177.39
  Q 200.69 177.08 199.04 178.50"
/>
<path stroke="#009839" vector-effect="non-scaling-stroke" d="
  M 190.37 183.20
  Q 187.64 175.18 183.46 168.50"
/>
<path stroke="#00ac3a" vector-effect="non-scaling-stroke" d="
  M 183.46 168.50
  C 186.60 168.32 185.65 158.77 185.45 156.14
  Q 185.12 151.81 185.34 147.33
  C 185.60 141.90 184.86 136.71 185.30 131.20
  C 185.71 126.07 185.14 120.70 185.37 115.79
  Q 185.55 111.85 185.33 107.91
  C 184.99 102.01 185.63 96.35 185.27 90.48
  C 185.00 86.00 185.77 81.26 185.27 76.54
  A 0.96 0.81 12.5 0 0 184.75 75.86
  L 183.99 75.49
  A 0.74 0.73 38.9 0 0 183.19 75.57
  Q 182.08 76.46 180.75 76.46"
/>
<path stroke="#009e39" vector-effect="non-scaling-stroke" d="
  M 183.46 168.50
  L 171.39 146.51"
/>
<path stroke="#00b83b" vector-effect="non-scaling-stroke" d="
  M 171.39 146.51
  Q 172.79 138.68 172.00 130.79
  Q 171.61 126.92 171.88 123.59
  C 172.36 117.74 171.89 112.02 172.26 106.19
  C 172.70 99.43 171.23 92.85 172.47 86.54
  Q 173.14 83.09 169.81 83.90
  A 1.12 0.56 -21.5 0 1 168.93 83.82
  Q 168.67 83.61 168.75 83.29"
/>
<path stroke="#009a38" vector-effect="non-scaling-stroke" d="
  M 215.29 85.25
  Q 214.89 85.73 214.26 85.86
  Q 213.87 85.94 214.18 86.18
  C 215.18 86.94 215.09 87.76 215.54 88.62
  Q 222.04 101.15 229.48 113.14"
/>
<path stroke="#008f38" vector-effect="non-scaling-stroke" d="
  M 229.48 113.14
  L 223.17 124.69
  A 0.43 0.41 43.9 0 1 222.44 124.69
  Q 218.01 117.55 214.02 109.87
  C 212.91 107.72 211.57 108.46 211.55 110.56
  Q 211.20 140.65 212.14 170.79"
/>
<path stroke="#00a33a" vector-effect="non-scaling-stroke" d="
  M 171.39 146.51
  L 160.40 126.71"
/>
<path stroke="#00ab32" vector-effect="non-scaling-stroke" d="
  M 160.40 126.71
  L 144.25 97.54"
/>
<path stroke="#009827" vector-effect="non-scaling-stroke" d="
  M 156.37 132.38
  Q 149.81 144.25 142.24 155.52"
/>
<path stroke="#009130" vector-effect="non-scaling-stroke" d="
  M 160.40 126.71
  Q 157.80 129.08 156.37 132.38"
/>
<path stroke="#00a01f" vector-effect="non-scaling-stroke" d="
  M 156.37 132.38
  Q 151.95 128.90 147.19 125.83
  Q 145.16 124.53 142.67 124.96
  Q 142.00 124.05 142.14 126.43
  Q 142.05 124.09 141.79 121.75"
/>
<path stroke="#009438" vector-effect="non-scaling-stroke" d="
  M 238.04 99.00
  Q 237.92 99.59 237.42 99.82
  A 1.55 0.69 -13.1 0 0 236.69 100.37
  L 229.48 113.14"
/>
</g>
<path fill="#303030" d="
  M 326.17 11.45
  C 326.20 8.38 327.62 7.14 330.55 8.74
  Q 343.81 16.00 356.71 23.39
  Q 358.50 24.42 358.50 26.48
  L 358.50 153.45
  Q 358.50 156.10 356.21 157.44
  Q 334.14 170.29 311.99 182.99
  Q 309.86 184.21 307.19 182.71
  Q 285.03 170.25 263.05 157.43
  Q 260.75 156.09 260.75 153.43
  Q 260.75 128.00 260.75 102.00
  Q 260.75 99.48 263.82 97.72
  Q 285.80 85.13 306.95 73.00
  Q 309.63 71.46 312.34 73.01
  L 322.33 78.71
  Q 326.08 80.85 326.05 76.51
  Q 325.82 43.97 326.17 11.45
  Z
  M 325.18 118.04
  L 310.17 109.32
  A 1.01 0.95 43.7 0 0 309.20 109.31
  L 293.93 118.23
  A 0.91 0.89 75.0 0 0 293.49 119.01
  L 293.51 136.76
  A 0.89 0.86 -75.3 0 0 293.94 137.52
  L 309.09 146.36
  A 0.88 0.86 44.4 0 0 309.96 146.36
  L 325.31 137.49
  A 0.91 0.86 75.7 0 0 325.74 136.72
  L 325.75 119.03
  A 1.14 1.14 -75.0 0 0 325.18 118.04
  Z"
/>
<path fill="#303030" d="
  M 117.33 96.91
  C 119.56 98.22 119.99 99.98 120.00 102.63
  Q 120.01 135.51 119.99 168.39
  C 119.99 171.07 118.08 172.33 115.74 171.00
  Q 102.75 163.65 89.81 156.17
  Q 87.49 154.83 87.49 152.14
  L 87.48 119.73
  Q 87.47 117.28 85.43 116.10
  L 72.68 108.79
  Q 71.23 107.95 69.69 108.78
  Q 63.45 112.12 57.34 115.87
  Q 54.65 117.52 54.67 121.26
  Q 54.76 137.22 54.73 151.97
  Q 54.72 154.91 52.18 156.37
  Q 39.64 163.58 27.69 170.42
  C 25.19 171.85 22.26 172.07 22.26 168.25
  Q 22.24 134.41 22.26 100.56
  Q 22.26 98.30 25.30 96.55
  Q 47.30 83.91 68.60 71.69
  Q 71.07 70.27 73.55 71.67
  Q 95.54 84.15 117.33 96.91
  Z"
/>
<path fill="#00a63a" d="
  M 191.62 71.82
  L 198.52 84.29
  A 1.24 1.04 43.0 0 1 198.63 85.21
  C 198.27 86.30 197.74 86.98 197.73 88.16
  Q 197.59 130.86 197.76 176.59
  A 0.82 0.82 -5.1 0 0 198.72 177.39
  Q 200.69 177.08 199.04 178.50
  Q 194.95 181.32 190.37 183.20
  Q 187.64 175.18 183.46 168.50
  C 186.60 168.32 185.65 158.77 185.45 156.14
  Q 185.12 151.81 185.34 147.33
  C 185.60 141.90 184.86 136.71 185.30 131.20
  C 185.71 126.07 185.14 120.70 185.37 115.79
  Q 185.55 111.85 185.33 107.91
  C 184.99 102.01 185.63 96.35 185.27 90.48
  C 185.00 86.00 185.77 81.26 185.27 76.54
  A 0.96 0.81 12.5 0 0 184.75 75.86
  L 183.99 75.49
  A 0.74 0.73 38.9 0 0 183.19 75.57
  Q 182.08 76.46 180.75 76.46
  C 184.01 74.25 188.18 71.43 191.62 71.82
  Z"
/>
<path fill="#303030" d="
  M 443.54 117.01
  L 429.73 109.07
  A 1.96 1.95 -45.1 0 0 427.79 109.08
  L 413.44 117.31
  A 1.96 1.87 75.7 0 0 412.50 118.98
  L 412.52 135.47
  A 2.01 2.00 15.0 0 0 413.53 137.21
  Q 435.19 149.66 456.81 162.14
  C 458.97 163.38 459.87 165.77 457.38 167.20
  Q 444.69 174.44 431.86 181.42
  C 428.97 182.99 427.62 182.52 424.99 181.02
  Q 403.86 169.05 382.79 156.94
  Q 380.27 155.48 380.26 152.57
  Q 380.23 128.13 380.26 103.06
  C 380.27 100.27 381.15 98.52 383.46 97.18
  Q 404.25 85.20 425.02 73.20
  C 429.86 70.40 431.55 72.24 435.57 74.55
  Q 455.66 86.11 475.68 97.82
  C 478.80 99.65 477.76 111.09 477.70 114.45
  Q 477.64 117.21 475.27 118.62
  Q 462.54 126.21 449.00 134.00
  Q 447.20 135.03 445.69 133.15
  A 1.48 1.47 -65.0 0 1 445.37 132.26
  L 445.30 120.26
  Q 445.29 118.01 443.54 117.01
  Z"
/>
<path fill="#009538" d="
  M 191.62 71.82
  L 215.29 85.25
  Q 214.89 85.73 214.26 85.86
  Q 213.87 85.94 214.18 86.18
  C 215.18 86.94 215.09 87.76 215.54 88.62
  Q 222.04 101.15 229.48 113.14
  L 223.17 124.69
  A 0.43 0.41 43.9 0 1 222.44 124.69
  Q 218.01 117.55 214.02 109.87
  C 212.91 107.72 211.57 108.46 211.55 110.56
  Q 211.20 140.65 212.14 170.79
  L 199.04 178.50
  Q 200.69 177.08 198.72 177.39
  A 0.82 0.82 -5.1 0 1 197.76 176.59
  Q 197.59 130.86 197.73 88.16
  C 197.74 86.98 198.27 86.30 198.63 85.21
  A 1.24 1.04 43.0 0 0 198.52 84.29
  L 191.62 71.82
  Z"
/>
<path fill="#00b23a" d="
  M 183.46 168.50
  L 171.39 146.51
  Q 172.79 138.68 172.00 130.79
  Q 171.61 126.92 171.88 123.59
  C 172.36 117.74 171.89 112.02 172.26 106.19
  C 172.70 99.43 171.23 92.85 172.47 86.54
  Q 173.14 83.09 169.81 83.90
  A 1.12 0.56 -21.5 0 1 168.93 83.82
  Q 168.67 83.61 168.75 83.29
  L 180.75 76.46
  Q 182.08 76.46 183.19 75.57
  A 0.74 0.73 38.9 0 1 183.99 75.49
  L 184.75 75.86
  A 0.96 0.81 12.5 0 1 185.27 76.54
  C 185.77 81.26 185.00 86.00 185.27 90.48
  C 185.63 96.35 184.99 102.01 185.33 107.91
  Q 185.55 111.85 185.37 115.79
  C 185.14 120.70 185.71 126.07 185.30 131.20
  C 184.86 136.71 185.60 141.90 185.34 147.33
  Q 185.12 151.81 185.45 156.14
  C 185.65 158.77 186.60 168.32 183.46 168.50
  Z"
/>
<path fill="#00bd3c" d="
  M 168.75 83.29
  Q 168.67 83.61 168.93 83.82
  A 1.12 0.56 -21.5 0 0 169.81 83.90
  Q 173.14 83.09 172.47 86.54
  C 171.23 92.85 172.70 99.43 172.26 106.19
  C 171.89 112.02 172.36 117.74 171.88 123.59
  Q 171.61 126.92 172.00 130.79
  Q 172.79 138.68 171.39 146.51
  L 160.40 126.71
  L 144.25 97.54
  L 168.75 83.29
  Z"
/>
<path fill="#009f38" d="
  M 215.29 85.25
  C 218.93 87.29 236.73 96.38 238.04 99.00
  Q 237.92 99.59 237.42 99.82
  A 1.55 0.69 -13.1 0 0 236.69 100.37
  L 229.48 113.14
  Q 222.04 101.15 215.54 88.62
  C 215.09 87.76 215.18 86.94 214.18 86.18
  Q 213.87 85.94 214.26 85.86
  Q 214.89 85.73 215.29 85.25
  Z"
/>
<path fill="#009828" d="
  M 144.25 97.54
  L 160.40 126.71
  Q 157.80 129.08 156.37 132.38
  Q 151.95 128.90 147.19 125.83
  Q 145.16 124.53 142.67 124.96
  Q 142.00 124.05 142.14 126.43
  Q 142.05 124.09 141.79 121.75
  Q 141.80 111.66 141.81 101.56
  Q 141.81 99.16 144.25 97.54
  Z"
/>
<path fill="#008937" d="
  M 238.04 99.00
  Q 238.99 100.37 238.99 101.00
  Q 239.01 127.47 238.99 152.84
  Q 238.99 155.51 236.78 156.77
  L 212.14 170.79
  Q 211.20 140.65 211.55 110.56
  C 211.57 108.46 212.91 107.72 214.02 109.87
  Q 218.01 117.55 222.44 124.69
  A 0.43 0.41 43.9 0 0 223.17 124.69
  L 229.48 113.14
  L 236.69 100.37
  A 1.55 0.69 -13.1 0 1 237.42 99.82
  Q 237.92 99.59 238.04 99.00
  Z"
/>
<path fill="#009f38" d="
  M 437.89 121.40
  A 0.74 0.69 -76.2 0 1 438.24 122.03
  L 438.24 131.99
  A 0.90 0.83 76.3 0 1 437.82 132.75
  L 429.44 137.61
  A 0.86 0.86 -0.0 0 1 428.56 137.61
  L 420.19 132.74
  A 0.88 0.83 -76.0 0 1 419.77 131.99
  L 419.77 122.04
  A 0.92 0.85 75.7 0 1 420.19 121.27
  L 428.56 116.46
  A 0.86 0.86 -0.0 0 1 429.44 116.46
  L 437.89 121.40
  Z"
/>
<path fill="#00a716" d="
  M 141.79 121.75
  Q 142.05 124.09 142.14 126.43
  Q 142.00 124.05 142.67 124.96
  Q 145.16 124.53 147.19 125.83
  Q 151.95 128.90 156.37 132.38
  Q 149.81 144.25 142.24 155.52
  Q 141.37 138.53 141.79 121.75
  Z"
/>
<path fill="#008937" d="
  M 160.40 126.71
  L 171.39 146.51
  L 183.46 168.50
  Q 187.64 175.18 190.37 183.20
  Q 165.95 169.95 142.24 155.52
  Q 149.81 144.25 156.37 132.38
  Q 157.80 129.08 160.40 126.71
  Z"
/>
<path fill="#009f38" d="
  M 247.69 279.76
  L 289.13 255.86
  A 1.27 1.24 75.2 0 0 289.75 254.77
  L 289.74 207.50
  A 1.63 1.61 15.2 0 0 288.93 206.10
  L 248.08 182.55
  A 1.45 1.43 -44.7 0 0 246.65 182.55
  L 205.68 206.19
  A 1.35 1.35 -15.0 0 0 205.00 207.36
  L 205.01 254.67
  A 1.59 1.57 15.4 0 0 205.79 256.03
  C 210.43 258.77 226.81 270.96 226.77 256.49
  Q 226.72 233.89 226.77 211.41
  A 1.20 1.18 0.0 0 1 227.97 210.23
  L 233.52 210.24
  A 0.95 0.94 -0.0 0 1 234.47 211.18
  Q 234.57 235.12 234.35 259.17
  C 234.24 270.03 224.20 273.65 215.39 269.52
  C 208.01 266.05 198.00 262.41 197.94 254.75
  Q 197.74 232.36 197.77 209.97
  C 197.77 204.27 198.69 201.95 203.43 199.17
  Q 222.41 188.08 241.46 177.11
  C 245.01 175.07 248.37 174.20 251.83 176.15
  Q 259.65 180.53 290.91 198.79
  C 295.08 201.23 297.26 203.48 297.26 208.25
  Q 297.29 231.72 297.22 255.19
  C 297.20 259.35 294.21 261.66 290.50 263.82
  Q 271.15 275.08 251.75 286.25
  C 245.93 289.60 235.18 281.51 228.63 277.21
  Q 228.20 276.93 228.66 276.70
  L 235.31 273.42
  A 0.98 0.89 45.4 0 1 236.19 273.47
  L 246.82 279.75
  A 0.86 0.86 -44.1 0 0 247.69 279.76
  Z"
/>
<path fill="#009f38" d="
  M 248.36 244.13
  C 252.97 248.14 270.46 249.43 272.47 241.75
  Q 273.25 238.75 270.52 237.27
  C 265.38 234.49 256.52 234.57 250.60 233.36
  C 234.65 230.07 237.39 212.20 252.04 209.53
  C 262.81 207.56 278.14 208.91 278.99 223.29
  A 1.13 1.11 88.3 0 1 277.88 224.49
  L 272.52 224.48
  A 0.80 0.80 76.9 0 1 271.80 224.03
  C 271.05 222.53 270.72 220.74 269.72 219.55
  C 266.15 215.27 249.49 213.88 248.07 221.06
  Q 247.39 224.51 251.70 225.54
  C 258.83 227.24 274.25 227.59 278.66 233.48
  C 282.08 238.03 280.85 245.41 277.19 249.20
  C 270.98 255.63 256.27 255.33 248.59 252.88
  Q 239.56 250.00 238.44 240.13
  Q 238.20 238.04 240.14 238.05
  L 245.14 238.07
  A 0.78 0.69 78.4 0 1 245.81 238.57
  C 246.49 240.49 246.82 242.80 248.36 244.13
  Z"
/>
</svg>
