<?xml version="1.0" encoding="UTF-8" standalone="no"?>
<!DOCTYPE svg PUBLIC "-//W3C//DTD SVG 1.0//EN" "http://www.w3.org/TR/2001/REC-SVG-20010904/DTD/svg10.dtd">
<svg xmlns="http://www.w3.org/2000/svg" version="1.0" viewBox="0 0 1200 1043">
<path fill="#61dafb" d="
  M 834.56 0.00
  L 842.31 0.00
  Q 848.43 0.36 854.47 1.10
  C 920.86 9.25 948.38 73.42 955.58 131.59
  C 963.58 196.24 955.85 262.20 940.24 325.26
  A 0.97 0.97 15.0 0 0 940.91 326.42
  C 999.33 343.37 1057.24 366.60 1107.26 401.73
  C 1140.35 424.98 1174.27 458.31 1183.86 499.18
  C 1196.70 553.87 1157.33 602.66 1116.86 633.66
  C 1066.10 672.55 1005.10 699.08 943.55 717.11
  A 1.04 1.03 -15.3 0 0 942.83 718.36
  C 954.93 766.74 961.60 816.47 960.78 866.43
  C 959.67 934.04 939.24 1030.17 856.41 1041.59
  Q 849.10 1042.60 841.69 1043.00
  L 834.19 1043.00
  C 783.09 1040.52 733.76 1016.52 691.76 988.20
  Q 643.83 955.90 602.87 915.76
  A 0.96 0.96 -45.0 0 0 601.53 915.76
  Q 557.16 959.05 504.88 992.34
  C 461.73 1019.83 407.54 1044.57 355.22 1042.25
  C 254.31 1037.76 237.07 923.47 240.74 846.26
  Q 243.78 782.40 259.67 721.15
  A 1.17 1.16 -74.8 0 0 258.86 719.73
  Q 208.47 705.42 161.79 683.23
  C 108.06 657.69 46.75 617.39 22.42 560.73
  C -4.03 499.16 35.08 444.41 82.19 408.67
  C 134.35 369.10 197.06 342.91 259.80 325.82
  A 0.92 0.91 75.1 0 0 260.44 324.71
  Q 246.46 270.42 241.95 214.18
  C 236.14 141.78 244.57 19.11 338.50 3.00
  C 388.28 -5.53 443.67 17.02 485.85 41.63
  C 527.22 65.77 565.19 95.78 599.89 128.92
  A 1.02 1.01 44.8 0 0 601.30 128.92
  C 650.87 80.66 710.59 35.16 776.10 11.74
  Q 804.38 1.64 834.56 0.00
  Z
  M 736.00 288.90
  Q 814.07 296.45 891.07 313.48
  A 0.52 0.52 13.1 0 0 891.69 313.10
  C 903.81 263.94 910.74 212.27 908.18 161.51
  C 906.43 127.10 897.57 66.92 859.16 53.18
  C 843.57 47.61 823.30 49.97 807.23 54.49
  C 772.37 64.31 740.52 81.90 711.25 102.52
  Q 671.22 130.71 636.10 164.92
  A 0.52 0.50 -43.8 0 0 636.07 165.64
  Q 689.06 223.57 733.93 287.69
  A 2.89 2.87 75.2 0 0 736.00 288.90
  Z
  M 318.02 69.00
  C 300.24 90.68 293.93 121.54 291.88 148.83
  C 287.77 203.79 295.45 259.59 309.07 312.77
  A 0.38 0.37 76.5 0 0 309.51 313.05
  Q 386.48 296.07 465.04 288.87
  A 1.12 1.10 14.7 0 0 465.83 288.42
  Q 510.98 224.52 564.89 165.88
  A 0.80 0.79 43.2 0 0 564.85 164.77
  Q 527.79 129.03 484.80 99.91
  C 448.64 75.41 355.32 23.52 318.02 69.00
  Z
  M 531.64 284.22
  C 577.40 282.22 623.16 282.28 668.96 284.27
  Q 669.57 284.29 669.20 283.80
  Q 637.02 240.93 601.02 201.51
  A 0.63 0.63 -44.7 0 0 600.09 201.51
  Q 563.82 241.02 531.40 283.76
  Q 531.02 284.25 531.64 284.22
  Z
  M 494.29 706.99
  Q 601.14 713.81 706.83 706.64
  A 1.02 0.98 -74.3 0 0 707.60 706.19
  Q 766.83 617.34 813.81 521.47
  A 1.02 0.99 -45.7 0 0 813.81 520.58
  Q 766.55 425.39 707.25 337.19
  A 1.03 1.00 -13.9 0 0 706.48 336.74
  Q 600.24 328.87 493.99 336.71
  A 1.19 1.18 -72.4 0 0 493.17 337.14
  Q 491.94 338.66 489.42 342.42
  Q 430.97 429.46 386.73 521.30
  A 1.05 1.03 -45.7 0 0 386.73 522.19
  Q 433.36 618.46 493.54 706.56
  A 0.98 0.98 74.7 0 0 494.29 706.99
  Z
  M 360.28 461.87
  Q 391.90 401.13 428.37 343.99
  Q 428.87 343.19 427.94 343.31
  Q 374.69 350.00 323.42 361.19
  A 0.79 0.79 75.3 0 0 322.83 362.20
  Q 338.86 413.04 359.47 461.84
  Q 359.84 462.72 360.28 461.87
  Z
  M 877.54 361.85
  Q 824.77 349.92 771.78 343.36
  Q 771.22 343.29 771.52 343.77
  Q 807.94 401.16 839.99 461.81
  Q 840.59 462.93 841.09 461.76
  Q 861.70 413.45 877.93 362.54
  A 0.54 0.54 -74.7 0 0 877.54 361.85
  Z
  M 120.07 442.81
  C 97.98 458.43 58.00 494.03 64.55 525.17
  Q 71.25 557.01 94.18 579.22
  Q 99.06 583.95 109.60 591.93
  C 145.52 619.17 182.94 640.75 226.01 656.36
  Q 249.15 664.75 272.71 671.76
  A 0.57 0.56 -72.9 0 0 273.40 671.39
  Q 297.41 594.81 330.89 522.21
  A 1.07 1.07 0.0 0 0 330.89 521.29
  Q 297.83 449.58 274.13 374.30
  A 0.54 0.53 73.2 0 0 273.49 373.95
  C 219.80 388.62 165.71 410.53 120.07 442.81
  Z
  M 1135.26 510.99
  C 1126.45 473.22 1079.56 440.73 1047.64 423.34
  Q 990.33 392.12 927.19 374.72
  A 0.52 0.52 -73.7 0 0 926.56 375.07
  Q 902.81 449.42 869.85 520.30
  A 1.07 1.06 -46.0 0 0 869.86 521.21
  Q 904.14 593.06 928.84 668.72
  A 0.53 0.52 72.8 0 0 929.48 669.07
  C 988.30 651.82 1051.09 625.21 1097.83 584.60
  C 1117.19 567.78 1141.74 538.77 1135.26 510.99
  Z
  M 840.77 579.54
  Q 808.35 641.11 771.49 700.00
  Q 771.23 700.41 771.73 700.36
  Q 826.44 694.03 879.76 682.02
  A 0.64 0.64 -15.8 0 0 880.22 681.20
  Q 863.06 628.82 841.40 579.56
  Q 841.11 578.90 840.77 579.54
  Z
  M 322.61 684.19
  Q 375.89 695.46 429.46 701.39
  Q 429.96 701.44 429.69 701.02
  Q 392.26 642.72 360.24 581.24
  Q 359.91 580.61 359.64 581.26
  Q 338.42 631.58 322.10 683.31
  A 0.69 0.69 15.0 0 0 322.61 684.19
  Z
  M 637.56 879.71
  C 673.23 914.31 712.74 945.52 756.61 968.69
  C 785.47 983.93 831.33 1001.73 863.14 988.24
  Q 867.34 986.46 871.10 983.12
  Q 900.93 956.65 905.92 916.18
  Q 908.26 897.26 908.91 890.18
  Q 914.21 832.62 903.81 775.78
  Q 899.64 752.99 894.29 730.43
  A 0.33 0.32 -12.0 0 0 893.91 730.19
  Q 815.80 747.65 735.87 754.55
  A 1.07 1.06 -75.6 0 0 735.10 755.01
  Q 690.57 819.77 637.53 878.83
  A 0.64 0.64 43.3 0 0 637.56 879.71
  Z
  M 323.16 979.34
  Q 328.50 984.38 330.78 985.24
  Q 369.97 999.99 408.79 984.22
  C 455.65 965.18 497.64 941.21 536.21 907.70
  Q 551.70 894.25 566.68 879.85
  A 0.52 0.50 47.0 0 0 566.69 879.13
  Q 512.85 820.69 466.86 755.85
  A 1.14 1.10 74.4 0 0 466.06 755.38
  Q 452.04 753.95 438.02 752.55
  Q 372.97 746.04 309.00 732.54
  A 0.52 0.52 12.8 0 0 308.39 732.92
  C 296.00 780.82 288.89 830.93 290.75 880.49
  C 291.96 912.56 298.15 955.70 323.16 979.34
  Z
  M 670.17 759.01
  C 620.53 760.92 578.45 760.69 532.47 759.21
  Q 531.50 759.18 532.09 759.96
  Q 564.69 803.05 601.59 843.10
  A 0.47 0.46 44.2 0 0 602.27 843.10
  Q 638.43 802.98 670.36 759.40
  Q 670.66 758.99 670.17 759.01
  Z"
/>
<circle fill="#61dafb" cx="600.00" cy="520.50" r="104.64"/>
</svg>
