<?xml version="1.0" encoding="UTF-8" standalone="no"?>
<!DOCTYPE svg PUBLIC "-//W3C//DTD SVG 1.0//EN" "http://www.w3.org/TR/2001/REC-SVG-20010904/DTD/svg10.dtd">
<svg xmlns="http://www.w3.org/2000/svg" version="1.0" viewBox="0 0 1280 1280">
<path fill="#ffffff" d="
  M 541.79 858.84
  Q 542.15 856.34 541.22 858.69
  Q 530.35 886.05 517.70 912.63
  Q 508.22 932.53 498.73 946.46
  C 491.63 956.89 480.57 964.82 467.25 965.46
  C 451.98 966.19 441.47 962.60 431.95 950.35
  C 409.05 920.87 400.02 875.30 403.67 839.54
  C 406.13 815.54 410.02 792.69 417.92 769.82
  Q 418.16 769.11 417.51 769.47
  Q 385.09 787.36 353.35 806.35
  A 0.22 0.20 63.5 0 0 353.27 806.62
  C 371.83 846.17 371.48 894.22 360.02 934.81
  C 334.63 1024.76 238.16 1090.55 145.24 1065.52
  C 122.53 1059.40 108.23 1033.39 103.90 1011.98
  C 96.88 977.26 108.05 940.08 130.19 912.90
  C 148.72 890.16 173.00 870.57 196.49 854.48
  C 226.46 833.95 257.62 817.07 289.70 800.18
  A 0.47 0.47 -39.2 0 0 289.78 799.40
  C 254.95 770.51 202.16 738.15 160.58 704.93
  C 121.65 673.82 84.51 636.25 68.92 587.57
  C 61.30 563.79 64.39 540.49 72.85 516.58
  C 85.27 481.52 106.15 450.14 130.76 422.49
  C 166.65 382.18 209.62 347.95 255.55 319.75
  C 313.82 283.96 376.29 254.51 441.15 232.67
  C 516.81 207.19 605.81 198.36 682.83 222.14
  C 715.53 232.23 749.52 251.13 769.13 280.12
  C 794.37 317.45 793.32 367.08 778.78 408.32
  C 751.70 485.14 685.51 547.76 610.37 576.36
  C 556.98 596.69 499.55 607.62 442.50 604.26
  C 402.92 601.92 363.09 588.15 338.70 555.31
  C 334.61 549.80 322.23 527.82 335.48 525.71
  A 1.52 1.45 53.4 0 1 336.42 525.87
  Q 340.05 527.78 341.74 529.77
  C 370.33 563.28 421.80 569.60 462.58 565.00
  C 545.76 555.62 628.78 518.44 684.24 454.24
  C 703.46 431.98 719.35 404.71 725.16 375.84
  Q 729.23 355.59 723.87 335.31
  C 711.39 288.12 640.93 278.19 601.49 278.06
  C 532.86 277.84 463.97 296.92 401.93 325.42
  C 351.34 348.66 298.59 378.16 252.52 413.02
  C 203.59 450.04 153.18 502.00 151.13 567.50
  C 149.45 621.40 192.19 661.73 231.17 692.31
  Q 270.84 723.43 289.94 738.55
  Q 311.64 755.73 331.40 776.57
  A 0.66 0.65 53.9 0 0 332.19 776.70
  Q 387.97 745.91 443.96 715.37
  Q 445.97 714.27 447.35 712.38
  C 467.11 685.47 495.44 660.78 526.98 648.97
  C 546.89 641.51 571.55 643.49 580.78 665.99
  C 587.35 681.99 586.41 702.42 582.93 719.01
  Q 582.65 720.31 583.55 719.32
  C 592.17 709.78 603.53 709.99 614.05 716.22
  C 624.95 722.68 622.45 732.16 619.34 743.19
  Q 605.58 792.01 594.66 841.53
  C 592.19 852.71 589.67 868.57 592.30 879.79
  Q 593.21 883.66 595.42 880.36
  Q 600.18 873.25 603.75 866.22
  Q 621.29 831.63 636.99 796.16
  C 656.89 751.18 677.18 706.39 696.74 661.25
  C 703.17 646.43 707.51 630.89 711.04 615.81
  Q 711.67 613.12 713.25 611.25
  C 719.50 603.83 745.10 602.24 754.25 602.10
  C 761.27 602.00 786.64 603.82 782.45 616.87
  C 774.18 642.60 765.84 664.87 769.42 692.67
  C 770.83 703.56 771.73 713.94 776.08 724.18
  Q 781.17 736.19 787.28 747.67
  Q 787.46 748.00 787.65 747.68
  Q 815.35 702.13 839.86 654.81
  C 846.92 641.18 854.82 625.65 858.11 610.64
  Q 861.71 594.24 867.15 578.92
  Q 868.01 576.50 870.28 575.29
  C 883.34 568.33 902.49 567.47 916.93 568.17
  C 923.39 568.48 941.35 572.08 937.67 582.68
  C 931.40 600.71 924.61 620.43 923.81 640.44
  Q 923.49 648.55 924.77 660.39
  C 926.41 675.58 928.80 685.58 935.72 699.76
  Q 942.61 713.88 949.79 727.85
  A 0.51 0.51 63.4 0 0 950.46 728.08
  C 1014.93 697.04 1101.36 692.25 1162.34 735.38
  C 1192.39 756.63 1214.86 791.59 1214.51 828.94
  C 1214.20 861.10 1194.92 887.01 1165.92 899.63
  C 1162.41 901.16 1148.45 905.46 1149.95 896.82
  Q 1150.39 894.33 1152.51 892.96
  Q 1156.80 890.20 1160.35 887.88
  C 1210.59 855.07 1191.45 797.35 1149.85 769.37
  C 1129.39 755.60 1105.47 748.20 1080.75 744.77
  C 1040.49 739.19 1001.00 741.51 963.29 756.54
  A 0.56 0.56 -31.8 0 0 962.98 757.27
  C 974.07 784.77 978.36 816.14 959.05 841.33
  C 937.42 869.53 907.16 886.65 873.94 895.44
  C 858.66 899.49 842.56 891.96 838.75 876.27
  Q 836.50 867.03 838.63 855.42
  C 845.81 816.17 874.64 782.29 904.48 757.58
  A 0.63 0.62 57.5 0 0 904.64 756.82
  Q 893.24 734.47 889.55 725.21
  C 882.65 707.88 877.18 685.96 873.58 666.02
  Q 873.31 664.52 872.63 665.88
  Q 842.75 726.46 804.48 782.09
  A 0.91 0.90 50.6 0 0 804.40 782.96
  C 811.50 799.39 816.96 817.08 817.39 834.77
  C 818.48 880.10 788.69 906.26 750.18 922.36
  C 733.34 929.40 678.21 945.31 669.16 919.96
  C 664.49 906.88 679.57 890.49 688.74 879.47
  C 710.62 853.18 732.54 828.42 752.94 799.42
  A 0.84 0.82 -41.0 0 0 753.01 798.57
  C 743.09 778.72 733.93 761.65 728.20 741.77
  Q 722.27 721.21 718.30 700.37
  Q 718.05 699.05 717.55 700.30
  C 703.94 734.50 689.62 768.80 673.62 801.96
  Q 647.80 855.45 618.59 907.17
  C 609.28 923.66 588.68 953.86 566.03 949.49
  C 532.81 943.07 538.40 881.83 541.79 858.84
  Z
  M 467.68 897.56
  C 479.53 909.26 501.59 851.42 504.18 844.86
  C 518.64 808.29 532.97 771.79 544.05 734.02
  C 546.08 727.08 553.36 702.00 549.47 696.35
  Q 546.47 691.98 540.21 693.25
  C 523.65 696.61 508.39 711.55 499.24 725.02
  C 471.45 765.96 455.37 810.95 457.43 861.01
  C 457.85 871.47 459.83 889.80 467.68 897.56
  Z
  M 916.30 786.01
  C 894.66 804.37 879.15 830.26 872.18 857.60
  C 871.47 860.38 871.60 862.74 872.37 865.34
  A 1.57 1.57 0.0 0 0 874.41 866.36
  C 902.05 856.37 919.51 836.39 919.99 806.17
  Q 920.15 795.86 916.97 786.20
  A 0.42 0.42 60.5 0 0 916.30 786.01
  Z
  M 177.72 1007.26
  C 187.87 1015.17 204.81 1013.70 216.84 1010.12
  Q 246.52 1001.28 269.36 980.34
  C 312.09 941.15 329.01 887.11 313.57 830.70
  A 0.39 0.38 -22.4 0 0 313.01 830.47
  C 276.21 851.58 240.78 874.98 209.32 903.57
  C 189.40 921.68 174.57 945.17 169.48 971.98
  C 167.33 983.32 167.88 999.59 177.72 1007.26
  Z
  M 708.94 904.81
  C 712.42 905.73 718.29 902.77 721.20 900.96
  C 743.57 887.04 765.34 865.16 764.99 837.42
  Q 764.98 836.05 764.15 837.14
  C 746.71 860.35 727.72 881.54 708.24 903.00
  A 1.20 1.07 27.1 0 0 708.94 904.81
  Z"
/>
</svg>
