<?xml version="1.0" encoding="UTF-8" standalone="no"?>
<!DOCTYPE svg PUBLIC "-//W3C//DTD SVG 1.0//EN" "http://www.w3.org/TR/2001/REC-SVG-20010904/DTD/svg10.dtd">
<svg xmlns="http://www.w3.org/2000/svg" version="1.0" viewBox="0 0 1448 1448">
<path stroke="#808080" stroke-width="2.00" fill="none" stroke-linecap="butt" vector-effect="non-scaling-stroke" d="
  M 866.65 627.19
  Q 876.44 567.96 888.82 509.21
  Q 898.19 464.72 912.47 421.58
  C 932.55 360.92 968.78 295.39 1042.49 295.19
  C 1054.72 295.16 1075.96 299.24 1075.69 315.45
  C 1075.50 326.79 1064.48 339.11 1060.27 349.81
  Q 1054.24 365.14 1058.46 381.51
  C 1065.89 410.28 1094.83 422.87 1122.27 418.25
  Q 1149.92 413.60 1162.83 388.04
  C 1186.51 341.15 1159.11 297.57 1114.48 279.74
  C 1064.99 259.95 1005.31 266.02 957.66 287.65
  C 924.22 302.84 892.80 326.15 868.30 352.31
  C 816.53 407.62 777.00 478.18 751.32 548.83
  Q 744.79 566.79 741.50 575.32
  A 0.35 0.34 -59.2 0 1 740.95 575.47
  C 717.41 554.95 694.26 532.18 670.96 513.30
  C 597.34 453.63 497.87 441.31 419.40 500.14
  C 394.00 519.18 375.79 546.92 366.60 577.11
  C 350.61 629.59 371.02 685.69 404.48 726.41
  Q 408.43 731.21 417.82 741.33
  Q 437.09 762.08 456.41 782.77
  C 473.33 800.88 482.11 822.34 475.63 846.71
  C 465.31 885.46 425.15 905.17 387.24 900.99
  C 367.27 898.79 312.70 880.13 327.99 848.99
  C 331.11 842.64 336.04 835.66 338.89 829.58
  C 346.93 812.40 349.65 795.69 344.29 777.20
  C 339.56 760.87 328.20 747.15 311.76 741.73
  C 267.97 727.31 239.36 758.40 240.31 800.25
  C 242.00 874.40 312.61 914.16 375.44 928.62
  Q 423.38 939.65 470.98 929.19
  C 537.93 914.47 596.63 861.02 599.25 788.98
  C 600.09 766.04 594.14 743.29 583.12 723.14
  C 562.02 684.55 530.81 652.61 501.58 620.20
  Q 492.66 610.31 489.28 604.67
  C 474.48 580.03 475.83 550.82 493.57 528.36
  Q 519.61 495.38 564.25 501.76
  Q 606.59 507.80 641.87 531.88
  C 671.92 552.40 695.96 580.07 731.05 607.01
  A 0.68 0.67 -63.5 0 1 731.29 607.74
  C 713.08 668.90 699.58 731.19 687.25 793.75
  C 683.81 811.16 680.66 832.58 678.06 846.56
  C 666.07 911.29 652.97 976.41 634.00 1039.50
  C 624.55 1070.89 612.62 1101.66 596.50 1130.27
  C 573.14 1171.74 534.50 1213.52 484.31 1218.10
  C 475.61 1218.90 465.86 1216.79 461.57 1208.62
  C 452.30 1190.95 478.95 1181.75 487.58 1172.65
  C 498.16 1161.47 499.46 1143.16 495.94 1128.96
  C 488.22 1097.77 458.30 1079.06 427.06 1082.84
  C 389.28 1087.42 359.03 1121.88 360.72 1160.01
  C 362.38 1197.47 387.55 1225.14 421.68 1237.83
  C 444.22 1246.20 469.16 1248.53 492.76 1246.28
  C 572.84 1238.67 640.92 1188.65 691.31 1129.06
  C 754.15 1054.74 792.80 967.85 817.15 874.43
  C 826.74 837.63 835.31 799.45 842.24 760.91
  Q 851.52 709.32 860.85 658.09
  A 0.81 0.81 8.8 0 1 861.74 657.44
  C 917.66 663.90 974.92 660.85 1025.24 634.36
  C 1061.74 615.14 1100.87 573.86 1082.75 528.49
  C 1073.05 504.17 1050.43 491.74 1024.94 502.22
  C 1004.57 510.60 985.47 534.55 997.24 556.76
  C 1008.75 578.48 1022.76 595.15 995.21 611.21
  C 957.82 633.01 908.55 633.60 867.06 627.76
  A 0.49 0.49 -80.9 0 1 866.65 627.19"
/>
<path fill="#000000" d="
  M 716.31 0.00
  L 731.06 0.00
  Q 886.56 1.93 1027.10 66.38
  C 1186.14 139.30 1316.31 271.60 1386.60 431.87
  Q 1446.22 567.82 1448.00 717.06
  L 1448.00 730.56
  C 1443.43 1126.55 1125.41 1443.14 730.69 1448.00
  L 716.19 1448.00
  Q 507.33 1444.60 332.81 1333.27
  C 243.74 1276.46 165.96 1197.74 110.18 1108.02
  Q 3.44 936.33 0.00 732.44
  L 0.00 716.19
  Q 1.51 596.68 40.69 484.23
  C 96.52 323.96 211.06 184.97 357.65 99.45
  Q 523.15 2.89 716.31 0.00
  Z
  M 866.65 627.19
  Q 876.44 567.96 888.82 509.21
  Q 898.19 464.72 912.47 421.58
  C 932.55 360.92 968.78 295.39 1042.49 295.19
  C 1054.72 295.16 1075.96 299.24 1075.69 315.45
  C 1075.50 326.79 1064.48 339.11 1060.27 349.81
  Q 1054.24 365.14 1058.46 381.51
  C 1065.89 410.28 1094.83 422.87 1122.27 418.25
  Q 1149.92 413.60 1162.83 388.04
  C 1186.51 341.15 1159.11 297.57 1114.48 279.74
  C 1064.99 259.95 1005.31 266.02 957.66 287.65
  C 924.22 302.84 892.80 326.15 868.30 352.31
  C 816.53 407.62 777.00 478.18 751.32 548.83
  Q 744.79 566.79 741.50 575.32
  A 0.35 0.34 -59.2 0 1 740.95 575.47
  C 717.41 554.95 694.26 532.18 670.96 513.30
  C 597.34 453.63 497.87 441.31 419.40 500.14
  C 394.00 519.18 375.79 546.92 366.60 577.11
  C 350.61 629.59 371.02 685.69 404.48 726.41
  Q 408.43 731.21 417.82 741.33
  Q 437.09 762.08 456.41 782.77
  C 473.33 800.88 482.11 822.34 475.63 846.71
  C 465.31 885.46 425.15 905.17 387.24 900.99
  C 367.27 898.79 312.70 880.13 327.99 848.99
  C 331.11 842.64 336.04 835.66 338.89 829.58
  C 346.93 812.40 349.65 795.69 344.29 777.20
  C 339.56 760.87 328.20 747.15 311.76 741.73
  C 267.97 727.31 239.36 758.40 240.31 800.25
  C 242.00 874.40 312.61 914.16 375.44 928.62
  Q 423.38 939.65 470.98 929.19
  C 537.93 914.47 596.63 861.02 599.25 788.98
  C 600.09 766.04 594.14 743.29 583.12 723.14
  C 562.02 684.55 530.81 652.61 501.58 620.20
  Q 492.66 610.31 489.28 604.67
  C 474.48 580.03 475.83 550.82 493.57 528.36
  Q 519.61 495.38 564.25 501.76
  Q 606.59 507.80 641.87 531.88
  C 671.92 552.40 695.96 580.07 731.05 607.01
  A 0.68 0.67 -63.5 0 1 731.29 607.74
  C 713.08 668.90 699.58 731.19 687.25 793.75
  C 683.81 811.16 680.66 832.58 678.06 846.56
  C 666.07 911.29 652.97 976.41 634.00 1039.50
  C 624.55 1070.89 612.62 1101.66 596.50 1130.27
  C 573.14 1171.74 534.50 1213.52 484.31 1218.10
  C 475.61 1218.90 465.86 1216.79 461.57 1208.62
  C 452.30 1190.95 478.95 1181.75 487.58 1172.65
  C 498.16 1161.47 499.46 1143.16 495.94 1128.96
  C 488.22 1097.77 458.30 1079.06 427.06 1082.84
  C 389.28 1087.42 359.03 1121.88 360.72 1160.01
  C 362.38 1197.47 387.55 1225.14 421.68 1237.83
  C 444.22 1246.20 469.16 1248.53 492.76 1246.28
  C 572.84 1238.67 640.92 1188.65 691.31 1129.06
  C 754.15 1054.74 792.80 967.85 817.15 874.43
  C 826.74 837.63 835.31 799.45 842.24 760.91
  Q 851.52 709.32 860.85 658.09
  A 0.81 0.81 8.8 0 1 861.74 657.44
  C 917.66 663.90 974.92 660.85 1025.24 634.36
  C 1061.74 615.14 1100.87 573.86 1082.75 528.49
  C 1073.05 504.17 1050.43 491.74 1024.94 502.22
  C 1004.57 510.60 985.47 534.55 997.24 556.76
  C 1008.75 578.48 1022.76 595.15 995.21 611.21
  C 957.82 633.01 908.55 633.60 867.06 627.76
  A 0.49 0.49 -80.9 0 1 866.65 627.19
  Z"
/>
<path fill="#ffffff" d="
  M 867.06 627.76
  C 908.55 633.60 957.82 633.01 995.21 611.21
  C 1022.76 595.15 1008.75 578.48 997.24 556.76
  C 985.47 534.55 1004.57 510.60 1024.94 502.22
  C 1050.43 491.74 1073.05 504.17 1082.75 528.49
  C 1100.87 573.86 1061.74 615.14 1025.24 634.36
  C 974.92 660.85 917.66 663.90 861.74 657.44
  A 0.81 0.81 8.8 0 0 860.85 658.09
  Q 851.52 709.32 842.24 760.91
  C 835.31 799.45 826.74 837.63 817.15 874.43
  C 792.80 967.85 754.15 1054.74 691.31 1129.06
  C 640.92 1188.65 572.84 1238.67 492.76 1246.28
  C 469.16 1248.53 444.22 1246.20 421.68 1237.83
  C 387.55 1225.14 362.38 1197.47 360.72 1160.01
  C 359.03 1121.88 389.28 1087.42 427.06 1082.84
  C 458.30 1079.06 488.22 1097.77 495.94 1128.96
  C 499.46 1143.16 498.16 1161.47 487.58 1172.65
  C 478.95 1181.75 452.30 1190.95 461.57 1208.62
  C 465.86 1216.79 475.61 1218.90 484.31 1218.10
  C 534.50 1213.52 573.14 1171.74 596.50 1130.27
  C 612.62 1101.66 624.55 1070.89 634.00 1039.50
  C 652.97 976.41 666.07 911.29 678.06 846.56
  C 680.66 832.58 683.81 811.16 687.25 793.75
  C 699.58 731.19 713.08 668.90 731.29 607.74
  A 0.68 0.67 -63.5 0 0 731.05 607.01
  C 695.96 580.07 671.92 552.40 641.87 531.88
  Q 606.59 507.80 564.25 501.76
  Q 519.61 495.38 493.57 528.36
  C 475.83 550.82 474.48 580.03 489.28 604.67
  Q 492.66 610.31 501.58 620.20
  C 530.81 652.61 562.02 684.55 583.12 723.14
  C 594.14 743.29 600.09 766.04 599.25 788.98
  C 596.63 861.02 537.93 914.47 470.98 929.19
  Q 423.38 939.65 375.44 928.62
  C 312.61 914.16 242.00 874.40 240.31 800.25
  C 239.36 758.40 267.97 727.31 311.76 741.73
  C 328.20 747.15 339.56 760.87 344.29 777.20
  C 349.65 795.69 346.93 812.40 338.89 829.58
  C 336.04 835.66 331.11 842.64 327.99 848.99
  C 312.70 880.13 367.27 898.79 387.24 900.99
  C 425.15 905.17 465.31 885.46 475.63 846.71
  C 482.11 822.34 473.33 800.88 456.41 782.77
  Q 437.09 762.08 417.82 741.33
  Q 408.43 731.21 404.48 726.41
  C 371.02 685.69 350.61 629.59 366.60 577.11
  C 375.79 546.92 394.00 519.18 419.40 500.14
  C 497.87 441.31 597.34 453.63 670.96 513.30
  C 694.26 532.18 717.41 554.95 740.95 575.47
  A 0.35 0.34 -59.2 0 0 741.50 575.32
  Q 744.79 566.79 751.32 548.83
  C 777.00 478.18 816.53 407.62 868.30 352.31
  C 892.80 326.15 924.22 302.84 957.66 287.65
  C 1005.31 266.02 1064.99 259.95 1114.48 279.74
  C 1159.11 297.57 1186.51 341.15 1162.83 388.04
  Q 1149.92 413.60 1122.27 418.25
  C 1094.83 422.87 1065.89 410.28 1058.46 381.51
  Q 1054.24 365.14 1060.27 349.81
  C 1064.48 339.11 1075.50 326.79 1075.69 315.45
  C 1075.96 299.24 1054.72 295.16 1042.49 295.19
  C 968.78 295.39 932.55 360.92 912.47 421.58
  Q 898.19 464.72 888.82 509.21
  Q 876.44 567.96 866.65 627.19
  A 0.49 0.49 -80.9 0 0 867.06 627.76
  Z"
/>
</svg>
