<?xml version="1.0" encoding="UTF-8" standalone="no"?>
<!DOCTYPE svg PUBLIC "-//W3C//DTD SVG 1.1//EN" "http://www.w3.org/Graphics/SVG/1.1/DTD/svg11.dtd">
<svg xmlns="http://www.w3.org/2000/svg" version="1.1" viewBox="0 0 557 697">
<g stroke-width="2.00" fill="none" stroke-linecap="butt">
<path stroke="#d6c1f3" vector-effect="non-scaling-stroke" d="
  M 297.50 668.71
  Q 297.03 667.35 295.50 667.79"
/>
<path stroke="#b793d4" vector-effect="non-scaling-stroke" d="
  M 283.50 658.21
  L 284.04 650.00"
/>
<path stroke="#b892e7" vector-effect="non-scaling-stroke" d="
  M 284.04 650.00
  C 284.29 647.37 284.60 645.29 285.51 642.79
  C 286.04 641.34 284.90 638.31 287.75 639.04"
/>
<path stroke="#d6c1f3" vector-effect="non-scaling-stroke" d="
  M 287.75 639.04
  Q 289.00 640.90 290.44 640.44
  Q 298.48 637.83 305.65 630.37"
/>
<path stroke="#b892e7" vector-effect="non-scaling-stroke" d="
  M 305.65 630.37
  Q 313.50 625.00 318.69 616.94
  Q 319.48 615.70 318.25 616.50
  Q 305.89 624.52 292.81 631.31
  Q 286.14 634.78 281.54 639.43"
/>
<path stroke="#c1a2f9" vector-effect="non-scaling-stroke" d="
  M 281.54 639.43
  Q 269.61 631.30 256.85 624.62
  Q 250.27 621.18 244.60 616.38
  C 242.93 614.97 243.74 616.60 244.00 616.91
  C 252.51 626.86 263.55 637.09 276.01 641.70
  Q 277.72 642.33 278.71 644.00"
/>
<path stroke="#b793d4" vector-effect="non-scaling-stroke" d="
  M 278.71 644.00
  C 279.78 649.17 279.74 654.55 276.30 658.92
  Q 272.77 663.41 268.20 666.95"
/>
<path stroke="#d9bfd4" vector-effect="non-scaling-stroke" d="
  M 272.00 322.71
  L 272.00 322.29"
/>
<path stroke="#8e54db" vector-effect="non-scaling-stroke" d="
  M 305.65 630.37
  L 287.75 639.04"
/>
<path stroke="#6f26bb" vector-effect="non-scaling-stroke" d="
  M 284.04 650.00
  C 284.09 647.09 284.53 640.19 280.50 640.96"
/>
<path stroke="#7a34e0" vector-effect="non-scaling-stroke" d="
  M 281.54 639.43
  Q 281.05 640.71 280.50 640.96"
/>
<path stroke="#7936cd" vector-effect="non-scaling-stroke" d="
  M 280.50 640.96
  Q 279.11 642.14 278.71 644.00"
/>
<path stroke="#b27fa8" vector-effect="non-scaling-stroke" d="
  M 270.54 322.00
  Q 270.37 322.34 270.00 322.29"
/>
<path stroke="#8d839e" vector-effect="non-scaling-stroke" d="
  M 415.71 158.50
  Q 396.48 181.96 380.94 207.99
  Q 379.55 210.32 379.17 213.00
  Q 377.63 223.93 377.05 235.04"
/>
<path stroke="#9f81ba" vector-effect="non-scaling-stroke" d="
  M 377.05 235.04
  L 375.04 262.50"
/>
<path stroke="#b88cdb" vector-effect="non-scaling-stroke" d="
  M 375.04 262.50
  L 366.75 328.96"
/>
<path stroke="#d08ef6" vector-effect="non-scaling-stroke" d="
  M 366.75 328.96
  Q 365.48 334.41 365.29 340.00"
/>
<path stroke="#b88cdb" vector-effect="non-scaling-stroke" d="
  M 365.29 340.00
  Q 364.38 343.16 364.53 345.76
  Q 364.64 347.72 365.43 345.95
  L 373.04 329.00"
/>
<path stroke="#9f81ba" vector-effect="non-scaling-stroke" d="
  M 373.04 329.00
  C 380.79 311.74 387.78 297.77 400.49 284.88
  C 415.12 270.04 431.58 255.83 447.39 242.23
  C 450.82 239.28 452.04 233.48 453.31 229.06
  C 460.36 204.52 466.43 181.87 472.61 159.35
  Q 481.12 128.37 484.27 96.37
  C 484.59 93.12 485.39 90.21 486.08 87.06
  Q 486.19 86.56 485.85 86.94
  Q 481.95 91.36 477.65 95.40
  Q 453.36 118.22 429.94 141.94
  Q 423.99 147.96 415.71 158.50"
/>
<path stroke="#580e95" vector-effect="non-scaling-stroke" d="
  M 373.04 329.00
  C 370.34 327.28 371.19 319.23 372.00 317.25
  C 373.53 313.52 372.43 311.61 372.57 308.64
  Q 372.84 302.76 373.76 295.79
  Q 373.86 295.06 373.60 294.37
  Q 373.00 292.82 374.39 291.35
  A 1.33 1.22 -24.6 0 0 374.75 290.50
  C 374.85 288.02 376.26 286.72 376.52 284.50
  Q 376.93 281.05 376.89 277.58
  C 376.84 273.13 377.71 268.77 377.52 264.25
  A 1.54 1.14 -73.7 0 0 377.19 263.35
  Q 376.37 262.49 375.04 262.50"
/>
<path stroke="#2d0559" vector-effect="non-scaling-stroke" d="
  M 377.05 235.04
  Q 378.76 232.50 379.06 229.56
  C 379.56 224.59 380.14 221.14 380.00 216.25
  Q 379.87 211.49 383.41 207.61
  Q 383.73 207.26 383.85 206.76
  Q 384.36 204.62 386.15 203.34
  A 1.78 1.69 -7.5 0 0 386.75 202.60
  Q 387.66 200.49 390.69 195.69
  C 394.99 188.87 400.09 182.58 404.25 175.75
  Q 407.87 169.81 414.81 162.56
  Q 416.12 161.19 415.71 158.50"
/>
<path stroke="#881bd2" vector-effect="non-scaling-stroke" d="
  M 365.29 340.00
  Q 368.67 336.59 368.75 331.25
  Q 368.79 328.46 366.75 328.96"
/>
<path stroke="#9e82b6" vector-effect="non-scaling-stroke" d="
  M 118.75 243.79
  Q 122.76 247.13 128.44 252.81
  Q 137.14 261.52 164.70 287.05
  Q 171.37 293.23 176.75 300.54"
/>
<path stroke="#b18ddc" vector-effect="non-scaling-stroke" d="
  M 176.75 300.54
  Q 186.67 315.64 191.19 327.56
  Q 196.53 341.66 199.22 347.36
  A 0.68 0.62 70.7 0 0 199.93 347.74
  C 202.05 347.30 202.61 345.82 202.13 343.74
  C 197.41 323.53 195.81 308.93 192.46 283.50"
/>
<path stroke="#9e82b6" vector-effect="non-scaling-stroke" d="
  M 192.46 283.50
  C 189.83 255.68 189.20 237.67 185.80 215.06
  C 184.98 209.57 182.24 205.45 179.21 201.04
  C 164.94 180.30 149.59 159.06 132.56 140.51"
/>
<path stroke="#9681ab" vector-effect="non-scaling-stroke" d="
  M 132.56 140.51
  Q 109.48 116.28 85.16 93.35
  Q 82.44 90.78 80.31 87.84
  Q 79.36 86.52 79.49 88.14
  Q 82.53 126.46 92.45 163.42
  C 97.81 183.37 102.91 203.38 108.01 223.39
  C 109.84 230.55 111.81 239.77 118.75 243.79"
/>
<path stroke="#350462" vector-effect="non-scaling-stroke" d="
  M 132.56 140.51
  Q 127.45 138.75 123.93 134.92
  C 119.35 129.94 114.13 126.02 109.11 121.52
  C 106.99 119.62 106.46 117.86 102.98 118.25
  A 1.36 1.36 -18.7 0 1 101.66 117.60
  Q 99.30 113.63 94.75 112.00
  Q 92.72 111.27 94.25 108.50
  Q 94.90 107.33 93.98 106.90
  A 1.29 0.98 -39.1 0 0 93.04 106.93
  Q 88.75 108.75 88.74 113.50
  Q 88.74 113.96 88.53 114.46
  C 87.68 116.55 88.79 117.70 89.18 119.30
  Q 91.68 129.58 93.48 140.00
  C 94.22 144.25 95.80 148.43 96.59 152.39
  C 98.34 161.18 101.44 170.41 103.18 178.27
  C 107.07 195.76 111.11 213.27 116.54 230.75
  Q 116.86 231.77 117.06 232.82
  Q 117.58 235.55 121.97 239.30
  A 2.68 2.66 -69.1 0 1 122.91 241.42
  Q 122.90 241.64 122.26 241.98
  Q 122.12 242.05 121.33 242.15
  Q 120.92 242.20 120.71 242.59
  A 1.20 0.29 -65.5 0 1 120.14 243.32
  L 118.75 243.79"
/>
<path stroke="#4f1093" vector-effect="non-scaling-stroke" d="
  M 192.46 283.50
  Q 191.01 287.36 191.50 289.25
  Q 193.26 296.08 193.80 303.09
  C 194.20 308.33 195.36 313.36 195.72 318.62
  A 1.35 1.29 -66.5 0 0 195.97 319.30
  L 196.20 319.59
  A 1.59 1.39 -65.3 0 1 196.47 320.50
  C 196.41 322.16 198.13 326.81 195.50 326.57
  A 1.76 1.53 -53.2 0 0 194.58 326.77
  C 192.18 328.03 190.30 320.69 189.44 319.27
  C 185.91 313.44 182.63 304.09 176.75 300.54"
/>
<path stroke="#888589" vector-effect="non-scaling-stroke" d="
  M 387.96 485.25
  C 379.22 490.39 369.02 496.45 367.25 506.25
  Q 365.62 515.25 363.88 521.52
  A 0.42 0.41 9.8 0 0 364.25 522.04
  C 371.94 522.54 376.55 519.91 379.51 512.69"
/>
<path stroke="#d9bfd4" vector-effect="non-scaling-stroke" d="
  M 379.51 512.69
  C 385.96 509.53 385.64 503.08 384.29 497.06
  Q 384.26 496.93 384.30 496.05
  L 384.46 492.75"
/>
<path stroke="#888589" vector-effect="non-scaling-stroke" d="
  M 384.46 492.75
  Q 384.50 491.50 385.60 491.12"
/>
<path stroke="#a6a7c0" vector-effect="non-scaling-stroke" d="
  M 385.60 491.12
  L 391.15 484.37
  Q 391.48 483.97 391.01 483.95
  Q 389.25 483.85 387.96 485.25"
/>
<path stroke="#2f2d4a" vector-effect="non-scaling-stroke" d="
  M 385.60 491.12
  C 385.58 488.29 388.61 487.18 387.96 485.25"
/>
<path stroke="#62455e" vector-effect="non-scaling-stroke" d="
  M 384.46 492.75
  C 382.11 494.91 382.99 503.68 382.78 507.01
  A 0.95 0.85 -14.3 0 1 382.30 507.73
  Q 379.55 509.29 379.51 512.69"
/>
<path stroke="#d9bfd4" vector-effect="non-scaling-stroke" d="
  M 178.75 510.75
  Q 178.43 511.36 178.95 511.51
  Q 179.63 511.71 179.83 511.87
  L 185.75 516.46"
/>
<path stroke="#84818f" vector-effect="non-scaling-stroke" d="
  M 185.75 516.46
  Q 185.98 516.52 186.04 516.75"
/>
<path stroke="#a6a7c0" vector-effect="non-scaling-stroke" d="
  M 186.04 516.75
  Q 189.19 523.81 196.99 523.50
  A 0.50 0.50 -12.0 0 0 197.44 522.82
  L 193.75 513.46"
/>
<path stroke="#a6a7c0" vector-effect="non-scaling-stroke" d="
  M 193.75 513.46
  L 192.54 509.00"
/>
<path stroke="#84818f" vector-effect="non-scaling-stroke" d="
  M 192.54 509.00
  Q 191.87 508.23 191.71 507.25"
/>
<path stroke="#a6a7c0" vector-effect="non-scaling-stroke" d="
  M 191.71 507.25
  Q 192.08 504.54 190.75 502.21"
/>
<path stroke="#84818f" vector-effect="non-scaling-stroke" d="
  M 190.75 502.21
  C 189.77 497.64 180.33 489.93 177.93 488.11"
/>
<path stroke="#d9bfd4" vector-effect="non-scaling-stroke" d="
  M 177.93 488.11
  Q 174.90 485.65 170.73 485.09
  A 0.20 0.16 8.0 0 0 170.51 485.22
  L 170.49 485.38
  A 0.53 0.32 16.8 0 0 170.86 485.79
  C 181.16 489.63 172.66 508.46 178.75 510.75"
/>
<path stroke="#5d4164" vector-effect="non-scaling-stroke" d="
  M 177.93 488.11
  Q 176.77 491.41 177.55 494.55
  Q 178.39 497.94 178.43 498.96
  Q 178.55 502.23 178.46 505.50"
/>
<path stroke="#79418e" vector-effect="non-scaling-stroke" d="
  M 178.46 505.50
  Q 177.97 506.06 177.95 506.76
  A 1.22 1.16 68.1 0 1 177.62 507.59
  Q 176.66 508.60 177.96 509.50"
/>
<path stroke="#5d4164" vector-effect="non-scaling-stroke" d="
  M 177.96 509.50
  L 178.75 510.75"
/>
<path stroke="#2a2950" vector-effect="non-scaling-stroke" d="
  M 190.75 502.21
  L 191.71 507.25"
/>
<path stroke="#2a2950" vector-effect="non-scaling-stroke" d="
  M 192.54 509.00
  Q 192.32 511.76 193.46 514.25"
/>
<path stroke="#2a2950" vector-effect="non-scaling-stroke" d="
  M 193.46 514.25
  Q 193.79 517.54 195.26 520.51
  A 1.03 1.02 -18.2 0 1 194.52 521.97
  C 191.14 522.57 187.84 519.17 186.04 516.75"
/>
<path stroke="#5d4164" vector-effect="non-scaling-stroke" d="
  M 185.75 516.46
  Q 183.37 512.23 178.75 510.75"
/>
<path stroke="#24034a" vector-effect="non-scaling-stroke" d="
  M 177.96 509.50
  Q 178.91 507.63 178.46 505.50"
/>
<path stroke="#4c4f80" vector-effect="non-scaling-stroke" d="
  M 193.75 513.46
  Q 193.37 513.73 193.46 514.25"
/>
<path stroke="#2f2d4a" vector-effect="non-scaling-stroke" d="
  M 377.16 500.39
  C 375.43 498.73 375.22 505.33 375.43 506.21
  A 0.69 0.67 84.3 0 0 376.06 506.74
  Q 377.45 506.79 377.15 505.48
  Q 377.07 505.12 377.14 504.51
  L 377.52 501.26
  A 1.15 0.89 29.6 0 0 377.16 500.39"
/>
</g>
<path fill="#ffffff" d="
  M 297.50 668.71
  Q 297.03 667.35 295.50 667.79
  Q 288.25 664.58 283.50 658.21
  L 284.04 650.00
  C 284.29 647.37 284.60 645.29 285.51 642.79
  C 286.04 641.34 284.90 638.31 287.75 639.04
  Q 289.00 640.90 290.44 640.44
  Q 298.48 637.83 305.65 630.37
  Q 313.50 625.00 318.69 616.94
  Q 319.48 615.70 318.25 616.50
  Q 305.89 624.52 292.81 631.31
  Q 286.14 634.78 281.54 639.43
  Q 269.61 631.30 256.85 624.62
  Q 250.27 621.18 244.60 616.38
  C 242.93 614.97 243.74 616.60 244.00 616.91
  C 252.51 626.86 263.55 637.09 276.01 641.70
  Q 277.72 642.33 278.71 644.00
  C 279.78 649.17 279.74 654.55 276.30 658.92
  Q 272.77 663.41 268.20 666.95
  Q 262.71 669.57 256.67 671.10
  C 254.83 671.57 252.58 672.94 250.00 672.74
  Q 240.74 672.02 233.01 666.95
  C 225.41 661.97 216.17 667.84 208.83 670.97
  A 1.13 1.13 -33.8 0 1 207.58 670.72
  C 203.39 666.43 196.96 666.23 191.65 667.64
  Q 189.95 668.10 188.95 666.64
  C 181.16 655.26 163.79 645.28 151.82 638.75
  C 149.56 637.52 148.47 635.68 147.90 633.40
  A 3.23 3.23 4.6 0 0 146.04 631.22
  C 142.05 629.50 137.96 629.29 134.67 627.84
  Q 129.24 625.45 124.82 622.27
  A 2.07 2.06 25.3 0 1 124.03 620.07
  C 125.33 615.04 126.20 610.49 128.16 606.21
  C 129.51 603.24 130.30 599.39 126.74 597.69
  Q 119.74 594.35 111.99 593.78
  C 111.22 593.73 109.93 592.94 111.37 592.31
  Q 112.50 591.81 113.74 591.89
  C 117.38 592.15 128.44 592.12 130.09 588.74
  Q 130.93 587.04 129.06 585.44
  Q 121.51 578.95 118.41 575.79
  A 0.72 0.72 34.5 0 1 118.26 574.99
  Q 126.11 556.66 133.29 538.06
  C 136.84 528.86 142.30 520.94 147.25 512.50
  Q 148.90 509.69 147.06 507.68
  Q 140.25 500.26 134.44 496.56
  C 131.63 494.78 133.35 493.68 134.51 491.86
  C 145.53 474.63 154.15 456.20 165.37 439.10
  C 170.10 431.90 170.21 425.77 170.04 416.75
  Q 169.80 404.22 171.06 395.31
  C 171.72 390.68 173.13 383.80 170.86 380.04
  Q 165.39 370.92 160.28 361.27
  A 0.85 0.79 -19.9 0 1 160.87 360.12
  L 166.32 358.81
  A 1.39 1.21 76.5 0 0 167.17 357.17
  C 165.32 349.73 157.72 339.88 152.92 333.87
  C 136.29 313.05 117.54 293.83 99.42 274.32
  C 94.50 269.03 89.64 261.09 83.63 257.23
  A 2.98 2.98 15.8 0 1 82.26 254.78
  C 82.18 251.50 81.04 249.57 80.08 246.80
  C 70.37 218.62 63.32 190.27 56.66 161.26
  Q 47.48 121.26 44.72 80.25
  C 42.96 54.21 42.04 38.79 43.84 18.01
  Q 44.18 14.02 46.67 11.69
  A 1.84 1.83 37.4 0 1 48.80 11.41
  Q 69.49 22.64 86.92 37.56
  Q 117.38 63.65 146.38 91.37
  Q 164.26 108.46 189.06 135.69
  C 209.91 158.57 226.68 175.23 237.03 200.67
  Q 240.20 208.46 243.13 219.70
  Q 250.24 246.99 252.50 277.50
  Q 253.73 294.15 254.25 302.53
  Q 254.51 306.64 255.40 310.86
  C 256.57 316.37 256.32 321.50 258.10 325.48
  A 0.79 0.79 77.8 0 0 258.82 325.95
  L 269.19 325.94
  Q 270.28 325.93 272.25 323.75
  Q 272.82 323.12 272.00 322.71
  L 272.00 322.29
  C 279.77 320.65 287.15 320.87 295.06 320.98
  C 297.55 321.02 300.02 320.43 300.00 324.00
  C 299.98 327.63 305.87 327.86 308.75 328.58
  A 0.47 0.47 9.6 0 0 309.33 328.17
  C 311.96 298.93 313.07 270.41 316.68 241.67
  Q 318.53 226.95 319.54 221.88
  C 323.63 201.41 332.32 185.64 345.24 169.46
  Q 373.33 134.29 405.71 102.95
  C 432.72 76.81 461.60 50.09 491.53 26.30
  Q 503.13 17.08 516.58 10.18
  A 0.99 0.99 61.5 0 1 517.89 10.57
  C 519.22 12.90 520.15 15.17 520.53 17.97
  Q 522.46 32.13 522.00 50.00
  Q 521.22 80.09 517.74 110.00
  C 512.82 152.31 501.29 193.44 488.50 234.75
  C 486.10 242.50 483.85 251.89 479.14 257.91
  C 460.74 281.42 440.59 298.65 419.31 321.81
  C 411.77 330.03 405.22 340.67 401.06 351.06
  Q 400.04 353.63 402.75 353.00
  L 406.01 352.25
  Q 406.92 352.04 406.46 352.82
  Q 400.21 363.43 393.78 374.02
  C 391.26 378.17 392.13 380.97 392.33 385.45
  Q 393.08 402.22 393.02 419.00
  C 393.00 427.09 394.14 433.23 398.14 440.64
  Q 401.99 447.79 405.28 455.20
  Q 414.78 476.60 429.44 495.39
  A 0.97 0.96 51.7 0 1 429.29 496.73
  Q 422.89 501.88 418.19 507.44
  Q 415.88 510.17 417.28 513.21
  C 424.91 529.78 433.34 546.28 438.74 563.75
  Q 439.57 566.45 442.24 569.47
  A 1.78 1.78 -67.3 0 1 442.69 570.57
  C 442.86 573.96 443.35 578.02 441.44 580.82
  C 440.34 582.43 434.16 587.13 438.05 588.93
  C 440.45 590.04 442.45 591.19 445.21 591.31
  A 1.03 1.02 -84.2 0 1 446.17 592.50
  C 445.57 596.24 440.64 597.63 437.64 599.20
  A 1.05 0.97 -10.2 0 0 437.09 599.93
  Q 436.74 602.06 437.55 604.05
  A 0.97 0.77 56.3 0 1 437.48 604.93
  L 434.24 609.13
  Q 432.80 610.99 432.94 612.84
  C 433.52 621.07 432.98 627.49 424.18 630.40
  Q 412.62 634.21 404.34 642.89
  C 400.99 646.40 394.25 648.24 389.83 650.35
  C 385.04 652.64 381.32 656.34 376.91 659.46
  A 1.13 1.10 -55.7 0 1 376.02 659.64
  Q 367.52 657.68 358.80 657.26
  C 355.37 657.09 354.83 658.39 352.44 660.44
  Q 343.93 667.72 333.84 672.62
  C 327.04 675.91 305.10 670.82 297.50 668.71
  Z
  M 415.71 158.50
  Q 396.48 181.96 380.94 207.99
  Q 379.55 210.32 379.17 213.00
  Q 377.63 223.93 377.05 235.04
  L 375.04 262.50
  L 366.75 328.96
  Q 365.48 334.41 365.29 340.00
  Q 364.38 343.16 364.53 345.76
  Q 364.64 347.72 365.43 345.95
  L 373.04 329.00
  C 380.79 311.74 387.78 297.77 400.49 284.88
  C 415.12 270.04 431.58 255.83 447.39 242.23
  C 450.82 239.28 452.04 233.48 453.31 229.06
  C 460.36 204.52 466.43 181.87 472.61 159.35
  Q 481.12 128.37 484.27 96.37
  C 484.59 93.12 485.39 90.21 486.08 87.06
  Q 486.19 86.56 485.85 86.94
  Q 481.95 91.36 477.65 95.40
  Q 453.36 118.22 429.94 141.94
  Q 423.99 147.96 415.71 158.50
  Z
  M 118.75 243.79
  Q 122.76 247.13 128.44 252.81
  Q 137.14 261.52 164.70 287.05
  Q 171.37 293.23 176.75 300.54
  Q 186.67 315.64 191.19 327.56
  Q 196.53 341.66 199.22 347.36
  A 0.68 0.62 70.7 0 0 199.93 347.74
  C 202.05 347.30 202.61 345.82 202.13 343.74
  C 197.41 323.53 195.81 308.93 192.46 283.50
  C 189.83 255.68 189.20 237.67 185.80 215.06
  C 184.98 209.57 182.24 205.45 179.21 201.04
  C 164.94 180.30 149.59 159.06 132.56 140.51
  Q 109.48 116.28 85.16 93.35
  Q 82.44 90.78 80.31 87.84
  Q 79.36 86.52 79.49 88.14
  Q 82.53 126.46 92.45 163.42
  C 97.81 183.37 102.91 203.38 108.01 223.39
  C 109.84 230.55 111.81 239.77 118.75 243.79
  Z
  M 387.96 485.25
  C 379.22 490.39 369.02 496.45 367.25 506.25
  Q 365.62 515.25 363.88 521.52
  A 0.42 0.41 9.8 0 0 364.25 522.04
  C 371.94 522.54 376.55 519.91 379.51 512.69
  C 385.96 509.53 385.64 503.08 384.29 497.06
  Q 384.26 496.93 384.30 496.05
  L 384.46 492.75
  Q 384.50 491.50 385.60 491.12
  L 391.15 484.37
  Q 391.48 483.97 391.01 483.95
  Q 389.25 483.85 387.96 485.25
  Z
  M 178.75 510.75
  Q 178.43 511.36 178.95 511.51
  Q 179.63 511.71 179.83 511.87
  L 185.75 516.46
  Q 185.98 516.52 186.04 516.75
  Q 189.19 523.81 196.99 523.50
  A 0.50 0.50 -12.0 0 0 197.44 522.82
  L 193.75 513.46
  L 192.54 509.00
  Q 191.87 508.23 191.71 507.25
  Q 192.08 504.54 190.75 502.21
  C 189.77 497.64 180.33 489.93 177.93 488.11
  Q 174.90 485.65 170.73 485.09
  A 0.20 0.16 8.0 0 0 170.51 485.22
  L 170.49 485.38
  A 0.53 0.32 16.8 0 0 170.86 485.79
  C 181.16 489.63 172.66 508.46 178.75 510.75
  Z"
/>
<path fill="#3f0374" d="
  M 373.04 329.00
  C 370.34 327.28 371.19 319.23 372.00 317.25
  C 373.53 313.52 372.43 311.61 372.57 308.64
  Q 372.84 302.76 373.76 295.79
  Q 373.86 295.06 373.60 294.37
  Q 373.00 292.82 374.39 291.35
  A 1.33 1.22 -24.6 0 0 374.75 290.50
  C 374.85 288.02 376.26 286.72 376.52 284.50
  Q 376.93 281.05 376.89 277.58
  C 376.84 273.13 377.71 268.77 377.52 264.25
  A 1.54 1.14 -73.7 0 0 377.19 263.35
  Q 376.37 262.49 375.04 262.50
  L 377.05 235.04
  Q 378.76 232.50 379.06 229.56
  C 379.56 224.59 380.14 221.14 380.00 216.25
  Q 379.87 211.49 383.41 207.61
  Q 383.73 207.26 383.85 206.76
  Q 384.36 204.62 386.15 203.34
  A 1.78 1.69 -7.5 0 0 386.75 202.60
  Q 387.66 200.49 390.69 195.69
  C 394.99 188.87 400.09 182.58 404.25 175.75
  Q 407.87 169.81 414.81 162.56
  Q 416.12 161.19 415.71 158.50
  Q 423.99 147.96 429.94 141.94
  Q 453.36 118.22 477.65 95.40
  Q 481.95 91.36 485.85 86.94
  Q 486.19 86.56 486.08 87.06
  C 485.39 90.21 484.59 93.12 484.27 96.37
  Q 481.12 128.37 472.61 159.35
  C 466.43 181.87 460.36 204.52 453.31 229.06
  C 452.04 233.48 450.82 239.28 447.39 242.23
  C 431.58 255.83 415.12 270.04 400.49 284.88
  C 387.78 297.77 380.79 311.74 373.04 329.00
  Z"
/>
<path fill="#2d0256" d="
  M 132.56 140.51
  Q 127.45 138.75 123.93 134.92
  C 119.35 129.94 114.13 126.02 109.11 121.52
  C 106.99 119.62 106.46 117.86 102.98 118.25
  A 1.36 1.36 -18.7 0 1 101.66 117.60
  Q 99.30 113.63 94.75 112.00
  Q 92.72 111.27 94.25 108.50
  Q 94.90 107.33 93.98 106.90
  A 1.29 0.98 -39.1 0 0 93.04 106.93
  Q 88.75 108.75 88.74 113.50
  Q 88.74 113.96 88.53 114.46
  C 87.68 116.55 88.79 117.70 89.18 119.30
  Q 91.68 129.58 93.48 140.00
  C 94.22 144.25 95.80 148.43 96.59 152.39
  C 98.34 161.18 101.44 170.41 103.18 178.27
  C 107.07 195.76 111.11 213.27 116.54 230.75
  Q 116.86 231.77 117.06 232.82
  Q 117.58 235.55 121.97 239.30
  A 2.68 2.66 -69.1 0 1 122.91 241.42
  Q 122.90 241.64 122.26 241.98
  Q 122.12 242.05 121.33 242.15
  Q 120.92 242.20 120.71 242.59
  A 1.20 0.29 -65.5 0 1 120.14 243.32
  L 118.75 243.79
  C 111.81 239.77 109.84 230.55 108.01 223.39
  C 102.91 203.38 97.81 183.37 92.45 163.42
  Q 82.53 126.46 79.49 88.14
  Q 79.36 86.52 80.31 87.84
  Q 82.44 90.78 85.16 93.35
  Q 109.48 116.28 132.56 140.51
  Z"
/>
<path fill="#3c056d" d="
  M 132.56 140.51
  C 149.59 159.06 164.94 180.30 179.21 201.04
  C 182.24 205.45 184.98 209.57 185.80 215.06
  C 189.20 237.67 189.83 255.68 192.46 283.50
  Q 191.01 287.36 191.50 289.25
  Q 193.26 296.08 193.80 303.09
  C 194.20 308.33 195.36 313.36 195.72 318.62
  A 1.35 1.29 -66.5 0 0 195.97 319.30
  L 196.20 319.59
  A 1.59 1.39 -65.3 0 1 196.47 320.50
  C 196.41 322.16 198.13 326.81 195.50 326.57
  A 1.76 1.53 -53.2 0 0 194.58 326.77
  C 192.18 328.03 190.30 320.69 189.44 319.27
  C 185.91 313.44 182.63 304.09 176.75 300.54
  Q 171.37 293.23 164.70 287.05
  Q 137.14 261.52 128.44 252.81
  Q 122.76 247.13 118.75 243.79
  L 120.14 243.32
  A 1.20 0.29 -65.5 0 0 120.71 242.59
  Q 120.92 242.20 121.33 242.15
  Q 122.12 242.05 122.26 241.98
  Q 122.90 241.64 122.91 241.42
  A 2.68 2.66 -69.1 0 0 121.97 239.30
  Q 117.58 235.55 117.06 232.82
  Q 116.86 231.77 116.54 230.75
  C 111.11 213.27 107.07 195.76 103.18 178.27
  C 101.44 170.41 98.34 161.18 96.59 152.39
  C 95.80 148.43 94.22 144.25 93.48 140.00
  Q 91.68 129.58 89.18 119.30
  C 88.79 117.70 87.68 116.55 88.53 114.46
  Q 88.74 113.96 88.74 113.50
  Q 88.75 108.75 93.04 106.93
  A 1.29 0.98 -39.1 0 1 93.98 106.90
  Q 94.90 107.33 94.25 108.50
  Q 92.72 111.27 94.75 112.00
  Q 99.30 113.63 101.66 117.60
  A 1.36 1.36 -18.7 0 0 102.98 118.25
  C 106.46 117.86 106.99 119.62 109.11 121.52
  C 114.13 126.02 119.35 129.94 123.93 134.92
  Q 127.45 138.75 132.56 140.51
  Z"
/>
<path fill="#1a063d" d="
  M 415.71 158.50
  Q 416.12 161.19 414.81 162.56
  Q 407.87 169.81 404.25 175.75
  C 400.09 182.58 394.99 188.87 390.69 195.69
  Q 387.66 200.49 386.75 202.60
  A 1.78 1.69 -7.5 0 1 386.15 203.34
  Q 384.36 204.62 383.85 206.76
  Q 383.73 207.26 383.41 207.61
  Q 379.87 211.49 380.00 216.25
  C 380.14 221.14 379.56 224.59 379.06 229.56
  Q 378.76 232.50 377.05 235.04
  Q 377.63 223.93 379.17 213.00
  Q 379.55 210.32 380.94 207.99
  Q 396.48 181.96 415.71 158.50
  Z"
/>
<path fill="#7019b6" d="
  M 375.04 262.50
  Q 376.37 262.49 377.19 263.35
  A 1.54 1.14 -73.7 0 1 377.52 264.25
  C 377.71 268.77 376.84 273.13 376.89 277.58
  Q 376.93 281.05 376.52 284.50
  C 376.26 286.72 374.85 288.02 374.75 290.50
  A 1.33 1.22 -24.6 0 1 374.39 291.35
  Q 373.00 292.82 373.60 294.37
  Q 373.86 295.06 373.76 295.79
  Q 372.84 302.76 372.57 308.64
  C 372.43 311.61 373.53 313.52 372.00 317.25
  C 371.19 319.23 370.34 327.28 373.04 329.00
  L 365.43 345.95
  Q 364.64 347.72 364.53 345.76
  Q 364.38 343.16 365.29 340.00
  Q 368.67 336.59 368.75 331.25
  Q 368.79 328.46 366.75 328.96
  L 375.04 262.50
  Z"
/>
<path fill="#621ab9" d="
  M 192.46 283.50
  C 195.81 308.93 197.41 323.53 202.13 343.74
  C 202.61 345.82 202.05 347.30 199.93 347.74
  A 0.68 0.62 70.7 0 1 199.22 347.36
  Q 196.53 341.66 191.19 327.56
  Q 186.67 315.64 176.75 300.54
  C 182.63 304.09 185.91 313.44 189.44 319.27
  C 190.30 320.69 192.18 328.03 194.58 326.77
  A 1.76 1.53 -53.2 0 1 195.50 326.57
  C 198.13 326.81 196.41 322.16 196.47 320.50
  A 1.59 1.39 -65.3 0 0 196.20 319.59
  L 195.97 319.30
  A 1.35 1.29 -66.5 0 1 195.72 318.62
  C 195.36 313.36 194.20 308.33 193.80 303.09
  Q 193.26 296.08 191.50 289.25
  Q 191.01 287.36 192.46 283.50
  Z"
/>
<path fill="#b27fa8" d="
  M 270.54 322.00
  Q 270.37 322.34 270.00 322.29
  Q 267.69 320.06 270.54 322.00
  Z"
/>
<path fill="#b27fa8" d="
  M 270.54 322.00
  Q 271.19 322.37 272.00 322.29
  L 272.00 322.71
  Q 270.53 323.95 270.00 322.29
  Q 270.37 322.34 270.54 322.00
  Z"
/>
<path fill="#a01ded" d="
  M 365.29 340.00
  Q 365.48 334.41 366.75 328.96
  Q 368.79 328.46 368.75 331.25
  Q 368.67 336.59 365.29 340.00
  Z"
/>
<path fill="#4c4f80" d="
  M 385.60 491.12
  C 385.58 488.29 388.61 487.18 387.96 485.25
  Q 389.25 483.85 391.01 483.95
  Q 391.48 483.97 391.15 484.37
  L 385.60 491.12
  Z"
/>
<path fill="#b27fa8" d="
  M 177.93 488.11
  Q 176.77 491.41 177.55 494.55
  Q 178.39 497.94 178.43 498.96
  Q 178.55 502.23 178.46 505.50
  Q 177.97 506.06 177.95 506.76
  A 1.22 1.16 68.1 0 1 177.62 507.59
  Q 176.66 508.60 177.96 509.50
  L 178.75 510.75
  C 172.66 508.46 181.16 489.63 170.86 485.79
  A 0.53 0.32 16.8 0 1 170.49 485.38
  L 170.51 485.22
  A 0.20 0.16 8.0 0 1 170.73 485.09
  Q 174.90 485.65 177.93 488.11
  Z"
/>
<path fill="#110b13" d="
  M 387.96 485.25
  C 388.61 487.18 385.58 488.29 385.60 491.12
  Q 384.50 491.50 384.46 492.75
  C 382.11 494.91 382.99 503.68 382.78 507.01
  A 0.95 0.85 -14.3 0 1 382.30 507.73
  Q 379.55 509.29 379.51 512.69
  C 376.55 519.91 371.94 522.54 364.25 522.04
  A 0.42 0.41 9.8 0 1 363.88 521.52
  Q 365.62 515.25 367.25 506.25
  C 369.02 496.45 379.22 490.39 387.96 485.25
  Z
  M 377.16 500.39
  C 375.43 498.73 375.22 505.33 375.43 506.21
  A 0.69 0.67 84.3 0 0 376.06 506.74
  Q 377.45 506.79 377.15 505.48
  Q 377.07 505.12 377.14 504.51
  L 377.52 501.26
  A 1.15 0.89 29.6 0 0 377.16 500.39
  Z"
/>
<path fill="#08021f" d="
  M 177.93 488.11
  C 180.33 489.93 189.77 497.64 190.75 502.21
  L 191.71 507.25
  Q 191.87 508.23 192.54 509.00
  Q 192.32 511.76 193.46 514.25
  Q 193.79 517.54 195.26 520.51
  A 1.03 1.02 -18.2 0 1 194.52 521.97
  C 191.14 522.57 187.84 519.17 186.04 516.75
  Q 185.98 516.52 185.75 516.46
  Q 183.37 512.23 178.75 510.75
  L 177.96 509.50
  Q 178.91 507.63 178.46 505.50
  Q 178.55 502.23 178.43 498.96
  Q 178.39 497.94 177.55 494.55
  Q 176.77 491.41 177.93 488.11
  Z"
/>
<path fill="#b27fa8" d="
  M 384.46 492.75
  L 384.30 496.05
  Q 384.26 496.93 384.29 497.06
  C 385.64 503.08 385.96 509.53 379.51 512.69
  Q 379.55 509.29 382.30 507.73
  A 0.95 0.85 -14.3 0 0 382.78 507.01
  C 382.99 503.68 382.11 494.91 384.46 492.75
  Z"
/>
<path fill="#4c4f80" d="
  M 375.43 506.21
  C 375.22 505.33 375.43 498.73 377.16 500.39
  A 1.15 0.89 29.6 0 1 377.52 501.26
  L 377.14 504.51
  Q 377.07 505.12 377.15 505.48
  Q 377.45 506.79 376.06 506.74
  A 0.69 0.67 84.3 0 1 375.43 506.21
  Z"
/>
<path fill="#4c4f80" d="
  M 190.75 502.21
  Q 192.08 504.54 191.71 507.25
  L 190.75 502.21
  Z"
/>
<path fill="#3f0374" d="
  M 178.46 505.50
  Q 178.91 507.63 177.96 509.50
  Q 176.66 508.60 177.62 507.59
  A 1.22 1.16 68.1 0 0 177.95 506.76
  Q 177.97 506.06 178.46 505.50
  Z"
/>
<path fill="#4c4f80" d="
  M 192.54 509.00
  L 193.75 513.46
  Q 193.37 513.73 193.46 514.25
  Q 192.32 511.76 192.54 509.00
  Z"
/>
<path fill="#b27fa8" d="
  M 178.75 510.75
  Q 183.37 512.23 185.75 516.46
  L 179.83 511.87
  Q 179.63 511.71 178.95 511.51
  Q 178.43 511.36 178.75 510.75
  Z"
/>
<path fill="#4c4f80" d="
  M 193.75 513.46
  L 197.44 522.82
  A 0.50 0.50 -12.0 0 1 196.99 523.50
  Q 189.19 523.81 186.04 516.75
  C 187.84 519.17 191.14 522.57 194.52 521.97
  A 1.03 1.02 -18.2 0 0 195.26 520.51
  Q 193.79 517.54 193.46 514.25
  Q 193.37 513.73 193.75 513.46
  Z"
/>
<path fill="#8344f2" d="
  M 281.54 639.43
  Q 281.05 640.71 280.50 640.96
  Q 279.11 642.14 278.71 644.00
  Q 277.72 642.33 276.01 641.70
  C 263.55 637.09 252.51 626.86 244.00 616.91
  C 243.74 616.60 242.93 614.97 244.60 616.38
  Q 250.27 621.18 256.85 624.62
  Q 269.61 631.30 281.54 639.43
  Z"
/>
<path fill="#7024ce" d="
  M 305.65 630.37
  L 287.75 639.04
  C 284.90 638.31 286.04 641.34 285.51 642.79
  C 284.60 645.29 284.29 647.37 284.04 650.00
  C 284.09 647.09 284.53 640.19 280.50 640.96
  Q 281.05 640.71 281.54 639.43
  Q 286.14 634.78 292.81 631.31
  Q 305.89 624.52 318.25 616.50
  Q 319.48 615.70 318.69 616.94
  Q 313.50 625.00 305.65 630.37
  Z"
/>
<path fill="#ac83e7" d="
  M 305.65 630.37
  Q 298.48 637.83 290.44 640.44
  Q 289.00 640.90 287.75 639.04
  L 305.65 630.37
  Z"
/>
<path fill="#6e27a8" d="
  M 284.04 650.00
  L 283.50 658.21
  C 280.75 657.28 278.92 657.65 276.91 659.96
  Q 273.24 664.19 268.20 666.95
  Q 272.77 663.41 276.30 658.92
  C 279.74 654.55 279.78 649.17 278.71 644.00
  Q 279.11 642.14 280.50 640.96
  C 284.53 640.19 284.09 647.09 284.04 650.00
  Z"
/>
<path fill="#ac83e7" d="
  M 295.50 667.79
  Q 297.03 667.35 297.50 668.71
  Q 296.29 668.66 295.50 667.79
  Z"
/>
</svg>
